<?xml version="1.0" encoding="utf-8"?>
<!-- Generator: Adobe Illustrator 24.2.3, SVG Export Plug-In . SVG Version: 6.00 Build 0)  -->
<svg version="1.1" id="Layer_1" xmlns="http://www.w3.org/2000/svg" xmlns:xlink="http://www.w3.org/1999/xlink" x="0px" y="0px"
	 viewBox="0 0 567.1 323.5" style="enable-background:new 0 0 567.1 323.5;" xml:space="preserve">
<style type="text/css">
	.st0{fill:none;}
	.st1{fill:#0066FF;}
	.st2{fill:none;}
	.st3{fill:none;stroke:#0066FF;stroke-width:4;stroke-miterlimit:10;}
	.st4{clip-path:url(#SVGID_2_);fill:#0066FF;}
	.st5{clip-path:url(#SVGID_4_);fill:#0066FF;}
	.st6{clip-path:url(#SVGID_6_);fill:#0066FF;}
	.st7{clip-path:url(#SVGID_8_);fill:#0066FF;}
	.st8{clip-path:url(#SVGID_10_);fill:#0066FF;}
	.st9{clip-path:url(#SVGID_12_);fill:#0066FF;}
	.st10{clip-path:url(#SVGID_14_);fill:#0066FF;}
	.st11{clip-path:url(#SVGID_16_);fill:#0066FF;}
	.st12{clip-path:url(#SVGID_18_);fill:#0066FF;}
	.st13{clip-path:url(#SVGID_20_);fill:none;stroke:#0066FF;stroke-width:3;stroke-miterlimit:10;}
	.st14{clip-path:url(#SVGID_22_);fill:none;stroke:#0066FF;stroke-width:3;stroke-miterlimit:10;}
	.st15{clip-path:url(#SVGID_24_);fill:none;stroke:#0066FF;stroke-width:3;stroke-miterlimit:10;}
	.st16{clip-path:url(#SVGID_26_);fill:none;stroke:#0066FF;stroke-width:3;stroke-miterlimit:10;}
	.st17{clip-path:url(#SVGID_28_);fill:none;stroke:#0066FF;stroke-width:3;stroke-miterlimit:10;}
	.st18{clip-path:url(#SVGID_30_);fill:none;stroke:#0066FF;stroke-width:3;stroke-miterlimit:10;}
	.st19{clip-path:url(#SVGID_32_);fill:#0066FF;}
	.st20{clip-path:url(#SVGID_34_);fill:#0066FF;}
	.st21{clip-path:url(#SVGID_36_);fill:#0066FF;}
	.st22{clip-path:url(#SVGID_38_);fill:#0066FF;}
	.st23{clip-path:url(#SVGID_40_);fill:#0066FF;}
	.st24{clip-path:url(#SVGID_42_);fill:#0066FF;}
	.st25{clip-path:url(#SVGID_44_);fill:#0066FF;}
	.st26{clip-path:url(#SVGID_46_);fill:#0066FF;}
	.st27{clip-path:url(#SVGID_48_);fill:#0066FF;}
	.st28{clip-path:url(#SVGID_50_);fill:#0066FF;}
	.st29{clip-path:url(#SVGID_52_);fill:#0066FF;}
	.st30{clip-path:url(#SVGID_54_);fill:#0066FF;}
	.st31{clip-path:url(#SVGID_56_);fill:#0066FF;}
	.st32{clip-path:url(#SVGID_58_);fill:#0066FF;}
	.st33{clip-path:url(#SVGID_60_);fill:#0066FF;}
	.st34{clip-path:url(#SVGID_62_);fill:#0066FF;}
	.st35{clip-path:url(#SVGID_64_);fill:#0066FF;}
	.st36{clip-path:url(#SVGID_66_);fill:#0066FF;}
	.st37{clip-path:url(#SVGID_68_);fill:#0066FF;}
	.st38{clip-path:url(#SVGID_70_);fill:#0066FF;}
	.st39{clip-path:url(#SVGID_72_);fill:#0066FF;}
	.st40{clip-path:url(#SVGID_74_);fill:#0066FF;}
	.st41{clip-path:url(#SVGID_76_);fill:#0066FF;}
	.st42{clip-path:url(#SVGID_78_);fill:#0066FF;}
</style>
<rect y="-0.9" class="st0" width="567.1" height="324.4"/>
<g>
	<path class="st1" d="M299.7,208.9l-6.2-20.8h-29.1l-6.2,20.8h-19l28.5-86.6h23.4l28.2,86.6H299.7z M279.2,139.2h-0.6l-9.5,32.9H289
		L279.2,139.2z"/>
	<path class="st1" d="M354.3,208.9c-6.5,0-11.3-1.5-14.5-4.7c-3.3-3.3-5-8-5-14.2v-32h-9.2v-14.2h4.4c2.4,0,4.2-0.6,5-1.8
		c0.9-1.2,1.5-3,1.5-5v-10.7h16.6V144h13.1v14.2h-13.1V195H365v14.2h-10.7V208.9z"/>
	<path class="st1" d="M400.9,208.9c-6.2,0-11-1.5-13.9-4.7c-3-3-4.4-7.4-4.4-13.3v-74.2h18.4v77.7h8.3v14.2h-8.3V208.9z"/>
	<path class="st1" d="M472.1,208.9c-3.3,0-5.9-0.9-8.3-3c-2.1-2.1-3.6-4.7-4.2-8.3h-0.9c-0.9,4.2-3.3,7.4-6.5,9.5
		c-3.3,2.1-7.7,3.3-12.5,3.3c-6.5,0-11.6-1.8-15.1-5.3c-3.6-3.6-5.3-8-5.3-13.6c0-6.8,2.4-11.9,7.4-15.4c5-3.3,11.9-5,20.5-5h10.4
		v-4.2c0-3.3-0.9-5.6-2.4-7.4c-1.8-1.8-4.4-2.7-8.3-2.7c-3.6,0-6.5,0.9-8.6,2.4c-2.1,1.5-3.9,3.3-5.3,5.3l-11-9.8
		c2.7-3.9,5.9-7.1,10.1-9.2c4.2-2.1,9.5-3.3,16.3-3.3c9.2,0,16.3,2.1,20.8,6.2c4.7,4.2,6.8,10.1,6.8,17.8v28.5h6.2v14.2L472.1,208.9
		L472.1,208.9z M446.5,197.4c3,0,5.6-0.6,8-2.1c2.1-1.2,3.3-3.6,3.3-6.5v-7.7h-8.9c-7.1,0-10.7,2.4-10.7,7.4v1.8
		c0,2.4,0.9,4.2,2.4,5.3C441.5,197.1,443.9,197.4,446.5,197.4"/>
	<path class="st1" d="M520.1,210.4c-6.2,0-11.6-0.9-16-3c-4.4-2.1-8.3-5-11.6-8.6l10.7-11c2.4,2.7,4.7,4.7,7.7,6.2
		c2.7,1.5,5.9,2.4,9.5,2.4s6.2-0.6,7.7-1.8c1.5-1.2,2.1-2.7,2.1-4.4c0-3-2.1-4.7-6.5-5.3l-7.1-0.9c-14.5-1.8-22-8.6-22-20.2
		c0-3.3,0.6-5.9,1.8-8.6c1.2-2.7,3-4.7,5-6.8c2.1-1.8,4.7-3.3,8-4.4c3-0.9,6.5-1.5,10.4-1.5c3.3,0,6.5,0.3,8.9,0.6
		c2.7,0.6,5,1.2,6.8,2.1c2.1,0.9,3.9,2.1,5.6,3.3c1.8,1.2,3.3,2.7,5,4.2l-10.7,10.7c-2.1-2.1-4.4-3.6-7.1-5c-2.7-1.2-5.3-1.8-8-1.8
		c-3.3,0-5.3,0.6-6.8,1.5c-1.2,0.9-2.1,2.4-2.1,3.9c0,1.8,0.6,3,1.5,4.2c0.9,0.9,2.7,1.8,5.3,2.1l7.4,0.9
		c14.2,1.8,21.4,8.3,21.4,19.6c0,3.3-0.6,5.9-2.1,8.6c-1.2,2.7-3.3,5-5.6,6.8c-2.4,2.1-5.3,3.6-8.9,4.4
		C528.1,209.8,524.3,210.4,520.1,210.4"/>
</g>
<g>
	<rect x="-6.9" y="82" class="st2" width="261.2" height="272.8"/>
	<ellipse class="st3" cx="125.4" cy="161.3" rx="76.8" ry="76.8"/>
	<g>
		<defs>
			<rect id="SVGID_1_" x="-6.9" y="82" width="261.2" height="272.8"/>
		</defs>
		<clipPath id="SVGID_2_">
			<use xlink:href="#SVGID_1_"  style="overflow:visible;"/>
		</clipPath>
		<path class="st4" d="M85.5,142.5c0,2.8-2.3,5-5,5s-5-2.3-5-5s2.3-5,5-5S85.5,139.7,85.5,142.5"/>
	</g>
	<g>
		<defs>
			<rect id="SVGID_3_" x="-6.9" y="82" width="261.2" height="272.8"/>
		</defs>
		<clipPath id="SVGID_4_">
			<use xlink:href="#SVGID_3_"  style="overflow:visible;"/>
		</clipPath>
		<path class="st5" d="M113.9,109.4c0,2.8-2.3,5-5,5c-2.8,0-5-2.3-5-5s2.3-5,5-5C111.6,104.6,113.9,106.6,113.9,109.4"/>
	</g>
	<g>
		<defs>
			<rect id="SVGID_5_" x="-6.9" y="82" width="261.2" height="272.8"/>
		</defs>
		<clipPath id="SVGID_6_">
			<use xlink:href="#SVGID_5_"  style="overflow:visible;"/>
		</clipPath>
		<path class="st6" d="M182.4,176.1c0,2.8-2.3,5-5,5s-5-2.3-5-5c0-2.8,2.3-5,5-5C180.1,171.4,182.4,173.6,182.4,176.1"/>
	</g>
	<g>
		<defs>
			<rect id="SVGID_7_" x="-6.9" y="82" width="261.2" height="272.8"/>
		</defs>
		<clipPath id="SVGID_8_">
			<use xlink:href="#SVGID_7_"  style="overflow:visible;"/>
		</clipPath>
		<path class="st7" d="M140.5,213.5c0,2.8-2.3,5-5,5c-2.8,0-5-2.3-5-5s2.3-5,5-5C138.2,208.8,140.5,210.8,140.5,213.5"/>
	</g>
	<g>
		<defs>
			<rect id="SVGID_9_" x="-6.9" y="82" width="261.2" height="272.8"/>
		</defs>
		<clipPath id="SVGID_10_">
			<use xlink:href="#SVGID_9_"  style="overflow:visible;"/>
		</clipPath>
		<path class="st8" d="M154,104.6c0,2.8-2.3,5-5,5c-2.8,0-5-2.3-5-5s2.3-5,5-5C151.8,99.6,154,101.8,154,104.6"/>
	</g>
	<g>
		<defs>
			<rect id="SVGID_11_" x="-6.9" y="82" width="261.2" height="272.8"/>
		</defs>
		<clipPath id="SVGID_12_">
			<use xlink:href="#SVGID_11_"  style="overflow:visible;"/>
		</clipPath>
		<path class="st9" d="M121.1,154.3c0,2.8-2.3,5-5,5c-2.8,0-5-2.3-5-5c0-2.8,2.3-5,5-5C118.9,149.5,121.1,151.5,121.1,154.3"/>
	</g>
	<g>
		<defs>
			<rect id="SVGID_13_" x="-6.9" y="82" width="261.2" height="272.8"/>
		</defs>
		<clipPath id="SVGID_14_">
			<use xlink:href="#SVGID_13_"  style="overflow:visible;"/>
		</clipPath>
		<path class="st10" d="M179.1,122.7c0,2.8-2.3,5-5,5c-2.8,0-5-2.3-5-5s2.3-5,5-5C176.8,117.7,179.1,119.9,179.1,122.7"/>
	</g>
	<g>
		<defs>
			<rect id="SVGID_15_" x="-6.9" y="82" width="261.2" height="272.8"/>
		</defs>
		<clipPath id="SVGID_16_">
			<use xlink:href="#SVGID_15_"  style="overflow:visible;"/>
		</clipPath>
		<path class="st11" d="M89.3,171.4c0,2.8-2.3,5-5,5c-2.8,0-5-2.3-5-5c0-2.8,2.3-5,5-5C87,166.3,89.3,168.6,89.3,171.4"/>
	</g>
	<g>
		<defs>
			<rect id="SVGID_17_" x="-6.9" y="82" width="261.2" height="272.8"/>
		</defs>
		<clipPath id="SVGID_18_">
			<use xlink:href="#SVGID_17_"  style="overflow:visible;"/>
		</clipPath>
		<path class="st12" d="M101.6,217c0,2.8-2.3,5-5,5s-5-2.3-5-5c0-2.8,2.3-5,5-5C99.6,212.3,101.6,214.5,101.6,217"/>
	</g>
	<g>
		<defs>
			<rect id="SVGID_19_" x="-6.9" y="82" width="261.2" height="272.8"/>
		</defs>
		<clipPath id="SVGID_20_">
			<use xlink:href="#SVGID_19_"  style="overflow:visible;"/>
		</clipPath>
		<path class="st13" d="M109.1,109.4c0,0,64-1.3,68.3,66.8"/>
	</g>
	<g>
		<defs>
			<rect id="SVGID_21_" x="-6.9" y="82" width="261.2" height="272.8"/>
		</defs>
		<clipPath id="SVGID_22_">
			<use xlink:href="#SVGID_21_"  style="overflow:visible;"/>
		</clipPath>
		<path class="st14" d="M116.4,154.3c0,0,39.7-6,58-31.6"/>
	</g>
	<g>
		<defs>
			<rect id="SVGID_23_" x="-6.9" y="82" width="261.2" height="272.8"/>
		</defs>
		<clipPath id="SVGID_24_">
			<use xlink:href="#SVGID_23_"  style="overflow:visible;"/>
		</clipPath>
		<path class="st15" d="M174.6,102.3c0,0,2.3-11.5-5.3-13.3c-7.5-1.8-13.6-1-20.3,15.6"/>
	</g>
	<g>
		<defs>
			<rect id="SVGID_25_" x="-6.9" y="82" width="261.2" height="272.8"/>
		</defs>
		<clipPath id="SVGID_26_">
			<use xlink:href="#SVGID_25_"  style="overflow:visible;"/>
		</clipPath>
		<path class="st16" d="M71.7,106.4c0,0-29.1-3.8-24.8,32.4c4.3,35.9,45.4,74,88.6,75c0,0,14.1,33.1,36.9,26.9
			c22.8-6.3,9.8-27.4,9.8-27.4"/>
	</g>
	<g>
		<defs>
			<rect id="SVGID_27_" x="-6.9" y="82" width="261.2" height="272.8"/>
		</defs>
		<clipPath id="SVGID_28_">
			<use xlink:href="#SVGID_27_"  style="overflow:visible;"/>
		</clipPath>
		<path class="st17" d="M80.5,142.5c0,0-34.6,7.8-35.1,41.2C44.8,217,77,221.1,77,221.1"/>
	</g>
	<g>
		<defs>
			<rect id="SVGID_29_" x="-6.9" y="82" width="261.2" height="272.8"/>
		</defs>
		<clipPath id="SVGID_30_">
			<use xlink:href="#SVGID_29_"  style="overflow:visible;"/>
		</clipPath>
		<path class="st18" d="M84.2,171.4c0,0-5.8,26.6,12.3,45.9"/>
	</g>
	<g>
		<defs>
			<rect id="SVGID_31_" x="-6.9" y="82" width="261.2" height="272.8"/>
		</defs>
		<clipPath id="SVGID_32_">
			<use xlink:href="#SVGID_31_"  style="overflow:visible;"/>
		</clipPath>
		<path class="st19" d="M0.4,396c-0.8,0-1.3,0-1.8-0.3s-1-0.5-1.3-0.8s-0.5-0.8-0.8-1.3c-0.3-0.5-0.5-1-0.5-1.5s-0.3-1-0.3-1.5
			c0-0.8,0-1.3,0.3-2c0.3-0.8,0.5-1.3,0.8-1.8c0.3-0.5,0.8-1,1.5-1.3c0.5-0.3,1.3-0.5,2-0.5c1,0,1.8,0.3,2.3,0.8
			c0.8,0.5,1,1,1.3,1.5l-1.8,0.8c-0.3-0.5-0.5-0.8-1-1c-0.3-0.3-0.8-0.3-1.3-0.3s-0.8,0-1.3,0.3c-0.3,0.3-0.5,0.5-0.8,1
			s-0.3,0.8-0.5,1.3c0,0.5-0.3,0.8-0.3,1.3c0,1,0.3,1.8,0.8,2.5c0.5,0.8,1,1,2,1c0.8,0,1.5-0.5,2-1.3l2,0.5
			C3.4,395.2,2.2,396,0.4,396"/>
	</g>
	<g>
		<defs>
			<rect id="SVGID_33_" x="-6.9" y="82" width="261.2" height="272.8"/>
		</defs>
		<clipPath id="SVGID_34_">
			<use xlink:href="#SVGID_33_"  style="overflow:visible;"/>
		</clipPath>
		<path class="st20" d="M10.2,396c-0.8,0-1.3,0-1.8-0.3s-1-0.5-1.3-0.8s-0.8-0.8-1-1.3c-0.3-0.5-0.5-1-0.5-1.5s-0.3-1-0.3-1.5
			c0-0.5,0-1,0.3-1.5c0-0.5,0.3-1,0.5-1.5c0.3-0.5,0.5-1,1-1.3c0.3-0.3,0.8-0.8,1.3-0.8c0.5-0.3,1.3-0.3,1.8-0.3
			c0.8,0,1.5,0.3,2.3,0.5c0.5,0.3,1,0.8,1.5,1.3c0.3,0.5,0.5,1,0.8,1.8c0.3,0.5,0.3,1.3,0.3,2c0,0.8,0,1.3-0.3,2
			c-0.3,0.5-0.5,1.3-0.8,1.8c-0.3,0.5-0.8,1-1.5,1.3C11.7,395.7,11,396,10.2,396 M10.2,394.2c0.5,0,1,0,1.3-0.3
			c0.3-0.3,0.8-0.5,0.8-1c0.3-0.5,0.3-0.8,0.5-1.3c0-0.5,0.3-0.8,0.3-1.3c0-0.5,0-1-0.3-1.3c0-0.5-0.3-0.8-0.5-1.3
			c-0.3-0.3-0.5-0.8-0.8-1c-0.3-0.3-0.8-0.3-1.3-0.3c-0.8,0-1.3,0.3-1.5,0.5c-0.5,0.5-0.8,1-1,1.5c-0.3,0.5-0.3,1-0.3,1.8
			c0,0.5,0,1,0.3,1.3c0,0.5,0.3,0.8,0.5,1.3c0.3,0.3,0.5,0.8,0.8,1S9.7,394.2,10.2,394.2"/>
	</g>
	<g>
		<defs>
			<rect id="SVGID_35_" x="-6.9" y="82" width="261.2" height="272.8"/>
		</defs>
		<clipPath id="SVGID_36_">
			<use xlink:href="#SVGID_35_"  style="overflow:visible;"/>
		</clipPath>
		<path class="st21" d="M25.3,395.7h-1.8l-4.5-6.8c-0.3-0.3-0.3-0.5-0.5-0.8c0,0.3,0,0.5,0,0.8v6.8h-1.8v-10.5h1.8l4.3,6.5
			c0,0.3,0.3,0.5,0.5,0.8c0-0.3,0-0.5,0-0.8v-6.5H25v10.5H25.3z"/>
	</g>
	<g>
		<defs>
			<rect id="SVGID_37_" x="-6.9" y="82" width="261.2" height="272.8"/>
		</defs>
		<clipPath id="SVGID_38_">
			<use xlink:href="#SVGID_37_"  style="overflow:visible;"/>
		</clipPath>
		<path class="st22" d="M36.1,395.7h-1.8l-4.3-6.8c-0.3-0.3-0.3-0.5-0.5-0.8c0,0.3,0,0.5,0,0.8v6.8h-1.8v-10.5h1.8l4.3,6.5
			c0,0.3,0.3,0.5,0.5,0.8c0-0.3,0-0.5,0-0.8v-6.5h1.8V395.7z"/>
	</g>
	<g>
		<defs>
			<rect id="SVGID_39_" x="-6.9" y="82" width="261.2" height="272.8"/>
		</defs>
		<clipPath id="SVGID_40_">
			<use xlink:href="#SVGID_39_"  style="overflow:visible;"/>
		</clipPath>
		<polygon class="st23" points="38.6,395.7 38.6,385.2 45.6,385.2 45.6,386.9 40.6,386.9 40.6,389.4 43.6,389.4 43.6,391.2 
			40.6,391.2 40.6,394 45.8,394 45.8,395.7 		"/>
	</g>
	<g>
		<defs>
			<rect id="SVGID_41_" x="-6.9" y="82" width="261.2" height="272.8"/>
		</defs>
		<clipPath id="SVGID_42_">
			<use xlink:href="#SVGID_41_"  style="overflow:visible;"/>
		</clipPath>
		<path class="st24" d="M51.6,396c-0.8,0-1.3,0-1.8-0.3c-0.5-0.3-1-0.5-1.3-0.8c-0.3-0.3-0.5-0.8-0.8-1.3c-0.3-0.5-0.5-1-0.5-1.5
			s-0.3-1-0.3-1.5c0-0.8,0-1.3,0.3-2c0.3-0.8,0.5-1.3,0.8-1.8c0.3-0.5,0.8-1,1.5-1.3c0.5-0.3,1.3-0.5,2-0.5c1,0,1.8,0.3,2.3,0.8
			c0.8,0.5,1,1,1.3,1.5l-1.8,0.8c-0.3-0.5-0.5-0.8-1-1c-0.3-0.3-0.8-0.3-1.3-0.3c-0.5,0-0.8,0-1.3,0.3c-0.3,0.3-0.5,0.5-0.8,1
			c-0.3,0.5-0.3,0.8-0.5,1.3c0,0.5-0.3,0.8-0.3,1.3c0,1,0.3,1.8,0.8,2.5c0.5,0.8,1,1,2,1c0.8,0,1.5-0.5,2-1.3l1.8,0.8
			C54.6,395.2,53.4,396,51.6,396"/>
	</g>
	<g>
		<defs>
			<rect id="SVGID_43_" x="-6.9" y="82" width="261.2" height="272.8"/>
		</defs>
		<clipPath id="SVGID_44_">
			<use xlink:href="#SVGID_43_"  style="overflow:visible;"/>
		</clipPath>
		<polygon class="st25" points="61.4,386.9 61.4,395.7 59.4,395.7 59.4,386.9 56.4,386.9 56.4,385.2 64.4,385.2 64.4,386.9 		"/>
	</g>
	<g>
		<defs>
			<rect id="SVGID_45_" x="-6.9" y="82" width="261.2" height="272.8"/>
		</defs>
		<clipPath id="SVGID_46_">
			<use xlink:href="#SVGID_45_"  style="overflow:visible;"/>
		</clipPath>
		<polygon class="st26" points="73.5,386.9 73.5,395.7 71.7,395.7 71.7,386.9 68.7,386.9 68.7,385.2 76.5,385.2 76.5,386.9 		"/>
	</g>
	<g>
		<defs>
			<rect id="SVGID_47_" x="-6.9" y="82" width="261.2" height="272.8"/>
		</defs>
		<clipPath id="SVGID_48_">
			<use xlink:href="#SVGID_47_"  style="overflow:visible;"/>
		</clipPath>
		<polygon class="st27" points="84.7,395.7 84.7,391.2 80.2,391.2 80.2,395.7 78.5,395.7 78.5,385.2 80.2,385.2 80.2,389.4 
			84.7,389.4 84.7,385.2 86.8,385.2 86.8,395.7 		"/>
	</g>
	<g>
		<defs>
			<rect id="SVGID_49_" x="-6.9" y="82" width="261.2" height="272.8"/>
		</defs>
		<clipPath id="SVGID_50_">
			<use xlink:href="#SVGID_49_"  style="overflow:visible;"/>
		</clipPath>
		<polygon class="st28" points="89.3,395.7 89.3,385.2 96,385.2 96,386.9 91,386.9 91,389.4 94.3,389.4 94.3,391.2 91,391.2 91,394 
			96.5,394 96.5,395.7 		"/>
	</g>
	<g>
		<defs>
			<rect id="SVGID_51_" x="-6.9" y="82" width="261.2" height="272.8"/>
		</defs>
		<clipPath id="SVGID_52_">
			<use xlink:href="#SVGID_51_"  style="overflow:visible;"/>
		</clipPath>
		<path class="st29" d="M102.3,385.2h3.3c0.8,0,1.3,0,2,0.3c0.5,0.3,1,0.5,1.5,0.8c0.5,0.3,0.8,0.8,1,1.3c0.3,0.5,0.5,1,0.5,1.5
			c0,0.5,0.3,1,0.3,1.5c0,0.5,0,1-0.3,1.5c0,0.5-0.3,1-0.5,1.5c-0.3,0.5-0.5,1-1,1.3c-0.5,0.3-0.8,0.8-1.5,0.8
			c-0.5,0.3-1.3,0.3-2,0.3h-3.3V385.2z M105.6,394c0.5,0,1,0,1.5-0.3c0.5-0.3,0.8-0.5,1-0.8s0.5-0.8,0.5-1.3c0-0.5,0.3-0.8,0.3-1.3
			c0-1-0.3-1.8-0.8-2.5c-0.5-0.8-1.3-1-2.3-1h-1.8v7.3h1.5V394z"/>
	</g>
	<g>
		<defs>
			<rect id="SVGID_53_" x="-6.9" y="82" width="261.2" height="272.8"/>
		</defs>
		<clipPath id="SVGID_54_">
			<use xlink:href="#SVGID_53_"  style="overflow:visible;"/>
		</clipPath>
		<path class="st30" d="M117.1,396c-0.8,0-1.3,0-1.8-0.3s-1-0.5-1.3-0.8s-0.8-0.8-0.8-1.3c-0.3-0.5-0.5-1-0.5-1.5s-0.3-1-0.3-1.5
			c0-0.5,0-1,0.3-1.5c0-0.5,0.3-1,0.5-1.5c0.3-0.5,0.5-1,0.8-1.3c0.3-0.3,0.8-0.8,1.3-0.8c0.5-0.3,1.3-0.3,1.8-0.3
			c0.8,0,1.5,0.3,2.3,0.5c0.5,0.3,1,0.8,1.5,1.3c0.3,0.5,0.5,1,0.8,1.8c0.3,0.5,0.3,1.3,0.3,2c0,0.8,0,1.3-0.3,2
			c-0.3,0.5-0.5,1.3-0.8,1.8c-0.3,0.5-0.8,1-1.5,1.3C118.6,395.7,117.9,396,117.1,396 M117.1,394.2c0.5,0,1,0,1.3-0.3
			c0.3-0.3,0.8-0.5,0.8-1c0.3-0.5,0.3-0.8,0.5-1.3c0-0.5,0.3-0.8,0.3-1.3c0-0.5,0-1-0.3-1.3c0-0.5-0.3-0.8-0.5-1.3
			c-0.3-0.3-0.5-0.8-0.8-1c-0.3-0.3-0.8-0.3-1.3-0.3c-0.8,0-1.3,0.3-1.5,0.5c-0.5,0.5-0.8,1-1,1.5c-0.3,0.5-0.3,1-0.3,1.8
			c0,0.5,0,1,0.3,1.3c0,0.5,0.3,0.8,0.5,1.3c0.3,0.3,0.5,0.8,0.8,1C116.1,394.2,116.6,394.2,117.1,394.2"/>
	</g>
	<g>
		<defs>
			<rect id="SVGID_55_" x="-6.9" y="82" width="261.2" height="272.8"/>
		</defs>
		<clipPath id="SVGID_56_">
			<use xlink:href="#SVGID_55_"  style="overflow:visible;"/>
		</clipPath>
		<polygon class="st31" points="127.7,386.9 127.7,395.7 125.7,395.7 125.7,386.9 122.6,386.9 122.6,385.2 130.7,385.2 130.7,386.9 
					"/>
	</g>
	<g>
		<defs>
			<rect id="SVGID_57_" x="-6.9" y="82" width="261.2" height="272.8"/>
		</defs>
		<clipPath id="SVGID_58_">
			<use xlink:href="#SVGID_57_"  style="overflow:visible;"/>
		</clipPath>
		<path class="st32" d="M135.9,396c-1,0-1.8-0.3-2.5-0.8c-0.8-0.5-1.3-1.3-1.5-2l1.8-0.5c0.3,0.5,0.5,1,1,1.3c0.5,0.3,1,0.5,1.5,0.5
			s1-0.3,1.3-0.5c0.3-0.3,0.5-0.5,0.5-1c0-0.3,0-0.3-0.3-0.5c0-0.3-0.3-0.3-0.3-0.5c0,0-0.3-0.3-0.5-0.3c-0.3,0-0.5-0.3-0.5-0.3
			c-0.3,0-0.5-0.3-0.8-0.3c-0.5-0.3-0.8-0.3-1-0.3c-0.3,0-0.5-0.3-0.8-0.5c-0.3-0.3-0.5-0.5-0.8-0.5c-0.3-0.3-0.3-0.5-0.5-0.8
			c-0.3-0.3-0.3-0.8-0.3-1c0-0.8,0.3-1.5,1-2c0.5-0.5,1.5-0.8,2.5-0.8c1,0,1.5,0.3,2.3,0.8c0.5,0.5,1,1,1.3,1.8l-1.8,0.5
			c-0.3-0.8-1-1-1.8-1c-0.5,0-0.8,0-1,0.3c-0.3,0.3-0.5,0.5-0.5,0.8s0,0.5,0.3,0.8c0.3,0.3,0.5,0.3,0.8,0.5c0.3,0,0.5,0.3,1,0.3
			c0.3,0,0.5,0.3,0.8,0.3c0.3,0,0.3,0.3,0.8,0.3c0.3,0.3,0.5,0.3,0.8,0.3c0.3,0,0.3,0.3,0.5,0.5c0.3,0.3,0.3,0.3,0.5,0.5
			c0,0.3,0.3,0.5,0.3,0.8s0,0.5,0,0.8c0,1-0.3,1.8-1,2.3C137.7,395.7,136.9,396,135.9,396"/>
	</g>
	<g>
		<defs>
			<rect id="SVGID_59_" x="-6.9" y="82" width="261.2" height="272.8"/>
		</defs>
		<clipPath id="SVGID_60_">
			<use xlink:href="#SVGID_59_"  style="overflow:visible;"/>
		</clipPath>
		<path class="st33" d="M149.7,396c-0.8,0-1.3,0-1.8-0.3s-1-0.5-1.3-0.8c-0.3-0.3-0.8-0.8-1-1.3c-0.3-0.5-0.5-1-0.5-1.5
			s-0.3-1-0.3-1.5c0-0.5,0-1,0.3-1.5c0-0.5,0.3-1,0.5-1.5c0.3-0.5,0.5-1,1-1.3c0.3-0.3,0.8-0.8,1.3-0.8c0.5-0.3,1.3-0.3,1.8-0.3
			c0.8,0,1.5,0.3,2.3,0.5c0.5,0.3,1,0.8,1.5,1.3c0.3,0.5,0.5,1,0.8,1.8c0.3,0.5,0.3,1.3,0.3,2c0,0.8,0,1.3-0.3,2
			c-0.3,0.5-0.5,1.3-0.8,1.8c-0.3,0.5-0.8,1-1.5,1.3C151.2,395.7,150.5,396,149.7,396 M149.7,394.2c0.5,0,1,0,1.3-0.3
			c0.3-0.3,0.8-0.5,0.8-1c0.3-0.5,0.3-0.8,0.5-1.3c0-0.5,0.3-0.8,0.3-1.3c0-0.5,0-1-0.3-1.3c0-0.5-0.3-0.8-0.5-1.3
			c-0.3-0.3-0.5-0.8-0.8-1c-0.3-0.3-0.8-0.3-1.3-0.3c-0.8,0-1.3,0.3-1.5,0.5c-0.5,0.5-0.8,1-1,1.5c-0.3,0.5-0.3,1-0.3,1.8
			c0,0.5,0,1,0.3,1.3c0,0.5,0.3,0.8,0.5,1.3c0.3,0.3,0.5,0.8,0.8,1C148.7,394.2,149.2,394.2,149.7,394.2"/>
	</g>
	<g>
		<defs>
			<rect id="SVGID_61_" x="-6.9" y="82" width="261.2" height="272.8"/>
		</defs>
		<clipPath id="SVGID_62_">
			<use xlink:href="#SVGID_61_"  style="overflow:visible;"/>
		</clipPath>
		<path class="st34" d="M164.8,395.7H163l-4.5-6.8c-0.3-0.3-0.3-0.5-0.5-0.8c0,0.3,0,0.5,0,0.8v6.8h-1.8v-10.5h1.8l4.3,6.5
			c0,0.3,0.3,0.5,0.5,0.8c0-0.3,0-0.5,0-0.8v-6.5h1.8v10.5H164.8z"/>
	</g>
	<g>
		<defs>
			<rect id="SVGID_63_" x="-6.9" y="82" width="261.2" height="272.8"/>
		</defs>
		<clipPath id="SVGID_64_">
			<use xlink:href="#SVGID_63_"  style="overflow:visible;"/>
		</clipPath>
		<polygon class="st35" points="173.3,395.7 173.3,391.7 169.6,385.2 171.6,385.2 174.3,389.7 176.8,385.2 179.1,385.2 175.1,391.7 
			175.1,395.7 		"/>
	</g>
	<g>
		<defs>
			<rect id="SVGID_65_" x="-6.9" y="82" width="261.2" height="272.8"/>
		</defs>
		<clipPath id="SVGID_66_">
			<use xlink:href="#SVGID_65_"  style="overflow:visible;"/>
		</clipPath>
		<path class="st36" d="M184.1,396c-0.8,0-1.3,0-1.8-0.3s-1-0.5-1.3-0.8s-0.8-0.8-1-1.3c-0.3-0.5-0.5-1-0.5-1.5s-0.3-1-0.3-1.5
			c0-0.5,0-1,0.3-1.5c0-0.5,0.3-1,0.5-1.5c0.3-0.5,0.5-1,1-1.3c0.3-0.3,0.8-0.8,1.3-0.8c0.5-0.3,1.3-0.3,1.8-0.3
			c0.8,0,1.5,0.3,2.3,0.5c0.5,0.3,1,0.8,1.5,1.3c0.3,0.5,0.5,1,0.8,1.8c0.3,0.5,0.3,1.3,0.3,2c0,0.8,0,1.3-0.3,2
			c-0.3,0.5-0.5,1.3-0.8,1.8c-0.3,0.5-0.8,1-1.5,1.3C185.6,395.7,184.9,396,184.1,396 M184.1,394.2c0.5,0,1,0,1.3-0.3
			c0.3-0.3,0.8-0.5,0.8-1c0.3-0.5,0.3-0.8,0.5-1.3c0-0.5,0.3-0.8,0.3-1.3c0-0.5,0-1-0.3-1.3c0-0.5-0.3-0.8-0.5-1.3
			c-0.3-0.3-0.5-0.8-0.8-1c-0.3-0.3-0.8-0.3-1.3-0.3c-0.8,0-1.3,0.3-1.5,0.5c-0.5,0.5-0.8,1-1,1.5c-0.3,0.5-0.3,1-0.3,1.8
			c0,0.5,0,1,0.3,1.3c0,0.5,0.3,0.8,0.5,1.3c0.3,0.3,0.5,0.8,0.8,1C183.1,394.2,183.6,394.2,184.1,394.2"/>
	</g>
	<g>
		<defs>
			<rect id="SVGID_67_" x="-6.9" y="82" width="261.2" height="272.8"/>
		</defs>
		<clipPath id="SVGID_68_">
			<use xlink:href="#SVGID_67_"  style="overflow:visible;"/>
		</clipPath>
		<path class="st37" d="M195.2,396c-0.5,0-1,0-1.5-0.3c-0.5-0.3-1-0.5-1.3-0.8c-0.5-0.3-0.8-0.8-1-1.3c-0.3-0.5-0.3-1.3-0.3-2v-6.5
			h1.8v6.5c0,1,0.3,1.5,0.5,2c0.5,0.3,1,0.5,1.8,0.5s1.3-0.3,1.8-0.5c0.5-0.3,0.5-1,0.5-2v-6.5h1.8v6.5c0,0.8,0,1.5-0.3,2
			c-0.3,0.5-0.5,1-1,1.3s-0.8,0.5-1.3,0.8C196.2,396,195.7,396,195.2,396"/>
	</g>
	<g>
		<defs>
			<rect id="SVGID_69_" x="-6.9" y="82" width="261.2" height="272.8"/>
		</defs>
		<clipPath id="SVGID_70_">
			<use xlink:href="#SVGID_69_"  style="overflow:visible;"/>
		</clipPath>
		<path class="st38" d="M201.7,395.7v-10.5h4.8c1.3,0,2,0.3,2.8,1c0.5,0.5,0.8,1.3,0.8,2.3c0,0.8-0.3,1.3-0.5,1.8
			c-0.3,0.5-1,1-1.5,1.3l2,4.3h-2l-2-4.3h-2.3v4.3L201.7,395.7L201.7,395.7z M203.4,389.9h3c0.5,0,1-0.3,1.3-0.5
			c0.3-0.3,0.5-0.8,0.5-1c0-0.5,0-0.8-0.3-1c-0.3-0.3-0.8-0.5-1.3-0.5h-3v3H203.4z"/>
	</g>
	<g>
		<defs>
			<rect id="SVGID_71_" x="-6.9" y="82" width="261.2" height="272.8"/>
		</defs>
		<clipPath id="SVGID_72_">
			<use xlink:href="#SVGID_71_"  style="overflow:visible;"/>
		</clipPath>
		<path class="st39" d="M215.7,385.2h3.3c0.8,0,1.3,0,2,0.3c0.5,0.3,1,0.5,1.5,0.8c0.5,0.3,0.8,0.8,1,1.3c0.3,0.5,0.5,1,0.5,1.5
			c0,0.5,0.3,1,0.3,1.5c0,0.5,0,1-0.3,1.5c0,0.5-0.3,1-0.5,1.5c-0.3,0.5-0.5,1-1,1.3c-0.5,0.3-0.8,0.8-1.5,0.8
			c-0.5,0.3-1.3,0.3-2,0.3h-3.3V385.2z M219.3,394c0.5,0,1,0,1.5-0.3c0.5-0.3,0.8-0.5,1-0.8c0.3-0.3,0.5-0.8,0.5-1.3
			c0-0.5,0.3-0.8,0.3-1.3c0-1-0.3-1.8-0.8-2.5c-0.5-0.8-1.3-1-2.3-1h-1.8v7.3h1.5V394z"/>
	</g>
	<g>
		<defs>
			<rect id="SVGID_73_" x="-6.9" y="82" width="261.2" height="272.8"/>
		</defs>
		<clipPath id="SVGID_74_">
			<use xlink:href="#SVGID_73_"  style="overflow:visible;"/>
		</clipPath>
		<path class="st40" d="M232.8,395.7l-0.8-2.3h-4.3l-0.8,2.3h-2l4-10.5h1.8l4,10.5H232.8z M231.3,392l-1.3-3.3
			c-0.3-0.5-0.3-0.8-0.3-1c0,0.3-0.3,0.8-0.3,1l-1.3,3.3H231.3z"/>
	</g>
	<g>
		<defs>
			<rect id="SVGID_75_" x="-6.9" y="82" width="261.2" height="272.8"/>
		</defs>
		<clipPath id="SVGID_76_">
			<use xlink:href="#SVGID_75_"  style="overflow:visible;"/>
		</clipPath>
		<polygon class="st41" points="239.3,386.9 239.3,395.7 237.3,395.7 237.3,386.9 234.3,386.9 234.3,385.2 242.3,385.2 242.3,386.9 
					"/>
	</g>
	<g>
		<defs>
			<rect id="SVGID_77_" x="-6.9" y="82" width="261.2" height="272.8"/>
		</defs>
		<clipPath id="SVGID_78_">
			<use xlink:href="#SVGID_77_"  style="overflow:visible;"/>
		</clipPath>
		<path class="st42" d="M249.9,395.7l-0.8-2.3h-4.3l-0.8,2.3h-2l4-10.5h1.8l4,10.5H249.9z M248.4,392l-1.3-3.3
			c-0.3-0.5-0.3-0.8-0.3-1c0,0.3-0.3,0.8-0.3,1l-1.3,3.3H248.4z"/>
	</g>
	<rect x="-6.9" y="82" class="st2" width="261.2" height="272.8"/>
	<rect x="-6.9" y="82" class="st2" width="261.2" height="272.8"/>
	<rect x="-6.9" y="82" class="st2" width="261.2" height="272.8"/>
	<rect x="-6.9" y="82" class="st2" width="261.2" height="272.8"/>
	<rect x="-6.9" y="82" class="st2" width="261.2" height="272.8"/>
</g>
</svg>
