<?xml version="1.0" encoding="utf-8"?>
<!-- Generator: Adobe Illustrator 24.2.3, SVG Export Plug-In . SVG Version: 6.00 Build 0)  -->
<svg version="1.1" id="Layer_1" xmlns="http://www.w3.org/2000/svg" xmlns:xlink="http://www.w3.org/1999/xlink" x="0px" y="0px"
	 viewBox="0 0 216 216" style="enable-background:new 0 0 216 216;" xml:space="preserve">
<style type="text/css">
	.st0{fill:#0066FF;}
	.st1{clip-path:url(#SVGID_2_);fill:none;stroke:#FFFFFF;stroke-width:1.8644;stroke-miterlimit:10;}
	.st2{clip-path:url(#SVGID_2_);fill:#FFFFFF;}
	.st3{clip-path:url(#SVGID_2_);fill:none;stroke:#FFFFFF;stroke-width:1.3983;stroke-miterlimit:10;}
</style>
<rect x="18.3" y="18.5" class="st0" width="179" height="179.5"/>
<g>
	<defs>
		<rect id="SVGID_1_" x="55.7" y="53.9" width="104.1" height="108.7"/>
	</defs>
	<clipPath id="SVGID_2_">
		<use xlink:href="#SVGID_1_"  style="overflow:visible;"/>
	</clipPath>
	<ellipse class="st1" cx="108.4" cy="85.5" rx="30.6" ry="30.6"/>
	<path class="st2" d="M92.5,78c0,1.1-0.9,2-2,2c-1.1,0-2-0.9-2-2c0-1.1,0.9-2,2-2C91.6,76,92.5,76.9,92.5,78"/>
	<path class="st2" d="M103.8,64.8c0,1.1-0.9,2-2,2c-1.1,0-2-0.9-2-2c0-1.1,0.9-2,2-2C102.9,62.9,103.8,63.7,103.8,64.8"/>
	<path class="st2" d="M131.1,91.4c0,1.1-0.9,2-2,2c-1.1,0-2-0.9-2-2c0-1.1,0.9-2,2-2C130.2,89.5,131.1,90.4,131.1,91.4"/>
	<path class="st2" d="M114.4,106.3c0,1.1-0.9,2-2,2c-1.1,0-2-0.9-2-2c0-1.1,0.9-2,2-2C113.5,104.4,114.4,105.2,114.4,106.3"/>
	<path class="st2" d="M119.8,62.9c0,1.1-0.9,2-2,2c-1.1,0-2-0.9-2-2c0-1.1,0.9-2,2-2C118.9,60.9,119.8,61.8,119.8,62.9"/>
	<path class="st2" d="M106.7,82.7c0,1.1-0.9,2-2,2c-1.1,0-2-0.9-2-2c0-1.1,0.9-2,2-2C105.8,80.8,106.7,81.6,106.7,82.7"/>
	<path class="st2" d="M129.8,70.1c0,1.1-0.9,2-2,2c-1.1,0-2-0.9-2-2c0-1.1,0.9-2,2-2C128.9,68.1,129.8,69,129.8,70.1"/>
	<path class="st2" d="M94,89.5c0,1.1-0.9,2-2,2c-1.1,0-2-0.9-2-2c0-1.1,0.9-2,2-2C93.1,87.5,94,88.4,94,89.5"/>
	<path class="st2" d="M98.9,107.7c0,1.1-0.9,2-2,2c-1.1,0-2-0.9-2-2c0-1.1,0.9-2,2-2C98.1,105.8,98.9,106.7,98.9,107.7"/>
	<path class="st3" d="M101.9,64.8c0,0,25.5-0.5,27.2,26.6"/>
	<path class="st3" d="M104.8,82.7c0,0,15.8-2.4,23.1-12.6"/>
	<path class="st3" d="M128,62c0,0,0.9-4.6-2.1-5.3c-3-0.7-5.4-0.4-8.1,6.2"/>
	<path class="st3" d="M87,63.6c0,0-11.6-1.5-9.9,12.9c1.7,14.3,18.1,29.5,35.3,29.9c0,0,5.6,13.2,14.7,10.7
		c9.1-2.5,3.9-10.9,3.9-10.9"/>
	<path class="st3" d="M90.5,78c0,0-13.8,3.1-14,16.4c-0.2,13.3,12.6,14.9,12.6,14.9"/>
	<path class="st3" d="M92,89.5c0,0-2.3,10.6,4.9,18.3"/>
	<path class="st2" d="M58.6,179c-0.3,0-0.5,0-0.7-0.1c-0.2-0.1-0.4-0.2-0.5-0.3c-0.1-0.1-0.2-0.3-0.3-0.5c-0.1-0.2-0.2-0.4-0.2-0.6
		c0-0.2-0.1-0.4-0.1-0.6c0-0.3,0-0.5,0.1-0.8s0.2-0.5,0.3-0.7c0.1-0.2,0.3-0.4,0.6-0.5c0.2-0.1,0.5-0.2,0.8-0.2
		c0.4,0,0.7,0.1,0.9,0.3c0.3,0.2,0.4,0.4,0.5,0.6l-0.7,0.3c-0.1-0.2-0.2-0.3-0.4-0.4c-0.1-0.1-0.3-0.1-0.5-0.1c-0.2,0-0.3,0-0.5,0.1
		c-0.1,0.1-0.2,0.2-0.3,0.4c-0.1,0.2-0.1,0.3-0.2,0.5c0,0.2-0.1,0.3-0.1,0.5c0,0.4,0.1,0.7,0.3,1c0.2,0.3,0.4,0.4,0.8,0.4
		c0.3,0,0.6-0.2,0.8-0.5L60,178C59.8,178.7,59.3,179,58.6,179"/>
	<path class="st2" d="M62.5,179c-0.3,0-0.5,0-0.7-0.1c-0.2-0.1-0.4-0.2-0.5-0.3c-0.1-0.1-0.3-0.3-0.4-0.5c-0.1-0.2-0.2-0.4-0.2-0.6
		c0-0.2-0.1-0.4-0.1-0.6c0-0.2,0-0.4,0.1-0.6c0-0.2,0.1-0.4,0.2-0.6c0.1-0.2,0.2-0.4,0.4-0.5c0.1-0.1,0.3-0.3,0.5-0.3
		c0.2-0.1,0.5-0.1,0.7-0.1c0.3,0,0.6,0.1,0.9,0.2c0.2,0.1,0.4,0.3,0.6,0.5c0.1,0.2,0.2,0.4,0.3,0.7c0.1,0.2,0.1,0.5,0.1,0.8
		c0,0.3,0,0.5-0.1,0.8c-0.1,0.2-0.2,0.5-0.3,0.7c-0.1,0.2-0.3,0.4-0.6,0.5C63.1,178.9,62.8,179,62.5,179 M62.5,178.3
		c0.2,0,0.4,0,0.5-0.1c0.1-0.1,0.3-0.2,0.3-0.4c0.1-0.2,0.1-0.3,0.2-0.5c0-0.2,0.1-0.3,0.1-0.5c0-0.2,0-0.4-0.1-0.5
		c0-0.2-0.1-0.3-0.2-0.5c-0.1-0.1-0.2-0.3-0.3-0.4c-0.1-0.1-0.3-0.1-0.5-0.1c-0.3,0-0.5,0.1-0.6,0.2c-0.2,0.2-0.3,0.4-0.4,0.6
		c-0.1,0.2-0.1,0.4-0.1,0.7c0,0.2,0,0.4,0.1,0.5c0,0.2,0.1,0.3,0.2,0.5c0.1,0.1,0.2,0.3,0.3,0.4C62.1,178.3,62.3,178.3,62.5,178.3"
		/>
	<path class="st2" d="M68.5,178.9h-0.7l-1.8-2.7c-0.1-0.1-0.1-0.2-0.2-0.3c0,0.1,0,0.2,0,0.3v2.7h-0.7v-4.2h0.7l1.7,2.6
		c0,0.1,0.1,0.2,0.2,0.3c0-0.1,0-0.2,0-0.3v-2.6h0.7V178.9z"/>
	<path class="st2" d="M72.8,178.9h-0.7l-1.7-2.7c-0.1-0.1-0.1-0.2-0.2-0.3c0,0.1,0,0.2,0,0.3v2.7h-0.7v-4.2h0.7l1.7,2.6
		c0,0.1,0.1,0.2,0.2,0.3c0-0.1,0-0.2,0-0.3v-2.6h0.7V178.9z"/>
	<polygon class="st2" points="73.8,178.9 73.8,174.7 76.6,174.7 76.6,175.4 74.6,175.4 74.6,176.4 75.8,176.4 75.8,177.1 
		74.6,177.1 74.6,178.2 76.7,178.2 76.7,178.9 	"/>
	<path class="st2" d="M79,179c-0.3,0-0.5,0-0.7-0.1c-0.2-0.1-0.4-0.2-0.5-0.3c-0.1-0.1-0.2-0.3-0.3-0.5c-0.1-0.2-0.2-0.4-0.2-0.6
		c0-0.2-0.1-0.4-0.1-0.6c0-0.3,0-0.5,0.1-0.8s0.2-0.5,0.3-0.7c0.1-0.2,0.3-0.4,0.6-0.5c0.2-0.1,0.5-0.2,0.8-0.2
		c0.4,0,0.7,0.1,0.9,0.3c0.3,0.2,0.4,0.4,0.5,0.6l-0.7,0.3c-0.1-0.2-0.2-0.3-0.4-0.4c-0.1-0.1-0.3-0.1-0.5-0.1c-0.2,0-0.3,0-0.5,0.1
		c-0.1,0.1-0.2,0.2-0.3,0.4c-0.1,0.2-0.1,0.3-0.2,0.5c0,0.2-0.1,0.3-0.1,0.5c0,0.4,0.1,0.7,0.3,1c0.2,0.3,0.4,0.4,0.8,0.4
		c0.3,0,0.6-0.2,0.8-0.5l0.7,0.3C80.2,178.7,79.7,179,79,179"/>
	<polygon class="st2" points="82.9,175.4 82.9,178.9 82.1,178.9 82.1,175.4 80.9,175.4 80.9,174.7 84.1,174.7 84.1,175.4 	"/>
	<polygon class="st2" points="87.7,175.4 87.7,178.9 87,178.9 87,175.4 85.8,175.4 85.8,174.7 88.9,174.7 88.9,175.4 	"/>
	<polygon class="st2" points="92.2,178.9 92.2,177.1 90.4,177.1 90.4,178.9 89.7,178.9 89.7,174.7 90.4,174.7 90.4,176.4 
		92.2,176.4 92.2,174.7 93,174.7 93,178.9 	"/>
	<polygon class="st2" points="94,178.9 94,174.7 96.7,174.7 96.7,175.4 94.7,175.4 94.7,176.4 96,176.4 96,177.1 94.7,177.1 
		94.7,178.2 96.9,178.2 96.9,178.9 	"/>
	<path class="st2" d="M99.2,174.7h1.3c0.3,0,0.5,0,0.8,0.1c0.2,0.1,0.4,0.2,0.6,0.3c0.2,0.1,0.3,0.3,0.4,0.5
		c0.1,0.2,0.2,0.4,0.2,0.6c0,0.2,0.1,0.4,0.1,0.6c0,0.2,0,0.4-0.1,0.6c0,0.2-0.1,0.4-0.2,0.6c-0.1,0.2-0.2,0.4-0.4,0.5
		c-0.2,0.1-0.3,0.3-0.6,0.3c-0.2,0.1-0.5,0.1-0.8,0.1h-1.3V174.7z M100.5,178.2c0.2,0,0.4,0,0.6-0.1c0.2-0.1,0.3-0.2,0.4-0.3
		c0.1-0.1,0.2-0.3,0.2-0.5c0-0.2,0.1-0.3,0.1-0.5c0-0.4-0.1-0.7-0.3-1c-0.2-0.3-0.5-0.4-0.9-0.4h-0.7v2.9H100.5z"/>
	<path class="st2" d="M105.1,179c-0.3,0-0.5,0-0.7-0.1c-0.2-0.1-0.4-0.2-0.5-0.3c-0.1-0.1-0.3-0.3-0.3-0.5c-0.1-0.2-0.2-0.4-0.2-0.6
		c0-0.2-0.1-0.4-0.1-0.6c0-0.2,0-0.4,0.1-0.6c0-0.2,0.1-0.4,0.2-0.6c0.1-0.2,0.2-0.4,0.3-0.5c0.1-0.1,0.3-0.3,0.5-0.3
		c0.2-0.1,0.5-0.1,0.7-0.1c0.3,0,0.6,0.1,0.9,0.2c0.2,0.1,0.4,0.3,0.6,0.5c0.1,0.2,0.2,0.4,0.3,0.7c0.1,0.2,0.1,0.5,0.1,0.8
		c0,0.3,0,0.5-0.1,0.8c-0.1,0.2-0.2,0.5-0.3,0.7c-0.1,0.2-0.3,0.4-0.6,0.5C105.7,178.9,105.4,179,105.1,179 M105.1,178.3
		c0.2,0,0.4,0,0.5-0.1c0.1-0.1,0.3-0.2,0.3-0.4c0.1-0.2,0.1-0.3,0.2-0.5c0-0.2,0.1-0.3,0.1-0.5c0-0.2,0-0.4-0.1-0.5
		c0-0.2-0.1-0.3-0.2-0.5c-0.1-0.1-0.2-0.3-0.3-0.4c-0.1-0.1-0.3-0.1-0.5-0.1c-0.3,0-0.5,0.1-0.6,0.2c-0.2,0.2-0.3,0.4-0.4,0.6
		c-0.1,0.2-0.1,0.4-0.1,0.7c0,0.2,0,0.4,0.1,0.5c0,0.2,0.1,0.3,0.2,0.5c0.1,0.1,0.2,0.3,0.3,0.4
		C104.7,178.3,104.9,178.3,105.1,178.3"/>
	<polygon class="st2" points="109.3,175.4 109.3,178.9 108.5,178.9 108.5,175.4 107.3,175.4 107.3,174.7 110.5,174.7 110.5,175.4 	
		"/>
	<path class="st2" d="M112.6,179c-0.4,0-0.7-0.1-1-0.3c-0.3-0.2-0.5-0.5-0.6-0.8l0.7-0.2c0.1,0.2,0.2,0.4,0.4,0.5
		c0.2,0.1,0.4,0.2,0.6,0.2c0.2,0,0.4-0.1,0.5-0.2c0.1-0.1,0.2-0.2,0.2-0.4c0-0.1,0-0.1-0.1-0.2c0-0.1-0.1-0.1-0.1-0.2
		c0,0-0.1-0.1-0.2-0.1c-0.1,0-0.2-0.1-0.2-0.1c-0.1,0-0.2-0.1-0.3-0.1c-0.2-0.1-0.3-0.1-0.4-0.1c-0.1,0-0.2-0.1-0.3-0.2
		c-0.1-0.1-0.2-0.2-0.3-0.2c-0.1-0.1-0.1-0.2-0.2-0.3c-0.1-0.1-0.1-0.3-0.1-0.4c0-0.3,0.1-0.6,0.4-0.8c0.2-0.2,0.6-0.3,1-0.3
		c0.4,0,0.6,0.1,0.9,0.3c0.2,0.2,0.4,0.4,0.5,0.7l-0.7,0.2c-0.1-0.3-0.4-0.4-0.7-0.4c-0.2,0-0.3,0-0.4,0.1c-0.1,0.1-0.2,0.2-0.2,0.3
		c0,0.1,0,0.2,0.1,0.3c0.1,0.1,0.2,0.1,0.3,0.2c0.1,0,0.2,0.1,0.4,0.1c0.1,0,0.2,0.1,0.3,0.1c0.1,0,0.1,0.1,0.3,0.1
		c0.1,0.1,0.2,0.1,0.3,0.1c0.1,0,0.1,0.1,0.2,0.2c0.1,0.1,0.1,0.1,0.2,0.2c0,0.1,0.1,0.2,0.1,0.3c0,0.1,0,0.2,0,0.3
		c0,0.4-0.1,0.7-0.4,0.9C113.3,178.9,113,179,112.6,179"/>
	<path class="st2" d="M118.1,179c-0.3,0-0.5,0-0.7-0.1s-0.4-0.2-0.5-0.3c-0.1-0.1-0.3-0.3-0.4-0.5c-0.1-0.2-0.2-0.4-0.2-0.6
		c0-0.2-0.1-0.4-0.1-0.6c0-0.2,0-0.4,0.1-0.6c0-0.2,0.1-0.4,0.2-0.6c0.1-0.2,0.2-0.4,0.4-0.5c0.1-0.1,0.3-0.3,0.5-0.3
		c0.2-0.1,0.5-0.1,0.7-0.1c0.3,0,0.6,0.1,0.9,0.2c0.2,0.1,0.4,0.3,0.6,0.5c0.1,0.2,0.2,0.4,0.3,0.7c0.1,0.2,0.1,0.5,0.1,0.8
		c0,0.3,0,0.5-0.1,0.8c-0.1,0.2-0.2,0.5-0.3,0.7c-0.1,0.2-0.3,0.4-0.6,0.5C118.7,178.9,118.4,179,118.1,179 M118.1,178.3
		c0.2,0,0.4,0,0.5-0.1c0.1-0.1,0.3-0.2,0.3-0.4c0.1-0.2,0.1-0.3,0.2-0.5c0-0.2,0.1-0.3,0.1-0.5c0-0.2,0-0.4-0.1-0.5
		c0-0.2-0.1-0.3-0.2-0.5c-0.1-0.1-0.2-0.3-0.3-0.4c-0.1-0.1-0.3-0.1-0.5-0.1c-0.3,0-0.5,0.1-0.6,0.2c-0.2,0.2-0.3,0.4-0.4,0.6
		c-0.1,0.2-0.1,0.4-0.1,0.7c0,0.2,0,0.4,0.1,0.5c0,0.2,0.1,0.3,0.2,0.5c0.1,0.1,0.2,0.3,0.3,0.4
		C117.7,178.3,117.9,178.3,118.1,178.3"/>
	<path class="st2" d="M124.1,178.9h-0.7l-1.8-2.7c-0.1-0.1-0.1-0.2-0.2-0.3c0,0.1,0,0.2,0,0.3v2.7h-0.7v-4.2h0.7l1.7,2.6
		c0,0.1,0.1,0.2,0.2,0.3c0-0.1,0-0.2,0-0.3v-2.6h0.7V178.9z"/>
	<polygon class="st2" points="127.5,178.9 127.5,177.3 126,174.7 126.8,174.7 127.9,176.5 128.9,174.7 129.8,174.7 128.2,177.3 
		128.2,178.9 	"/>
	<path class="st2" d="M131.8,179c-0.3,0-0.5,0-0.7-0.1c-0.2-0.1-0.4-0.2-0.5-0.3c-0.1-0.1-0.3-0.3-0.4-0.5c-0.1-0.2-0.2-0.4-0.2-0.6
		c0-0.2-0.1-0.4-0.1-0.6c0-0.2,0-0.4,0.1-0.6c0-0.2,0.1-0.4,0.2-0.6c0.1-0.2,0.2-0.4,0.4-0.5c0.1-0.1,0.3-0.3,0.5-0.3
		c0.2-0.1,0.5-0.1,0.7-0.1c0.3,0,0.6,0.1,0.9,0.2c0.2,0.1,0.4,0.3,0.6,0.5c0.1,0.2,0.2,0.4,0.3,0.7c0.1,0.2,0.1,0.5,0.1,0.8
		c0,0.3,0,0.5-0.1,0.8c-0.1,0.2-0.2,0.5-0.3,0.7c-0.1,0.2-0.3,0.4-0.6,0.5C132.4,178.9,132.1,179,131.8,179 M131.8,178.3
		c0.2,0,0.4,0,0.5-0.1c0.1-0.1,0.3-0.2,0.3-0.4c0.1-0.2,0.1-0.3,0.2-0.5c0-0.2,0.1-0.3,0.1-0.5c0-0.2,0-0.4-0.1-0.5
		c0-0.2-0.1-0.3-0.2-0.5c-0.1-0.1-0.2-0.3-0.3-0.4c-0.1-0.1-0.3-0.1-0.5-0.1c-0.3,0-0.5,0.1-0.6,0.2c-0.2,0.2-0.3,0.4-0.4,0.6
		c-0.1,0.2-0.1,0.4-0.1,0.7c0,0.2,0,0.4,0.1,0.5c0,0.2,0.1,0.3,0.2,0.5c0.1,0.1,0.2,0.3,0.3,0.4
		C131.4,178.3,131.6,178.3,131.8,178.3"/>
	<path class="st2" d="M136.2,179c-0.2,0-0.4,0-0.6-0.1c-0.2-0.1-0.4-0.2-0.5-0.3c-0.2-0.1-0.3-0.3-0.4-0.5c-0.1-0.2-0.1-0.5-0.1-0.8
		v-2.6h0.7v2.6c0,0.4,0.1,0.6,0.2,0.8c0.2,0.1,0.4,0.2,0.7,0.2c0.3,0,0.5-0.1,0.7-0.2c0.2-0.1,0.2-0.4,0.2-0.8v-2.6h0.7v2.6
		c0,0.3,0,0.6-0.1,0.8c-0.1,0.2-0.2,0.4-0.4,0.5c-0.2,0.1-0.3,0.2-0.5,0.3C136.6,179,136.4,179,136.2,179"/>
	<path class="st2" d="M138.8,178.9v-4.2h1.9c0.5,0,0.8,0.1,1.1,0.4c0.2,0.2,0.3,0.5,0.3,0.9c0,0.3-0.1,0.5-0.2,0.7
		c-0.1,0.2-0.4,0.4-0.6,0.5l0.8,1.7h-0.8l-0.8-1.7h-0.9v1.7H138.8z M139.5,176.6h1.2c0.2,0,0.4-0.1,0.5-0.2c0.1-0.1,0.2-0.3,0.2-0.4
		c0-0.2,0-0.3-0.1-0.4c-0.1-0.1-0.3-0.2-0.5-0.2h-1.2V176.6z"/>
	<path class="st2" d="M144.4,174.7h1.3c0.3,0,0.5,0,0.8,0.1c0.2,0.1,0.4,0.2,0.6,0.3c0.2,0.1,0.3,0.3,0.4,0.5
		c0.1,0.2,0.2,0.4,0.2,0.6c0,0.2,0.1,0.4,0.1,0.6c0,0.2,0,0.4-0.1,0.6c0,0.2-0.1,0.4-0.2,0.6c-0.1,0.2-0.2,0.4-0.4,0.5
		c-0.2,0.1-0.3,0.3-0.6,0.3c-0.2,0.1-0.5,0.1-0.8,0.1h-1.3V174.7z M145.8,178.2c0.2,0,0.4,0,0.6-0.1c0.2-0.1,0.3-0.2,0.4-0.3
		c0.1-0.1,0.2-0.3,0.2-0.5c0-0.2,0.1-0.3,0.1-0.5c0-0.4-0.1-0.7-0.3-1c-0.2-0.3-0.5-0.4-0.9-0.4h-0.7v2.9H145.8z"/>
	<path class="st2" d="M151.2,178.9l-0.3-0.9h-1.7l-0.3,0.9h-0.8l1.6-4.2h0.7l1.6,4.2H151.2z M150.6,177.4l-0.5-1.3
		c-0.1-0.2-0.1-0.3-0.1-0.4c0,0.1-0.1,0.3-0.1,0.4l-0.5,1.3H150.6z"/>
	<polygon class="st2" points="153.8,175.4 153.8,178.9 153,178.9 153,175.4 151.8,175.4 151.8,174.7 155,174.7 155,175.4 	"/>
	<path class="st2" d="M158,178.9l-0.3-0.9H156l-0.3,0.9h-0.8l1.6-4.2h0.7l1.6,4.2H158z M157.4,177.4l-0.5-1.3
		c-0.1-0.2-0.1-0.3-0.1-0.4c0,0.1-0.1,0.3-0.1,0.4l-0.5,1.3H157.4z"/>
	<path class="st2" d="M76.1,161.5l-2.1-7h-9.8l-2.1,7h-6.4l9.6-29.2h7.9l9.5,29.2H76.1z M69.2,138H69l-3.2,11.1h6.7L69.2,138z"/>
	<path class="st2" d="M94.5,161.5c-2.2,0-3.8-0.5-4.9-1.6c-1.1-1.1-1.7-2.7-1.7-4.8v-10.8h-3.1v-4.8h1.5c0.8,0,1.4-0.2,1.7-0.6
		c0.3-0.4,0.5-1,0.5-1.7v-3.6h5.6v6h4.4v4.8h-4.4v12.4h4v4.8H94.5z"/>
	<path class="st2" d="M110.2,161.5c-2.1,0-3.7-0.5-4.7-1.6c-1-1-1.5-2.5-1.5-4.5v-25h6.2v26.2h2.8v4.8H110.2z"/>
	<path class="st2" d="M134.2,161.5c-1.1,0-2-0.3-2.8-1c-0.7-0.7-1.2-1.6-1.4-2.8h-0.3c-0.3,1.4-1.1,2.5-2.2,3.2
		c-1.1,0.7-2.6,1.1-4.2,1.1c-2.2,0-3.9-0.6-5.1-1.8c-1.2-1.2-1.8-2.7-1.8-4.6c0-2.3,0.8-4,2.5-5.2c1.7-1.1,4-1.7,6.9-1.7h3.5v-1.4
		c0-1.1-0.3-1.9-0.8-2.5c-0.6-0.6-1.5-0.9-2.8-0.9c-1.2,0-2.2,0.3-2.9,0.8c-0.7,0.5-1.3,1.1-1.8,1.8l-3.7-3.3c0.9-1.3,2-2.4,3.4-3.1
		c1.4-0.7,3.2-1.1,5.5-1.1c3.1,0,5.5,0.7,7,2.1c1.6,1.4,2.3,3.4,2.3,6v9.6h2.1v4.8H134.2z M125.6,157.6c1,0,1.9-0.2,2.7-0.7
		c0.7-0.4,1.1-1.2,1.1-2.2v-2.6h-3c-2.4,0-3.6,0.8-3.6,2.5v0.6c0,0.8,0.3,1.4,0.8,1.8C123.9,157.5,124.7,157.6,125.6,157.6"/>
	<path class="st2" d="M150.4,162c-2.1,0-3.9-0.3-5.4-1c-1.5-0.7-2.8-1.7-3.9-2.9l3.6-3.7c0.8,0.9,1.6,1.6,2.6,2.1
		c0.9,0.5,2,0.8,3.2,0.8c1.2,0,2.1-0.2,2.6-0.6c0.5-0.4,0.7-0.9,0.7-1.5c0-1-0.7-1.6-2.2-1.8l-2.4-0.3c-4.9-0.6-7.4-2.9-7.4-6.8
		c0-1.1,0.2-2,0.6-2.9c0.4-0.9,1-1.6,1.7-2.3c0.7-0.6,1.6-1.1,2.7-1.5c1-0.3,2.2-0.5,3.5-0.5c1.1,0,2.2,0.1,3,0.2
		c0.9,0.2,1.7,0.4,2.3,0.7c0.7,0.3,1.3,0.7,1.9,1.1c0.6,0.4,1.1,0.9,1.7,1.4l-3.6,3.6c-0.7-0.7-1.5-1.2-2.4-1.7
		c-0.9-0.4-1.8-0.6-2.7-0.6c-1.1,0-1.8,0.2-2.3,0.5c-0.4,0.3-0.7,0.8-0.7,1.3c0,0.6,0.2,1,0.5,1.4c0.3,0.3,0.9,0.6,1.8,0.7l2.5,0.3
		c4.8,0.6,7.2,2.8,7.2,6.6c0,1.1-0.2,2-0.7,2.9c-0.4,0.9-1.1,1.7-1.9,2.3c-0.8,0.7-1.8,1.2-3,1.5C153.1,161.8,151.8,162,150.4,162"
		/>
</g>
</svg>
