<?xml version="1.0" encoding="utf-8"?>
<!-- Generator: Adobe Illustrator 24.2.3, SVG Export Plug-In . SVG Version: 6.00 Build 0)  -->
<svg version="1.1" id="Layer_1" xmlns="http://www.w3.org/2000/svg" xmlns:xlink="http://www.w3.org/1999/xlink" x="0px" y="0px"
	 viewBox="0 0 660.68 323.52" style="enable-background:new 0 0 660.68 323.52;" xml:space="preserve">
<style type="text/css">
	.st0{opacity:0.6;}
	.st1{fill:#130047;}
	.st2{fill:#FBD300;}
	.st3{opacity:0.9;fill:#F75040;}
	.st4{fill:#7DC53E;}
	.st5{fill:#027BFC;}
	.st6{opacity:0.6;fill:#130047;}
</style>
<g>
	<g>
		<g>
			<g class="st0">
				<path class="st1" d="M422.5,161.41h4.65v32.9h18.37v4.49H422.5V161.41z"/>
				<path class="st1" d="M478.73,189.66h-14.85l-3.15,9.13h-4.86l13.25-37.39h4.33l13.25,37.39h-4.75L478.73,189.66z M472.48,171.72
					c-0.37-1.07-0.96-2.83-1.17-3.79c-0.27,0.96-0.8,2.72-1.18,3.79l-4.86,13.83h12.02L472.48,171.72z"/>
				<path class="st1" d="M513.22,161.41c8.87,0,11.65,4.91,11.65,9.88c0,3.42-2.03,6.3-5.5,7.8c4.32,1.34,6.84,4.7,6.84,8.97
					c0,5.07-2.99,10.74-12.12,10.74h-14.1v-37.39H513.22z M520.27,171.35c0-2.72-1.17-5.72-6.78-5.72h-8.87v11.64h7.69
					C517.6,177.27,520.27,174.92,520.27,171.35z M521.61,188.38c0-3.58-1.71-6.89-8.7-6.89h-8.28v13.03h9.99
					C520.11,194.52,521.61,191.37,521.61,188.38z"/>
				<path class="st1" d="M538.2,191.11l4.38-1.6c1.5,3.31,4.65,5.55,8.76,5.55c4.48,0,7.37-2.19,7.37-6.3c0-4.33-4.06-6.3-8.44-7.9
					c-5.24-1.92-10.95-4.33-10.95-10.84c0-5.02,4.22-9.24,11.48-9.24c5.93,0,9.83,2.83,10.95,6.68l-4.27,1.44
					c-0.91-2.08-3.31-3.79-7-3.79c-3.95,0-6.35,1.87-6.35,4.91c0,3.47,3.84,5.02,8.06,6.57c5.24,1.98,11.32,4.7,11.32,12.07
					c0,6.89-5.24,10.79-12.29,10.79C544.72,199.44,539.86,195.91,538.2,191.11z"/>
			</g>
		</g>
		<g>
			<path class="st2" d="M207.84,129.33c-0.03,11.11-3.55,22.04-9.1,31.66c-5.55,9.62-13.08,17.99-21.37,25.38
				c-9.37,8.36-20.05,15.68-32.2,18.87c-9.4,2.47-19.25,2.36-28.97,2.25c5.38,4.95,13.04,6.92,20.34,6.51
				c7.3-0.41,14.32-3,20.89-6.21c21.02-10.27,38.59-27.42,49.41-48.16c6.5-12.45,12.62-32.21,1.07-43.76"/>
			<path class="st3" d="M213.01,185.61c-8.29,4-17.39,6.36-26.58,7.11c-13.7,1.12-27.58-1.26-40.46-6.04
				c-20.08-7.45-38.63-21.73-46.27-41.74c-1.93,6.61-0.06,13.89,3.61,19.71c6.75,10.72,18.33,18.03,29.48,23.44
				c11.58,5.62,24.1,9.36,36.91,10.77c7.92,0.87,15.93,0.86,23.83-0.15c6.49-0.82,13-2.33,18.69-5.56
				c5.69-3.23,10.52-8.35,12.33-14.64C220.96,181.29,217.08,183.65,213.01,185.61z"/>
			<path class="st4" d="M145.22,99.06c-18.79,5.04-26.5,37.19-17.22,71.81c3.22,12.02,8.24,23.73,15.48,33.89
				c6.42,9.01,14.89,17.86,26.22,19.98c3.02,0.56,6.15,0.51,9.12-0.29c-7.88-5.62-17.42-9.38-24.16-16.49
				c-8.85-9.33-16.04-23.11-20.25-38.81c-4.21-15.7-4.87-31.23-1.87-43.74c1.35-5.62,5.17-14.33,7.78-17.79"/>
			<path class="st5" d="M179.23,224.3c10.51-2.88,20.44-8.4,28.69-16.65c8.36-8.36,13.91-18.45,16.75-29.11l0.05,0.01
				c0.06-0.23,0.07-0.47,0.12-0.7c5.48-21.47-0.11-45.19-16.92-62c-16.81-16.81-40.52-22.4-62-16.92c-0.23,0.05-0.47,0.06-0.7,0.12
				l0.01,0.05c-10.66,2.85-20.75,8.39-29.11,16.75c-8.25,8.25-13.77,18.19-16.65,28.69c-0.04,0.14-0.11,0.27-0.15,0.41l0.05,0.01
				c-5.78,21.65-0.24,45.7,16.75,62.68c16.99,16.99,41.03,22.53,62.68,16.75l0.01,0.05C178.96,224.42,179.09,224.34,179.23,224.3z
				 M194.09,210.41c6.79-13.64,8.02-35.15,1.96-57.77c-0.83-3.09-1.8-6.07-2.83-8.98c5.73,3.18,10.84,6.78,15.02,10.74
				c4.19,3.98,7.3,8.19,8.99,12.18c1.48,3.49,1.84,6.77,1.16,9.77c-2.57,9.97-7.69,19.13-15.16,26.6
				C200.4,205.77,197.34,208.26,194.09,210.41z M220.11,158.19c-6-8.99-16.78-17.53-30.64-23.89c-2.83-6.17-6.11-11.7-9.65-16.52
				c5.13-1.41,9.96-1.92,13.98-1.43c3.96,0.49,7.13,1.9,9.42,4.19C213.38,130.72,219.26,143.98,220.11,158.19z M165.58,103.67
				c7.92,0.48,15.53,2.51,22.48,6c-4.02,0.25-8.3,1.11-12.77,2.56C172.17,108.76,168.91,105.89,165.58,103.67z M173.2,120.03
				c2.49,3.17,4.8,6.71,6.92,10.53c-2.91-1.03-5.89-2-8.98-2.83c-3.1-0.83-6.16-1.47-9.2-2.04
				C165.69,123.44,169.46,121.53,173.2,120.03z M147.42,105.4c3-0.68,6.28-0.32,9.77,1.16c3.73,1.58,7.65,4.44,11.39,8.22
				c-5.47,2.4-11.08,5.55-16.62,9.48c-15.25-1.43-28.9,0.6-38.6,5.43c2.15-3.25,4.63-6.31,7.45-9.13
				C128.29,113.09,137.45,107.96,147.42,105.4z M105.86,146.36c0.89-3,2.87-5.7,5.94-8.02c3.46-2.61,8.26-4.71,13.88-6.05
				c5.6-1.34,11.82-1.91,18.38-1.8c-2.35,2.01-4.68,4.1-6.95,6.36c-16.54,16.54-26.22,35.75-27.19,50.95
				c-4-7.99-6.17-16.84-6.17-26.04C103.76,156.48,104.51,151.32,105.86,146.36z M162.02,220.02c-15.56,0-30.19-6.06-41.2-17.06
				c-2.29-2.29-3.7-5.46-4.19-9.42c-0.53-4.3,0.05-9.51,1.7-15.04c3.66-12.33,12-25.45,23.49-36.94c3.85-3.85,7.89-7.3,12.01-10.39
				c5.11,0.61,10.34,1.58,15.59,2.99c5.26,1.41,10.27,3.18,15,5.21c2.03,4.73,3.8,9.74,5.21,15c4.21,15.7,4.87,31.23,1.87,43.73
				c-1.35,5.62-3.44,10.42-6.06,13.88c-2.32,3.07-5.02,5.05-8.02,5.94C172.46,219.27,167.3,220.02,162.02,220.02z"/>
		</g>
	</g>
	<g>
		<g>
			<path class="st1" d="M333.33,194.87c-3.38,2.2-6.7,3.75-10.32,4.43c-12.7,2.37-23.82-0.78-33.08-9.88
				c-12.05-11.85-14.7-30.13-5.98-44.63c7.69-12.79,19.3-19.04,34.36-18.25c6.68,0.35,12.65,2.75,17.73,7.21
				c0.16,0.14,0.34,0.25,0.6,0.44c0.34-0.36,0.66-0.69,0.98-1.02c3.5-3.74,7.96-4.73,12.84-4.35c0.38,0.03,0.81,0.61,1.04,1.03
				c0.17,0.3,0.04,0.76,0.04,1.14c0,30.09,0,60.18,0,90.27c0,2.12-0.09,2.21-2.15,2.21c-4.74,0-9.47,0-14.21,0
				c-1.66,0-1.85-0.2-1.85-1.86c-0.01-8.31,0-16.62,0-24.92C333.33,196.18,333.33,195.67,333.33,194.87z M315.79,181.85
				c10.43-0.01,18.59-8.17,18.58-18.6c-0.01-10.39-8.24-18.64-18.6-18.64c-10.32,0.01-18.62,8.32-18.62,18.66
				C297.16,173.66,305.38,181.86,315.79,181.85z"/>
			<path class="st1" d="M384.85,146.92c0,0.62,0,1.08,0,1.54c0,8.39-0.01,16.79,0,25.18c0.01,5.57,2.25,7.91,7.84,8.17
				c2.69,0.12,5.33,0.01,7.75-1.44c1.01-0.61,1.78-0.1,1.78,1.11c0.03,5.47,0.04,10.93-0.03,16.4c-0.01,0.48-0.56,1.29-0.97,1.37
				c-10.7,1.96-20.54,0.58-28.38-7.78c-4.41-4.7-6.13-10.49-6.17-16.81c-0.06-9.47-0.02-18.94-0.02-28.41c0-11.45,0-22.9,0-34.35
				c0-2.08,0.11-2.15,2.18-2.2c6.4-0.18,11.24,2.42,14.38,8.03c1.39,2.47,1.7,5.21,1.65,8c-0.02,0.94,0,1.88,0,3.04
				c0.61,0,1.1,0,1.6,0c4.69,0,9.38,0,14.08,0c1.53,0,1.7,0.18,1.7,1.72c0.01,3.57,0.02,7.15,0,10.72c-0.02,3.52-2.22,5.7-5.75,5.72
				c-3.36,0.02-6.72,0-10.07,0.01C385.94,146.92,385.48,146.92,384.85,146.92z"/>
			<path class="st1" d="M267.43,163.29c0,10.84,0,21.69,0,32.53c0,1.85-0.11,1.95-2,1.95c-4.78,0-9.55,0-14.33,0
				c-1.63,0-1.83-0.18-1.83-1.75c0-21.86,0-43.72,0-65.59c0-1.5,0.19-1.67,1.75-1.68c4.91-0.01,9.81-0.01,14.72,0
				c1.52,0,1.68,0.17,1.68,1.73C267.43,141.43,267.43,152.36,267.43,163.29z"/>
			<path class="st1" d="M247.16,111.91c0.02-6.25,5.02-11.23,11.24-11.21c6.21,0.02,11.23,5.06,11.21,11.27
				c-0.01,6.21-5.04,11.2-11.27,11.2C252.1,123.15,247.15,118.17,247.16,111.91z"/>
		</g>
	</g>
</g>
<g>
	<path class="st6" d="M576.56,187.88v1.26h-2.44v6.36h-1.51v-6.36h-2.44v-1.26H576.56z M584.79,195.5l-0.28-4.48
		c-0.03-0.59-0.03-1.32-0.05-2.13h-0.08c-0.2,0.67-0.42,1.57-0.64,2.27l-1.37,4.23h-1.57l-1.37-4.34c-0.14-0.59-0.36-1.48-0.53-2.16
		h-0.08c0,0.7-0.03,1.43-0.06,2.13l-0.28,4.48h-1.46l0.56-7.62h2.27l1.32,3.72c0.17,0.59,0.31,1.15,0.5,1.93h0.03
		c0.2-0.7,0.37-1.34,0.53-1.9l1.32-3.75h2.18l0.59,7.62H584.79z"/>
</g>
</svg>
