<?xml version="1.0" encoding="utf-8"?>
<!-- Generator: Adobe Illustrator 24.2.3, SVG Export Plug-In . SVG Version: 6.00 Build 0)  -->
<svg version="1.1" id="Layer_1" xmlns="http://www.w3.org/2000/svg" xmlns:xlink="http://www.w3.org/1999/xlink" x="0px" y="0px"
	 viewBox="0 0 567.1 323.5" style="enable-background:new 0 0 567.1 323.5;" xml:space="preserve">
<style type="text/css">
	.st0{fill:#130047;}
	.st1{fill:#F75040;}
	.st2{opacity:0.9;fill:#F75040;}
	.st3{fill:#027BFC;}
</style>
<g>
	<g>
		<g>
			<g>
				<path class="st0" d="M381.9,212.1c-5.2,3.4-10.3,5.8-15.9,6.8c-19.5,3.6-36.6-1.2-50.8-15.2c-18.5-18.2-22.6-46.3-9.2-68.6
					c11.8-19.7,29.7-29.3,52.8-28c10.3,0.5,19.4,4.2,27.2,11.1c0.2,0.2,0.5,0.4,0.9,0.7c0.5-0.5,1-1.1,1.5-1.6
					c5.4-5.7,12.2-7.3,19.7-6.7c0.6,0,1.2,0.9,1.6,1.6c0.3,0.5,0.1,1.2,0.1,1.8c0,46.2,0,92.5,0,138.7c0,3.3-0.1,3.4-3.3,3.4
					c-7.3,0-14.6,0-21.8,0c-2.5,0-2.8-0.3-2.8-2.9c0-12.8,0-25.5,0-38.3C381.9,214.1,381.9,213.4,381.9,212.1z M355,192.1
					c16,0,28.6-12.6,28.5-28.6c0-16-12.7-28.6-28.6-28.6c-15.9,0-28.6,12.8-28.6,28.7C326.4,179.5,339,192.1,355,192.1z"/>
				<path class="st0" d="M461.1,138.5c0,0.9,0,1.7,0,2.4c0,12.9,0,25.8,0,38.7c0,8.6,3.5,12.2,12,12.6c4.1,0.2,8.2,0,11.9-2.2
					c1.6-0.9,2.7-0.2,2.7,1.7c0,8.4,0.1,16.8-0.1,25.2c0,0.7-0.9,2-1.5,2.1c-16.4,3-31.6,0.9-43.6-12c-6.8-7.2-9.4-16.1-9.5-25.8
					c-0.1-14.6,0-29.1,0-43.7c0-17.6,0-35.2,0-52.8c0-3.2,0.2-3.3,3.3-3.4c9.8-0.3,17.3,3.7,22.1,12.3c2.1,3.8,2.6,8,2.5,12.3
					c0,1.4,0,2.9,0,4.7c0.9,0,1.7,0,2.5,0c7.2,0,14.4,0,21.6,0c2.4,0,2.6,0.3,2.6,2.6c0,5.5,0,11,0,16.5c0,5.4-3.4,8.8-8.8,8.8
					c-5.2,0-10.3,0-15.5,0C462.8,138.5,462.1,138.5,461.1,138.5z"/>
				<path class="st0" d="M280.7,163.6c0,16.7,0,33.3,0,50c0,2.8-0.2,3-3.1,3c-7.3,0-14.7,0-22,0c-2.5,0-2.8-0.3-2.8-2.7
					c0-33.6,0-67.2,0-100.8c0-2.3,0.3-2.6,2.7-2.6c7.5,0,15.1,0,22.6,0c2.3,0,2.6,0.3,2.6,2.7C280.7,130,280.7,146.8,280.7,163.6z"
					/>
				<path class="st0" d="M249.5,84.7c0-9.6,7.7-17.3,17.3-17.2c9.5,0,17.2,7.8,17.2,17.3c0,9.5-7.7,17.2-17.3,17.2
					C257.1,101.9,249.5,94.3,249.5,84.7z"/>
			</g>
		</g>
	</g>
	<g>
		<path class="st1" d="M194.1,115.4c0,13.7-4.4,27.1-11.2,39c-6.8,11.8-16.1,22.1-26.3,31.2c-11.5,10.3-24.7,19.3-39.6,23.2
			c-11.6,3-23.7,2.9-35.6,2.8c6.6,6.1,16,8.5,25,8c9-0.5,17.6-3.7,25.7-7.6c25.9-12.6,47.5-33.8,60.8-59.3
			c8-15.3,15.5-39.6,1.3-53.9"/>
		<path class="st2" d="M200.4,184.7c-10.2,4.9-21.4,7.8-32.7,8.8c-16.9,1.4-33.9-1.6-49.8-7.4c-24.7-9.2-47.5-26.7-56.9-51.4
			c-2.4,8.1-0.1,17.1,4.4,24.3c8.3,13.2,22.6,22.2,36.3,28.9c14.3,6.9,29.7,11.5,45.4,13.3c9.7,1.1,19.6,1.1,29.3-0.2
			c8-1,16-2.9,23-6.8c7-4,12.9-10.3,15.2-18C210.2,179.4,205.4,182.3,200.4,184.7z"/>
		<path class="st2" d="M117,78.2c-23.1,6.2-32.6,45.8-21.2,88.4c4,14.8,10.1,29.2,19.1,41.7c7.9,11.1,18.3,22,32.3,24.6
			c3.7,0.7,7.6,0.6,11.2-0.4c-9.7-6.9-21.4-11.5-29.7-20.3c-10.9-11.5-19.7-28.4-24.9-47.8c-5.2-19.3-6-38.4-2.3-53.8
			c1.7-6.9,6.4-17.6,9.6-21.9"/>
		<path class="st3" d="M158.8,232.3c12.9-3.5,25.2-10.3,35.3-20.5c10.3-10.3,17.1-22.7,20.6-35.8l0.1,0c0.1-0.3,0.1-0.6,0.1-0.9
			c6.7-26.4-0.1-55.6-20.8-76.3c-20.7-20.7-49.9-27.6-76.3-20.8c-0.3,0.1-0.6,0.1-0.9,0.1l0,0.1c-13.1,3.5-25.5,10.3-35.8,20.6
			C71,109,64.2,121.3,60.7,134.2c0,0.2-0.1,0.3-0.2,0.5l0.1,0c-7.1,26.6-0.3,56.2,20.6,77.1c20.9,20.9,50.5,27.7,77.1,20.6l0,0.1
			C158.5,232.5,158.7,232.4,158.8,232.3z M177.1,215.2c8.4-16.8,9.9-43.3,2.4-71.1c-1-3.8-2.2-7.5-3.5-11.1
			c7.1,3.9,13.3,8.3,18.5,13.2c5.2,4.9,9,10.1,11.1,15c1.8,4.3,2.3,8.3,1.4,12c-3.2,12.3-9.5,23.5-18.7,32.7
			C184.9,209.5,181.1,212.6,177.1,215.2z M209.2,151c-7.4-11.1-20.7-21.6-37.7-29.4c-3.5-7.6-7.5-14.4-11.9-20.3
			c6.3-1.7,12.3-2.4,17.2-1.8c4.9,0.6,8.8,2.3,11.6,5.2C200.9,117.2,208.1,133.5,209.2,151z M142,83.9c9.7,0.6,19.1,3.1,27.7,7.4
			c-4.9,0.3-10.2,1.4-15.7,3.2C150.2,90.1,146.1,86.6,142,83.9z M151.4,104c3.1,3.9,5.9,8.3,8.5,13c-3.6-1.3-7.2-2.5-11.1-3.5
			c-3.8-1-7.6-1.8-11.3-2.5C142.2,108.2,146.8,105.9,151.4,104z M119.7,86c3.7-0.8,7.7-0.4,12,1.4c4.6,1.9,9.4,5.5,14,10.1
			c-6.7,3-13.6,6.8-20.4,11.7c-18.8-1.8-35.6,0.7-47.5,6.7c2.6-4,5.7-7.8,9.2-11.2C96.2,95.5,107.4,89.2,119.7,86z M68.5,136.4
			c1.1-3.7,3.5-7,7.3-9.9c4.3-3.2,10.2-5.8,17.1-7.5c6.9-1.7,14.6-2.3,22.6-2.2c-2.9,2.5-5.8,5-8.5,7.8
			c-20.4,20.4-32.3,44-33.5,62.7c-4.9-9.8-7.6-20.7-7.6-32C66,148.9,66.9,142.5,68.5,136.4z M137.7,227.1c-19.2,0-37.2-7.5-50.7-21
			c-2.8-2.8-4.6-6.7-5.2-11.6c-0.7-5.3,0.1-11.7,2.1-18.5c4.5-15.2,14.8-31.3,28.9-45.5c4.7-4.7,9.7-9,14.8-12.8
			c6.3,0.7,12.7,1.9,19.2,3.7c6.5,1.7,12.6,3.9,18.5,6.4c2.5,5.8,4.7,12,6.4,18.5c5.2,19.3,6,38.4,2.3,53.8
			c-1.7,6.9-4.2,12.8-7.5,17.1c-2.9,3.8-6.2,6.2-9.9,7.3C150.5,226.1,144.2,227.1,137.7,227.1z"/>
	</g>
</g>
<g>
	<path class="st0" d="M501.1,209.9v1.3h-2.4v6.4h-1.5v-6.4h-2.4v-1.3H501.1z M509.3,217.5L509,213c0-0.6,0-1.3-0.1-2.1h-0.1
		c-0.2,0.7-0.4,1.6-0.6,2.3l-1.4,4.2h-1.6l-1.4-4.3c-0.1-0.6-0.4-1.5-0.5-2.2h-0.1c0,0.7,0,1.4-0.1,2.1l-0.3,4.5h-1.5l0.6-7.6h2.3
		l1.3,3.7c0.2,0.6,0.3,1.1,0.5,1.9h0c0.2-0.7,0.4-1.3,0.5-1.9l1.3-3.8h2.2l0.6,7.6H509.3z"/>
</g>
</svg>
