<?xml version="1.0" encoding="utf-8"?>
<!-- Generator: Adobe Illustrator 24.2.3, SVG Export Plug-In . SVG Version: 6.00 Build 0)  -->
<svg version="1.1" id="a58ef234-55dd-4456-b368-278f056cc5c7"
	 xmlns="http://www.w3.org/2000/svg" xmlns:xlink="http://www.w3.org/1999/xlink" x="0px" y="0px" viewBox="0 0 1028 599"
	 style="enable-background:new 0 0 1028 599;" xml:space="preserve">
<style type="text/css">
	.st0{clip-path:url(#SVGID_2_);fill:#3F3D56;}
	.st1{clip-path:url(#SVGID_2_);fill:#DDDDDD;}
	.st2{clip-path:url(#SVGID_2_);}
	.st3{opacity:0.6;}
	.st4{fill:#130047;}
	.st5{fill:#FBD300;}
	.st6{opacity:0.9;fill:#F75040;}
	.st7{fill:#7DC53E;}
	.st8{fill:#027BFC;}
	.st9{opacity:0.6;fill:#130047;}
	.st10{opacity:0.1;clip-path:url(#SVGID_2_);enable-background:new    ;}
	.st11{opacity:0.1;enable-background:new    ;}
	.st12{fill:#3F3D56;}
	.st13{fill:#2F2E41;}
	.st14{fill:#F2F2F2;}
	.st15{fill:#A0616A;}
	.st16{fill:#D0CDE1;}
	.st17{clip-path:url(#SVGID_2_);fill:#2F2E41;}
	.st18{clip-path:url(#SVGID_2_);fill:#FFB9B9;}
	.st19{clip-path:url(#SVGID_2_);fill:#FF6584;}
	.st20{opacity:5.000000e-02;clip-path:url(#SVGID_2_);enable-background:new    ;}
	.st21{clip-path:url(#SVGID_2_);fill:#F2F2F2;}
</style>
<g>
	<defs>
		<rect id="SVGID_1_" x="0.1" y="-0.1" width="1027.8" height="599.1"/>
	</defs>
	<clipPath id="SVGID_2_">
		<use xlink:href="#SVGID_1_"  style="overflow:visible;"/>
	</clipPath>
	<rect y="502.3" class="st0" width="1027.9" height="96.7"/>
	<rect x="0.1" y="-0.1" class="st1" width="1027.8" height="515.6"/>
	<g class="st2">
		<g>
			<g>
				<g>
					<g class="st3">
						<path class="st4" d="M450.5,257.4h5.3v37.8H477v5.2h-26.4V257.4z"/>
						<path class="st4" d="M515.1,289.8h-17.1l-3.6,10.5h-5.6l15.2-43h5l15.2,43h-5.5L515.1,289.8z M508,269.2
							c-0.4-1.2-1.1-3.3-1.3-4.4c-0.3,1.1-0.9,3.1-1.4,4.4l-5.6,15.9h13.8L508,269.2z"/>
						<path class="st4" d="M554.8,257.4c10.2,0,13.4,5.6,13.4,11.4c0,3.9-2.3,7.2-6.3,9c5,1.5,7.9,5.4,7.9,10.3
							c0,5.8-3.4,12.3-13.9,12.3h-16.2v-43H554.8z M562.9,268.8c0-3.1-1.3-6.6-7.8-6.6h-10.2v13.4h8.8
							C559.8,275.6,562.9,272.9,562.9,268.8z M564.4,288.3c0-4.1-2-7.9-10-7.9h-9.5v15h11.5C562.7,295.4,564.4,291.8,564.4,288.3z"
							/>
						<path class="st4" d="M583.5,291.5l5-1.8c1.7,3.8,5.3,6.4,10.1,6.4c5.2,0,8.5-2.5,8.5-7.2c0-5-4.7-7.2-9.7-9.1
							c-6-2.2-12.6-5-12.6-12.5c0-5.8,4.8-10.6,13.2-10.6c6.8,0,11.3,3.3,12.6,7.7l-4.9,1.7c-1-2.4-3.8-4.4-8-4.4
							c-4.5,0-7.3,2.1-7.3,5.6c0,4,4.4,5.8,9.3,7.5c6,2.3,13,5.4,13,13.9c0,7.9-6,12.4-14.1,12.4C591,301,585.4,297,583.5,291.5z"/>
					</g>
				</g>
				<g>
					<path class="st5" d="M203.9,220.5c0,12.8-4.1,25.3-10.5,36.4c-6.4,11.1-15,20.7-24.6,29.2c-10.8,9.6-23,18-37,21.7
						c-10.8,2.8-22.1,2.7-33.3,2.6c6.2,5.7,15,8,23.4,7.5s16.5-3.4,24-7.1c24.2-11.8,44.3-31.5,56.8-55.3c7.5-14.3,14.5-37,1.2-50.3
						"/>
					<path class="st6" d="M209.8,285.2c-9.5,4.6-20,7.3-30.5,8.2c-15.7,1.3-31.7-1.4-46.5-6.9c-23.1-8.6-44.4-25-53.2-48
						c-2.2,7.6-0.1,16,4.1,22.6c7.8,12.3,21.1,20.7,33.9,26.9c13.3,6.5,27.7,10.8,42.4,12.4c9.1,1,18.3,1,27.4-0.2
						c7.5-0.9,14.9-2.7,21.5-6.4c6.5-3.7,12.1-9.6,14.2-16.8C218.9,280.2,214.5,282.9,209.8,285.2z"/>
					<path class="st7" d="M131.9,185.7c-21.6,5.8-30.5,42.7-19.8,82.5c3.7,13.8,9.5,27.3,17.8,38.9c7.4,10.4,17.1,20.5,30.1,23
						c3.5,0.6,7.1,0.6,10.5-0.3c-9-6.5-20-10.8-27.8-18.9c-10.2-10.7-18.4-26.6-23.3-44.6c-4.8-18-5.6-35.9-2.1-50.3
						c1.5-6.5,5.9-16.5,8.9-20.4"/>
					<path class="st8" d="M171,329.6c12.1-3.3,23.5-9.6,33-19.1c9.6-9.6,16-21.2,19.2-33.4l0.1,0c0.1-0.3,0.1-0.5,0.1-0.8
						c6.3-24.7-0.1-51.9-19.4-71.2c-19.3-19.3-46.6-25.7-71.2-19.4c-0.3,0.1-0.5,0.1-0.8,0.1l0,0.1c-12.2,3.3-23.8,9.6-33.4,19.2
						c-9.5,9.5-15.8,20.9-19.1,33c0,0.2-0.1,0.3-0.2,0.5l0.1,0c-6.6,24.9-0.3,52.5,19.2,72c19.5,19.5,47.1,25.9,72,19.2l0,0.1
						C170.7,329.7,170.8,329.7,171,329.6z M188.1,313.7c7.8-15.7,9.2-40.4,2.2-66.4c-1-3.6-2.1-7-3.3-10.3
						c6.6,3.7,12.5,7.8,17.3,12.3c4.8,4.6,8.4,9.4,10.3,14c1.7,4,2.1,7.8,1.3,11.2c-2.9,11.5-8.8,22-17.4,30.6
						C195.3,308.3,191.8,311.2,188.1,313.7z M218,253.7c-6.9-10.3-19.3-20.1-35.2-27.4c-3.3-7.1-7-13.4-11.1-19
						c5.9-1.6,11.4-2.2,16.1-1.6c4.5,0.6,8.2,2.2,10.8,4.8C210.2,222.1,217,237.3,218,253.7z M155.3,191c9.1,0.5,17.8,2.9,25.8,6.9
						c-4.6,0.3-9.5,1.3-14.7,2.9C162.9,196.9,159.1,193.6,155.3,191z M164.1,209.8c2.9,3.6,5.5,7.7,8,12.1
						c-3.3-1.2-6.8-2.3-10.3-3.3c-3.6-1-7.1-1.7-10.6-2.3C155.4,213.7,159.8,211.5,164.1,209.8z M134.4,193
						c3.5-0.8,7.2-0.4,11.2,1.3c4.3,1.8,8.8,5.1,13.1,9.5c-6.3,2.8-12.7,6.4-19.1,10.9c-17.5-1.6-33.2,0.7-44.4,6.2
						c2.5-3.7,5.3-7.3,8.6-10.5C112.5,201.8,123,195.9,134.4,193z M86.7,240.1c1-3.4,3.3-6.5,6.8-9.2c4-3,9.5-5.4,15.9-7
						c6.4-1.5,13.6-2.2,21.1-2.1c-2.7,2.3-5.4,4.7-8,7.3c-19,19-30.1,41.1-31.2,58.5c-4.6-9.2-7.1-19.4-7.1-29.9
						C84.3,251.7,85.1,245.8,86.7,240.1z M151.2,324.7c-17.9,0-34.7-7-47.3-19.6c-2.6-2.6-4.3-6.3-4.8-10.8
						c-0.6-4.9,0.1-10.9,1.9-17.3c4.2-14.2,13.8-29.2,27-42.4c4.4-4.4,9.1-8.4,13.8-11.9c5.9,0.7,11.9,1.8,17.9,3.4
						c6,1.6,11.8,3.7,17.2,6c2.3,5.4,4.4,11.2,6,17.2c4.8,18,5.6,35.9,2.2,50.3c-1.6,6.5-4,12-7,15.9c-2.7,3.5-5.8,5.8-9.2,6.8
						C163.2,323.8,157.3,324.7,151.2,324.7z"/>
				</g>
			</g>
			<g>
				<g>
					<path class="st4" d="M348.1,295.8c-3.9,2.5-7.7,4.3-11.9,5.1c-14.6,2.7-27.4-0.9-38-11.4c-13.9-13.6-16.9-34.6-6.9-51.3
						c8.8-14.7,22.2-21.9,39.5-21c7.7,0.4,14.5,3.2,20.4,8.3c0.2,0.2,0.4,0.3,0.7,0.5c0.4-0.4,0.8-0.8,1.1-1.2c4-4.3,9.1-5.4,14.8-5
						c0.4,0,0.9,0.7,1.2,1.2c0.2,0.3,0.1,0.9,0.1,1.3c0,34.6,0,69.1,0,103.7c0,2.4-0.1,2.5-2.5,2.5c-5.4,0-10.9,0-16.3,0
						c-1.9,0-2.1-0.2-2.1-2.1c0-9.5,0-19.1,0-28.6C348.1,297.3,348.1,296.7,348.1,295.8z M327.9,280.8c12,0,21.4-9.4,21.3-21.4
						c0-11.9-9.5-21.4-21.4-21.4c-11.9,0-21.4,9.6-21.4,21.4C306.5,271.4,315.9,280.8,327.9,280.8z"/>
					<path class="st4" d="M407.3,240.7c0,0.7,0,1.2,0,1.8c0,9.6,0,19.3,0,28.9c0,6.4,2.6,9.1,9,9.4c3.1,0.1,6.1,0,8.9-1.7
						c1.2-0.7,2-0.1,2,1.3c0,6.3,0,12.6,0,18.8c0,0.5-0.6,1.5-1.1,1.6c-12.3,2.3-23.6,0.7-32.6-8.9c-5.1-5.4-7-12.1-7.1-19.3
						c-0.1-10.9,0-21.8,0-32.6c0-13.2,0-26.3,0-39.5c0-2.4,0.1-2.5,2.5-2.5c7.4-0.2,12.9,2.8,16.5,9.2c1.6,2.8,2,6,1.9,9.2
						c0,1.1,0,2.2,0,3.5c0.7,0,1.3,0,1.8,0c5.4,0,10.8,0,16.2,0c1.8,0,2,0.2,2,2c0,4.1,0,8.2,0,12.3c0,4-2.5,6.5-6.6,6.6
						c-3.9,0-7.7,0-11.6,0C408.5,240.7,408,240.7,407.3,240.7z"/>
					<path class="st4" d="M272.3,259.5c0,12.5,0,24.9,0,37.4c0,2.1-0.1,2.2-2.3,2.2c-5.5,0-11,0-16.5,0c-1.9,0-2.1-0.2-2.1-2
						c0-25.1,0-50.2,0-75.4c0-1.7,0.2-1.9,2-1.9c5.6,0,11.3,0,16.9,0c1.7,0,1.9,0.2,1.9,2C272.3,234.4,272.3,247,272.3,259.5z"/>
					<path class="st4" d="M249.1,200.5c0-7.2,5.8-12.9,12.9-12.9c7.1,0,12.9,5.8,12.9,12.9c0,7.1-5.8,12.9-12.9,12.9
						C254.7,213.4,249,207.7,249.1,200.5z"/>
				</g>
			</g>
		</g>
		<g>
			<path class="st9" d="M627.5,287.8v1.4h-2.8v7.3H623v-7.3h-2.8v-1.4H627.5z M637,296.5l-0.3-5.1c0-0.7,0-1.5-0.1-2.4h-0.1
				c-0.2,0.8-0.5,1.8-0.7,2.6l-1.6,4.9h-1.8l-1.6-5c-0.2-0.7-0.4-1.7-0.6-2.5h-0.1c0,0.8,0,1.6-0.1,2.4l-0.3,5.1h-1.7l0.6-8.8h2.6
				l1.5,4.3c0.2,0.7,0.4,1.3,0.6,2.2h0c0.2-0.8,0.4-1.5,0.6-2.2l1.5-4.3h2.5l0.7,8.8H637z"/>
		</g>
	</g>
	<path class="st0" d="M1128.2,517.9c0,0.7-0.1,1.4-0.2,2.1c-8,43.8-264.3,78.9-579.2,78.9S-22.4,563.7-30.4,520
		c-0.1-0.7-0.2-1.4-0.2-2.1c0-0.2,0-0.4,0-0.6c0-0.1,0-0.2,0-0.3c0,0,0-0.1,0-0.1c0-0.5,0.1-0.9,0.2-1.3
		c3.7-17.9,48.9-34.3,122.6-47.5c60.3-10.8,139.7-19.4,231-24.8c69.3-4.1,145.5-6.4,225.6-6.4c64.4,0,126.3,1.5,184.2,4.2h0
		c12.1,0.6,24,1.2,35.8,1.9c80.4,4.6,151.8,11.7,209.3,20.5c35.4,5.5,65.5,11.6,89.3,18.2h0c36.6,10.2,58.2,21.7,60.7,33.8
		c0.1,0.4,0.2,0.9,0.2,1.3c0,0,0,0.1,0,0.1c0,0.1,0,0.2,0,0.3C1128.2,517.4,1128.2,517.7,1128.2,517.9z"/>
	<ellipse class="st10" cx="501" cy="572" rx="165" ry="24"/>
	<path class="st10" d="M532,470.7c0,15.1-94.9,27.4-212,27.4s-212-12.3-212-27.4c0-1,0.4-1.9,1-2.6c53.5-10.8,123.9-19.4,204.9-24.8
		c2,0,4.1,0,6.1,0C437.1,443.4,532,455.6,532,470.7z"/>
	<g class="st2">
		<path class="st11" d="M1108.5,501.3c-5.8,1.7-12.3,3.2-19.4,4.6c-29.4,5.8-69.4,9.3-113.5,9.3c-49.3,0-93.5-4.4-123.4-11.4
			c-24.8-5.8-39.9-13.4-39.9-21.7c0-7.3,11.6-14.1,31.4-19.5c71.3,4.6,134.6,11.7,185.6,20.5
			C1060.7,488.6,1087.4,494.7,1108.5,501.3z"/>
		<path class="st11" d="M888,529.9c0,48.7-67.9,33.7-151.1,33.7s-150.1,15.1-150.1-33.7s67.9-59.3,151.1-59.3S888,481.1,888,529.9z"
			/>
		<path class="st12" d="M888,517.9c0,48.7-67.9,33.7-151.1,33.7s-150.1,15.1-150.1-33.7s67.9-59.3,151.1-59.3S888,469.1,888,517.9z"
			/>
		<path class="st13" d="M874.1,430.4l3.4,14.2c0,0.2,0,0.3,0,0.5L862,493.7c-0.1,0.5-0.6,0.7-1.1,0.6c-0.3-0.1-0.6-0.4-0.6-0.7
			l-2.2-19c0-0.1,0-0.3,0-0.4l14.3-43.9c0.2-0.5,0.7-0.7,1.1-0.6C873.8,429.8,874,430.1,874.1,430.4z"/>
		<polygon class="st14" points="872.9,431.6 876,443.7 862.3,488.1 859.1,474.4 		"/>
		<path class="st13" d="M803.6,497.6c0.5,1.6,54.9-0.5,55.5-1.1c0.5-0.7,0.9-1.4,1.2-2.1c0.5-1.1,1-2.1,1-2.1l-2.1-17.1l-53.9-1.9
			c0,0-1.3,14.5-1.6,21.1C803.5,495.5,803.5,496.6,803.6,497.6z"/>
		<polygon class="st11" points="852.2,477.5 853.3,492.3 829.5,492.3 829.5,477.5 		"/>
		<polygon class="st11" points="821.6,482.3 821.7,482.3 821.1,488.6 807.9,488.6 807.9,482.3 		"/>
		<path class="st11" d="M803.6,497.6c0.5,1.6,54.9-0.5,55.5-1.1c0.5-0.7,0.9-1.4,1.2-2.1h-56.7C803.5,495.5,803.5,496.6,803.6,497.6
			z"/>
		<path class="st13" d="M719.6,442.1h14.8l36.5-14.3c0,0,25.9-10.6,23.8,9.5s-5.8,47-5.8,47s-11.6-5.3-18-3.7s-2.1-32.2-2.1-32.2
			s-51.8,24.8-56.5,21.7s-5.8-25.4-5.8-25.4L719.6,442.1z"/>
		<path class="st11" d="M719.6,442.1h14.8l36.5-14.3c0,0,25.9-10.6,23.8,9.5s-5.8,47-5.8,47s-11.6-5.3-18-3.7s-2.1-32.2-2.1-32.2
			s-51.8,24.8-56.5,21.7s-5.8-25.4-5.8-25.4L719.6,442.1z"/>
		<path class="st15" d="M742.9,395.8l17.9,25.7l41.7,34.9c0,0,38.6,9,33.3,15.3s-37.5-6.3-37.5-6.3s-48.1-34.9-49.7-37.5
			s-19-27.5-19-27.5L742.9,395.8z"/>
		<path class="st11" d="M742.9,395.8l17.9,25.7l41.7,34.9c0,0,38.6,9,33.3,15.3s-37.5-6.3-37.5-6.3s-48.1-34.9-49.7-37.5
			s-19-27.5-19-27.5L742.9,395.8z"/>
		<circle class="st15" cx="740.2" cy="343.9" r="23.8"/>
		<path class="st15" d="M738.6,365c0,0-7.9,13.7-9.5,21.1s-23.8-14.8-23.8-14.8l-2.9-7.7c0,0,20.9-9.8,19.3-17.7
			S738.6,365,738.6,365z"/>
		<path class="st16" d="M732.3,375l11.6,22.7c0,0-2.6,11.1-6.9,12.2s-22.2-13.7-22.2-13.7L732.3,375z"/>
		<path class="st15" d="M742.9,406.2l21.7,28.5l51.8,38.6c0,0,37.5,7.9,29.1,13.7s-32.8-5.3-32.8-5.3s-52.3-28-63.4-39.6
			S717.5,411,717.5,411L742.9,406.2z"/>
		<path class="st13" d="M713.8,450.6l6.3,10l37.8-11.9c8.3-2.7,17.4-1.6,24.8,3c6.6,4.2,10.8,10.8,1.3,20.5c-19,19.5-31.7,9-31.7,9
			s-63.9,30.1-74.5,15.3s-11.1-22.2-11.1-22.2S707.5,449,713.8,450.6z"/>
		<path class="st16" d="M793.1,485.5c0,0,16.9,11.1-3.2,16.4s-34.9-2.1-34.9-2.1s-17.4,0-17.4-9s5.8-10,5.8-10l18,2.6
			C761.4,483.4,783,477.5,793.1,485.5z"/>
		<path class="st13" d="M759.7,337.9c1.6,0.8,3.2,1.4,5,1.8c1.8,0.3,3.6-0.5,4.6-2c0.4-0.9,0.6-1.8,0.5-2.8c0.1-2.9-0.1-6-2-8.3
			c-1.2-1.4-2.9-2.3-4.1-3.7c-0.8-1-1.5-2.2-2.1-3.4c-2.4-4.4-5.8-8.7-10.7-10c-2-0.4-4.1-0.6-6.2-0.5l-12.2,0.2
			c-2-0.1-4,0.1-5.9,0.6c-3.9,1.2-6.8,4.5-9.4,7.7c-2,2.3-3.8,4.8-5.4,7.4c-2.1,3.9-3.2,8.3-3.1,12.8c0,1.1,0.1,2.3,0.4,3.4
			c0.4,1,0.8,2,1.3,2.9c2.3,4.5,3.6,10.1,1.1,14.4c4.5-1.8,8.9-4.2,11.9-8.1c1.3-1.7,2.4-3.7,4.1-5s4.6-1.4,5.8,0.5
			c0.4,0.7,0.6,1.6,0.6,2.4c0,1.4,0.2,2.8,0.7,4.1c0.5,1.3,1.9,2.1,3.3,1.9c2.3-0.6,2.1-4.2,3.9-5.8c1.3-1.2,3.4-1,5.2-1.5
			c2-0.8,3.6-2.3,4.4-4.3c0.7-1.5,0.6-5.3,1.9-6.1C754.8,335.7,758.3,337.3,759.7,337.9z"/>
		<path class="st16" d="M700.6,361.2c1.1-0.3,2.2-0.3,3.3,0c3.4,0.9,11,3.3,12.6,7c2.1,4.8,9.5,12.2,9.5,12.2s10,10,7.9,16.9
			s-10,14.8-10,14.8s2.1,32.8-8.5,41.2s-14.8,2.6-14.8,10.6s-32.8,32.8-39.1,17.4c0,0,3.2-28.5,2.1-38.6
			C662.6,432.8,664.1,371.1,700.6,361.2z"/>
		<path class="st16" d="M717.5,374.5c0,0,32.2,23.8,26.4,33.8c0,0-19.5,9.5-23.8,9s-20.6-19-24.8-20.6S689,366.6,717.5,374.5z"/>
	</g>
	<path class="st17" d="M493.8,376.3c-5,1.7-9.6,5.7-10.6,10.8c-0.5,2.4-0.2,4.9-0.6,7.3c-0.9,5.6-5.3,9.9-9.4,13.9
		s-8.3,8.6-8.6,14.3c-0.3,6.2,4.2,12,3.4,18.2c-0.9,7.2-8.5,11.8-10.4,18.8c-1.3,4.7,0.3,9.7,2.8,13.8c4.8,7.9,13,13.2,21.8,16
		s18.1,3.5,27.3,3.6c11.2,0.1,23.4-0.8,31.8-8.2c4.8-4.3,7.8-10.2,8.5-16.6c0.8-8.6-2.8-17.4-0.3-25.7c1.6-5.2,5.4-9.9,4.9-15.3
		c-0.6-5.3-5.2-9-8.3-13.3c-2.9-4-4.7-8.7-6.5-13.3l-6-15.8c-1.2-3.1-2.5-6.4-5.1-8.4c-4.9-3.8-12.8-3.1-18.6-2.3
		C504.6,374.9,498.9,374.5,493.8,376.3z"/>
	<path class="st18" d="M495.7,422.4c0,0,2.7,8.6-17.3,18.6s2,20.6,2,20.6l23.3,5.3c0,0,23.9-3.3,26.6-7.3s7.3-17.3,6-19.3
		c-1-1.4-2.1-2.8-3.3-4c0,0-15.9-2.7-15.3-10S495.7,422.4,495.7,422.4z"/>
	<path class="st10" d="M495.7,422.4c0,0,2.7,8.6-17.3,18.6s2,20.6,2,20.6l23.3,5.3c0,0,23.9-3.3,26.6-7.3s7.3-17.3,6-19.3
		c-1-1.4-2.1-2.8-3.3-4c0,0-15.9-2.7-15.3-10S495.7,422.4,495.7,422.4z"/>
	
		<ellipse transform="matrix(0.1602 -0.9871 0.9871 0.1602 17.7871 850.3781)" class="st18" cx="508.6" cy="414.7" rx="21.3" ry="21.3"/>
	<path class="st19" d="M506.3,459.6c0,0-25.6-1.9-26.1-19.5c0,0-9.1-1.1-11.8,1.6s-11.3,4.7-11.3,11.3s14.6,26.6,14.6,26.6
		s8,26.6,4.7,31.2s-4,16.6-4,16.6s33.2-2.7,38.5,0s26.6,2.7,27.9,0s-1.3-35.9-1.3-35.9s6-8,4.7-17.3l15.9-18.6c0,0-6-17.9-15.3-17.9
		c0,0-12.6-3.3-13-1.7S536.2,456.3,506.3,459.6z"/>
	<path class="st18" d="M446.5,518c0,0,6,9.3,21.3,11.3s17.9-3.3,16.6-4.7s-17.3-7.3-17.3-7.3l-9.3-7.3L446.5,518z"/>
	<path class="st18" d="M555.5,510.1l-17.3,10c0,0-22.6-1.3-14,5.3s24.6,4,24.6,4l15.3-7.3L555.5,510.1z"/>
	<path class="st17" d="M469.1,527.3c0,0-15.9,39.2,3.3,45.2s72.4,4.7,84.4-3.3s15.3-18.6,13.3-21.9s-15.3-12.6-24.6-13.3
		S469.1,527.3,469.1,527.3z"/>
	<path class="st20" d="M469.1,527.3c0,0-15.9,39.2,3.3,45.2s72.4,4.7,84.4-3.3s15.3-18.6,13.3-21.9s-15.3-12.6-24.6-13.3
		S469.1,527.3,469.1,527.3z"/>
	<path class="st17" d="M544.4,529.8c0,0,56.3-20.4,55.6,4.2s-35.9,31.2-35.9,31.2l-10.6,1.3l-58.5,2c0,0,2-10.6-2.7-12
		c0,0,15.3-4,15.9-4.7s38.5-14,41.2-14.6s10.6-6,16.6-5.3c0,0,6.6-5.3,14-4l-20.6,1.3L544.4,529.8z"/>
	<path class="st10" d="M544.4,529.8c0,0,56.3-20.4,55.6,4.2s-35.9,31.2-35.9,31.2l-10.6,1.3l-58.5,2c0,0,2-10.6-2.7-12
		c0,0,15.3-4,15.9-4.7s38.5-14,41.2-14.6s10.6-6,16.6-5.3c0,0,6.6-5.3,14-4l-20.6,1.3L544.4,529.8z"/>
	<polygon class="st17" points="534.4,533.1 541.5,549.3 584.7,534 588,525.4 576.7,523.4 554,527.3 544.2,530 	"/>
	<polygon class="st10" points="534.4,533.1 541.5,549.3 584.7,534 588,525.4 576.7,523.4 554,527.3 544.2,530 	"/>
	<path class="st17" d="M442.5,552.6c0,0,12.6,15.9,27.2,19.9s22.6-1.3,22.6-1.3l-4.7-18.6l-2-12l-8.6-6l-17.3-8l-20.6-6.6
		c0,0-8.6-1.3-8.6,0s8,21.3,8,21.3L442.5,552.6z"/>
	<path class="st21" d="M457.8,561.2c0,0,2.7,19.3,6,20.6s13.3-1.3,15.9-2.7s11.7-7.5,11.7-7.5S459.8,559.9,457.8,561.2z"/>
	<polygon class="st18" points="518.3,563.2 530.9,565.2 529.6,580.5 512,576.2 	"/>
	<path class="st21" d="M526.2,567.5c0,0-5.9,7,0.1,11l4,3.3c0,0,13.3,2.7,14.6,4s6.6-2,6.6-2s0.7-19.9,0-21.3s-8.6-2.7-9.3-1.3
		s-8.6,3.3-13.3,2L526.2,567.5z"/>
	<path class="st17" d="M473.1,532c0,0-46.5-27.2-53.8-17.3s-15.3,23.9,6,34.5c21.3,10.6,87.7,32.6,87.7,32.6s10-15.3,10-19.3
		c0,0-35.2-15.9-41.2-17.3s-29.9-16.6-33.2-17.9s-8-5.3-8-5.3L473.1,532z"/>
	<path class="st19" d="M459.8,449.6l-2.7,2c0,0-6,15.3-6.6,23.9s-8.6,35.2-8,38.5s1.3,6,5.3,9.3c0,0,5.3-12,14.6-10l11.3-41.2
		L459.8,449.6z"/>
	<path class="st19" d="M552.8,449.6l5.3,6c0,0,3.3,8,3.3,10s6.6,31.2,7.3,32.6s3.3,17.9,0,21.9s-9.3,6.6-9.3,6.6s4-14-8.6-14.6
		l1.3-5.3l-12-39.9L552.8,449.6z"/>
	<path class="st0" d="M461.1,495.4v35c0,4.6,3.7,8.3,8.3,8.4l73.2,1.1c4.6,0.1,8.4-3.5,8.5-8.1l1.3-35c0.2-4.6-3.4-8.6-8.1-8.7
		c-0.1,0-0.1,0-0.2,0l-74.5-1.1c-4.6-0.1-8.5,3.6-8.5,8.3C461.1,495.3,461.1,495.3,461.1,495.4z"/>
	<ellipse class="st17" cx="509.9" cy="401.7" rx="22.9" ry="12.3"/>
	<circle class="st21" cx="506" cy="513.7" r="5.3"/>
</g>
</svg>
