<svg version="1.1" xmlns="http://www.w3.org/2000/svg" xmlns:xlink="http://www.w3.org/1999/xlink" width="2016" height="1332"><defs/><g transform="translate(332.8473282442749,279.618320610687) scale(1.1603053435114503,1.1603053435114503)"><path fill="none" stroke="rgb(125,197,62)" paint-order="fill stroke markers" d=" M 505.55034260055925 504.35498188589014 Q 554 148.25 505.02201369595093 -207.8199604304359" stroke-opacity="0.666" stroke-linejoin="round" stroke-miterlimit="10" stroke-width="2.5"/><path fill="none" stroke="rgb(0,172,241)" paint-order="fill stroke markers" d=" M 351.60484646470485 231.736547740532 Q 472.7671415260583 27.66401940265321 503.04355511953435 -207.81123577530303" stroke-opacity="0.666" stroke-linejoin="round" stroke-miterlimit="10" stroke-width="2.5"/><path fill="none" stroke="rgb(125,197,62)" paint-order="fill stroke markers" d=" M 509.2674738320849 505.5272939283035 Q 670.7721343262326 192.09153210557383 740.3959765376537 -153.60381619303166" stroke-opacity="0.666" stroke-linejoin="round" stroke-miterlimit="10" stroke-width="2.5"/><path fill="none" stroke="rgb(19,0,71)" paint-order="fill stroke markers" d=" M 667.0813667987383 231.18164731259517 Q 751.5095769564547 48.07209137915567 742.2220220408195 -153.46413310213376" stroke-opacity="0.666" stroke-linejoin="round" stroke-miterlimit="10" stroke-width="2.5"/><path fill="none" stroke="rgb(125,197,62)" paint-order="fill stroke markers" d=" M 512.4924015230486 507.9957033606314 Q 758.3031990204678 283.5491983547646 928.7980743322016 -2.386510590087312" stroke-opacity="0.666" stroke-linejoin="round" stroke-miterlimit="10" stroke-width="2.5"/><path fill="none" stroke="rgb(2,123,252)" paint-order="fill stroke markers" d=" M 355.8241394263165 418.8580978069378 Q 670.488733942973 246.8139669207383 927.2695764389039 -3.592053687818975" stroke-opacity="0.666" stroke-linejoin="round" stroke-miterlimit="10" stroke-width="2.5"/><path fill="none" stroke="rgb(2,123,252)" paint-order="fill stroke markers" d=" M 357.0824784544341 422.51521466608824 Q 708.7480856282683 364.8850815520087 1031.7078225842276 214.17447097720543" stroke-opacity="0.666" stroke-linejoin="round" stroke-miterlimit="10" stroke-width="2.5"/><path fill="none" stroke="rgb(247,80,64)" paint-order="fill stroke markers" d=" M 513.5237579711011 -26.054223544995637 Q 752.3434545305971 135.581380986911 1031.2518931987117 209.09144771000652" stroke-opacity="0.666" stroke-linejoin="round" stroke-miterlimit="10" stroke-width="2.5"/><path fill="none" stroke="rgb(19,0,71)" paint-order="fill stroke markers" d=" M 670.7501087693765 249.38852478234293 Q 827.4593433859241 392.790324589752 1031.3102312653866 452.8766273099022" stroke-opacity="0.666" stroke-linejoin="round" stroke-miterlimit="10" stroke-width="2.5"/><path fill="none" stroke="rgb(247,80,64)" paint-order="fill stroke markers" d=" M 511.3621941243757 -23.66551655867724 Q 739.0362694894143 249.53875038279713 1032.3198105197644 450.75410990864293" stroke-opacity="0.666" stroke-linejoin="round" stroke-miterlimit="10" stroke-width="2.5"/><path fill="none" stroke="rgb(2,123,252)" paint-order="fill stroke markers" d=" M 355.49049281442484 430.4625336984237 Q 621.4013838168912 596.3743927241687 925.3665985421001 672.9950972260823" stroke-opacity="0.666" stroke-linejoin="round" stroke-miterlimit="10" stroke-width="2.5"/><path fill="none" stroke="rgb(19,0,71)" paint-order="fill stroke markers" d=" M 666.3823962931939 252.36308432880568 Q 756.0949675386978 486.39655590879266 927.5112618286624 669.3551521847711" stroke-opacity="0.666" stroke-linejoin="round" stroke-miterlimit="10" stroke-width="2.5"/><path fill="none" stroke="rgb(251,211,0)" paint-order="fill stroke markers" d=" M 651.8377335503586 419.52749694056115 Q 328.6872132321902 269.3154044520235 -23.101149365244737 212.2047419142103" stroke-opacity="0.666" stroke-linejoin="round" stroke-miterlimit="10" stroke-width="2.5"/><path fill="none" stroke="rgb(0,172,241)" paint-order="fill stroke markers" d=" M 350.78975857143786 251.9539817472546 Q 503.5181411059734 563.9712938376792 736.8400328892035 821.399080037767" stroke-opacity="0.666" stroke-linejoin="round" stroke-miterlimit="10" stroke-width="2.5"/><path fill="none" stroke="rgb(251,211,0)" paint-order="fill stroke markers" d=" M 661.7882622300158 435.86506659718714 Q 653.4093005819844 637.3272842616359 738.7058850164137 820.159450847015" stroke-opacity="0.666" stroke-linejoin="round" stroke-miterlimit="10" stroke-width="2.5"/><path fill="none" stroke="rgb(247,80,64)" paint-order="fill stroke markers" d=" M 502.7543085098171 -21.067666348846956 Q 454.00000000000006 426.375 503.18053341934024 873.794902782446" stroke-opacity="0.666" stroke-linejoin="round" stroke-miterlimit="10" stroke-width="2.5"/><path fill="none" stroke="rgb(19,0,71)" paint-order="fill stroke markers" d=" M 657.8696929729485 252.2514401936985 Q 534.1164196396803 551.3693391514068 504.6818759587683 873.7810613085355" stroke-opacity="0.666" stroke-linejoin="round" stroke-miterlimit="10" stroke-width="2.5"/><path fill="none" stroke="rgb(251,211,0)" paint-order="fill stroke markers" d=" M 652.9027258839228 431.05155813234774 Q 427.15275263931386 592.0219469173846 270.3634802493687 820.7698773674977" stroke-opacity="0.666" stroke-linejoin="round" stroke-miterlimit="10" stroke-width="2.5"/><path fill="none" stroke="rgb(0,172,241)" paint-order="fill stroke markers" d=" M 342.31595644762416 252.6053439236017 Q 256.115157208986 529.5339088958312 265.8710122398459 819.4604242845655" stroke-opacity="0.666" stroke-linejoin="round" stroke-miterlimit="10" stroke-width="2.5"/><path fill="none" stroke="rgb(251,211,0)" paint-order="fill stroke markers" d=" M 654.021017903844 416.35827250632974 Q 396.89749953948865 166.3572998709126 81.94681086464169 -5.240019260747545" stroke-opacity="0.666" stroke-linejoin="round" stroke-miterlimit="10" stroke-width="2.5"/><path fill="none" stroke="rgb(0,172,241)" paint-order="fill stroke markers" d=" M 346.2117377699842 230.1349334028128 Q 354.59069941801556 28.67271573836413 269.29411498358616 -154.15945084701497" stroke-opacity="0.666" stroke-linejoin="round" stroke-miterlimit="10" stroke-width="2.5"/><path fill="none" stroke="rgb(251,211,0)" paint-order="fill stroke markers" d=" M 651.1203688048824 427.20726549069116 Q 347.3493947864631 504.3988600007479 81.71628763013132 670.8459582145185" stroke-opacity="0.666" stroke-linejoin="round" stroke-miterlimit="10" stroke-width="2.5"/><path fill="none" stroke="rgb(2,123,252)" paint-order="fill stroke markers" d=" M 335.55972511516507 429.73569315130663 Q 175.10185891589168 514.2800410514202 79.31869855514975 668.4575892948144" stroke-opacity="0.666" stroke-linejoin="round" stroke-miterlimit="10" stroke-width="2.5"/><path fill="none" stroke="rgb(125,197,62)" paint-order="fill stroke markers" d=" M 492.9989319825712 512.3994026687911 Q 240.40743028863346 435.46756204014264 -23.02363989682766 454.4578397494088" stroke-opacity="0.666" stroke-linejoin="round" stroke-miterlimit="10" stroke-width="2.5"/><path fill="none" stroke="rgb(19,0,71)" paint-order="fill stroke markers" d=" M 650.9175215455659 243.48478533391173 Q 299.2519143717317 301.1149184479913 -23.707822584227472 451.8255290227946" stroke-opacity="0.666" stroke-linejoin="round" stroke-miterlimit="10" stroke-width="2.5"/><path fill="none" stroke="rgb(125,197,62)" paint-order="fill stroke markers" d=" M 507.08187800380836 504.6706485763091 Q 554 336 508.54872014745996 167.14849534781402" stroke-opacity="0.666" stroke-linejoin="round" stroke-miterlimit="10" stroke-width="4.5"/><path fill="none" stroke="rgb(2,123,252)" paint-order="fill stroke markers" d=" M 354.2598478076409 416.6576501592486 Q 466.6681989184188 314.9105762113533 500.1306056287669 167.31686225408382" stroke-opacity="0.666" stroke-linejoin="round" stroke-miterlimit="10" stroke-width="4.5"/><path fill="none" stroke="rgb(19,0,71)" paint-order="fill stroke markers" d=" M 656.4294369905494 231.71627312364183 Q 610.7311474821564 154.1362298107781 521.4884108634931 150.88677740982038" stroke-opacity="0.666" stroke-linejoin="round" stroke-miterlimit="10" stroke-width="4.5"/><path fill="none" stroke="rgb(251,211,0)" paint-order="fill stroke markers" d=" M 659.8457167042471 413.13260084475536 Q 627.9343414600249 264.9105762113534 516.8456390893098 162.13442494979026" stroke-opacity="0.666" stroke-linejoin="round" stroke-miterlimit="10" stroke-width="4.5"/><path fill="none" stroke="rgb(247,80,64)" paint-order="fill stroke markers" d=" M 498.33714358144044 -22.490901280196113 Q 453.99999999999994 55.875000000000014 495.8072599817139 134.7862032154851" stroke-opacity="0.666" stroke-linejoin="round" stroke-miterlimit="10" stroke-width="4.5"/><path fill="none" stroke="rgb(0,172,241)" paint-order="fill stroke markers" d=" M 357.2334194280101 241.52462815655423 Q 447.2688525178436 240.7387701892219 494.7043291547929 165.0770193746946" stroke-opacity="0.666" stroke-linejoin="round" stroke-miterlimit="10" stroke-width="4.5"/><path fill="rgb(168,174,188)" stroke="none" paint-order="stroke fill markers" d=" M 521.5 150.25000000000003 L 521.4460533403296 151.6230341752373 L 521.2845459604149 152.98760313820407 L 521.0164736069593 154.33529386747838 L 520.6434890351651 155.6577974015616 L 520.1678918189475 156.9469600663891 L 519.5926141732964 158.1948337454421 L 518.9212028761965 159.39372488252914 L 518.1577974015615 160.5362419151183 L 517.3071043980004 161.61534084577823 L 516.3743686707645 162.6243686707646 L 515.3653408457782 163.55710439800058 L 514.2862419151182 164.4077974015616 L 513.143724882529 165.17120287619665 L 511.944833745442 165.84261417329645 L 510.696960066389 166.41789181894754 L 509.40779740156154 166.8934890351652 L 508.0852938674783 167.26647360695938 L 506.737603138204 167.53454596041493 L 505.37303417523725 167.69605334032977 L 503.99999999999994 167.75000000000003 L 502.62696582476264 167.69605334032977 L 501.2623968617959 167.53454596041493 L 499.9147061325216 167.26647360695938 L 498.59220259843835 166.8934890351652 L 497.3030399336109 166.41789181894754 L 496.0551662545579 165.84261417329645 L 494.85627511747083 165.17120287619665 L 493.71375808488165 164.4077974015616 L 492.6346591542217 163.55710439800058 L 491.6256313292354 162.62436867076462 L 490.6928956019994 161.61534084577823 L 489.84220259843835 160.5362419151183 L 489.0787971238033 159.39372488252914 L 488.4073858267035 158.1948337454421 L 487.83210818105243 156.9469600663891 L 487.35651096483474 155.65779740156162 L 486.9835263930406 154.33529386747838 L 486.71545403958504 152.98760313820407 L 486.5539466596702 151.6230341752373 L 486.49999999999994 150.25000000000003 L 486.5539466596702 148.87696582476275 L 486.71545403958504 147.512396861796 L 486.9835263930406 146.16470613252167 L 487.35651096483474 144.84220259843846 L 487.83210818105243 143.55303993361096 L 488.4073858267035 142.30516625455797 L 489.0787971238033 141.10627511747091 L 489.84220259843835 139.96375808488176 L 490.6928956019994 138.88465915422182 L 491.6256313292354 137.87563132923546 L 492.6346591542217 136.94289560199948 L 493.71375808488165 136.09220259843846 L 494.85627511747083 135.3287971238034 L 496.0551662545579 134.65738582670357 L 497.3030399336109 134.0821081810525 L 498.5922025984384 133.60651096483483 L 499.91470613252164 133.23352639304068 L 501.26239686179593 132.9654540395851 L 502.6269658247627 132.8039466596703 L 504 132.75000000000003 L 505.3730341752373 132.8039466596703 L 506.73760313820407 132.96545403958513 L 508.08529386747836 133.2335263930407 L 509.4077974015616 133.60651096483485 L 510.6969600663891 134.08210818105255 L 511.9448337454421 134.65738582670363 L 513.1437248825291 135.32879712380347 L 514.2862419151184 136.09220259843852 L 515.3653408457783 136.94289560199957 L 516.3743686707646 137.87563132923555 L 517.3071043980005 138.88465915422194 L 518.1577974015617 139.96375808488187 L 518.9212028761966 141.10627511747106 L 519.5926141732965 142.30516625455812 L 520.1678918189475 143.55303993361113 L 520.6434890351652 144.84220259843863 L 521.0164736069594 146.16470613252187 L 521.2845459604149 147.5123968617962 L 521.4460533403297 148.87696582476295 Z" fill-opacity="0.9"/><text fill="rgb(19,0,71)" stroke="none" font-family="Assistant-SemiBold, sans-serif" font-size="14px" font-style="normal" font-weight="500" text-decoration="normal" x="482.24999999999994" y="132.75000000000003" text-anchor="start" dominant-baseline="text-after-edge" fill-opacity="0.9">IQT Labs</text><path fill="rgb(125,197,62)" stroke="none" paint-order="stroke fill markers" d=" M 511.4999999999999 -215.25 L 511.47688000299837 -214.66155678204117 L 511.4076625544634 -214.07674151219828 L 511.29277440298245 -213.4991597710807 L 511.13292387221355 -212.9323725421879 L 510.92909649383455 -212.37987425726183 L 510.68254893141267 -211.8450712519534 L 510.3948012326556 -211.33126076463037 L 510.06762745781197 -210.84161060780644 L 509.70304474200015 -210.37913963752362 L 509.303300858899 -209.9466991411009 L 508.87086036247626 -209.54695525799977 L 508.40838939219344 -209.1823725421879 L 507.9187392353695 -208.85519876734432 L 507.4049287480465 -208.56745106858725 L 506.8701257427381 -208.32090350616534 L 506.31762745781197 -208.11707612778636 L 505.7508402289192 -207.9572255970174 L 505.1732584878016 -207.84233744553646 L 504.58844321795874 -207.77311999700154 L 503.9999999999999 -207.75 L 503.41155678204103 -207.77311999700154 L 502.82674151219817 -207.84233744553646 L 502.2491597710806 -207.9572255970174 L 501.6823725421878 -208.11707612778633 L 501.1298742572617 -208.32090350616534 L 500.5950712519533 -208.56745106858725 L 500.08126076463026 -208.85519876734432 L 499.59161060780633 -209.1823725421879 L 499.1291396375235 -209.54695525799977 L 498.6966991411008 -209.9466991411009 L 498.2969552579996 -210.37913963752362 L 497.9323725421878 -210.84161060780644 L 497.6051987673442 -211.33126076463037 L 497.3174510685871 -211.84507125195339 L 497.0709035061652 -212.37987425726183 L 496.8670761277862 -212.9323725421879 L 496.7072255970173 -213.4991597710807 L 496.5923374455364 -214.07674151219825 L 496.5231199970014 -214.66155678204117 L 496.4999999999999 -215.25 L 496.5231199970014 -215.83844321795883 L 496.5923374455364 -216.42325848780172 L 496.7072255970173 -217.0008402289193 L 496.8670761277862 -217.5676274578121 L 497.0709035061652 -218.12012574273817 L 497.3174510685871 -218.6549287480466 L 497.6051987673442 -219.16873923536963 L 497.9323725421878 -219.65838939219356 L 498.2969552579996 -220.12086036247638 L 498.6966991411008 -220.5533008588991 L 499.1291396375235 -220.95304474200023 L 499.59161060780633 -221.3176274578121 L 500.08126076463026 -221.64480123265568 L 500.5950712519533 -221.93254893141275 L 501.12987425726175 -222.17909649383466 L 501.6823725421878 -222.38292387221367 L 502.2491597710806 -222.5427744029826 L 502.82674151219817 -222.65766255446354 L 503.4115567820411 -222.72688000299846 L 503.9999999999999 -222.75 L 504.58844321795874 -222.72688000299846 L 505.17325848780166 -222.65766255446354 L 505.75084022891923 -222.54277440298256 L 506.317627457812 -222.38292387221364 L 506.8701257427381 -222.17909649383463 L 507.40492874804653 -221.93254893141273 L 507.91873923536957 -221.64480123265565 L 508.4083893921935 -221.31762745781208 L 508.8708603624763 -220.9530447420002 L 509.30330085889904 -220.55330085889906 L 509.70304474200015 -220.12086036247632 L 510.067627457812 -219.6583893921935 L 510.3948012326556 -219.16873923536957 L 510.68254893141267 -218.65492874804653 L 510.92909649383455 -218.1201257427381 L 511.13292387221355 -217.56762745781202 L 511.2927744029825 -217.0008402289192 L 511.40766255446346 -216.42325848780166 L 511.47688000299837 -215.83844321795874 Z" fill-opacity="0.9"/><text fill="rgb(19,0,71)" stroke="none" font-family="Assistant-SemiBold, sans-serif" font-size="14px" font-style="normal" font-weight="500" text-decoration="normal" x="515.2499999999999" y="-208.25" text-anchor="start" dominant-baseline="text-after-edge" fill-opacity="0.9">PCAPviz</text><path fill="rgb(125,197,62)" stroke="none" paint-order="stroke fill markers" d=" M 749.3767599712012 -160.95618182750138 L 749.3536399741996 -160.36773860954256 L 749.2844225256647 -159.78292333969966 L 749.1695343741837 -159.2053415985821 L 749.0096838434148 -158.63855436968927 L 748.8058564650358 -158.08605608476321 L 748.5593089026139 -157.5512530794548 L 748.2715612038569 -157.03744259213175 L 747.9443874290133 -156.54779243530783 L 747.5798047132014 -156.085321465025 L 747.1800608301003 -155.6528809686023 L 746.7476203336776 -155.25313708550115 L 746.2851493633947 -154.88855436968927 L 745.7954992065708 -154.5613805948457 L 745.2816887192478 -154.27363289608863 L 744.7468857139394 -154.02708533366672 L 744.1943874290133 -153.82325795528774 L 743.6276002001205 -153.6634074245188 L 743.0500184590029 -153.54851927303784 L 742.46520318916 -153.47930182450293 L 741.8767599712012 -153.45618182750138 L 741.2883167532424 -153.47930182450293 L 740.7035014833995 -153.54851927303784 L 740.1259197422819 -153.6634074245188 L 739.559132513389 -153.82325795528772 L 739.006634228463 -154.02708533366672 L 738.4718312231546 -154.27363289608863 L 737.9580207358316 -154.5613805948457 L 737.4683705790077 -154.88855436968927 L 737.0058996087248 -155.25313708550115 L 736.5734591123021 -155.6528809686023 L 736.173715229201 -156.085321465025 L 735.809132513389 -156.54779243530783 L 735.4819587385455 -157.03744259213175 L 735.1942110397885 -157.55125307945477 L 734.9476634773665 -158.08605608476321 L 734.7438360989876 -158.63855436968927 L 734.5839855682186 -159.2053415985821 L 734.4690974167377 -159.78292333969964 L 734.3998799682028 -160.36773860954256 L 734.3767599712012 -160.95618182750138 L 734.3998799682028 -161.5446250454602 L 734.4690974167377 -162.1294403153031 L 734.5839855682186 -162.70702205642067 L 734.7438360989876 -163.2738092853135 L 734.9476634773665 -163.82630757023955 L 735.1942110397885 -164.36111057554797 L 735.4819587385455 -164.874921062871 L 735.809132513389 -165.36457121969494 L 736.173715229201 -165.82704218997776 L 736.5734591123021 -166.25948268640047 L 737.0058996087248 -166.6592265695016 L 737.4683705790077 -167.0238092853135 L 737.9580207358316 -167.35098306015706 L 738.4718312231546 -167.63873075891414 L 739.006634228463 -167.88527832133605 L 739.559132513389 -168.08910569971505 L 740.1259197422819 -168.24895623048397 L 740.7035014833995 -168.36384438196492 L 741.2883167532424 -168.43306183049984 L 741.8767599712012 -168.45618182750138 L 742.4652031891601 -168.43306183049984 L 743.0500184590029 -168.36384438196492 L 743.6276002001205 -168.24895623048394 L 744.1943874290133 -168.08910569971502 L 744.7468857139394 -167.88527832133602 L 745.2816887192478 -167.6387307589141 L 745.7954992065709 -167.35098306015703 L 746.2851493633948 -167.02380928531346 L 746.7476203336776 -166.65922656950158 L 747.1800608301003 -166.25948268640045 L 747.5798047132015 -165.8270421899777 L 747.9443874290133 -165.36457121969488 L 748.2715612038569 -164.87492106287095 L 748.559308902614 -164.3611105755479 L 748.8058564650358 -163.8263075702395 L 749.0096838434149 -163.2738092853134 L 749.1695343741837 -162.70702205642058 L 749.2844225256647 -162.12944031530304 L 749.3536399741996 -161.54462504546012 Z" fill-opacity="0.9"/><text fill="rgb(19,0,71)" stroke="none" font-family="Assistant-SemiBold, sans-serif" font-size="14px" font-style="normal" font-weight="500" text-decoration="normal" x="753.1267599712012" y="-153.95618182750138" text-anchor="start" dominant-baseline="text-after-edge" fill-opacity="0.9">VeriCAT</text><path fill="rgb(125,197,62)" stroke="none" paint-order="stroke fill markers" d=" M 940.1391102630973 -8.828283869050779 L 940.1159902660958 -8.239840651091942 L 940.0467728175608 -7.655025381249047 L 939.9318846660799 -7.077443640131488 L 939.772034135311 -6.510656411238673 L 939.568206756932 -5.958158126312606 L 939.3216591945101 -5.423355121004178 L 939.033911495753 -4.909544633681163 L 938.7067377209095 -4.41989447685723 L 938.3421550050975 -3.9574235065744015 L 937.9424111219964 -3.524983010151673 L 937.5099706255737 -3.1252391270505466 L 937.0474996552908 -2.7606564112386724 L 936.5578494984669 -2.4334826363950874 L 936.0440390111439 -2.1457349376380206 L 935.5092360058355 -1.899187375216128 L 934.9567377209095 -1.6953599968371273 L 934.3899504920166 -1.5355094660682047 L 933.812368750899 -1.4206213145872457 L 933.2275534810561 -1.351403866052319 L 932.6391102630973 -1.3282838690507788 L 932.0506670451385 -1.351403866052319 L 931.4658517752956 -1.4206213145872457 L 930.888270034178 -1.5355094660682038 L 930.3214828052852 -1.6953599968371265 L 929.7689845203591 -1.899187375216128 L 929.2341815150508 -2.1457349376380197 L 928.7203710277278 -2.4334826363950866 L 928.2307208709038 -2.7606564112386724 L 927.768249900621 -3.1252391270505457 L 927.3358094041982 -3.524983010151672 L 926.9360655210971 -3.9574235065744006 L 926.5714828052852 -4.4198944768572295 L 926.2443090304416 -4.909544633681162 L 925.9565613316846 -5.423355121004177 L 925.7100137692627 -5.958158126312604 L 925.5061863908837 -6.5106564112386724 L 925.3463358601148 -7.077443640131487 L 925.2314477086338 -7.655025381249047 L 925.1622302600989 -8.23984065109194 L 925.1391102630973 -8.828283869050777 L 925.1622302600989 -9.416727087009615 L 925.2314477086338 -10.001542356852509 L 925.3463358601148 -10.579124097970068 L 925.5061863908837 -11.145911326862883 L 925.7100137692627 -11.698409611788952 L 925.9565613316846 -12.23321261709738 L 926.2443090304416 -12.747023104420395 L 926.5714828052852 -13.236673261244327 L 926.9360655210971 -13.699144231527155 L 927.3358094041982 -14.131584727949885 L 927.768249900621 -14.53132861105101 L 928.2307208709038 -14.895911326862883 L 928.7203710277278 -15.223085101706472 L 929.2341815150508 -15.51083280046354 L 929.7689845203591 -15.757380362885431 L 930.3214828052852 -15.961207741264435 L 930.888270034178 -16.12105827203336 L 931.4658517752956 -16.235946423514314 L 932.0506670451385 -16.305163872049242 L 932.6391102630973 -16.32828386905078 L 933.2275534810562 -16.305163872049235 L 933.812368750899 -16.235946423514307 L 934.3899504920166 -16.121058272033345 L 934.9567377209095 -15.961207741264419 L 935.5092360058355 -15.757380362885414 L 936.0440390111439 -15.510832800463518 L 936.557849498467 -15.223085101706445 L 937.047499655291 -14.895911326862855 L 937.5099706255737 -14.531328611050975 L 937.9424111219964 -14.131584727949843 L 938.3421550050977 -13.69914423152711 L 938.7067377209095 -13.236673261244274 L 939.033911495753 -12.747023104420338 L 939.3216591945102 -12.233212617097315 L 939.568206756932 -11.698409611788883 L 939.7720341353111 -11.14591132686281 L 939.9318846660799 -10.57912409796999 L 940.0467728175608 -10.001542356852427 L 940.1159902660958 -9.416727087009528 Z" fill-opacity="0.9"/><text fill="rgb(19,0,71)" stroke="none" font-family="Assistant-SemiBold, sans-serif" font-size="14px" font-style="normal" font-weight="500" text-decoration="normal" x="943.8891102630973" y="-1.8282838690507788" text-anchor="start" dominant-baseline="text-after-edge" fill-opacity="0.9">Viziflu/COVIZ</text><path fill="rgb(2,123,252)" stroke="none" paint-order="stroke fill markers" d=" M 1046.0042278536848 211.0028979584505 L 1045.9811078566834 211.59134117640932 L 1045.9118904081483 212.1761564462522 L 1045.7970022566674 212.75373818736978 L 1045.6371517258985 213.3205254162626 L 1045.4333243475194 213.87302370118866 L 1045.1867767850977 214.40782670649708 L 1044.8990290863405 214.92163719382012 L 1044.5718553114968 215.41128735064405 L 1044.207272595685 215.87375832092687 L 1043.807528712584 216.30619881734958 L 1043.3750882161612 216.70594270045072 L 1042.9126172458784 217.0705254162626 L 1042.4229670890545 217.39769919110617 L 1041.9091566017314 217.68544688986324 L 1041.374353596423 217.93199445228515 L 1040.8218553114968 218.13582183066413 L 1040.255068082604 218.29567236143308 L 1039.6774863414867 218.41056051291403 L 1039.0926710716437 218.47977796144895 L 1038.5042278536848 218.5028979584505 L 1037.915784635726 218.47977796144895 L 1037.330969365883 218.41056051291403 L 1036.7533876247655 218.29567236143308 L 1036.1866003958728 218.13582183066416 L 1035.6341021109467 217.93199445228515 L 1035.0992991056382 217.68544688986324 L 1034.5854886183151 217.39769919110617 L 1034.0958384614912 217.0705254162626 L 1033.6333674912084 216.70594270045072 L 1033.2009269947857 216.30619881734958 L 1032.8011831116846 215.87375832092687 L 1032.4366003958728 215.41128735064405 L 1032.1094266210291 214.92163719382012 L 1031.821678922272 214.4078267064971 L 1031.5751313598503 213.87302370118866 L 1031.371303981471 213.3205254162626 L 1031.2114534507023 212.75373818736978 L 1031.0965652992213 212.17615644625224 L 1031.0273478506863 211.59134117640932 L 1031.0042278536848 211.0028979584505 L 1031.0273478506863 210.41445474049166 L 1031.0965652992213 209.82963947064877 L 1031.2114534507023 209.2520577295312 L 1031.371303981471 208.68527050063838 L 1031.5751313598503 208.13277221571232 L 1031.821678922272 207.5979692104039 L 1032.1094266210291 207.08415872308086 L 1032.4366003958728 206.59450856625693 L 1032.8011831116846 206.1320375959741 L 1033.2009269947857 205.6995970995514 L 1033.6333674912084 205.29985321645026 L 1034.0958384614912 204.93527050063838 L 1034.5854886183151 204.6080967257948 L 1035.0992991056382 204.32034902703774 L 1035.6341021109467 204.07380146461583 L 1036.1866003958728 203.86997408623682 L 1036.7533876247655 203.7101235554679 L 1037.3309693658832 203.59523540398695 L 1037.915784635726 203.52601795545203 L 1038.5042278536848 203.5028979584505 L 1039.0926710716437 203.52601795545203 L 1039.6774863414867 203.59523540398695 L 1040.255068082604 203.71012355546793 L 1040.821855311497 203.86997408623685 L 1041.3743535964231 204.07380146461585 L 1041.9091566017314 204.32034902703776 L 1042.4229670890545 204.60809672579484 L 1042.9126172458784 204.9352705006384 L 1043.3750882161612 205.2998532164503 L 1043.807528712584 205.69959709955143 L 1044.207272595685 206.13203759597417 L 1044.571855311497 206.594508566257 L 1044.8990290863405 207.08415872308092 L 1045.1867767850977 207.59796921040396 L 1045.4333243475196 208.13277221571238 L 1045.6371517258985 208.68527050063847 L 1045.7970022566674 209.2520577295313 L 1045.9118904081483 209.82963947064883 L 1045.9811078566834 210.41445474049175 Z" fill-opacity="0.9"/><text fill="rgb(19,0,71)" stroke="none" font-family="Assistant-SemiBold, sans-serif" font-size="14px" font-style="normal" font-weight="500" text-decoration="normal" x="1049.7542278536848" y="218.0028979584505" text-anchor="start" dominant-baseline="text-after-edge" fill-opacity="0.9">Where in the World</text><path fill="rgb(19,0,71)" stroke="none" paint-order="stroke fill markers" d=" M 1046.0042278536848 454.9971020415492 L 1045.9811078566834 455.5855452595081 L 1045.9118904081483 456.17036052935094 L 1045.7970022566674 456.7479422704685 L 1045.6371517258985 457.3147294993613 L 1045.4333243475194 457.8672277842874 L 1045.1867767850977 458.4020307895958 L 1044.8990290863405 458.91584127691885 L 1044.5718553114968 459.4054914337428 L 1044.207272595685 459.8679624040256 L 1043.807528712584 460.3004029004483 L 1043.3750882161612 460.7001467835495 L 1042.9126172458784 461.0647294993613 L 1042.4229670890545 461.39190327420494 L 1041.9091566017314 461.679650972962 L 1041.374353596423 461.9261985353839 L 1040.8218553114968 462.1300259137629 L 1040.255068082604 462.2898764445318 L 1039.6774863414867 462.40476459601274 L 1039.0926710716437 462.4739820445477 L 1038.5042278536848 462.4971020415492 L 1037.915784635726 462.4739820445477 L 1037.330969365883 462.40476459601274 L 1036.7533876247655 462.2898764445318 L 1036.1866003958728 462.1300259137629 L 1035.6341021109467 461.9261985353839 L 1035.0992991056382 461.679650972962 L 1034.5854886183151 461.39190327420494 L 1034.0958384614912 461.0647294993613 L 1033.6333674912084 460.7001467835495 L 1033.2009269947857 460.3004029004483 L 1032.8011831116846 459.8679624040256 L 1032.4366003958728 459.4054914337428 L 1032.1094266210291 458.91584127691885 L 1031.821678922272 458.4020307895958 L 1031.5751313598503 457.8672277842874 L 1031.371303981471 457.3147294993613 L 1031.2114534507023 456.7479422704685 L 1031.0965652992213 456.17036052935094 L 1031.0273478506863 455.5855452595081 L 1031.0042278536848 454.9971020415492 L 1031.0273478506863 454.4086588235904 L 1031.0965652992213 453.8238435537475 L 1031.2114534507023 453.24626181262994 L 1031.371303981471 452.67947458373715 L 1031.5751313598503 452.12697629881103 L 1031.821678922272 451.59217329350264 L 1032.1094266210291 451.0783628061796 L 1032.4366003958728 450.58871264935567 L 1032.8011831116846 450.12624167907285 L 1033.2009269947857 449.69380118265013 L 1033.6333674912084 449.294057299549 L 1034.0958384614912 448.92947458373715 L 1034.5854886183151 448.6023008088935 L 1035.0992991056382 448.31455311013644 L 1035.6341021109467 448.06800554771456 L 1036.1866003958728 447.86417816933556 L 1036.7533876247655 447.70432763856667 L 1037.3309693658832 447.5894394870857 L 1037.915784635726 447.52022203855074 L 1038.5042278536848 447.4971020415492 L 1039.0926710716437 447.52022203855074 L 1039.6774863414867 447.5894394870857 L 1040.255068082604 447.70432763856667 L 1040.821855311497 447.86417816933556 L 1041.3743535964231 448.0680055477146 L 1041.9091566017314 448.3145531101365 L 1042.4229670890545 448.6023008088936 L 1042.9126172458784 448.92947458373715 L 1043.3750882161612 449.294057299549 L 1043.807528712584 449.69380118265013 L 1044.207272595685 450.1262416790729 L 1044.571855311497 450.5887126493557 L 1044.8990290863405 451.07836280617965 L 1045.1867767850977 451.5921732935027 L 1045.4333243475196 452.12697629881114 L 1045.6371517258985 452.6794745837372 L 1045.7970022566674 453.24626181263 L 1045.9118904081483 453.82384355374757 L 1045.9811078566834 454.4086588235905 Z" fill-opacity="0.9"/><text fill="rgb(19,0,71)" stroke="none" font-family="Assistant-SemiBold, sans-serif" font-size="14px" font-style="normal" font-weight="500" text-decoration="normal" x="1049.7542278536848" y="461.9971020415492" text-anchor="start" dominant-baseline="text-after-edge" fill-opacity="0.9">Fusing Without Confusing</text><path fill="rgb(2,123,252)" stroke="none" paint-order="stroke fill markers" d=" M 940.1391102630973 674.8282838690506 L 940.1159902660958 675.4167270870093 L 940.0467728175608 676.0015423568523 L 939.9318846660799 676.5791240979698 L 939.772034135311 677.1459113268627 L 939.568206756932 677.6984096117887 L 939.3216591945101 678.2332126170971 L 939.033911495753 678.7470231044201 L 938.7067377209095 679.236673261244 L 938.3421550050975 679.6991442315269 L 937.9424111219964 680.1315847279496 L 937.5099706255737 680.5313286110508 L 937.0474996552908 680.8959113268627 L 936.5578494984669 681.2230851017063 L 936.0440390111439 681.5108328004633 L 935.5092360058355 681.7573803628852 L 934.9567377209095 681.9612077412642 L 934.3899504920166 682.1210582720331 L 933.812368750899 682.2359464235141 L 933.2275534810561 682.305163872049 L 932.6391102630973 682.3282838690506 L 932.0506670451385 682.305163872049 L 931.4658517752956 682.2359464235141 L 930.888270034178 682.1210582720331 L 930.3214828052852 681.9612077412642 L 929.7689845203591 681.7573803628852 L 929.2341815150508 681.5108328004633 L 928.7203710277278 681.2230851017063 L 928.2307208709038 680.8959113268627 L 927.768249900621 680.5313286110508 L 927.3358094041982 680.1315847279496 L 926.9360655210971 679.6991442315269 L 926.5714828052852 679.236673261244 L 926.2443090304416 678.7470231044201 L 925.9565613316846 678.2332126170971 L 925.7100137692627 677.6984096117887 L 925.5061863908837 677.1459113268627 L 925.3463358601148 676.5791240979698 L 925.2314477086338 676.0015423568523 L 925.1622302600989 675.4167270870093 L 925.1391102630973 674.8282838690506 L 925.1622302600989 674.2398406510918 L 925.2314477086338 673.6550253812488 L 925.3463358601148 673.0774436401313 L 925.5061863908837 672.5106564112384 L 925.7100137692627 671.9581581263124 L 925.9565613316846 671.423355121004 L 926.2443090304416 670.909544633681 L 926.5714828052852 670.419894476857 L 926.9360655210971 669.9574235065742 L 927.3358094041982 669.5249830101515 L 927.768249900621 669.1252391270503 L 928.2307208709038 668.7606564112384 L 928.7203710277278 668.4334826363948 L 929.2341815150508 668.1457349376378 L 929.7689845203591 667.8991873752159 L 930.3214828052852 667.6953599968369 L 930.888270034178 667.535509466068 L 931.4658517752956 667.420621314587 L 932.0506670451385 667.3514038660521 L 932.6391102630973 667.3282838690506 L 933.2275534810562 667.3514038660521 L 933.812368750899 667.420621314587 L 934.3899504920166 667.535509466068 L 934.9567377209095 667.6953599968369 L 935.5092360058355 667.8991873752159 L 936.0440390111439 668.1457349376378 L 936.557849498467 668.4334826363948 L 937.047499655291 668.7606564112385 L 937.5099706255737 669.1252391270503 L 937.9424111219964 669.5249830101515 L 938.3421550050977 669.9574235065742 L 938.7067377209095 670.419894476857 L 939.033911495753 670.909544633681 L 939.3216591945102 671.423355121004 L 939.568206756932 671.9581581263125 L 939.7720341353111 672.5106564112385 L 939.9318846660799 673.0774436401314 L 940.0467728175608 673.655025381249 L 940.1159902660958 674.2398406510918 Z" fill-opacity="0.9"/><text fill="rgb(19,0,71)" stroke="none" font-family="Assistant-SemiBold, sans-serif" font-size="14px" font-style="normal" font-weight="500" text-decoration="normal" x="943.8891102630973" y="681.8282838690506" text-anchor="start" dominant-baseline="text-after-edge" fill-opacity="0.9">Synthesizing Robustness</text><path fill="rgb(251,211,0)" stroke="none" paint-order="stroke fill markers" d=" M -23.004227853684824 211.00289795845083 L -23.027347850686365 211.59134117640966 L -23.09656529922129 212.17615644625255 L -23.21145345070225 212.75373818737012 L -23.371303981471172 213.32052541626294 L -23.575131359850175 213.873023701189 L -23.821678922272064 214.40782670649742 L -24.109426621029133 214.92163719382046 L -24.436600395872716 215.4112873506444 L -24.801183111684594 215.8737583209272 L -25.200926994785718 216.30619881734992 L -25.633367491208446 216.70594270045106 L -26.095838461491276 217.07052541626294 L -26.585488618315207 217.3976991911065 L -27.099299105638224 217.68544688986358 L -27.63410211094665 217.9319944522855 L -28.18660039587272 218.13582183066447 L -28.753387624765534 218.29567236143342 L -29.330969365883092 218.41056051291437 L -29.915784635725988 218.4797779614493 L -30.504227853684824 218.50289795845083 L -31.09267107164366 218.4797779614493 L -31.677486341486556 218.41056051291437 L -32.25506808260411 218.29567236143342 L -32.82185531149693 218.1358218306645 L -33.374353596423 217.9319944522855 L -33.909156601731425 217.68544688986358 L -34.42296708905444 217.3976991911065 L -34.91261724587837 217.07052541626294 L -35.3750882161612 216.70594270045106 L -35.80752871258393 216.30619881734992 L -36.207272595685055 215.8737583209272 L -36.57185531149693 215.4112873506444 L -36.89902908634052 214.92163719382046 L -37.186776785097585 214.40782670649745 L -37.43332434751947 213.873023701189 L -37.63715172589848 213.32052541626294 L -37.7970022566674 212.75373818737012 L -37.91189040814836 212.17615644625258 L -37.98110785668328 211.59134117640966 L -38.004227853684824 211.00289795845083 L -37.98110785668328 210.414454740492 L -37.91189040814836 209.8296394706491 L -37.7970022566674 209.25205772953154 L -37.63715172589848 208.68527050063872 L -37.43332434751947 208.13277221571266 L -37.186776785097585 207.59796921040424 L -36.89902908634052 207.0841587230812 L -36.57185531149693 206.59450856625728 L -36.207272595685055 206.13203759597445 L -35.80752871258393 205.69959709955174 L -35.3750882161612 205.2998532164506 L -34.91261724587837 204.93527050063872 L -34.42296708905444 204.60809672579515 L -33.90915660173142 204.32034902703808 L -33.37435359642299 204.07380146461617 L -32.82185531149692 203.86997408623716 L -32.2550680826041 203.71012355546824 L -31.67748634148654 203.5952354039873 L -31.09267107164364 203.52601795545237 L -30.5042278536848 203.50289795845083 L -29.91578463572596 203.52601795545237 L -29.33096936588306 203.5952354039873 L -28.753387624765498 203.71012355546827 L -28.18660039587268 203.8699740862372 L -27.634102110946614 204.0738014646162 L -27.099299105638185 204.3203490270381 L -26.585488618315168 204.60809672579518 L -26.095838461491233 204.93527050063875 L -25.633367491208404 205.29985321645063 L -25.200926994785675 205.69959709955177 L -24.80118311168455 206.1320375959745 L -24.43660039587268 206.59450856625733 L -24.109426621029098 207.08415872308126 L -23.82167892227203 207.5979692104043 L -23.575131359850147 208.13277221571272 L -23.37130398147115 208.6852705006388 L -23.21145345070223 209.25205772953163 L -23.09656529922128 209.82963947064917 L -23.027347850686358 210.4144547404921 Z" fill-opacity="0.9"/><text fill="rgb(19,0,71)" stroke="none" font-family="Assistant-SemiBold, sans-serif" font-size="14px" font-style="normal" font-weight="500" text-decoration="normal" x="-19.254227853684824" y="218.00289795845083" text-anchor="start" dominant-baseline="text-after-edge" fill-opacity="0.9">AI Sonobuoy</text><path fill="rgb(0,172,241)" stroke="none" paint-order="stroke fill markers" d=" M 749.3767599712014 826.9561818275013 L 749.3536399741998 827.5446250454601 L 749.2844225256649 828.129440315303 L 749.169534374184 828.7070220564206 L 749.009683843415 829.2738092853134 L 748.8058564650361 829.8263075702395 L 748.5593089026141 830.3611105755479 L 748.2715612038571 830.8749210628708 L 747.9443874290135 831.3645712196948 L 747.5798047132016 831.8270421899776 L 747.1800608301005 832.2594826864004 L 746.7476203336778 832.6592265695015 L 746.2851493633949 833.0238092853134 L 745.795499206571 833.350983060157 L 745.281688719248 833.638730758914 L 744.7468857139396 833.8852783213359 L 744.1943874290135 834.0891056997149 L 743.6276002001207 834.2489562304838 L 743.0500184590031 834.3638443819648 L 742.4652031891602 834.4330618304997 L 741.8767599712014 834.4561818275013 L 741.2883167532426 834.4330618304997 L 740.7035014833997 834.3638443819648 L 740.1259197422821 834.2489562304838 L 739.5591325133893 834.0891056997149 L 739.0066342284632 833.8852783213359 L 738.4718312231548 833.638730758914 L 737.9580207358318 833.350983060157 L 737.4683705790079 833.0238092853134 L 737.005899608725 832.6592265695015 L 736.5734591123023 832.2594826864004 L 736.1737152292012 831.8270421899776 L 735.8091325133893 831.3645712196948 L 735.4819587385457 830.8749210628708 L 735.1942110397887 830.3611105755479 L 734.9476634773667 829.8263075702395 L 734.7438360989878 829.2738092853134 L 734.5839855682188 828.7070220564206 L 734.4690974167379 828.129440315303 L 734.399879968203 827.5446250454601 L 734.3767599712014 826.9561818275013 L 734.399879968203 826.3677386095425 L 734.4690974167379 825.7829233396996 L 734.5839855682188 825.205341598582 L 734.7438360989878 824.6385543696891 L 734.9476634773667 824.0860560847631 L 735.1942110397887 823.5512530794547 L 735.4819587385457 823.0374425921317 L 735.8091325133893 822.5477924353078 L 736.1737152292012 822.0853214650249 L 736.5734591123023 821.6528809686022 L 737.005899608725 821.2531370855011 L 737.4683705790079 820.8885543696891 L 737.9580207358318 820.5613805948456 L 738.4718312231548 820.2736328960885 L 739.0066342284632 820.0270853336666 L 739.5591325133893 819.8232579552877 L 740.1259197422821 819.6634074245187 L 740.7035014833997 819.5485192730378 L 741.2883167532426 819.4793018245028 L 741.8767599712014 819.4561818275013 L 742.4652031891603 819.4793018245028 L 743.0500184590031 819.5485192730378 L 743.6276002001207 819.6634074245187 L 744.1943874290135 819.8232579552877 L 744.7468857139396 820.0270853336666 L 745.281688719248 820.2736328960885 L 745.7954992065711 820.5613805948456 L 746.285149363395 820.8885543696892 L 746.7476203336778 821.2531370855011 L 747.1800608301005 821.6528809686022 L 747.5798047132017 822.0853214650249 L 747.9443874290135 822.5477924353078 L 748.2715612038571 823.0374425921317 L 748.5593089026142 823.5512530794547 L 748.8058564650361 824.0860560847632 L 749.0096838434151 824.6385543696892 L 749.169534374184 825.2053415985821 L 749.2844225256649 825.7829233396997 L 749.3536399741998 826.3677386095425 Z" fill-opacity="0.9"/><text fill="rgb(19,0,71)" stroke="none" font-family="Assistant-SemiBold, sans-serif" font-size="14px" font-style="normal" font-weight="500" text-decoration="normal" x="753.1267599712014" y="833.9561818275013" text-anchor="start" dominant-baseline="text-after-edge" fill-opacity="0.9">Defensive-5G</text><path fill="rgb(247,80,64)" stroke="none" paint-order="stroke fill markers" d=" M 511.50000000000017 881.25 L 511.47688000299866 881.8384432179588 L 511.4076625544637 882.4232584878017 L 511.29277440298273 883.0008402289193 L 511.13292387221384 883.5676274578121 L 510.92909649383483 884.1201257427382 L 510.68254893141295 884.6549287480466 L 510.3948012326559 885.1687392353696 L 510.06762745781225 885.6583893921935 L 509.70304474200043 886.1208603624764 L 509.30330085889926 886.5533008588991 L 508.87086036247655 886.9530447420002 L 508.4083893921937 887.3176274578121 L 507.9187392353698 887.6448012326557 L 507.40492874804676 887.9325489314127 L 506.87012574273837 888.1790964938347 L 506.31762745781225 888.3829238722136 L 505.75084022891946 888.5427744029826 L 505.1732584878019 888.6576625544635 L 504.588443217959 888.7268800029984 L 504.00000000000017 888.75 L 503.4115567820413 888.7268800029984 L 502.82674151219845 888.6576625544635 L 502.2491597710809 888.5427744029826 L 501.6823725421881 888.3829238722136 L 501.129874257262 888.1790964938347 L 500.5950712519536 887.9325489314127 L 500.08126076463054 887.6448012326557 L 499.5916106078066 887.3176274578121 L 499.1291396375238 886.9530447420002 L 498.6966991411011 886.5533008588991 L 498.2969552579999 886.1208603624764 L 497.9323725421881 885.6583893921935 L 497.60519876734446 885.1687392353696 L 497.3174510685874 884.6549287480466 L 497.0709035061655 884.1201257427382 L 496.8670761277865 883.5676274578121 L 496.7072255970176 883.0008402289193 L 496.59233744553666 882.4232584878017 L 496.5231199970017 881.8384432179588 L 496.50000000000017 881.25 L 496.5231199970017 880.6615567820412 L 496.59233744553666 880.0767415121983 L 496.7072255970176 879.4991597710807 L 496.8670761277865 878.9323725421879 L 497.0709035061655 878.3798742572618 L 497.3174510685874 877.8450712519534 L 497.60519876734446 877.3312607646304 L 497.9323725421881 876.8416106078065 L 498.2969552579999 876.3791396375236 L 498.6966991411011 875.9466991411009 L 499.1291396375238 875.5469552579998 L 499.5916106078066 875.1823725421879 L 500.08126076463054 874.8551987673443 L 500.5950712519536 874.5674510685873 L 501.12987425726203 874.3209035061653 L 501.6823725421881 874.1170761277864 L 502.2491597710809 873.9572255970174 L 502.82674151219845 873.8423374455365 L 503.4115567820414 873.7731199970016 L 504.00000000000017 873.75 L 504.588443217959 873.7731199970016 L 505.17325848780195 873.8423374455365 L 505.7508402289195 873.9572255970174 L 506.3176274578123 874.1170761277864 L 506.87012574273837 874.3209035061653 L 507.4049287480468 874.5674510685873 L 507.91873923536986 874.8551987673443 L 508.4083893921938 875.182372542188 L 508.8708603624766 875.5469552579998 L 509.3033008588993 875.9466991411009 L 509.70304474200043 876.3791396375236 L 510.0676274578123 876.8416106078065 L 510.3948012326559 877.3312607646304 L 510.68254893141295 877.8450712519534 L 510.92909649383483 878.3798742572619 L 511.13292387221384 878.932372542188 L 511.2927744029828 879.4991597710808 L 511.40766255446374 880.0767415121984 L 511.47688000299866 880.6615567820412 Z" fill-opacity="0.9"/><text fill="rgb(19,0,71)" stroke="none" font-family="Assistant-SemiBold, sans-serif" font-size="14px" font-style="normal" font-weight="500" text-decoration="normal" x="515.2500000000002" y="888.25" text-anchor="start" dominant-baseline="text-after-edge" fill-opacity="0.9">FakeFinder</text><path fill="rgb(251,211,0)" stroke="none" paint-order="stroke fill markers" d=" M 273.62324002879893 826.9561818275014 L 273.6001200317974 827.5446250454602 L 273.53090258326245 828.1294403153031 L 273.4160144317815 828.7070220564207 L 273.2561639010126 829.2738092853135 L 273.0523365226336 829.8263075702396 L 272.8057889602117 830.361110575548 L 272.51804126145464 830.874921062871 L 272.190867486611 831.3645712196949 L 271.8262847707992 831.8270421899778 L 271.426540887698 832.2594826864005 L 270.9941003912753 832.6592265695016 L 270.5316294209925 833.0238092853135 L 270.04197926416856 833.3509830601571 L 269.5281687768455 833.6387307589141 L 268.9933657715371 833.885278321336 L 268.440867486611 834.089105699715 L 267.8740802577182 834.2489562304839 L 267.29649851660065 834.3638443819649 L 266.7116832467578 834.4330618304998 L 266.12324002879893 834.4561818275014 L 265.5347968108401 834.4330618304998 L 264.9499815409972 834.3638443819649 L 264.37239979987964 834.2489562304839 L 263.80561257098685 834.089105699715 L 263.25311428606074 833.885278321336 L 262.71831128075235 833.6387307589141 L 262.2045007934293 833.3509830601571 L 261.7148506366054 833.0238092853135 L 261.25237966632255 832.6592265695016 L 260.81993916989984 832.2594826864005 L 260.4201952867987 831.8270421899778 L 260.05561257098685 831.3645712196949 L 259.7284387961432 830.874921062871 L 259.44069109738615 830.361110575548 L 259.19414353496427 829.8263075702396 L 258.99031615658527 829.2738092853135 L 258.8304656258164 828.7070220564207 L 258.7155774743354 828.1294403153031 L 258.64636002580045 827.5446250454602 L 258.62324002879893 826.9561818275014 L 258.64636002580045 826.3677386095426 L 258.7155774743354 825.7829233396997 L 258.8304656258164 825.2053415985821 L 258.99031615658527 824.6385543696892 L 259.19414353496427 824.0860560847632 L 259.44069109738615 823.5512530794548 L 259.7284387961432 823.0374425921318 L 260.05561257098685 822.5477924353079 L 260.4201952867987 822.085321465025 L 260.81993916989984 821.6528809686023 L 261.25237966632255 821.2531370855012 L 261.7148506366054 820.8885543696892 L 262.2045007934293 820.5613805948457 L 262.71831128075235 820.2736328960887 L 263.2531142860608 820.0270853336667 L 263.80561257098685 819.8232579552878 L 264.37239979987964 819.6634074245188 L 264.9499815409972 819.5485192730379 L 265.53479681084013 819.479301824503 L 266.12324002879893 819.4561818275014 L 266.7116832467578 819.479301824503 L 267.2964985166007 819.5485192730379 L 267.8740802577183 819.6634074245188 L 268.44086748661107 819.8232579552878 L 268.9933657715371 820.0270853336667 L 269.5281687768456 820.2736328960887 L 270.0419792641686 820.5613805948457 L 270.53162942099254 820.8885543696894 L 270.99410039127537 821.2531370855012 L 271.4265408876981 821.6528809686023 L 271.8262847707992 822.085321465025 L 272.19086748661107 822.5477924353079 L 272.51804126145464 823.0374425921318 L 272.8057889602117 823.5512530794548 L 273.0523365226336 824.0860560847633 L 273.2561639010126 824.6385543696894 L 273.41601443178155 825.2053415985822 L 273.5309025832625 825.7829233396998 L 273.6001200317974 826.3677386095426 Z" fill-opacity="0.9"/><text fill="rgb(19,0,71)" stroke="none" font-family="Assistant-SemiBold, sans-serif" font-size="14px" font-style="normal" font-weight="500" text-decoration="normal" x="277.37324002879893" y="833.9561818275014" text-anchor="start" dominant-baseline="text-after-edge" fill-opacity="0.9">BirdsEye</text><path fill="rgb(251,211,0)" stroke="none" paint-order="stroke fill markers" d=" M 82.86088973690255 -8.828283869050495 L 82.837769739901 -8.239840651091658 L 82.76855229136608 -7.6550253812487625 L 82.65366413988512 -7.077443640131204 L 82.4938136091162 -6.510656411238389 L 82.2899862307372 -5.958158126312322 L 82.0434386683153 -5.423355121003894 L 81.75569096955824 -4.909544633680879 L 81.42851719471466 -4.419894476856946 L 81.06393447890278 -3.9574235065741172 L 80.66419059580166 -3.524983010151389 L 80.23175009937893 -3.1252391270502624 L 79.7692791290961 -2.7606564112383882 L 79.27962897227216 -2.4334826363948032 L 78.76581848494915 -2.1457349376377364 L 78.23101547964072 -1.8991873752158437 L 77.67851719471466 -1.6953599968368431 L 77.11172996582184 -1.5355094660679205 L 76.53414822470428 -1.4206213145869615 L 75.94933295486139 -1.3514038660520349 L 75.36088973690255 -1.3282838690504946 L 74.77244651894371 -1.3514038660520349 L 74.18763124910082 -1.4206213145869615 L 73.61004950798326 -1.5355094660679196 L 73.04326227909044 -1.6953599968368422 L 72.49076399416438 -1.8991873752158437 L 71.95596098885595 -2.1457349376377355 L 71.44215050153294 -2.4334826363948023 L 70.95250034470901 -2.7606564112383882 L 70.49002937442617 -3.1252391270502615 L 70.05758887800344 -3.524983010151388 L 69.65784499490232 -3.9574235065741163 L 69.29326227909044 -4.419894476856945 L 68.96608850424685 -4.909544633680878 L 68.6783408054898 -5.423355121003893 L 68.4317932430679 -5.95815812631232 L 68.2279658646889 -6.510656411238388 L 68.06811533391998 -7.077443640131203 L 67.95322718243902 -7.6550253812487625 L 67.8840097339041 -8.239840651091656 L 67.86088973690255 -8.828283869050493 L 67.8840097339041 -9.416727087009331 L 67.95322718243902 -10.001542356852225 L 68.06811533391998 -10.579124097969784 L 68.2279658646889 -11.145911326862599 L 68.4317932430679 -11.698409611788668 L 68.6783408054898 -12.233212617097095 L 68.96608850424685 -12.74702310442011 L 69.29326227909044 -13.236673261244043 L 69.65784499490232 -13.699144231526871 L 70.05758887800344 -14.131584727949601 L 70.49002937442617 -14.531328611050725 L 70.952500344709 -14.895911326862599 L 71.44215050153294 -15.223085101706188 L 71.95596098885595 -15.510832800463255 L 72.49076399416438 -15.757380362885147 L 73.04326227909046 -15.96120774126415 L 73.61004950798328 -16.121058272033075 L 74.18763124910083 -16.23594642351403 L 74.77244651894374 -16.305163872048958 L 75.36088973690258 -16.328283869050495 L 75.94933295486142 -16.30516387204895 L 76.53414822470431 -16.235946423514022 L 77.11172996582188 -16.12105827203306 L 77.67851719471469 -15.961207741264134 L 78.23101547964076 -15.75738036288513 L 78.7658184849492 -15.510832800463234 L 79.2796289722722 -15.223085101706161 L 79.76927912909613 -14.89591132686257 L 80.23175009937897 -14.531328611050691 L 80.6641905958017 -14.131584727949559 L 81.06393447890282 -13.699144231526827 L 81.4285171947147 -13.23667326124399 L 81.75569096955827 -12.747023104420053 L 82.04343866831535 -12.233212617097031 L 82.28998623073723 -11.698409611788598 L 82.49381360911623 -11.145911326862526 L 82.65366413988514 -10.579124097969705 L 82.76855229136609 -10.001542356852143 L 82.83776973990102 -9.416727087009244 Z" fill-opacity="0.9"/><text fill="rgb(19,0,71)" stroke="none" font-family="Assistant-SemiBold, sans-serif" font-size="14px" font-style="normal" font-weight="500" text-decoration="normal" x="86.61088973690255" y="-1.8282838690504946" text-anchor="start" dominant-baseline="text-after-edge" fill-opacity="0.9">Shifting Pixels</text><path fill="rgb(0,172,241)" stroke="none" paint-order="stroke fill markers" d=" M 273.62324002879853 -160.95618182750115 L 273.600120031797 -160.36773860954233 L 273.53090258326205 -159.78292333969944 L 273.4160144317811 -159.20534159858187 L 273.2561639010122 -158.63855436968905 L 273.0523365226332 -158.086056084763 L 272.8057889602113 -157.55125307945457 L 272.51804126145424 -157.03744259213153 L 272.1908674866106 -156.5477924353076 L 271.8262847707988 -156.08532146502478 L 271.4265408876976 -155.65288096860206 L 270.9941003912749 -155.25313708550092 L 270.5316294209921 -154.88855436968905 L 270.04197926416816 -154.56138059484547 L 269.5281687768451 -154.2736328960884 L 268.99336577153673 -154.0270853336665 L 268.4408674866106 -153.82325795528752 L 267.8740802577178 -153.66340742451857 L 267.29649851660025 -153.5485192730376 L 266.7116832467574 -153.4793018245027 L 266.12324002879853 -153.45618182750115 L 265.5347968108397 -153.4793018245027 L 264.9499815409968 -153.5485192730376 L 264.37239979987925 -153.66340742451857 L 263.80561257098645 -153.8232579552875 L 263.25311428606034 -154.0270853336665 L 262.71831128075195 -154.2736328960884 L 262.2045007934289 -154.56138059484547 L 261.714850636605 -154.88855436968905 L 261.25237966632216 -155.25313708550092 L 260.81993916989944 -155.65288096860206 L 260.4201952867983 -156.08532146502478 L 260.05561257098645 -156.5477924353076 L 259.7284387961428 -157.03744259213153 L 259.44069109738575 -157.55125307945454 L 259.19414353496387 -158.086056084763 L 258.99031615658487 -158.63855436968905 L 258.830465625816 -159.20534159858187 L 258.715577474335 -159.7829233396994 L 258.64636002580005 -160.36773860954233 L 258.62324002879853 -160.95618182750115 L 258.64636002580005 -161.54462504545998 L 258.715577474335 -162.12944031530287 L 258.830465625816 -162.70702205642044 L 258.99031615658487 -163.27380928531326 L 259.19414353496387 -163.82630757023932 L 259.44069109738575 -164.36111057554774 L 259.7284387961428 -164.87492106287078 L 260.05561257098645 -165.3645712196947 L 260.4201952867983 -165.82704218997753 L 260.81993916989944 -166.25948268640025 L 261.25237966632216 -166.65922656950139 L 261.714850636605 -167.02380928531326 L 262.2045007934289 -167.35098306015684 L 262.71831128075195 -167.6387307589139 L 263.2531142860604 -167.88527832133582 L 263.80561257098645 -168.08910569971482 L 264.37239979987925 -168.24895623048374 L 264.9499815409968 -168.3638443819647 L 265.53479681083974 -168.4330618304996 L 266.12324002879853 -168.45618182750115 L 266.7116832467574 -168.4330618304996 L 267.2964985166003 -168.3638443819647 L 267.8740802577179 -168.2489562304837 L 268.44086748661067 -168.0891056997148 L 268.99336577153673 -167.8852783213358 L 269.5281687768452 -167.63873075891388 L 270.0419792641682 -167.3509830601568 L 270.53162942099215 -167.02380928531323 L 270.99410039127497 -166.65922656950136 L 271.4265408876977 -166.25948268640022 L 271.8262847707988 -165.82704218997748 L 272.19086748661067 -165.36457121969465 L 272.51804126145424 -164.87492106287073 L 272.8057889602113 -164.36111057554768 L 273.0523365226332 -163.82630757023927 L 273.2561639010122 -163.27380928531318 L 273.41601443178115 -162.70702205642036 L 273.5309025832621 -162.12944031530282 L 273.600120031797 -161.5446250454599 Z" fill-opacity="0.9"/><text fill="rgb(19,0,71)" stroke="none" font-family="Assistant-SemiBold, sans-serif" font-size="14px" font-style="normal" font-weight="500" text-decoration="normal" x="277.37324002879853" y="-153.95618182750115" text-anchor="start" dominant-baseline="text-after-edge" fill-opacity="0.9">Open Code Project</text><path fill="rgb(251,211,0)" stroke="none" paint-order="stroke fill markers" d=" M 82.86088973690278 674.8282838690509 L 82.83776973990123 675.4167270870097 L 82.7685522913663 676.0015423568526 L 82.65366413988535 676.5791240979702 L 82.49381360911643 677.145911326863 L 82.28998623073743 677.6984096117891 L 82.04343866831553 678.2332126170975 L 81.75569096955847 678.7470231044205 L 81.42851719471489 679.2366732612444 L 81.06393447890301 679.6991442315273 L 80.66419059580188 680.13158472795 L 80.23175009937916 680.5313286110511 L 79.76927912909633 680.895911326863 L 79.27962897227239 681.2230851017066 L 78.76581848494938 681.5108328004636 L 78.23101547964094 681.7573803628856 L 77.67851719471489 681.9612077412645 L 77.11172996582206 682.1210582720335 L 76.53414822470451 682.2359464235144 L 75.94933295486162 682.3051638720493 L 75.36088973690278 682.3282838690509 L 74.77244651894394 682.3051638720493 L 74.18763124910105 682.2359464235144 L 73.61004950798349 682.1210582720335 L 73.04326227909067 681.9612077412645 L 72.49076399416461 681.7573803628856 L 71.95596098885618 681.5108328004636 L 71.44215050153316 681.2230851017066 L 70.95250034470924 680.895911326863 L 70.4900293744264 680.5313286110511 L 70.05758887800367 680.13158472795 L 69.65784499490255 679.6991442315273 L 69.29326227909067 679.2366732612444 L 68.96608850424708 678.7470231044205 L 68.67834080549002 678.2332126170975 L 68.43179324306813 677.6984096117891 L 68.22796586468912 677.145911326863 L 68.0681153339202 676.5791240979702 L 67.95322718243925 676.0015423568526 L 67.88400973390432 675.4167270870097 L 67.86088973690278 674.8282838690509 L 67.88400973390432 674.2398406510921 L 67.95322718243925 673.6550253812492 L 68.0681153339202 673.0774436401316 L 68.22796586468912 672.5106564112388 L 68.43179324306813 671.9581581263127 L 68.67834080549002 671.4233551210043 L 68.96608850424708 670.9095446336813 L 69.29326227909067 670.4198944768574 L 69.65784499490255 669.9574235065745 L 70.05758887800367 669.5249830101518 L 70.4900293744264 669.1252391270507 L 70.95250034470922 668.7606564112388 L 71.44215050153316 668.4334826363952 L 71.95596098885618 668.1457349376382 L 72.49076399416461 667.8991873752162 L 73.04326227909068 667.6953599968373 L 73.6100495079835 667.5355094660683 L 74.18763124910106 667.4206213145874 L 74.77244651894397 667.3514038660525 L 75.3608897369028 667.3282838690509 L 75.94933295486165 667.3514038660525 L 76.53414822470454 667.4206213145874 L 77.11172996582211 667.5355094660683 L 77.67851719471491 667.6953599968373 L 78.23101547964099 667.8991873752162 L 78.76581848494942 668.1457349376382 L 79.27962897227243 668.4334826363952 L 79.76927912909636 668.7606564112389 L 80.2317500993792 669.1252391270507 L 80.66419059580193 669.5249830101518 L 81.06393447890305 669.9574235065745 L 81.42851719471493 670.4198944768574 L 81.7556909695585 670.9095446336813 L 82.04343866831557 671.4233551210043 L 82.28998623073745 671.9581581263128 L 82.49381360911646 672.5106564112389 L 82.65366413988536 673.0774436401317 L 82.76855229136632 673.6550253812493 L 82.83776973990125 674.2398406510921 Z" fill-opacity="0.9"/><text fill="rgb(19,0,71)" stroke="none" font-family="Assistant-SemiBold, sans-serif" font-size="14px" font-style="normal" font-weight="500" text-decoration="normal" x="86.61088973690278" y="681.8282838690509" text-anchor="start" dominant-baseline="text-after-edge" fill-opacity="0.9">SkyScan</text><path fill="rgb(125,197,62)" stroke="none" paint-order="stroke fill markers" d=" M -23.00422785368471 454.99710204154957 L -23.02734785068625 455.5855452595084 L -23.096565299221176 456.1703605293513 L -23.211453450702138 456.74794227046885 L -23.37130398147106 457.31472949936165 L -23.57513135985006 457.86722778428776 L -23.82167892227195 458.40203078959615 L -24.10942662102902 458.9158412769192 L -24.436600395872603 459.4054914337431 L -24.80118311168448 459.86796240402595 L -25.200926994785604 460.30040290044866 L -25.633367491208332 460.7001467835498 L -26.095838461491162 461.06472949936165 L -26.585488618315093 461.3919032742053 L -27.09929910563811 461.67965097296235 L -27.634102110946536 461.92619853538423 L -28.186600395872606 462.13002591376323 L -28.75338762476542 462.2898764445321 L -29.33096936588298 462.4047645960131 L -29.915784635725874 462.47398204454805 L -30.50422785368471 462.49710204154957 L -31.092671071643547 462.47398204454805 L -31.677486341486443 462.4047645960131 L -32.255068082604 462.2898764445321 L -32.82185531149682 462.13002591376323 L -33.374353596422885 461.92619853538423 L -33.90915660173131 461.67965097296235 L -34.422967089054325 461.3919032742053 L -34.91261724587826 461.06472949936165 L -35.37508821616109 460.7001467835498 L -35.80752871258382 460.30040290044866 L -36.20727259568494 459.86796240402595 L -36.57185531149682 459.4054914337431 L -36.899029086340406 458.9158412769192 L -37.18677678509747 458.40203078959615 L -37.43332434751936 457.86722778428776 L -37.63715172589836 457.31472949936165 L -37.797002256667284 456.74794227046885 L -37.911890408148246 456.1703605293513 L -37.98110785668317 455.5855452595084 L -38.00422785368471 454.99710204154957 L -37.98110785668317 454.4086588235907 L -37.911890408148246 453.82384355374785 L -37.797002256667284 453.2462618126303 L -37.63715172589836 452.6794745837375 L -37.43332434751936 452.12697629881137 L -37.18677678509747 451.592173293503 L -36.899029086340406 451.07836280617994 L -36.57185531149682 450.588712649356 L -36.20727259568494 450.1262416790732 L -35.80752871258382 449.6938011826505 L -35.37508821616109 449.29405729954937 L -34.91261724587826 448.9294745837375 L -34.422967089054325 448.60230080889386 L -33.909156601731304 448.3145531101368 L -33.37435359642288 448.0680055477149 L -32.821855311496805 447.8641781693359 L -32.255068082603984 447.704327638567 L -31.677486341486425 447.58943948708605 L -31.092671071643526 447.5202220385511 L -30.504227853684686 447.49710204154957 L -29.915784635725846 447.5202220385511 L -29.330969365882947 447.58943948708605 L -28.753387624765384 447.704327638567 L -28.186600395872567 447.8641781693359 L -27.6341021109465 448.06800554771496 L -27.09929910563807 448.31455311013684 L -26.585488618315054 448.6023008088939 L -26.09583846149112 448.9294745837375 L -25.63336749120829 449.29405729954937 L -25.20092699478556 449.6938011826505 L -24.801183111684438 450.12624167907325 L -24.436600395872567 450.58871264935607 L -24.109426621028984 451.07836280618 L -23.821678922271918 451.59217329350304 L -23.575131359850033 452.1269762988115 L -23.371303981471037 452.67947458373754 L -23.211453450702116 453.24626181263034 L -23.096565299221165 453.8238435537479 L -23.027347850686244 454.4086588235908 Z" fill-opacity="0.9"/><text fill="rgb(19,0,71)" stroke="none" font-family="Assistant-SemiBold, sans-serif" font-size="14px" font-style="normal" font-weight="500" text-decoration="normal" x="-19.25422785368471" y="461.99710204154957" text-anchor="start" dominant-baseline="text-after-edge" fill-opacity="0.9">AI Assurance</text><path fill="rgb(125,197,62)" stroke="none" paint-order="stroke fill markers" d=" M 515.5 515.75 L 515.464549337931 516.6522796008702 L 515.3584159168441 517.5489963479627 L 515.1822540845733 518.4346216843429 L 514.9371499373943 519.3036954353119 L 514.6246146238799 520.1508594721985 L 514.2465750281663 520.9708907470048 L 513.8053618900722 521.7587334942334 L 513.303695435312 522.5095304013635 L 512.7446686044004 523.2186525557971 L 512.1317279836453 523.8817279836453 L 511.4686525557972 524.4946686044003 L 510.7595304013635 525.0536954353119 L 510.00873349423347 525.555361890072 L 509.22089074700483 525.9965750281663 L 508.4008594721986 526.3746146238798 L 507.55369543531197 526.6871499373942 L 506.68462168434297 526.9322540845733 L 505.7989963479627 527.1084159168441 L 504.90227960087026 527.214549337931 L 504.00000000000006 527.25 L 503.09772039912986 527.214549337931 L 502.2010036520374 527.1084159168441 L 501.31537831565714 526.9322540845733 L 500.44630456468815 526.6871499373942 L 499.5991405278015 526.3746146238798 L 498.7791092529953 525.9965750281663 L 497.99126650576665 525.555361890072 L 497.2404695986366 525.0536954353119 L 496.53134744420294 524.4946686044003 L 495.86827201635475 523.8817279836453 L 495.2553313955997 523.2186525557971 L 494.69630456468815 522.5095304013635 L 494.194638109928 521.7587334942334 L 493.75342497183385 520.9708907470048 L 493.3753853761203 520.1508594721986 L 493.0628500626058 519.3036954353119 L 492.81774591542677 518.4346216843429 L 492.641584083156 517.5489963479627 L 492.5354506620691 516.6522796008702 L 492.50000000000006 515.75 L 492.5354506620691 514.8477203991298 L 492.641584083156 513.9510036520373 L 492.81774591542677 513.0653783156571 L 493.0628500626058 512.1963045646881 L 493.3753853761203 511.34914052780147 L 493.75342497183385 510.5291092529952 L 494.194638109928 509.7412665057666 L 494.69630456468815 508.99046959863654 L 495.2553313955997 508.2813474442029 L 495.86827201635475 507.6182720163547 L 496.53134744420294 507.0053313955996 L 497.2404695986366 506.4463045646881 L 497.99126650576665 505.94463810992795 L 498.7791092529953 505.50342497183374 L 499.5991405278015 505.1253853761202 L 500.4463045646882 504.8128500626057 L 501.31537831565714 504.5677459154267 L 502.20100365203746 504.3915840831559 L 503.09772039912986 504.285450662069 L 504.0000000000001 504.25 L 504.9022796008703 504.285450662069 L 505.79899634796277 504.3915840831559 L 506.684621684343 504.5677459154267 L 507.553695435312 504.8128500626058 L 508.40085947219865 505.1253853761202 L 509.2208907470049 505.5034249718338 L 510.0087334942335 505.94463810992795 L 510.7595304013636 506.44630456468815 L 511.46865255579723 507.0053313955997 L 512.1317279836454 507.61827201635475 L 512.7446686044004 508.28134744420294 L 513.303695435312 508.99046959863665 L 513.8053618900722 509.7412665057667 L 514.2465750281664 510.5291092529953 L 514.6246146238799 511.3491405278016 L 514.9371499373943 512.1963045646883 L 515.1822540845734 513.0653783156572 L 515.3584159168441 513.9510036520375 L 515.4645493379311 514.8477203991299 Z" fill-opacity="0.9"/><text fill="rgb(19,0,71)" stroke="none" font-family="Assistant-SemiBold, sans-serif" font-size="14px" font-style="normal" font-weight="500" text-decoration="normal" x="519.25" y="522.75" text-anchor="start" dominant-baseline="text-after-edge" fill-opacity="0.9">UX Design</text><path fill="rgb(2,123,252)" stroke="none" paint-order="stroke fill markers" d=" M 357.2338574583938 424.37499999999994 L 357.1984067963248 425.27727960087014 L 357.0922733752379 426.1739963479626 L 356.9161115429671 427.05962168434286 L 356.6710073957881 427.92869543531185 L 356.3584720822736 428.7758594721985 L 355.98043248656 429.5958907470047 L 355.53921934846585 430.38373349423335 L 355.0375528937057 431.1345304013634 L 354.4785260627942 431.84365255579706 L 353.8655854420391 432.50672798364525 L 353.2025100141909 433.1196686044003 L 352.49338785975726 433.67869543531185 L 351.7425909526272 434.180361890072 L 350.9547482053986 434.62157502816615 L 350.13471693059233 434.9996146238797 L 349.2875528937057 435.3121499373942 L 348.4184791427367 435.55725408457323 L 347.53285380635646 435.733415916844 L 346.636137059264 435.8395493379309 L 345.7338574583938 435.87499999999994 L 344.8315778575236 435.8395493379309 L 343.93486111043114 435.733415916844 L 343.0492357740509 435.55725408457323 L 342.1801620230819 435.3121499373942 L 341.33299798619527 434.9996146238797 L 340.512966711389 434.62157502816615 L 339.7251239641604 434.180361890072 L 338.97432705703034 433.67869543531185 L 338.2652049025967 433.1196686044003 L 337.6021294747485 432.50672798364525 L 336.9891888539934 431.84365255579706 L 336.4301620230819 431.1345304013634 L 335.92849556832175 430.38373349423335 L 335.4872824302276 429.5958907470047 L 335.109242834514 428.7758594721985 L 334.7967075209995 427.92869543531185 L 334.5516033738205 427.05962168434286 L 334.3754415415497 426.1739963479626 L 334.2693081204628 425.27727960087014 L 334.2338574583938 424.37499999999994 L 334.2693081204628 423.47272039912974 L 334.3754415415497 422.5760036520373 L 334.5516033738205 421.69037831565703 L 334.7967075209995 420.82130456468803 L 335.109242834514 419.9741405278014 L 335.4872824302276 419.15410925299517 L 335.92849556832175 418.36626650576653 L 336.4301620230819 417.6154695986365 L 336.9891888539934 416.9063474442028 L 337.6021294747485 416.24327201635464 L 338.2652049025967 415.63033139559957 L 338.97432705703034 415.07130456468803 L 339.7251239641604 414.5696381099279 L 340.512966711389 414.12842497183374 L 341.33299798619527 413.75038537612016 L 342.18016202308195 413.43785006260566 L 343.0492357740509 413.19274591542666 L 343.9348611104312 413.01658408315586 L 344.8315778575236 412.91045066206897 L 345.73385745839386 412.87499999999994 L 346.63613705926406 412.91045066206897 L 347.5328538063565 413.01658408315586 L 348.41847914273677 413.19274591542666 L 349.28755289370577 413.4378500626057 L 350.1347169305924 413.75038537612016 L 350.95474820539863 414.12842497183374 L 351.74259095262727 414.56963810992795 L 352.4933878597573 415.0713045646881 L 353.202510014191 415.6303313955996 L 353.86558544203916 416.2432720163547 L 354.47852606279423 416.9063474442029 L 355.03755289370577 417.6154695986366 L 355.5392193484659 418.36626650576665 L 355.98043248656006 419.1541092529952 L 356.35847208227364 419.9741405278015 L 356.6710073957881 420.82130456468815 L 356.9161115429671 421.69037831565714 L 357.0922733752379 422.5760036520374 L 357.1984067963248 423.47272039912986 Z" fill-opacity="0.9"/><text fill="rgb(19,0,71)" stroke="none" font-family="Assistant-SemiBold, sans-serif" font-size="14px" font-style="normal" font-weight="500" text-decoration="normal" x="360.9838574583938" y="431.37499999999994" text-anchor="start" dominant-baseline="text-after-edge" fill-opacity="0.9">Better Data</text><path fill="rgb(19,0,71)" stroke="none" paint-order="stroke fill markers" d=" M 673.7661425416062 241.62500000000006 L 673.7306918795372 242.5272796008703 L 673.6245584584503 243.4239963479627 L 673.4483966261795 244.30962168434297 L 673.2032924790004 245.17869543531197 L 672.890757165486 246.0258594721986 L 672.5127175697725 246.84589074700483 L 672.0715044316782 247.63373349423347 L 671.569837976918 248.3845304013635 L 671.0108111460065 249.09365255579718 L 670.3978705252515 249.75672798364536 L 669.7347950974033 250.3696686044004 L 669.0256729429697 250.92869543531197 L 668.2748760358396 251.4303618900721 L 667.487033288611 251.8715750281663 L 666.6670020138047 252.24961462387986 L 665.819837976918 252.5621499373943 L 664.9507642259491 252.80725408457334 L 664.0651388895689 252.98341591684414 L 663.1684221424764 253.08954933793103 L 662.2661425416062 253.12500000000006 L 661.363862940736 253.08954933793103 L 660.4671461936435 252.98341591684414 L 659.5815208572633 252.80725408457334 L 658.7124471062943 252.56214993739434 L 657.8652830694077 252.24961462387986 L 657.0452517946014 251.8715750281663 L 656.2574090473728 251.4303618900721 L 655.5066121402427 250.92869543531197 L 654.7974899858091 250.3696686044004 L 654.1344145579609 249.75672798364536 L 653.5214739372059 249.09365255579718 L 652.9624471062943 248.3845304013635 L 652.4607806515342 247.63373349423347 L 652.0195675134399 246.84589074700486 L 651.6415279177264 246.0258594721986 L 651.328992604212 245.17869543531197 L 651.0838884570329 244.30962168434297 L 650.9077266247621 243.4239963479627 L 650.8015932036752 242.5272796008703 L 650.7661425416062 241.62500000000006 L 650.8015932036752 240.72272039912986 L 650.9077266247621 239.8260036520374 L 651.0838884570329 238.94037831565714 L 651.328992604212 238.07130456468818 L 651.6415279177264 237.22414052780152 L 652.0195675134399 236.40410925299528 L 652.4607806515342 235.61626650576665 L 652.9624471062943 234.86546959863662 L 653.5214739372059 234.15634744420294 L 654.1344145579609 233.49327201635475 L 654.7974899858091 232.8803313955997 L 655.5066121402427 232.32130456468815 L 656.2574090473728 231.819638109928 L 657.0452517946014 231.37842497183382 L 657.8652830694077 231.00038537612025 L 658.7124471062943 230.68785006260578 L 659.5815208572633 230.44274591542677 L 660.4671461936435 230.26658408315598 L 661.363862940736 230.16045066206908 L 662.2661425416062 230.12500000000006 L 663.1684221424765 230.16045066206908 L 664.0651388895689 230.26658408315598 L 664.9507642259491 230.4427459154268 L 665.8198379769182 230.6878500626058 L 666.6670020138048 231.00038537612028 L 667.4870332886111 231.37842497183385 L 668.2748760358397 231.81963810992804 L 669.0256729429697 232.3213045646882 L 669.7347950974033 232.88033139559977 L 670.3978705252515 233.49327201635484 L 671.0108111460066 234.15634744420302 L 671.5698379769182 234.8654695986367 L 672.0715044316784 235.61626650576673 L 672.5127175697725 236.40410925299537 L 672.8907571654861 237.22414052780164 L 673.2032924790005 238.07130456468826 L 673.4483966261795 238.94037831565726 L 673.6245584584503 239.82600365203754 L 673.7306918795372 240.72272039912997 Z" fill-opacity="0.9"/><text fill="rgb(19,0,71)" stroke="none" font-family="Assistant-SemiBold, sans-serif" font-size="14px" font-style="normal" font-weight="500" text-decoration="normal" x="677.5161425416062" y="248.62500000000006" text-anchor="start" dominant-baseline="text-after-edge" fill-opacity="0.9">Better Models</text><path fill="rgb(251,211,0)" stroke="none" paint-order="stroke fill markers" d=" M 673.7661425416061 424.375 L 673.7306918795371 425.2772796008702 L 673.6245584584502 426.17399634796266 L 673.4483966261794 427.0596216843429 L 673.2032924790003 427.9286954353119 L 672.8907571654859 428.77585947219853 L 672.5127175697723 429.5958907470048 L 672.0715044316781 430.3837334942334 L 671.5698379769179 431.13453040136346 L 671.0108111460064 431.8436525557971 L 670.3978705252514 432.5067279836453 L 669.7347950974032 433.1196686044004 L 669.0256729429695 433.6786954353119 L 668.2748760358395 434.18036189007205 L 667.4870332886109 434.6215750281662 L 666.6670020138047 434.9996146238798 L 665.8198379769179 435.3121499373943 L 664.950764225949 435.5572540845733 L 664.0651388895687 435.7334159168441 L 663.1684221424763 435.839549337931 L 662.2661425416061 435.875 L 661.3638629407359 435.839549337931 L 660.4671461936434 435.7334159168441 L 659.5815208572632 435.5572540845733 L 658.7124471062942 435.3121499373943 L 657.8652830694076 434.9996146238798 L 657.0452517946013 434.6215750281662 L 656.2574090473727 434.18036189007205 L 655.5066121402426 433.6786954353119 L 654.797489985809 433.1196686044004 L 654.1344145579608 432.5067279836453 L 653.5214739372058 431.8436525557971 L 652.9624471062942 431.13453040136346 L 652.460780651534 430.3837334942334 L 652.0195675134398 429.5958907470048 L 651.6415279177263 428.77585947219853 L 651.3289926042119 427.9286954353119 L 651.0838884570328 427.0596216843429 L 650.907726624762 426.17399634796266 L 650.8015932036751 425.2772796008702 L 650.7661425416061 424.375 L 650.8015932036751 423.4727203991298 L 650.907726624762 422.57600365203734 L 651.0838884570328 421.6903783156571 L 651.3289926042119 420.8213045646881 L 651.6415279177263 419.97414052780147 L 652.0195675134398 419.1541092529952 L 652.460780651534 418.3662665057666 L 652.9624471062942 417.61546959863654 L 653.5214739372058 416.9063474442029 L 654.1344145579608 416.2432720163547 L 654.797489985809 415.6303313955996 L 655.5066121402426 415.0713045646881 L 656.2574090473727 414.56963810992795 L 657.0452517946013 414.12842497183374 L 657.8652830694076 413.7503853761202 L 658.7124471062942 413.4378500626057 L 659.5815208572632 413.1927459154267 L 660.4671461936434 413.0165840831559 L 661.3638629407359 412.910450662069 L 662.2661425416061 412.875 L 663.1684221424764 412.910450662069 L 664.0651388895687 413.0165840831559 L 664.950764225949 413.1927459154267 L 665.819837976918 413.4378500626058 L 666.6670020138047 413.7503853761202 L 667.487033288611 414.1284249718338 L 668.2748760358396 414.56963810992795 L 669.0256729429695 415.07130456468815 L 669.7347950974032 415.6303313955997 L 670.3978705252514 416.24327201635475 L 671.0108111460065 416.90634744420294 L 671.569837976918 417.61546959863665 L 672.0715044316782 418.3662665057667 L 672.5127175697723 419.1541092529953 L 672.890757165486 419.9741405278016 L 673.2032924790004 420.8213045646882 L 673.4483966261794 421.6903783156572 L 673.6245584584502 422.57600365203746 L 673.7306918795371 423.4727203991299 Z" fill-opacity="0.9"/><text fill="rgb(19,0,71)" stroke="none" font-family="Assistant-SemiBold, sans-serif" font-size="14px" font-style="normal" font-weight="500" text-decoration="normal" x="677.5161425416061" y="431.375" text-anchor="start" dominant-baseline="text-after-edge" fill-opacity="0.9">Edge AI</text><path fill="rgb(247,80,64)" stroke="none" paint-order="stroke fill markers" d=" M 515.5 -32.5 L 515.4645493379309 -31.597720399129784 L 515.358415916844 -30.701003652037343 L 515.1822540845732 -29.81537831565709 L 514.9371499373942 -28.946304564688106 L 514.6246146238798 -28.099140527801467 L 514.2465750281661 -27.279109252995212 L 513.805361890072 -26.49126650576659 L 513.3036954353119 -25.740469598636558 L 512.7446686044003 -25.031347444202886 L 512.1317279836452 -24.3682720163547 L 511.46865255579706 -23.755331395599644 L 510.7595304013634 -23.196304564688106 L 510.00873349423335 -22.69463810992794 L 509.2208907470047 -22.25342497183377 L 508.4008594721985 -21.875385376120203 L 507.55369543531185 -21.562850062605733 L 506.68462168434286 -21.31774591542672 L 505.7989963479626 -21.141584083155916 L 504.90227960087014 -21.035450662069028 L 503.99999999999994 -21 L 503.09772039912974 -21.035450662069028 L 502.2010036520373 -21.141584083155916 L 501.31537831565703 -21.31774591542672 L 500.44630456468803 -21.562850062605733 L 499.5991405278014 -21.875385376120203 L 498.77910925299517 -22.25342497183377 L 497.99126650576653 -22.694638109927936 L 497.2404695986365 -23.196304564688106 L 496.5313474442028 -23.755331395599644 L 495.86827201635464 -24.3682720163547 L 495.25533139559957 -25.031347444202886 L 494.69630456468803 -25.740469598636558 L 494.1946381099279 -26.49126650576659 L 493.75342497183374 -27.279109252995212 L 493.37538537612016 -28.099140527801467 L 493.06285006260566 -28.946304564688106 L 492.81774591542666 -29.815378315657085 L 492.64158408315586 -30.701003652037343 L 492.53545066206897 -31.59772039912978 L 492.49999999999994 -32.5 L 492.53545066206897 -33.402279600870216 L 492.64158408315586 -34.29899634796266 L 492.81774591542666 -35.18462168434291 L 493.06285006260566 -36.053695435311894 L 493.37538537612016 -36.90085947219853 L 493.75342497183374 -37.72089074700479 L 494.1946381099279 -38.50873349423341 L 494.69630456468803 -39.25953040136344 L 495.25533139559957 -39.968652555797114 L 495.86827201635464 -40.6317279836453 L 496.5313474442028 -41.24466860440035 L 497.2404695986365 -41.803695435311894 L 497.99126650576653 -42.305361890072064 L 498.77910925299517 -42.746575028166234 L 499.5991405278014 -43.1246146238798 L 500.4463045646881 -43.437149937394274 L 501.31537831565703 -43.68225408457329 L 502.20100365203734 -43.85841591684409 L 503.09772039912974 -43.964549337930976 L 504 -44 L 504.9022796008702 -43.96454933793097 L 505.79899634796266 -43.85841591684408 L 506.6846216843429 -43.68225408457327 L 507.5536954353119 -43.437149937394246 L 508.40085947219853 -43.12461462387977 L 509.2208907470048 -42.7465750281662 L 510.0087334942334 -42.30536189007202 L 510.75953040136346 -41.80369543531185 L 511.4686525557971 -41.2446686044003 L 512.1317279836453 -40.631727983645234 L 512.7446686044003 -39.96865255579704 L 513.3036954353119 -39.259530401363364 L 513.805361890072 -38.508733494233326 L 514.2465750281663 -37.72089074700469 L 514.6246146238798 -36.90085947219843 L 514.9371499373942 -36.05369543531178 L 515.1822540845733 -35.184621684342794 L 515.358415916844 -34.29899634796253 L 515.464549337931 -33.40227960087008 Z" fill-opacity="0.9"/><text fill="rgb(19,0,71)" stroke="none" font-family="Assistant-SemiBold, sans-serif" font-size="14px" font-style="normal" font-weight="500" text-decoration="normal" x="519.25" y="-25.5" text-anchor="start" dominant-baseline="text-after-edge" fill-opacity="0.9">Misinformation</text><path fill="rgb(0,172,241)" stroke="none" paint-order="stroke fill markers" d=" M 357.2338574583939 241.6249999999999 L 357.1984067963249 242.52727960087012 L 357.092273375238 243.42399634796254 L 356.9161115429672 244.3096216843428 L 356.6710073957882 245.1786954353118 L 356.3584720822737 246.02585947219842 L 355.9804324865601 246.84589074700466 L 355.53921934846596 247.6337334942333 L 355.0375528937058 248.38453040136332 L 354.4785260627943 249.093652555797 L 353.8655854420392 249.7567279836452 L 353.20251001419103 250.36966860440023 L 352.4933878597574 250.9286954353118 L 351.7425909526273 251.43036189007194 L 350.9547482053987 251.87157502816612 L 350.13471693059245 252.2496146238797 L 349.2875528937058 252.56214993739414 L 348.4184791427368 252.80725408457317 L 347.53285380635657 252.98341591684397 L 346.6361370592641 253.08954933793086 L 345.7338574583939 253.1249999999999 L 344.8315778575237 253.08954933793086 L 343.93486111043126 252.98341591684397 L 343.049235774051 252.80725408457317 L 342.180162023082 252.56214993739417 L 341.3329979861954 252.2496146238797 L 340.51296671138914 251.87157502816612 L 339.7251239641605 251.43036189007194 L 338.97432705703045 250.9286954353118 L 338.2652049025968 250.36966860440023 L 337.6021294747486 249.7567279836452 L 336.98918885399354 249.093652555797 L 336.430162023082 248.38453040136332 L 335.92849556832186 247.6337334942333 L 335.4872824302277 246.8458907470047 L 335.10924283451413 246.02585947219842 L 334.79670752099963 245.1786954353118 L 334.5516033738206 244.3096216843428 L 334.37544154154983 243.42399634796254 L 334.26930812046294 242.52727960087012 L 334.2338574583939 241.6249999999999 L 334.26930812046294 240.72272039912968 L 334.37544154154983 239.82600365203723 L 334.5516033738206 238.94037831565697 L 334.79670752099963 238.071304564688 L 335.10924283451413 237.22414052780135 L 335.4872824302277 236.4041092529951 L 335.92849556832186 235.61626650576648 L 336.430162023082 234.86546959863645 L 336.98918885399354 234.15634744420277 L 337.6021294747486 233.49327201635458 L 338.2652049025968 232.88033139559954 L 338.97432705703045 232.32130456468798 L 339.7251239641605 231.81963810992784 L 340.51296671138914 231.37842497183365 L 341.3329979861954 231.00038537612008 L 342.18016202308206 230.6878500626056 L 343.049235774051 230.4427459154266 L 343.9348611104313 230.2665840831558 L 344.8315778575237 230.1604506620689 L 345.73385745839397 230.1249999999999 L 346.6361370592642 230.1604506620689 L 347.5328538063566 230.2665840831558 L 348.4184791427369 230.44274591542663 L 349.2875528937059 230.68785006260563 L 350.1347169305925 231.0003853761201 L 350.95474820539874 231.37842497183368 L 351.7425909526274 231.81963810992787 L 352.49338785975743 232.32130456468803 L 353.2025100141911 232.8803313955996 L 353.8655854420393 233.49327201635467 L 354.47852606279434 234.15634744420285 L 355.0375528937059 234.86546959863654 L 355.539219348466 235.61626650576656 L 355.9804324865602 236.4041092529952 L 356.35847208227375 237.22414052780147 L 356.6710073957882 238.0713045646881 L 356.9161115429672 238.94037831565709 L 357.092273375238 239.82600365203737 L 357.1984067963249 240.7227203991298 Z" fill-opacity="0.9"/><text fill="rgb(19,0,71)" stroke="none" font-family="Assistant-SemiBold, sans-serif" font-size="14px" font-style="normal" font-weight="500" text-decoration="normal" x="360.9838574583939" y="248.6249999999999" text-anchor="start" dominant-baseline="text-after-edge" fill-opacity="0.9">Cyber</text><g transform="scale(0.861842105263158,0.861842105263158) translate(-332.8473282442749,-279.618320610687)"/></g></svg>