<svg version="1.1" xmlns="http://www.w3.org/2000/svg" xmlns:xlink="http://www.w3.org/1999/xlink" width="2016" height="1446"><defs/><g transform="translate(857.6503029970513,751.158227214722) scale(1.5316365058027048,1.5316365058027048)"><path fill="none" stroke="rgb(125,197,62)" paint-order="fill stroke markers" d=" M 174.65617687599996 171.38027458309404 Q 37.14966287222161 70.80950509950407 -132.97078455473394 59.17941743642574" stroke-opacity="0.666" stroke-linejoin="round" stroke-miterlimit="10" stroke-width="2.5"/><path fill="none" stroke="rgb(0,172,241)" paint-order="fill stroke markers" d=" M -251.12478159429637 -164.18828355263372 Q -240.53982362413043 -35.18360433318385 -145.92429258059474 53.537730953347804" stroke-opacity="0.666" stroke-linejoin="round" stroke-miterlimit="10" stroke-width="2.5"/><path fill="none" stroke="rgb(125,197,62)" paint-order="fill stroke markers" d=" M 194.62573922499075 182.41556530185153 Q 339.7048646308719 240.05934019437967 491.7094152653484 203.67763253898744" stroke-opacity="0.666" stroke-linejoin="round" stroke-miterlimit="10" stroke-width="2.5"/><path fill="none" stroke="rgb(19,0,71)" paint-order="fill stroke markers" d=" M 419.09142987307143 45.34769845753624 Q 414.94315303116923 141.06391490855478 492.9287222177113 197.5331770800568" stroke-opacity="0.666" stroke-linejoin="round" stroke-miterlimit="10" stroke-width="2.5"/><path fill="none" stroke="rgb(125,197,62)" paint-order="fill stroke markers" d=" M 175.0033346916601 185.40896846729254 Q 81.59371832510492 261.0950441996478 69.64676198246221 381.0335740687663" stroke-opacity="0.666" stroke-linejoin="round" stroke-miterlimit="10" stroke-width="2.5"/><path fill="none" stroke="rgb(2,123,252)" paint-order="fill stroke markers" d=" M -33.17247203636976 235.01140358666368 Q -23.997809744448645 334.23330087369993 62.4271863177121 384.7139172783298" stroke-opacity="0.666" stroke-linejoin="round" stroke-miterlimit="10" stroke-width="2.5"/><path fill="none" stroke="rgb(2,123,252)" paint-order="fill stroke markers" d=" M -23.717015299976396 218.9019812750666 Q 70.78828217069886 177.0322087390406 95.1910489977918 76.16460312242346" stroke-opacity="0.666" stroke-linejoin="round" stroke-miterlimit="10" stroke-width="2.5"/><path fill="none" stroke="rgb(247,80,64)" paint-order="fill stroke markers" d=" M 246.33477157280902 -159.128396980992 Q 133.6911152956845 -74.8910862503942 98.8114476057988 61.608385005193824" stroke-opacity="0.666" stroke-linejoin="round" stroke-miterlimit="10" stroke-width="2.5"/><path fill="none" stroke="rgb(19,0,71)" paint-order="fill stroke markers" d=" M 431.06417380829885 33.09772231464883 Q 527.0750135912784 26.732359896698632 575.2387105308184 -57.11399095417594" stroke-opacity="0.666" stroke-linejoin="round" stroke-miterlimit="10" stroke-width="2.5"/><path fill="none" stroke="rgb(247,80,64)" paint-order="fill stroke markers" d=" M 265.09956836778133 -159.6164346431928 Q 404.07441856302245 -66.54478507535735 571.4754986075924 -63.742908648847255" stroke-opacity="0.666" stroke-linejoin="round" stroke-miterlimit="10" stroke-width="2.5"/><path fill="none" stroke="rgb(2,123,252)" paint-order="fill stroke markers" d=" M -23.848346492962946 228.5043361062718 Q 135.68225264551094 304.4684038845182 311.65327755718727 286.95678281993014" stroke-opacity="0.666" stroke-linejoin="round" stroke-miterlimit="10" stroke-width="2.5"/><path fill="none" stroke="rgb(19,0,71)" paint-order="fill stroke markers" d=" M 411.9465455089403 42.451347595382984 Q 322.15952452565426 143.39939364601548 319.27618905190496 278.71579653834885" stroke-opacity="0.666" stroke-linejoin="round" stroke-miterlimit="10" stroke-width="2.5"/><path fill="none" stroke="rgb(251,211,0)" paint-order="fill stroke markers" d=" M -315.31922796695466 -27.322772739868814 Q -439.3637126633715 4.1255794567490796 -509.49452780615997 111.49301134051515" stroke-opacity="0.666" stroke-linejoin="round" stroke-miterlimit="10" stroke-width="2.5"/><path fill="none" stroke="rgb(0,172,241)" paint-order="fill stroke markers" d=" M -259.89694477940384 -184.07080529060852 Q -332.30274338041426 -261.9247957002631 -438.7533175895021 -254.48543161965802" stroke-opacity="0.666" stroke-linejoin="round" stroke-miterlimit="10" stroke-width="2.5"/><path fill="none" stroke="rgb(251,211,0)" paint-order="fill stroke markers" d=" M -306.5665886709673 -41.396806333835116 Q -334.0611620994156 -170.5392259684642 -440.21690941417387 -249.48688043773404" stroke-opacity="0.666" stroke-linejoin="round" stroke-miterlimit="10" stroke-width="2.5"/><path fill="none" stroke="rgb(247,80,64)" paint-order="fill stroke markers" d=" M 266.9534443103566 -164.57208679086236 Q 391.18994850210487 -148.85381389675086 492.31787904731954 -223.19357813295235" stroke-opacity="0.666" stroke-linejoin="round" stroke-miterlimit="10" stroke-width="2.5"/><path fill="none" stroke="rgb(19,0,71)" paint-order="fill stroke markers" d=" M 426.44718207157507 24.626997039738953 Q 507.4269502647366 -84.38197754617295 498.83451076759843 -220.15074407686149" stroke-opacity="0.666" stroke-linejoin="round" stroke-miterlimit="10" stroke-width="2.5"/><path fill="none" stroke="rgb(251,211,0)" paint-order="fill stroke markers" d=" M -313.16433563758864 -37.31730238633462 Q -408.8865886657684 -113.62315906365926 -530.9392152837165 -100.91496611601627" stroke-opacity="0.666" stroke-linejoin="round" stroke-miterlimit="10" stroke-width="2.5"/><path fill="none" stroke="rgb(0,172,241)" paint-order="fill stroke markers" d=" M -263.5418253451069 -176.38273253840012 Q -409.9159441604059 -185.73106198657467 -532.1571106519491 -104.29640978881821" stroke-opacity="0.666" stroke-linejoin="round" stroke-miterlimit="10" stroke-width="2.5"/><path fill="none" stroke="rgb(251,211,0)" paint-order="fill stroke markers" d=" M -294.26076855849766 -35.981526663775014 Q -163.86735731507923 -112.71713494238932 -103.92483467372159 -251.84896264875638" stroke-opacity="0.666" stroke-linejoin="round" stroke-miterlimit="10" stroke-width="2.5"/><path fill="none" stroke="rgb(0,172,241)" paint-order="fill stroke markers" d=" M -248.17592165663692 -186.47212597855304 Q -205.94738739873623 -303.97760196448434 -256.62462418637824 -418.40785452634765" stroke-opacity="0.666" stroke-linejoin="round" stroke-miterlimit="10" stroke-width="2.5"/><path fill="none" stroke="rgb(251,211,0)" paint-order="fill stroke markers" d=" M -308.12069692850105 -19.348112276010482 Q -350.79427941831875 97.37293435026436 -300.58178709796545 211.3708968459415" stroke-opacity="0.666" stroke-linejoin="round" stroke-miterlimit="10" stroke-width="2.5"/><path fill="none" stroke="rgb(2,123,252)" paint-order="fill stroke markers" d=" M -44.918985596877874 219.31481962269316 Q -166.88350457256868 170.86719535512205 -290.50749391483805 215.67869014722262" stroke-opacity="0.666" stroke-linejoin="round" stroke-miterlimit="10" stroke-width="2.5"/><path fill="none" stroke="rgb(125,197,62)" paint-order="fill stroke markers" d=" M 194.6322135980086 173.93919740511348 Q 266.7306223514209 145.4200419933142 264.80033700650085 67.19009705173922" stroke-opacity="0.666" stroke-linejoin="round" stroke-miterlimit="10" stroke-width="2.5"/><path fill="none" stroke="rgb(19,0,71)" paint-order="fill stroke markers" d=" M 408.954268512771 29.483014636409333 Q 331.90810819087284 -2.215153928082124 270.13489142904626 54.6145359403814" stroke-opacity="0.666" stroke-linejoin="round" stroke-miterlimit="10" stroke-width="2.5"/><path fill="none" stroke="rgb(125,197,62)" paint-order="fill stroke markers" d=" M 180.40798359186297 167.22454000593868 Q 137.79618935572003 35.124564920165454 22.988316541099834 -42.297073938982194" stroke-opacity="0.666" stroke-linejoin="round" stroke-miterlimit="10" stroke-width="4.5"/><path fill="none" stroke="rgb(2,123,252)" paint-order="fill stroke markers" d=" M -28.668232792921643 213.49535788145394 Q 36.07491587807405 96.36011961046812 11.677654276838346 -34.87623243727403" stroke-opacity="0.666" stroke-linejoin="round" stroke-miterlimit="10" stroke-width="4.5"/><path fill="none" stroke="rgb(19,0,71)" paint-order="fill stroke markers" d=" M 409.19987600956756 28.928116018976084 Q 227.20180424985634 -57.439691994828124 25.97389959532245 -52.51003568527282" stroke-opacity="0.666" stroke-linejoin="round" stroke-miterlimit="10" stroke-width="4.5"/><path fill="none" stroke="rgb(251,211,0)" paint-order="fill stroke markers" d=" M -293.01380431144037 -27.365555096063808 Q -147.34010450132718 8.972185959183683 -7.8147282433470195 -45.69712842349823" stroke-opacity="0.666" stroke-linejoin="round" stroke-miterlimit="10" stroke-width="4.5"/><path fill="none" stroke="rgb(247,80,64)" paint-order="fill stroke markers" d=" M 244.07467119217196 -165.18161158294384 Q 113.79769139201346 -155.7094821582836 20.953225521027107 -64.35530180028985" stroke-opacity="0.666" stroke-linejoin="round" stroke-miterlimit="10" stroke-width="4.5"/><path fill="none" stroke="rgb(0,172,241)" paint-order="fill stroke markers" d=" M -243.91582304803035 -167.5357335780102 Q -145.92954963390284 -69.97451219842375 -8.904522871477525 -54.09589163461347" stroke-opacity="0.666" stroke-linejoin="round" stroke-miterlimit="10" stroke-width="4.5"/><path fill="rgb(168,174,188)" stroke="none" paint-order="stroke fill markers" d=" M 25.97914850984317 -52.08145143787088 L 25.92520185017291 -50.708417262633596 L 25.76369447025808 -49.343848299666845 L 25.49562211680251 -47.99615757039254 L 25.122637545008356 -46.6736540363093 L 24.647040328790688 -45.384491371481815 L 24.07176268313961 -44.136617692428814 L 23.400351386039787 -42.937726555341776 L 22.63694591140475 -41.7952095227526 L 21.78625290784371 -40.71611059209267 L 20.853517180607753 -39.7070827671063 L 19.844489355621384 -38.77434703987034 L 18.765390424961453 -37.9236540363093 L 17.622873392372277 -37.160248561674265 L 16.42398225528524 -36.48883726457444 L 15.176108576232242 -35.913559618923365 L 13.886945911404752 -35.43796240270569 L 12.564442377321516 -35.064977830911545 L 11.216751648047211 -34.79690547745597 L 9.852182685080457 -34.63539809754114 L 8.479148509843172 -34.58145143787088 L 7.106114334605886 -34.63539809754114 L 5.741545371639131 -34.79690547745597 L 4.393854642364827 -35.064977830911545 L 3.0713511082815925 -35.43796240270569 L 1.7821884434541007 -35.913559618923365 L 0.5343147644011026 -36.48883726457444 L -0.664576372685934 -37.160248561674265 L -1.8070934052751078 -37.9236540363093 L -2.886192335935041 -38.774347039870335 L -3.8952201609214097 -39.7070827671063 L -4.827955888157369 -40.71611059209267 L -5.678648891718408 -41.7952095227526 L -6.442054366353442 -42.937726555341776 L -7.113465663453265 -44.136617692428814 L -7.688743309104346 -45.38449137148181 L -8.164340525322014 -46.6736540363093 L -8.53732509711617 -47.99615757039253 L -8.80539745057174 -49.34384829966684 L -8.96690483048657 -50.708417262633596 L -9.02085149015683 -52.08145143787088 L -8.96690483048657 -53.45448561310817 L -8.80539745057174 -54.81905457607492 L -8.53732509711617 -56.166745305349224 L -8.164340525322018 -57.48924883943246 L -7.68874330910435 -58.77841150425995 L -7.113465663453267 -60.02628518331295 L -6.442054366353444 -61.22517632039998 L -5.67864889171841 -62.367693352989164 L -4.827955888157373 -63.446792283649096 L -3.895220160921413 -64.45582010863546 L -2.8861923359350516 -65.38855583587141 L -1.8070934052751113 -66.23924883943246 L -0.6645763726859286 -67.0026543140675 L 0.5343147644011133 -67.67406561116732 L 1.7821884434541193 -68.2493432568184 L 3.0713511082816174 -68.72494047303607 L 4.393854642364861 -69.09792504483023 L 5.741545371639173 -69.3659973982858 L 7.106114334605936 -69.52750477820062 L 8.47914850984323 -69.58145143787088 L 9.852182685080525 -69.52750477820061 L 11.216751648047284 -69.36599739828578 L 12.564442377321594 -69.0979250448302 L 13.886945911404837 -68.72494047303604 L 15.176108576232332 -68.24934325681836 L 16.42398225528533 -67.67406561116726 L 17.62287339237237 -67.00265431406744 L 18.76539042496155 -66.23924883943239 L 19.844489355621484 -65.38855583587134 L 20.85351718060785 -64.45582010863536 L 21.786252907843803 -63.44679228364899 L 22.63694591140484 -62.367693352989036 L 23.400351386039866 -61.225176320399854 L 24.071762683139685 -60.0262851833128 L 24.647040328790755 -58.77841150425979 L 25.122637545008413 -57.48924883943229 L 25.495622116802554 -56.16674530534904 L 25.763694470258113 -54.81905457607473 L 25.925201850172925 -53.45448561310796 Z" fill-opacity="0.9"/><text fill="rgb(19,0,71)" stroke="none" font-family="Assistant-SemiBold, sans-serif" font-size="14px" font-style="normal" font-weight="500" text-decoration="normal" x="-13.27085149015683" y="-69.58145143787088" text-anchor="start" dominant-baseline="text-after-edge" fill-opacity="0.9">IQT Labs</text><path fill="rgb(125,197,62)" stroke="none" paint-order="stroke fill markers" d=" M -132.95331969230554 58.66788257446044 L -132.97643968930709 59.25632579241928 L -133.045657137842 59.841141062262174 L -133.16054528932295 60.41872280337973 L -133.3203958200919 60.98551003227255 L -133.52422319847088 61.53800831719862 L -133.7707707608928 62.07281132250704 L -134.05851845964986 62.586621809830056 L -134.38569223449343 63.07627196665399 L -134.7502749503053 63.53874293693682 L -135.15001883340642 63.97118343335955 L -135.58245932982916 64.37092731646068 L -136.044930300112 64.73551003227254 L -136.5345804569359 65.06268380711613 L -137.04839094425893 65.3504315058732 L -137.58319394956737 65.5969790682951 L -138.13569223449343 65.80080644667409 L -138.70247946338625 65.96065697744302 L -139.2800612045038 66.07554512892398 L -139.86487647434672 66.1447625774589 L -140.45331969230554 66.16788257446044 L -141.04176291026437 66.1447625774589 L -141.62657818010726 66.07554512892398 L -142.20415992122483 65.96065697744302 L -142.77094715011765 65.8008064466741 L -143.3234454350437 65.5969790682951 L -143.85824844035216 65.3504315058732 L -144.37205892767517 65.06268380711613 L -144.8617090844991 64.73551003227254 L -145.32418005478192 64.37092731646068 L -145.75662055120463 63.97118343335955 L -146.15636443430577 63.53874293693682 L -146.52094715011765 63.07627196665399 L -146.84812092496122 62.586621809830056 L -147.1358686237183 62.07281132250704 L -147.3824161861402 61.53800831719862 L -147.58624356451918 60.98551003227255 L -147.74609409528813 60.41872280337974 L -147.86098224676908 59.841141062262174 L -147.930199695304 59.25632579241928 L -147.95331969230554 58.66788257446044 L -147.930199695304 58.07943935650161 L -147.86098224676908 57.49462408665871 L -147.74609409528813 56.917042345541155 L -147.58624356451918 56.35025511664834 L -147.3824161861402 55.79775683172227 L -147.1358686237183 55.26295382641384 L -146.84812092496122 54.74914333909083 L -146.52094715011765 54.259493182266894 L -146.15636443430577 53.797022211984064 L -145.75662055120466 53.364581715561336 L -145.32418005478192 52.96483783246021 L -144.8617090844991 52.600255116648334 L -144.37205892767517 52.27308134180475 L -143.85824844035213 51.98533364304768 L -143.3234454350437 51.738786080625786 L -142.77094715011765 51.53495870224678 L -142.20415992122483 51.37510817147786 L -141.62657818010726 51.26022001999691 L -141.04176291026437 51.19100257146198 L -140.4533196923055 51.16788257446044 L -139.8648764743467 51.191002571461986 L -139.28006120450377 51.260220019996915 L -138.70247946338623 51.375108171477876 L -138.1356922344934 51.534958702246804 L -137.58319394956732 51.73878608062581 L -137.0483909442589 51.9853336430477 L -136.53458045693588 52.273081341804776 L -136.04493030011196 52.60025511664837 L -135.58245932982913 52.96483783246025 L -135.1500188334064 53.36458171556138 L -134.75027495030528 53.797022211984114 L -134.3856922344934 54.259493182266944 L -134.0585184596498 54.749143339090885 L -133.77077076089276 55.262953826413906 L -133.52422319847085 55.79775683172234 L -133.32039582009187 56.35025511664841 L -133.16054528932295 56.91704234554123 L -133.045657137842 57.494624086658796 L -132.97643968930709 58.079439356501695 Z" fill-opacity="0.9"/><text fill="rgb(19,0,71)" stroke="none" font-family="Assistant-SemiBold, sans-serif" font-size="14px" font-style="normal" font-weight="500" text-decoration="normal" x="-129.20331969230554" y="65.66788257446044" text-anchor="start" dominant-baseline="text-after-edge" fill-opacity="0.9">PCAPviz</text><path fill="rgb(125,197,62)" stroke="none" paint-order="stroke fill markers" d=" M 506.5034008591326 201.93184499244336 L 506.4802808621311 202.52028821040219 L 506.41106341359614 203.10510348024508 L 506.2961752621152 203.68268522136265 L 506.1363247313463 204.24947245025547 L 505.9324973529673 204.80197073518153 L 505.6859497905454 205.33677374048995 L 505.39820209178833 205.850584227813 L 505.0710283169447 206.34023438463691 L 504.7064456011329 206.80270535491974 L 504.3067017180317 207.23514585134245 L 503.874261221609 207.6348897344436 L 503.4117902513262 207.99947245025547 L 502.92214009450225 208.32664622509904 L 502.4083296071792 208.6143939238561 L 501.8735266018708 208.86094148627802 L 501.3210283169447 209.064768864657 L 500.7542410880519 209.22461939542595 L 500.17665934693434 209.3395075469069 L 499.5918440770915 209.40872499544182 L 499.0034008591326 209.43184499244336 L 498.41495764117377 209.40872499544182 L 497.8301423713309 209.3395075469069 L 497.25256063021334 209.22461939542595 L 496.68577340132055 209.06476886465703 L 496.13327511639443 208.86094148627802 L 495.59847211108604 208.6143939238561 L 495.084661623763 208.32664622509904 L 494.59501146693907 207.99947245025547 L 494.13254049665625 207.6348897344436 L 493.70010000023353 207.23514585134245 L 493.30035611713237 206.80270535491974 L 492.93577340132055 206.34023438463691 L 492.6085996264769 205.850584227813 L 492.32085192771984 205.33677374048997 L 492.07430436529796 204.80197073518153 L 491.87047698691896 204.24947245025547 L 491.71062645615007 203.68268522136265 L 491.5957383046691 203.1051034802451 L 491.52652085613414 202.52028821040219 L 491.5034008591326 201.93184499244336 L 491.52652085613414 201.34340177448453 L 491.5957383046691 200.75858650464164 L 491.71062645615007 200.18100476352407 L 491.87047698691896 199.61421753463125 L 492.07430436529796 199.0617192497052 L 492.32085192771984 198.52691624439677 L 492.6085996264769 198.01310575707373 L 492.93577340132055 197.5234556002498 L 493.30035611713237 197.06098462996698 L 493.70010000023353 196.62854413354427 L 494.13254049665625 196.22880025044313 L 494.59501146693907 195.86421753463125 L 495.084661623763 195.53704375978768 L 495.59847211108604 195.2492960610306 L 496.1332751163945 195.0027484986087 L 496.68577340132055 194.7989211202297 L 497.25256063021334 194.63907058946077 L 497.8301423713309 194.52418243797982 L 498.4149576411738 194.4549649894449 L 499.0034008591326 194.43184499244336 L 499.5918440770915 194.4549649894449 L 500.1766593469344 194.52418243797982 L 500.75424108805197 194.6390705894608 L 501.32102831694476 194.79892112022972 L 501.8735266018708 195.00274849860872 L 502.40832960717927 195.24929606103063 L 502.9221400945023 195.5370437597877 L 503.41179025132624 195.86421753463128 L 503.87426122160906 196.22880025044316 L 504.3067017180318 196.6285441335443 L 504.7064456011329 197.06098462996704 L 505.07102831694476 197.52345560024986 L 505.39820209178833 198.0131057570738 L 505.6859497905454 198.52691624439683 L 505.9324973529673 199.06171924970525 L 506.1363247313463 199.61421753463134 L 506.29617526211524 200.18100476352416 L 506.4110634135962 200.7585865046417 L 506.4802808621311 201.34340177448462 Z" fill-opacity="0.9"/><text fill="rgb(19,0,71)" stroke="none" font-family="Assistant-SemiBold, sans-serif" font-size="14px" font-style="normal" font-weight="500" text-decoration="normal" x="510.2534008591326" y="208.93184499244336" text-anchor="start" dominant-baseline="text-after-edge" fill-opacity="0.9">VeriCAT</text><path fill="rgb(125,197,62)" stroke="none" paint-order="stroke fill markers" d=" M 76.40337335520327 388.4966413570106 L 76.38025335820173 389.08508457496947 L 76.3110359096668 389.66989984481233 L 76.19614775818584 390.2474815859299 L 76.03629722741692 390.8142688148227 L 75.83246984903792 391.3667670997488 L 75.58592228661603 391.9015701050572 L 75.29817458785897 392.41538059238025 L 74.97100081301538 392.9050307492042 L 74.6064180972035 393.367501719487 L 74.20667421410238 393.7999422159097 L 73.77423371767965 394.1996860990109 L 73.31176274739681 394.5642688148227 L 72.82211259057289 394.8914425896663 L 72.30830210324987 395.1791902884234 L 71.77349909794144 395.4257378508453 L 71.22100081301538 395.6295652292243 L 70.65421358412256 395.7894157599932 L 70.076631843005 395.90430391147413 L 69.49181657316211 395.9735213600091 L 68.90337335520327 395.9966413570106 L 68.31493013724443 395.9735213600091 L 67.73011486740154 395.90430391147413 L 67.15253312628398 395.7894157599932 L 66.58574589739116 395.6295652292243 L 66.0332476124651 395.4257378508453 L 65.49844460715667 395.1791902884234 L 64.98463411983366 394.8914425896663 L 64.49498396300973 394.5642688148227 L 64.0325129927269 394.1996860990109 L 63.600072496304165 393.7999422159097 L 63.20032861320304 393.367501719487 L 62.83574589739116 392.9050307492042 L 62.50857212254758 392.41538059238025 L 62.22082442379051 391.9015701050572 L 61.97427686136862 391.3667670997488 L 61.77044948298962 390.8142688148227 L 61.6105989522207 390.2474815859299 L 61.49571080073974 389.66989984481233 L 61.426493352204815 389.08508457496947 L 61.40337335520327 388.4966413570106 L 61.426493352204815 387.90819813905176 L 61.49571080073974 387.3233828692089 L 61.6105989522207 386.74580112809133 L 61.77044948298962 386.17901389919854 L 61.97427686136862 385.6265156142724 L 62.22082442379051 385.09171260896403 L 62.50857212254758 384.577902121641 L 62.83574589739116 384.08825196481706 L 63.20032861320304 383.62578099453424 L 63.600072496304165 383.1933404981115 L 64.0325129927269 382.7935966150104 L 64.49498396300972 382.42901389919854 L 64.98463411983366 382.1018401243549 L 65.49844460715667 381.81409242559783 L 66.0332476124651 381.56754486317595 L 66.58574589739118 381.36371748479695 L 67.152533126284 381.20386695402806 L 67.73011486740155 381.0889788025471 L 68.31493013724446 381.01976135401213 L 68.9033733552033 380.9966413570106 L 69.49181657316214 381.01976135401213 L 70.07663184300503 381.0889788025471 L 70.6542135841226 381.20386695402806 L 71.22100081301541 381.36371748479695 L 71.77349909794148 381.56754486317595 L 72.30830210324991 381.8140924255979 L 72.82211259057293 382.10184012435496 L 73.31176274739686 382.42901389919854 L 73.77423371767969 382.7935966150104 L 74.20667421410242 383.1933404981115 L 74.60641809720354 383.6257809945343 L 74.97100081301542 384.0882519648171 L 75.298174587859 384.57790212164105 L 75.58592228661607 385.0917126089641 L 75.83246984903795 385.62651561427253 L 76.03629722741695 386.1790138991986 L 76.19614775818586 386.7458011280914 L 76.31103590966681 387.32338286920896 L 76.38025335820174 387.9081981390519 Z" fill-opacity="0.9"/><text fill="rgb(19,0,71)" stroke="none" font-family="Assistant-SemiBold, sans-serif" font-size="14px" font-style="normal" font-weight="500" text-decoration="normal" x="80.15337335520327" y="395.4966413570106" text-anchor="start" dominant-baseline="text-after-edge" fill-opacity="0.9">Viziflu/COVIZ</text><path fill="rgb(2,123,252)" stroke="none" paint-order="stroke fill markers" d=" M 104.45463702434341 68.87490098361121 L 104.43151702734187 69.46334420157005 L 104.36229957880694 70.04815947141294 L 104.24741142732599 70.6257412125305 L 104.08756089655706 71.19252844142332 L 103.88373351817806 71.74502672634938 L 103.63718595575617 72.27982973165781 L 103.34943825699911 72.79364021898083 L 103.02226448215552 73.28329037580477 L 102.65768176634364 73.74576134608759 L 102.25793788324252 74.17820184251032 L 101.82549738681979 74.57794572561144 L 101.36302641653697 74.94252844142332 L 100.87337625971303 75.26970221626691 L 100.35956577239001 75.55744991502397 L 99.82476276708158 75.80399747744586 L 99.27226448215552 76.00782485582486 L 98.7054772532627 76.16767538659379 L 98.12789551214514 76.28256353807474 L 97.54308024230225 76.35178098660967 L 96.95463702434341 76.37490098361121 L 96.36619380638457 76.35178098660967 L 95.78137853654168 76.28256353807474 L 95.20379679542413 76.16767538659379 L 94.6370095665313 76.00782485582486 L 94.08451128160524 75.80399747744586 L 93.54970827629681 75.55744991502397 L 93.0358977889738 75.26970221626691 L 92.54624763214987 74.94252844142332 L 92.08377666186703 74.57794572561144 L 91.6513361654443 74.17820184251032 L 91.25159228234318 73.74576134608759 L 90.8870095665313 73.28329037580477 L 90.55983579168772 72.79364021898083 L 90.27208809293066 72.27982973165781 L 90.02554053050876 71.74502672634938 L 89.82171315212976 71.19252844142332 L 89.66186262136084 70.6257412125305 L 89.54697446987988 70.04815947141294 L 89.47775702134496 69.46334420157005 L 89.45463702434341 68.87490098361121 L 89.47775702134496 68.28645776565237 L 89.54697446987988 67.70164249580948 L 89.66186262136084 67.12406075469193 L 89.82171315212976 66.5572735257991 L 90.02554053050876 66.00477524087304 L 90.27208809293066 65.46997223556461 L 90.55983579168772 64.9561617482416 L 90.8870095665313 64.46651159141767 L 91.25159228234318 64.00404062113483 L 91.6513361654443 63.571600124712106 L 92.08377666186703 63.17185624161098 L 92.54624763214986 62.807273525799104 L 93.0358977889738 62.48009975095552 L 93.54970827629681 62.19235205219845 L 94.08451128160524 61.945804489776556 L 94.63700956653132 61.74197711139756 L 95.20379679542414 61.58212658062863 L 95.7813785365417 61.46723842914768 L 96.3661938063846 61.39802098061275 L 96.95463702434344 61.37490098361121 L 97.54308024230228 61.398020980612756 L 98.12789551214517 61.467238429147685 L 98.70547725326274 61.582126580628646 L 99.27226448215555 61.741977111397574 L 99.82476276708162 61.94580448977658 L 100.35956577239006 62.19235205219847 L 100.87337625971307 62.480099750955546 L 101.363026416537 62.80727352579914 L 101.82549738681983 63.17185624161102 L 102.25793788324256 63.57160012471215 L 102.65768176634369 64.00404062113488 L 103.02226448215556 64.46651159141771 L 103.34943825699914 64.95616174824166 L 103.63718595575621 65.46997223556467 L 103.88373351817809 66.0047752408731 L 104.0875608965571 66.55727352579918 L 104.247411427326 67.124060754692 L 104.36229957880695 67.70164249580957 L 104.43151702734188 68.28645776565246 Z" fill-opacity="0.9"/><text fill="rgb(19,0,71)" stroke="none" font-family="Assistant-SemiBold, sans-serif" font-size="14px" font-style="normal" font-weight="500" text-decoration="normal" x="108.20463702434341" y="75.87490098361121" text-anchor="start" dominant-baseline="text-after-edge" fill-opacity="0.9">Where in the World</text><path fill="rgb(19,0,71)" stroke="none" paint-order="stroke fill markers" d=" M 586.4744482879826 -63.61739494052783 L 586.451328290981 -63.02895172256899 L 586.3821108424461 -62.4441364527261 L 586.2672226909651 -61.86655471160854 L 586.1073721601962 -61.29976748271572 L 585.9035447818172 -60.747269197789656 L 585.6569972193953 -60.21246619248123 L 585.3692495206383 -59.69865570515822 L 585.0420757457947 -59.20900554833428 L 584.6774930299828 -58.74653457805145 L 584.2777491468817 -58.314094081628724 L 583.845308650459 -57.9143501985276 L 583.3828376801761 -57.54976748271572 L 582.8931875233521 -57.222593707872136 L 582.3793770360292 -56.93484600911507 L 581.8445740307208 -56.68829844669318 L 581.2920757457947 -56.48447106831418 L 580.7252885169019 -56.32462053754526 L 580.1477067757843 -56.209732386064296 L 579.5628915059414 -56.140514937529375 L 578.9744482879826 -56.11739494052783 L 578.3860050700238 -56.140514937529375 L 577.8011898001809 -56.209732386064296 L 577.2236080590633 -56.32462053754526 L 576.6568208301704 -56.48447106831418 L 576.1043225452444 -56.68829844669318 L 575.569519539936 -56.93484600911507 L 575.055709052613 -57.222593707872136 L 574.5660588957891 -57.54976748271572 L 574.1035879255062 -57.9143501985276 L 573.6711474290835 -58.314094081628724 L 573.2714035459824 -58.74653457805145 L 572.9068208301704 -59.20900554833428 L 572.5796470553269 -59.69865570515822 L 572.2918993565698 -60.21246619248123 L 572.0453517941479 -60.747269197789656 L 571.841524415769 -61.29976748271572 L 571.681673885 -61.866554711608536 L 571.566785733519 -62.4441364527261 L 571.4975682849841 -63.02895172256899 L 571.4744482879826 -63.61739494052783 L 571.4975682849841 -64.20583815848667 L 571.566785733519 -64.79065342832956 L 571.681673885 -65.36823516944712 L 571.841524415769 -65.93502239833994 L 572.0453517941479 -66.487520683266 L 572.2918993565698 -67.02232368857443 L 572.5796470553269 -67.53613417589744 L 572.9068208301704 -68.02578433272137 L 573.2714035459824 -68.48825530300421 L 573.6711474290835 -68.92069579942694 L 574.1035879255062 -69.32043968252806 L 574.5660588957891 -69.68502239833994 L 575.055709052613 -70.01219617318353 L 575.569519539936 -70.2999438719406 L 576.1043225452444 -70.54649143436248 L 576.6568208301704 -70.75031881274148 L 577.2236080590633 -70.9101693435104 L 577.8011898001809 -71.02505749499137 L 578.3860050700238 -71.09427494352629 L 578.9744482879826 -71.11739494052783 L 579.5628915059415 -71.09427494352629 L 580.1477067757843 -71.02505749499136 L 580.7252885169019 -70.9101693435104 L 581.2920757457947 -70.75031881274147 L 581.8445740307208 -70.54649143436247 L 582.3793770360292 -70.29994387194057 L 582.8931875233523 -70.0121961731835 L 583.3828376801762 -69.68502239833991 L 583.845308650459 -69.32043968252803 L 584.2777491468817 -68.9206957994269 L 584.6774930299829 -68.48825530300417 L 585.0420757457947 -68.02578433272133 L 585.3692495206383 -67.53613417589739 L 585.6569972193954 -67.02232368857437 L 585.9035447818172 -66.48752068326594 L 586.1073721601963 -65.93502239833987 L 586.2672226909651 -65.36823516944705 L 586.3821108424461 -64.79065342832948 L 586.451328290981 -64.20583815848659 Z" fill-opacity="0.9"/><text fill="rgb(19,0,71)" stroke="none" font-family="Assistant-SemiBold, sans-serif" font-size="14px" font-style="normal" font-weight="500" text-decoration="normal" x="590.2244482879826" y="-56.61739494052783" text-anchor="start" dominant-baseline="text-after-edge" fill-opacity="0.9">Fusing Without Confusing</text><path fill="rgb(2,123,252)" stroke="none" paint-order="stroke fill markers" d=" M 326.6164145677807 286.2140944861649 L 326.59329457077916 286.8025377041238 L 326.5240771222442 287.38735297396664 L 326.40918897076324 287.9649347150842 L 326.24933843999435 288.531721943977 L 326.04551106161534 289.0842202289031 L 325.79896349919346 289.6190232342115 L 325.5112158004364 290.13283372153455 L 325.18404202559276 290.6224838783585 L 324.81945930978094 291.0849548486413 L 324.4197154266798 291.517395345064 L 323.98727493025706 291.9171392281652 L 323.52480395997424 292.281721943977 L 323.0351538031503 292.60889571882063 L 322.52134331582727 292.8966434175777 L 321.9865403105189 293.1431909799996 L 321.43404202559276 293.3470183583786 L 320.86725479669997 293.5068688891475 L 320.2896730555824 293.62175704062844 L 319.70485778573953 293.6909744891634 L 319.1164145677807 293.7140944861649 L 318.5279713498218 293.6909744891634 L 317.94315607997896 293.62175704062844 L 317.3655743388614 293.5068688891475 L 316.7987871099686 293.3470183583786 L 316.2462888250425 293.1431909799996 L 315.7114858197341 292.8966434175777 L 315.19767533241105 292.60889571882063 L 314.7080251755871 292.281721943977 L 314.2455542053043 291.9171392281652 L 313.8131137088816 291.517395345064 L 313.4133698257804 291.0849548486413 L 313.0487871099686 290.6224838783585 L 312.72161333512497 290.13283372153455 L 312.4338656363679 289.6190232342115 L 312.187318073946 289.0842202289031 L 311.983490695567 288.531721943977 L 311.8236401647981 287.9649347150842 L 311.70875201331717 287.38735297396664 L 311.6395345647822 286.8025377041238 L 311.6164145677807 286.2140944861649 L 311.6395345647822 285.62565126820607 L 311.70875201331717 285.0408359983632 L 311.8236401647981 284.46325425724564 L 311.983490695567 283.89646702835284 L 312.187318073946 283.34396874342673 L 312.4338656363679 282.80916573811834 L 312.72161333512497 282.2953552507953 L 313.0487871099686 281.80570509397137 L 313.4133698257804 281.34323412368855 L 313.8131137088816 280.91079362726583 L 314.2455542053043 280.5110497441647 L 314.7080251755871 280.14646702835284 L 315.19767533241105 279.8192932535092 L 315.7114858197341 279.53154555475214 L 316.24628882504254 279.28499799233026 L 316.7987871099686 279.08117061395126 L 317.3655743388614 278.92132008318237 L 317.94315607997896 278.8064319317014 L 318.5279713498219 278.73721448316644 L 319.1164145677807 278.7140944861649 L 319.70485778573953 278.73721448316644 L 320.28967305558245 278.8064319317014 L 320.8672547967 278.92132008318237 L 321.4340420255928 279.08117061395126 L 321.9865403105189 279.2849979923303 L 322.5213433158273 279.5315455547522 L 323.03515380315037 279.8192932535093 L 323.5248039599743 280.14646702835284 L 323.9872749302571 280.5110497441647 L 324.41971542667983 280.91079362726583 L 324.81945930978094 281.3432341236886 L 325.1840420255928 281.8057050939714 L 325.5112158004364 282.29535525079535 L 325.79896349919346 282.8091657381184 L 326.04551106161534 283.34396874342684 L 326.24933843999435 283.8964670283529 L 326.4091889707633 284.4632542572457 L 326.52407712224425 285.04083599836326 L 326.59329457077916 285.6256512682062 Z" fill-opacity="0.9"/><text fill="rgb(19,0,71)" stroke="none" font-family="Assistant-SemiBold, sans-serif" font-size="14px" font-style="normal" font-weight="500" text-decoration="normal" x="330.3664145677807" y="293.2140944861649" text-anchor="start" dominant-baseline="text-after-edge" fill-opacity="0.9">Synthesizing Robustness</text><path fill="rgb(251,211,0)" stroke="none" paint-order="stroke fill markers" d=" M -506.0959901724059 117.7721837747033 L -506.1191101694074 118.36062699266213 L -506.1883276179424 118.94544226250503 L -506.30321576942333 119.52302400362258 L -506.4630663001922 120.0898112325154 L -506.6668936785712 120.64230951744146 L -506.9134412409931 121.1771125227499 L -507.2011889397502 121.69092301007291 L -507.5283627145938 122.18057316689683 L -507.89294543040563 122.64304413717967 L -508.2926893135068 123.0754846336024 L -508.7251298099295 123.47522851670352 L -509.18760078021234 123.8398112325154 L -509.67725093703626 124.16698500735899 L -510.1910614243593 124.45473270611605 L -510.7258644296677 124.70128026853794 L -511.2783627145938 124.90510764691695 L -511.8451499434866 125.06495817768587 L -512.4227316846042 125.17984632916682 L -513.0075469544471 125.24906377770175 L -513.5959901724059 125.2721837747033 L -514.1844333903647 125.24906377770175 L -514.7692486602076 125.17984632916682 L -515.3468304013252 125.06495817768587 L -515.913617630218 124.90510764691695 L -516.4661159151441 124.70128026853794 L -517.0009189204525 124.45473270611605 L -517.5147294077755 124.16698500735899 L -518.0043795645994 123.8398112325154 L -518.4668505348823 123.47522851670352 L -518.899291031305 123.0754846336024 L -519.2990349144061 122.64304413717967 L -519.663617630218 122.18057316689685 L -519.9907914050616 121.69092301007291 L -520.2785391038186 121.1771125227499 L -520.5250866662406 120.64230951744146 L -520.7289140446195 120.0898112325154 L -520.8887645753884 119.52302400362258 L -521.0036527268694 118.94544226250503 L -521.0728701754043 118.36062699266213 L -521.0959901724059 117.7721837747033 L -521.0728701754043 117.18374055674445 L -521.0036527268694 116.59892528690156 L -520.8887645753884 116.021343545784 L -520.7289140446195 115.45455631689119 L -520.5250866662406 114.90205803196513 L -520.2785391038186 114.3672550266567 L -519.9907914050616 113.85344453933368 L -519.663617630218 113.36379438250975 L -519.2990349144061 112.90132341222692 L -518.899291031305 112.46888291580419 L -518.4668505348823 112.06913903270306 L -518.0043795645994 111.70455631689119 L -517.5147294077755 111.3773825420476 L -517.0009189204525 111.08963484329053 L -516.4661159151441 110.84308728086864 L -515.913617630218 110.63925990248964 L -515.3468304013252 110.47940937172072 L -514.7692486602076 110.36452122023975 L -514.1844333903647 110.29530377170484 L -513.5959901724059 110.2721837747033 L -513.007546954447 110.29530377170484 L -512.4227316846042 110.36452122023977 L -511.84514994348655 110.47940937172072 L -511.27836271459375 110.63925990248966 L -510.7258644296677 110.84308728086866 L -510.19106142435925 111.08963484329055 L -509.6772509370362 111.37738254204763 L -509.1876007802123 111.70455631689121 L -508.72512980992946 112.06913903270309 L -508.29268931350674 112.46888291580423 L -507.89294543040563 112.90132341222696 L -507.52836271459375 113.3637943825098 L -507.2011889397502 113.85344453933374 L -506.9134412409931 114.36725502665675 L -506.6668936785712 114.90205803196518 L -506.4630663001922 115.45455631689126 L -506.3032157694233 116.02134354578408 L -506.1883276179423 116.59892528690165 L -506.1191101694074 117.18374055674454 Z" fill-opacity="0.9"/><text fill="rgb(19,0,71)" stroke="none" font-family="Assistant-SemiBold, sans-serif" font-size="14px" font-style="normal" font-weight="500" text-decoration="normal" x="-502.3459901724059" y="124.7721837747033" text-anchor="start" dominant-baseline="text-after-edge" fill-opacity="0.9">AI Sonobuoy</text><path fill="rgb(0,172,241)" stroke="none" paint-order="stroke fill markers" d=" M -438.73506940735115 -253.96256477608063 L -438.75818940435266 -253.3741215581218 L -438.82740685288763 -252.7893062882789 L -438.9422950043686 -252.21172454716134 L -439.1021455351375 -251.64493731826852 L -439.3059729135165 -251.09243903334246 L -439.55252047593837 -250.55763602803404 L -439.84026817469544 -250.043825540711 L -440.16744194953907 -249.55417538388707 L -440.5320246653509 -249.09170441360425 L -440.93176854845206 -248.65926391718153 L -441.36420904487477 -248.2595200340804 L -441.8266800151576 -247.89493731826852 L -442.3163301719815 -247.56776354342495 L -442.83014065930456 -247.28001584466787 L -443.36494366461295 -247.03346828224596 L -443.91744194953907 -246.829640903867 L -444.48422917843186 -246.66979037309804 L -445.06181091954943 -246.55490222161708 L -445.6466261893923 -246.48568477308217 L -446.23506940735115 -246.46256477608063 L -446.82351262531 -246.48568477308217 L -447.40832789515287 -246.55490222161708 L -447.98590963627043 -246.66979037309804 L -448.5526968651632 -246.82964090386696 L -449.10519515008934 -247.03346828224596 L -449.63999815539773 -247.28001584466787 L -450.1538086427208 -247.56776354342495 L -450.6434587995447 -247.89493731826852 L -451.1059297698275 -248.2595200340804 L -451.53837026625024 -248.65926391718153 L -451.9381141493514 -249.09170441360425 L -452.3026968651632 -249.55417538388707 L -452.62987064000686 -250.043825540711 L -452.91761833876393 -250.557636028034 L -453.1641659011858 -251.09243903334246 L -453.3679932795648 -251.64493731826852 L -453.5278438103337 -252.21172454716134 L -453.64273196181466 -252.78930628827888 L -453.71194941034963 -253.3741215581218 L -453.73506940735115 -253.96256477608063 L -453.71194941034963 -254.55100799403945 L -453.64273196181466 -255.13582326388234 L -453.5278438103337 -255.7134050049999 L -453.3679932795648 -256.2801922338927 L -453.1641659011858 -256.8326905188188 L -452.91761833876393 -257.3674935241272 L -452.62987064000686 -257.88130401145025 L -452.3026968651632 -258.3709541682742 L -451.9381141493514 -258.833425138557 L -451.53837026625024 -259.2658656349797 L -451.1059297698275 -259.6656095180808 L -450.6434587995447 -260.0301922338927 L -450.1538086427208 -260.35736600873634 L -449.63999815539773 -260.6451137074934 L -449.1051951500893 -260.8916612699153 L -448.5526968651632 -261.0954886482943 L -447.98590963627043 -261.2553391790632 L -447.40832789515287 -261.37022733054414 L -446.82351262530995 -261.4394447790791 L -446.23506940735115 -261.4625647760806 L -445.6466261893923 -261.4394447790791 L -445.0618109195494 -261.37022733054414 L -444.4842291784318 -261.2553391790632 L -443.917441949539 -261.0954886482943 L -443.36494366461295 -260.8916612699153 L -442.8301406593045 -260.64511370749335 L -442.31633017198146 -260.3573660087363 L -441.82668001515754 -260.0301922338927 L -441.3642090448747 -259.6656095180808 L -440.931768548452 -259.2658656349797 L -440.5320246653509 -258.83342513855695 L -440.167441949539 -258.3709541682741 L -439.84026817469544 -257.8813040114502 L -439.55252047593837 -257.36749352412716 L -439.3059729135165 -256.8326905188187 L -439.1021455351375 -256.28019223389265 L -438.94229500436853 -255.71340500499983 L -438.8274068528876 -255.1358232638823 L -438.75818940435266 -254.55100799403937 Z" fill-opacity="0.9"/><text fill="rgb(19,0,71)" stroke="none" font-family="Assistant-SemiBold, sans-serif" font-size="14px" font-style="normal" font-weight="500" text-decoration="normal" x="-434.98506940735115" y="-246.96256477608063" text-anchor="start" dominant-baseline="text-after-edge" fill-opacity="0.9">Defensive-5G</text><path fill="rgb(247,80,64)" stroke="none" paint-order="stroke fill markers" d=" M 505.86080368871023 -227.6357692340277 L 505.8376836917087 -227.04732601606887 L 505.76846624317375 -226.46251074622597 L 505.6535780916928 -225.8849290051084 L 505.4937275609239 -225.31814177621558 L 505.2899001825449 -224.76564349128952 L 505.043352620123 -224.2308404859811 L 504.75560492136594 -223.71702999865806 L 504.4284311465223 -223.22737984183414 L 504.0638484307105 -222.7649088715513 L 503.6641045476093 -222.3324683751286 L 503.2316640511866 -221.93272449202746 L 502.7691930809038 -221.56814177621558 L 502.27954292407986 -221.240968001372 L 501.7657324367568 -220.95322030261494 L 501.23092943144843 -220.70667274019303 L 500.6784311465223 -220.50284536181405 L 500.1116439176295 -220.3429948310451 L 499.53406217651195 -220.22810667956415 L 498.9492469066691 -220.15888923102924 L 498.36080368871023 -220.1357692340277 L 497.7723604707514 -220.15888923102924 L 497.1875452009085 -220.22810667956415 L 496.60996345979095 -220.3429948310451 L 496.04317623089815 -220.50284536181402 L 495.49067794597204 -220.70667274019303 L 494.95587494066365 -220.95322030261494 L 494.4420644533406 -221.240968001372 L 493.9524142965167 -221.56814177621558 L 493.48994332623386 -221.93272449202746 L 493.05750282981114 -222.3324683751286 L 492.65775894671 -222.7649088715513 L 492.29317623089815 -223.22737984183414 L 491.9660024560545 -223.71702999865806 L 491.67825475729745 -224.23084048598108 L 491.43170719487557 -224.76564349128952 L 491.22787981649657 -225.31814177621558 L 491.0680292857277 -225.8849290051084 L 490.9531411342467 -226.46251074622595 L 490.88392368571175 -227.04732601606887 L 490.86080368871023 -227.6357692340277 L 490.88392368571175 -228.22421245198652 L 490.9531411342467 -228.8090277218294 L 491.0680292857277 -229.38660946294698 L 491.22787981649657 -229.9533966918398 L 491.43170719487557 -230.50589497676586 L 491.67825475729745 -231.04069798207428 L 491.9660024560545 -231.55450846939732 L 492.29317623089815 -232.04415862622125 L 492.65775894671 -232.50662959650407 L 493.05750282981114 -232.93907009292678 L 493.48994332623386 -233.33881397602792 L 493.9524142965167 -233.7033966918398 L 494.4420644533406 -234.03057046668337 L 494.95587494066365 -234.31831816544045 L 495.4906779459721 -234.56486572786235 L 496.04317623089815 -234.76869310624136 L 496.60996345979095 -234.92854363701028 L 497.1875452009085 -235.04343178849123 L 497.77236047075144 -235.11264923702615 L 498.36080368871023 -235.1357692340277 L 498.9492469066691 -235.11264923702615 L 499.534062176512 -235.04343178849123 L 500.1116439176296 -234.92854363701025 L 500.67843114652237 -234.76869310624133 L 501.23092943144843 -234.56486572786233 L 501.7657324367569 -234.31831816544042 L 502.2795429240799 -234.03057046668334 L 502.76919308090385 -233.70339669183977 L 503.23166405118667 -233.3388139760279 L 503.6641045476094 -232.93907009292676 L 504.0638484307105 -232.506629596504 L 504.42843114652237 -232.0441586262212 L 504.75560492136594 -231.55450846939726 L 505.043352620123 -231.04069798207422 L 505.2899001825449 -230.5058949767658 L 505.4937275609239 -229.9533966918397 L 505.65357809169285 -229.3866094629469 L 505.7684662431738 -228.80902772182935 L 505.8376836917087 -228.22421245198643 Z" fill-opacity="0.9"/><text fill="rgb(19,0,71)" stroke="none" font-family="Assistant-SemiBold, sans-serif" font-size="14px" font-style="normal" font-weight="500" text-decoration="normal" x="509.61080368871023" y="-220.6357692340277" text-anchor="start" dominant-baseline="text-after-edge" fill-opacity="0.9">FakeFinder</text><path fill="rgb(251,211,0)" stroke="none" paint-order="stroke fill markers" d=" M -530.8988887530159 -100.1382604243722 L -530.9220087500174 -99.54981720641337 L -530.9912261985523 -98.96500193657047 L -531.1061143500333 -98.38742019545292 L -531.2659648808022 -97.8206329665601 L -531.4697922591812 -97.26813468163404 L -531.7163398216031 -96.7333316763256 L -532.0040875203601 -96.21952118900259 L -532.3312612952037 -95.72987103217866 L -532.6958440110157 -95.26740006189583 L -533.0955878941168 -94.8349595654731 L -533.5280283905395 -94.43521568237198 L -533.9904993608224 -94.0706329665601 L -534.4801495176463 -93.74345919171651 L -534.9939600049693 -93.45571149295945 L -535.5287630102777 -93.20916393053756 L -536.0812612952037 -93.00533655215855 L -536.6480485240966 -92.84548602138963 L -537.2256302652141 -92.73059786990868 L -537.810445535057 -92.66138042137375 L -538.3988887530159 -92.6382604243722 L -538.9873319709747 -92.66138042137375 L -539.5721472408176 -92.73059786990868 L -540.1497289819351 -92.84548602138963 L -540.716516210828 -93.00533655215855 L -541.269014495754 -93.20916393053756 L -541.8038175010624 -93.45571149295945 L -542.3176279883854 -93.74345919171651 L -542.8072781452094 -94.0706329665601 L -543.2697491154922 -94.43521568237198 L -543.702189611915 -94.8349595654731 L -544.101933495016 -95.26740006189583 L -544.466516210828 -95.72987103217865 L -544.7936899856716 -96.21952118900259 L -545.0814376844286 -96.7333316763256 L -545.3279852468505 -97.26813468163404 L -545.5318126252295 -97.8206329665601 L -545.6916631559984 -98.38742019545292 L -545.8065513074794 -98.96500193657047 L -545.8757687560143 -99.54981720641337 L -545.8988887530159 -100.1382604243722 L -545.8757687560143 -100.72670364233105 L -545.8065513074794 -101.31151891217394 L -545.6916631559984 -101.8891006532915 L -545.5318126252295 -102.45588788218431 L -545.3279852468505 -103.00838616711037 L -545.0814376844286 -103.5431891724188 L -544.7936899856716 -104.05699965974182 L -544.466516210828 -104.54664981656575 L -544.101933495016 -105.00912078684858 L -543.702189611915 -105.44156128327131 L -543.2697491154922 -105.84130516637244 L -542.8072781452094 -106.20588788218431 L -542.3176279883854 -106.5330616570279 L -541.8038175010624 -106.82080935578497 L -541.269014495754 -107.06735691820685 L -540.716516210828 -107.27118429658586 L -540.1497289819351 -107.43103482735478 L -539.5721472408176 -107.54592297883575 L -538.9873319709747 -107.61514042737066 L -538.3988887530159 -107.6382604243722 L -537.8104455350569 -107.61514042737066 L -537.2256302652141 -107.54592297883573 L -536.6480485240966 -107.43103482735478 L -536.0812612952037 -107.27118429658584 L -535.5287630102777 -107.06735691820684 L -534.9939600049693 -106.82080935578495 L -534.4801495176462 -106.53306165702787 L -533.9904993608222 -106.20588788218429 L -533.5280283905395 -105.84130516637241 L -533.0955878941168 -105.44156128327127 L -532.6958440110155 -105.00912078684854 L -532.3312612952037 -104.5466498165657 L -532.0040875203601 -104.05699965974176 L -531.716339821603 -103.54318917241875 L -531.4697922591812 -103.00838616711032 L -531.2659648808021 -102.45588788218424 L -531.1061143500333 -101.88910065329142 L -530.9912261985523 -101.31151891217385 L -530.9220087500174 -100.72670364233096 Z" fill-opacity="0.9"/><text fill="rgb(19,0,71)" stroke="none" font-family="Assistant-SemiBold, sans-serif" font-size="14px" font-style="normal" font-weight="500" text-decoration="normal" x="-527.1488887530159" y="-93.1382604243722" text-anchor="start" dominant-baseline="text-after-edge" fill-opacity="0.9">BirdsEye</text><path fill="rgb(251,211,0)" stroke="none" paint-order="stroke fill markers" d=" M -93.45728747710356 -258.73689874281564 L -93.4804074741051 -258.1484555248568 L -93.54962492264004 -257.5636402550139 L -93.66451307412099 -256.98605851389635 L -93.82436360488991 -256.41927128500356 L -94.02819098326891 -255.86677300007747 L -94.27473854569081 -255.33196999476905 L -94.56248624444787 -254.818159507446 L -94.88966001929145 -254.32850935062208 L -95.25424273510333 -253.86603838033926 L -95.65398661820446 -253.43359788391655 L -96.08642711462718 -253.0338540008154 L -96.54889808491001 -252.66927128500353 L -97.03854824173395 -252.34209751015996 L -97.55235872905696 -252.0543498114029 L -98.0871617343654 -251.80780224898098 L -98.63966001929145 -251.603974870602 L -99.20644724818428 -251.44412433983305 L -99.78402898930183 -251.3292361883521 L -100.36884425914472 -251.26001873981718 L -100.95728747710356 -251.23689874281564 L -101.5457306950624 -251.26001873981718 L -102.1305459649053 -251.3292361883521 L -102.70812770602285 -251.44412433983305 L -103.27491493491567 -251.60397487060197 L -103.82741321984173 -251.80780224898098 L -104.36221622515016 -252.0543498114029 L -104.87602671247318 -252.34209751015996 L -105.3656768692971 -252.66927128500353 L -105.82814783957994 -253.0338540008154 L -106.26058833600267 -253.43359788391655 L -106.6603322191038 -253.86603838033926 L -107.02491493491567 -254.32850935062208 L -107.35208870975926 -254.818159507446 L -107.63983640851632 -255.33196999476903 L -107.88638397093821 -255.86677300007747 L -108.09021134931722 -256.41927128500356 L -108.25006188008614 -256.98605851389635 L -108.36495003156709 -257.5636402550139 L -108.43416748010202 -258.1484555248568 L -108.45728747710356 -258.73689874281564 L -108.43416748010202 -259.3253419607745 L -108.36495003156709 -259.91015723061736 L -108.25006188008614 -260.4877389717349 L -108.09021134931722 -261.0545262006277 L -107.88638397093821 -261.60702448555384 L -107.63983640851632 -262.1418274908622 L -107.35208870975926 -262.65563797818527 L -107.02491493491567 -263.1452881350092 L -106.6603322191038 -263.607759105292 L -106.26058833600267 -264.04019960171473 L -105.82814783957994 -264.43994348481584 L -105.36567686929712 -264.8045262006277 L -104.87602671247318 -265.13169997547135 L -104.36221622515016 -265.4194476742284 L -103.82741321984173 -265.6659952366503 L -103.27491493491566 -265.8698226150293 L -102.70812770602284 -266.0296731457982 L -102.13054596490528 -266.14456129727915 L -101.54573069506237 -266.2137787458141 L -100.95728747710353 -266.23689874281564 L -100.3688442591447 -266.2137787458141 L -99.7840289893018 -266.14456129727915 L -99.20644724818423 -266.0296731457982 L -98.63966001929143 -265.8698226150293 L -98.08716173436535 -265.66599523665025 L -97.55235872905692 -265.41944767422837 L -97.0385482417339 -265.1316999754713 L -96.54889808490998 -264.8045262006277 L -96.08642711462714 -264.43994348481584 L -95.65398661820441 -264.04019960171473 L -95.25424273510329 -263.60775910529196 L -94.88966001929141 -263.14528813500914 L -94.56248624444784 -262.6556379781852 L -94.27473854569077 -262.14182749086217 L -94.02819098326889 -261.6070244855537 L -93.82436360488988 -261.05452620062766 L -93.66451307412098 -260.48773897173487 L -93.54962492264002 -259.9101572306173 L -93.48040747410509 -259.3253419607744 Z" fill-opacity="0.9"/><text fill="rgb(19,0,71)" stroke="none" font-family="Assistant-SemiBold, sans-serif" font-size="14px" font-style="normal" font-weight="500" text-decoration="normal" x="-89.70728747710356" y="-251.73689874281564" text-anchor="start" dominant-baseline="text-after-edge" fill-opacity="0.9">Shifting Pixels</text><path fill="rgb(0,172,241)" stroke="none" paint-order="stroke fill markers" d=" M -252.16161957765337 -425.2654531580389 L -252.1847395746549 -424.67700994008004 L -252.25395702318983 -424.0921946702372 L -252.36884517467078 -423.5146129291196 L -252.52869570543973 -422.9478257002268 L -252.7325230838187 -422.3953274153007 L -252.97907064624061 -421.8605244099923 L -253.2668183449977 -421.34671392266927 L -253.59399211984126 -420.85706376584534 L -253.95857483565314 -420.3945927955625 L -254.35831871875428 -419.9621522991398 L -254.790759215177 -419.56240841603864 L -255.2532301854598 -419.1978257002268 L -255.74288034228374 -418.8706519253832 L -256.2566908296068 -418.5829042266261 L -256.7914938349152 -418.33635666420423 L -257.3439921198413 -418.1325292858252 L -257.9107793487341 -417.97267875505634 L -258.48836108985165 -417.8577906035754 L -259.0731763596945 -417.7885731550404 L -259.66161957765337 -417.7654531580389 L -260.2500627956122 -417.7885731550404 L -260.8348780654551 -417.8577906035754 L -261.41245980657266 -417.97267875505634 L -261.97924703546545 -418.1325292858252 L -262.53174532039156 -418.33635666420423 L -263.06654832569996 -418.5829042266261 L -263.580358813023 -418.8706519253832 L -264.0700089698469 -419.1978257002268 L -264.53247994012975 -419.56240841603864 L -264.96492043655246 -419.9621522991398 L -265.3646643196536 -420.3945927955625 L -265.72924703546545 -420.85706376584534 L -266.0564208103091 -421.34671392266927 L -266.34416850906615 -421.8605244099923 L -266.59071607148803 -422.3953274153007 L -266.79454344986704 -422.9478257002268 L -266.9543939806359 -423.5146129291196 L -267.0692821321169 -424.0921946702372 L -267.13849958065185 -424.67700994008004 L -267.16161957765337 -425.2654531580389 L -267.13849958065185 -425.85389637599775 L -267.0692821321169 -426.4387116458406 L -266.9543939806359 -427.0162933869582 L -266.79454344986704 -427.583080615851 L -266.59071607148803 -428.1355789007771 L -266.34416850906615 -428.6703819060855 L -266.0564208103091 -429.1841923934085 L -265.72924703546545 -429.67384255023245 L -265.3646643196536 -430.1363135205153 L -264.96492043655246 -430.568754016938 L -264.53247994012975 -430.9684979000391 L -264.0700089698469 -431.333080615851 L -263.580358813023 -431.6602543906946 L -263.06654832569996 -431.9480020894517 L -262.5317453203915 -432.19454965187356 L -261.97924703546545 -432.39837703025256 L -261.41245980657266 -432.55822756102145 L -260.8348780654551 -432.6731157125024 L -260.25006279561217 -432.7423331610374 L -259.66161957765337 -432.7654531580389 L -259.0731763596945 -432.7423331610374 L -258.4883610898516 -432.6731157125024 L -257.910779348734 -432.55822756102145 L -257.34399211984123 -432.39837703025256 L -256.7914938349152 -432.19454965187356 L -256.2566908296067 -431.9480020894516 L -255.7428803422837 -431.66025439069455 L -255.25323018545978 -431.333080615851 L -254.79075921517696 -430.9684979000391 L -254.35831871875422 -430.568754016938 L -253.9585748356531 -430.1363135205152 L -253.59399211984123 -429.6738425502324 L -253.26681834499763 -429.18419239340847 L -252.9790706462406 -428.6703819060854 L -252.73252308381868 -428.135578900777 L -252.5286957054397 -427.5830806158509 L -252.36884517467078 -427.0162933869581 L -252.25395702318983 -426.43871164584056 L -252.1847395746549 -425.85389637599764 Z" fill-opacity="0.9"/><text fill="rgb(19,0,71)" stroke="none" font-family="Assistant-SemiBold, sans-serif" font-size="14px" font-style="normal" font-weight="500" text-decoration="normal" x="-248.41161957765337" y="-418.2654531580389" text-anchor="start" dominant-baseline="text-after-edge" fill-opacity="0.9">Open Code Project</text><path fill="rgb(251,211,0)" stroke="none" paint-order="stroke fill markers" d=" M -290.0585546307486 218.23457410009368 L -290.0816746277501 218.8230173180525 L -290.15089207628506 219.4078325878954 L -290.265780227766 219.98541432901297 L -290.4256307585349 220.5522015579058 L -290.6294581369139 221.10469984283185 L -290.8760056993358 221.6395028481403 L -291.16375339809287 222.1533133354633 L -291.4909271729365 222.64296349228724 L -291.8555098887483 223.10543446257006 L -292.2552537718495 223.53787495899277 L -292.6876942682722 223.9376188420939 L -293.150165238555 224.3022015579058 L -293.63981539537895 224.62937533274936 L -294.153625882702 224.91712303150643 L -294.6884288880104 225.16367059392834 L -295.2409271729365 225.36749797230732 L -295.8077144018293 225.52734850307627 L -296.38529614294686 225.64223665455722 L -296.9701114127897 225.71145410309214 L -297.5585546307486 225.73457410009368 L -298.14699784870743 225.71145410309214 L -298.7318131185503 225.64223665455722 L -299.30939485966786 225.52734850307627 L -299.87618208856065 225.36749797230732 L -300.42868037348677 225.16367059392834 L -300.96348337879516 224.91712303150643 L -301.4772938661182 224.62937533274936 L -301.96694402294213 224.3022015579058 L -302.42941499322495 223.9376188420939 L -302.86185548964767 223.5378749589928 L -303.26159937274883 223.10543446257006 L -303.62618208856065 222.64296349228724 L -303.9533558634043 222.1533133354633 L -304.24110356216136 221.6395028481403 L -304.48765112458324 221.10469984283185 L -304.69147850296224 220.5522015579058 L -304.85132903373113 219.98541432901297 L -304.9662171852121 219.40783258789543 L -305.03543463374706 218.8230173180525 L -305.0585546307486 218.23457410009368 L -305.03543463374706 217.64613088213486 L -304.9662171852121 217.06131561229196 L -304.85132903373113 216.4837338711744 L -304.69147850296224 215.91694664228157 L -304.48765112458324 215.3644483573555 L -304.24110356216136 214.8296453520471 L -303.9533558634043 214.31583486472405 L -303.62618208856065 213.82618470790013 L -303.26159937274883 213.3637137376173 L -302.86185548964767 212.9312732411946 L -302.42941499322495 212.53152935809345 L -301.96694402294213 212.16694664228157 L -301.4772938661182 211.839772867438 L -300.96348337879516 211.55202516868093 L -300.4286803734867 211.30547760625902 L -299.87618208856065 211.10165022788001 L -299.30939485966786 210.9417996971111 L -298.7318131185503 210.82691154563014 L -298.1469978487074 210.75769409709523 L -297.5585546307486 210.73457410009368 L -296.9701114127897 210.75769409709523 L -296.3852961429468 210.82691154563014 L -295.80771440182923 210.94179969711112 L -295.24092717293644 211.10165022788004 L -294.6884288880104 211.30547760625905 L -294.15362588270193 211.55202516868096 L -293.6398153953789 211.839772867438 L -293.15016523855496 212.1669466422816 L -292.68769426827214 212.53152935809348 L -292.2552537718494 212.93127324119462 L -291.8555098887483 213.36371373761736 L -291.49092717293644 213.82618470790018 L -291.16375339809287 214.3158348647241 L -290.8760056993358 214.82964535204715 L -290.6294581369139 215.36444835735557 L -290.4256307585349 215.91694664228166 L -290.26578022776596 216.48373387117448 L -290.150892076285 217.06131561229202 L -290.0816746277501 217.64613088213494 Z" fill-opacity="0.9"/><text fill="rgb(19,0,71)" stroke="none" font-family="Assistant-SemiBold, sans-serif" font-size="14px" font-style="normal" font-weight="500" text-decoration="normal" x="-286.3085546307486" y="225.23457410009368" text-anchor="start" dominant-baseline="text-after-edge" fill-opacity="0.9">SkyScan</text><path fill="rgb(125,197,62)" stroke="none" paint-order="stroke fill markers" d=" M 272.1153345110883 59.69237912715101 L 272.0922145140868 60.28082234510985 L 272.0229970655518 60.86563761495274 L 271.90810891407085 61.443219356070294 L 271.74825838330196 62.010006584963115 L 271.54443100492296 62.56250486988918 L 271.2978834425011 63.09730787519761 L 271.010135743744 63.61111836252062 L 270.6829619689004 64.10076851934456 L 270.31837925308855 64.56323948962738 L 269.9186353699874 64.9956799860501 L 269.48619487356467 65.39542386915124 L 269.02372390328185 65.76000658496311 L 268.5340737464579 66.0871803598067 L 268.0202632591349 66.37492805856377 L 267.4854602538265 66.62147562098566 L 266.9329619689004 66.82530299936465 L 266.3661747400076 66.98515353013359 L 265.78859299889 67.10004168161454 L 265.20377772904715 67.16925913014947 L 264.6153345110883 67.19237912715101 L 264.02689129312944 67.16925913014947 L 263.4420760232866 67.10004168161454 L 262.864494282169 66.98515353013359 L 262.2977070532762 66.82530299936465 L 261.7452087683501 66.62147562098566 L 261.2104057630417 66.37492805856377 L 260.69659527571866 66.0871803598067 L 260.20694511889474 65.76000658496311 L 259.7444741486119 65.39542386915124 L 259.3120336521892 64.9956799860501 L 258.91228976908803 64.56323948962739 L 258.5477070532762 64.10076851934456 L 258.2205332784326 63.61111836252062 L 257.9327855796755 63.09730787519761 L 257.68623801725363 62.56250486988918 L 257.4824106388746 62.010006584963115 L 257.32256010810573 61.4432193560703 L 257.2076719566248 60.86563761495274 L 257.1384545080898 60.28082234510985 L 257.1153345110883 59.69237912715101 L 257.1384545080898 59.103935909192174 L 257.2076719566248 58.519120639349275 L 257.32256010810573 57.94153889823172 L 257.4824106388746 57.374751669338906 L 257.68623801725363 56.82225338441283 L 257.9327855796755 56.287450379104406 L 258.2205332784326 55.77363989178139 L 258.5477070532762 55.28398973495746 L 258.91228976908803 54.82151876467463 L 259.3120336521892 54.3890782682519 L 259.7444741486119 53.98933438515078 L 260.20694511889474 53.6247516693389 L 260.69659527571866 53.29757789449531 L 261.2104057630417 53.009830195738246 L 261.74520876835015 52.76328263331635 L 262.2977070532762 52.55945525493735 L 262.864494282169 52.39960472416843 L 263.4420760232866 52.28471657268747 L 264.0268912931295 52.215499124152544 L 264.6153345110883 52.19237912715101 L 265.20377772904715 52.21549912415255 L 265.78859299889007 52.28471657268748 L 266.36617474000764 52.39960472416844 L 266.93296196890043 52.55945525493737 L 267.4854602538265 52.76328263331637 L 268.02026325913494 53.00983019573827 L 268.534073746458 53.29757789449534 L 269.0237239032819 53.624751669338934 L 269.4861948735647 53.98933438515081 L 269.91863536998744 54.38907826825194 L 270.31837925308855 54.82151876467468 L 270.68296196890043 55.28398973495751 L 271.010135743744 55.77363989178145 L 271.2978834425011 56.28745037910447 L 271.54443100492296 56.8222533844129 L 271.74825838330196 57.37475166933898 L 271.9081089140709 57.9415388982318 L 272.02299706555186 58.51912063934936 L 272.0922145140868 59.10393590919226 Z" fill-opacity="0.9"/><text fill="rgb(19,0,71)" stroke="none" font-family="Assistant-SemiBold, sans-serif" font-size="14px" font-style="normal" font-weight="500" text-decoration="normal" x="275.8653345110883" y="66.69237912715101" text-anchor="start" dominant-baseline="text-after-edge" fill-opacity="0.9">AI Assurance</text><path fill="rgb(125,197,62)" stroke="none" paint-order="stroke fill markers" d=" M 195.43843294245613 178.16921576097573 L 195.4029822803871 179.07149536184596 L 195.2968488593002 179.9682121089384 L 195.12068702702942 180.85383744531865 L 194.87558287985038 181.72291119628764 L 194.56304756633594 182.57007523317426 L 194.18500797062237 183.39010650798053 L 193.74379483252818 184.17794925520914 L 193.24212837776804 184.92874616233917 L 192.68310154685648 185.63786831677285 L 192.07016092610144 186.30094374462104 L 191.40708549825325 186.91388436537608 L 190.69796334381957 187.47291119628764 L 189.94716643668954 187.97457765104778 L 189.15932368946093 188.41579078914197 L 188.33929241465466 188.79383038485554 L 187.49212837776804 189.10636569836998 L 186.62305462679905 189.35146984554902 L 185.7374292904188 189.5276316778198 L 184.84071254332636 189.6337650989067 L 183.93843294245613 189.66921576097573 L 183.0361533415859 189.6337650989067 L 182.13943659449347 189.5276316778198 L 181.25381125811322 189.35146984554902 L 180.38473750714422 189.10636569836998 L 179.5375734702576 188.79383038485554 L 178.71754219545136 188.41579078914197 L 177.92969944822272 187.97457765104778 L 177.1789025410927 187.47291119628764 L 176.469780386659 186.91388436537608 L 175.80670495881083 186.30094374462104 L 175.1937643380558 185.63786831677285 L 174.63473750714422 184.92874616233917 L 174.13307105238408 184.17794925520914 L 173.6918579142899 183.39010650798053 L 173.31381831857632 182.57007523317426 L 173.00128300506188 181.72291119628764 L 172.75617885788284 180.85383744531865 L 172.58001702561205 179.9682121089384 L 172.47388360452516 179.07149536184596 L 172.43843294245613 178.16921576097573 L 172.47388360452516 177.26693616010553 L 172.58001702561205 176.37021941301307 L 172.75617885788284 175.48459407663282 L 173.00128300506185 174.61552032566385 L 173.31381831857632 173.7683562887772 L 173.6918579142899 172.94832501397096 L 174.13307105238408 172.16048226674232 L 174.63473750714422 171.4096853596123 L 175.1937643380558 170.7005632051786 L 175.80670495881083 170.03748777733043 L 176.469780386659 169.4245471565754 L 177.1789025410927 168.86552032566385 L 177.92969944822272 168.36385387090368 L 178.71754219545136 167.9226407328095 L 179.5375734702576 167.54460113709592 L 180.38473750714425 167.23206582358145 L 181.25381125811325 166.98696167640244 L 182.1394365944935 166.81079984413165 L 183.03615334158596 166.70466642304476 L 183.93843294245616 166.66921576097573 L 184.8407125433264 166.70466642304476 L 185.73742929041885 166.81079984413165 L 186.6230546267991 166.98696167640247 L 187.4921283777681 167.23206582358148 L 188.33929241465472 167.54460113709595 L 189.159323689461 167.92264073280953 L 189.9471664366896 168.3638538709037 L 190.69796334381962 168.86552032566388 L 191.4070854982533 169.42454715657544 L 192.0701609261015 170.0374877773305 L 192.68310154685656 170.7005632051787 L 193.2421283777681 171.40968535961238 L 193.74379483252824 172.1604822667424 L 194.18500797062242 172.94832501397104 L 194.56304756633597 173.7683562887773 L 194.87558287985044 174.61552032566394 L 195.12068702702945 175.48459407663293 L 195.29684885930024 176.37021941301322 L 195.4029822803871 177.26693616010564 Z" fill-opacity="0.9"/><text fill="rgb(19,0,71)" stroke="none" font-family="Assistant-SemiBold, sans-serif" font-size="14px" font-style="normal" font-weight="500" text-decoration="normal" x="199.18843294245613" y="185.16921576097573" text-anchor="start" dominant-baseline="text-after-edge" fill-opacity="0.9">UX Design</text><path fill="rgb(2,123,252)" stroke="none" paint-order="stroke fill markers" d=" M -22.731315324124466 223.56025295050588 L -22.766765986193494 224.4625325513761 L -22.872899407280382 225.35924929846854 L -23.049061239551186 226.2448746348488 L -23.2941653867302 227.1139483858178 L -23.60670070024467 227.96111242270442 L -23.984740295958236 228.7811436975107 L -24.425953434052403 229.5689864447393 L -24.927619888812572 230.31978335186932 L -25.48664671972411 231.028905506303 L -26.099587340479168 231.6919809341512 L -26.762662768327353 232.30492155490623 L -27.471784922761024 232.8639483858178 L -28.222581829891055 233.36561484057793 L -29.01042457711968 233.80682797867212 L -29.830455851925933 234.1848675743857 L -30.677619888812572 234.49740288790014 L -31.54669363978155 234.74250703507917 L -32.43231897616181 234.91866886734996 L -33.32903572325425 235.02480228843686 L -34.231315324124466 235.06025295050588 L -35.13359492499468 235.02480228843686 L -36.03031167208712 234.91866886734996 L -36.91593700846738 234.74250703507917 L -37.78501075943636 234.49740288790014 L -38.632174796323 234.1848675743857 L -39.452206071129254 233.80682797867212 L -40.24004881835788 233.36561484057793 L -40.99084572548791 232.8639483858178 L -41.69996787992158 232.30492155490623 L -42.363043307769765 231.6919809341512 L -42.97598392852482 231.028905506303 L -43.53501075943636 230.31978335186932 L -44.03667721419653 229.5689864447393 L -44.4778903522907 228.7811436975107 L -44.85592994800426 227.96111242270442 L -45.16846526151873 227.1139483858178 L -45.41356940869775 226.2448746348488 L -45.58973124096855 225.35924929846854 L -45.69586466205544 224.4625325513761 L -45.731315324124466 223.56025295050588 L -45.69586466205544 222.65797334963568 L -45.58973124096855 221.76125660254323 L -45.41356940869775 220.87563126616297 L -45.16846526151873 220.006557515194 L -44.85592994800427 219.15939347830735 L -44.4778903522907 218.3393622035011 L -44.03667721419653 217.55151945627247 L -43.53501075943636 216.80072254914245 L -42.975983928524826 216.09160039470876 L -42.363043307769765 215.42852496686058 L -41.69996787992159 214.81558434610554 L -40.99084572548791 214.256557515194 L -40.24004881835788 213.75489106043383 L -39.45220607112925 213.31367792233965 L -38.632174796322985 212.93563832662608 L -37.78501075943635 212.6231030131116 L -36.91593700846735 212.3779988659326 L -36.030311672087095 212.2018370336618 L -35.13359492499465 212.0957036125749 L -34.23131532412443 212.06025295050588 L -33.32903572325421 212.0957036125749 L -32.43231897616176 212.2018370336618 L -31.546693639781502 212.37799886593262 L -30.677619888812515 212.62310301311163 L -29.830455851925876 212.9356383266261 L -29.010424577119615 213.31367792233968 L -28.22258182989099 213.75489106043386 L -27.47178492276096 214.25655751519403 L -26.76266276832729 214.8155843461056 L -26.099587340479104 215.42852496686066 L -25.48664671972405 216.09160039470885 L -24.92761988881251 216.80072254914253 L -24.425953434052353 217.55151945627256 L -23.984740295958186 218.3393622035012 L -23.606700700244623 219.15939347830746 L -23.294165386730164 220.0065575151941 L -23.049061239551158 220.87563126616308 L -22.87289940728036 221.76125660254337 L -22.766765986193484 222.6579733496358 Z" fill-opacity="0.9"/><text fill="rgb(19,0,71)" stroke="none" font-family="Assistant-SemiBold, sans-serif" font-size="14px" font-style="normal" font-weight="500" text-decoration="normal" x="-18.981315324124466" y="230.56025295050588" text-anchor="start" dominant-baseline="text-after-edge" fill-opacity="0.9">Better Data</text><path fill="rgb(19,0,71)" stroke="none" paint-order="stroke fill markers" d=" M 431.0893647705939 33.85848347835558 L 431.05391410852485 34.760763079225796 L 430.94778068743796 35.65747982631824 L 430.77161885516716 36.543105162698495 L 430.52651470798816 37.412178913667475 L 430.21397939447365 38.259342950554114 L 429.8359397987601 39.07937422536037 L 429.3947266606659 39.86721697258899 L 428.8930602059058 40.61801387971902 L 428.33403337499425 41.327136034152694 L 427.7210927542392 41.99021146200088 L 427.058017326391 42.60315208275594 L 426.34889517195734 43.162178913667475 L 425.5980982648273 43.663845368427644 L 424.81025551759865 44.105058506521814 L 423.9902242427924 44.483098102235374 L 423.1430602059058 44.79563341574985 L 422.2739864549368 45.04073756292886 L 421.38836111855653 45.21689939519966 L 420.4916443714641 45.323032816286556 L 419.5893647705939 45.35848347835558 L 418.6870851697237 45.323032816286556 L 417.7903684226312 45.21689939519966 L 416.90474308625096 45.04073756292886 L 416.03566933528197 44.79563341574985 L 415.18850529839534 44.483098102235374 L 414.3684740235891 44.105058506521814 L 413.58063127636046 43.663845368427644 L 412.8298343692304 43.162178913667475 L 412.12071221479675 42.60315208275594 L 411.45763678694857 41.99021146200088 L 410.8446961661935 41.327136034152694 L 410.28566933528197 40.61801387971902 L 409.7840028805218 39.86721697258899 L 409.34278974242767 39.07937422536037 L 408.9647501467141 38.259342950554114 L 408.6522148331996 37.412178913667475 L 408.4071106860206 36.543105162698495 L 408.2309488537498 35.65747982631824 L 408.1248154326629 34.760763079225796 L 408.0893647705939 33.85848347835558 L 408.1248154326629 32.956203877485365 L 408.2309488537498 32.059487130392924 L 408.4071106860206 31.17386179401267 L 408.6522148331996 30.304788043043686 L 408.9647501467141 29.457624006157047 L 409.34278974242767 28.637592731350793 L 409.7840028805218 27.84974998412217 L 410.28566933528197 27.09895307699214 L 410.8446961661935 26.38983092255847 L 411.45763678694857 25.726755494710282 L 412.12071221479675 25.113814873955228 L 412.8298343692304 24.554788043043686 L 413.58063127636046 24.053121588283517 L 414.3684740235891 23.611908450189347 L 415.18850529839534 23.23386885447578 L 416.035669335282 22.921333540961307 L 416.90474308625096 22.676229393782293 L 417.7903684226313 22.500067561511493 L 418.6870851697237 22.393934140424605 L 419.58936477059393 22.35848347835558 L 420.49164437146413 22.393934140424612 L 421.3883611185566 22.500067561511504 L 422.27398645493685 22.67622939378231 L 423.14306020590584 22.921333540961335 L 423.99022424279246 23.23386885447581 L 424.8102555175987 23.611908450189382 L 425.59809826482734 24.05312158828356 L 426.3488951719574 24.554788043043732 L 427.05801732639105 25.113814873955278 L 427.72109275423924 25.726755494710346 L 428.3340333749943 26.389830922558538 L 428.89306020590584 27.09895307699222 L 429.394726660666 27.84974998412226 L 429.83593979876014 28.63759273135089 L 430.2139793944737 29.457624006157154 L 430.52651470798816 30.3047880430438 L 430.77161885516716 31.17386179401279 L 430.94778068743796 32.05948713039305 L 431.05391410852485 32.9562038774855 Z" fill-opacity="0.9"/><text fill="rgb(19,0,71)" stroke="none" font-family="Assistant-SemiBold, sans-serif" font-size="14px" font-style="normal" font-weight="500" text-decoration="normal" x="434.8393647705939" y="40.85848347835558" text-anchor="start" dominant-baseline="text-after-edge" fill-opacity="0.9">Better Models</text><path fill="rgb(251,211,0)" stroke="none" paint-order="stroke fill markers" d=" M -292.67189568847095 -30.148897838493284 L -292.70734635054 -29.246618237623068 L -292.8134797716269 -28.349901490530627 L -292.98964160389767 -27.464276154150372 L -293.2347457510767 -26.59520240318139 L -293.5472810645912 -25.74803836629475 L -293.92532066030475 -24.928007091488496 L -294.3665337983989 -24.140164344259873 L -294.86820025315905 -23.38936743712984 L -295.4272270840706 -22.68024528269617 L -296.04016770482565 -22.017169854847985 L -296.70324313267383 -21.404229234092927 L -297.4123652871075 -20.84520240318139 L -298.16316219423754 -20.343535948421223 L -298.9510049414662 -19.902322810327053 L -299.7710362162724 -19.524283214613487 L -300.61820025315905 -19.211747901099017 L -301.48727400412804 -18.966643753920003 L -302.3728993405083 -18.7904819216492 L -303.26961608760075 -18.68434850056231 L -304.17189568847095 -18.648897838493284 L -305.07417528934116 -18.68434850056231 L -305.9708920364336 -18.7904819216492 L -306.85651737281387 -18.966643753920003 L -307.72559112378286 -19.211747901099017 L -308.5727551606695 -19.524283214613487 L -309.3927864354757 -19.902322810327053 L -310.18062918270437 -20.34353594842122 L -310.9314260898344 -20.84520240318139 L -311.6405482442681 -21.404229234092927 L -312.30362367211626 -22.017169854847985 L -312.9165642928713 -22.68024528269617 L -313.47559112378286 -23.38936743712984 L -313.977257578543 -24.140164344259873 L -314.41847071663716 -24.928007091488496 L -314.79651031235073 -25.74803836629475 L -315.10904562586524 -26.59520240318139 L -315.35414977304424 -27.46427615415037 L -315.53031160531503 -28.349901490530627 L -315.63644502640193 -29.246618237623064 L -315.67189568847095 -30.148897838493284 L -315.63644502640193 -31.0511774393635 L -315.53031160531503 -31.947894186455937 L -315.35414977304424 -32.83351952283619 L -315.10904562586524 -33.70259327380518 L -314.79651031235073 -34.54975731069182 L -314.41847071663716 -35.36978858549807 L -313.977257578543 -36.157631332726694 L -313.47559112378286 -36.908428239856725 L -312.9165642928713 -37.6175503942904 L -312.30362367211626 -38.28062582213858 L -311.6405482442681 -38.893566442893636 L -310.9314260898344 -39.45259327380518 L -310.18062918270437 -39.95425972856535 L -309.3927864354757 -40.39547286665952 L -308.5727551606695 -40.773512462373084 L -307.7255911237828 -41.08604777588756 L -306.85651737281387 -41.33115192306657 L -305.97089203643355 -41.50731375533737 L -305.07417528934116 -41.61344717642426 L -304.1718956884709 -41.64889783849328 L -303.2696160876007 -41.61344717642425 L -302.37289934050824 -41.507313755337364 L -301.487274004128 -41.33115192306656 L -300.618200253159 -41.08604777588753 L -299.77103621627236 -40.773512462373056 L -298.9510049414661 -40.39547286665948 L -298.1631621942375 -39.954259728565304 L -297.41236528710743 -39.452593273805135 L -296.7032431326738 -38.89356644289359 L -296.0401677048256 -38.28062582213852 L -295.4272270840705 -37.617550394290326 L -294.868200253159 -36.90842823985665 L -294.36653379839885 -36.15763133272661 L -293.9253206603047 -35.36978858549797 L -293.5472810645911 -34.54975731069171 L -293.2347457510767 -33.702593273805064 L -292.98964160389767 -32.83351952283608 L -292.8134797716269 -31.94789418645581 L -292.70734635054 -31.051177439363364 Z" fill-opacity="0.9"/><text fill="rgb(19,0,71)" stroke="none" font-family="Assistant-SemiBold, sans-serif" font-size="14px" font-style="normal" font-weight="500" text-decoration="normal" x="-288.92189568847095" y="-23.148897838493284" text-anchor="start" dominant-baseline="text-after-edge" fill-opacity="0.9">Edge AI</text><path fill="rgb(247,80,64)" stroke="none" paint-order="stroke fill markers" d=" M 267.04439439050554 -166.0155478836341 L 267.00894372843646 -165.11326828276387 L 266.9028103073496 -164.21655153567144 L 266.7266484750788 -163.33092619929118 L 266.48154432789977 -162.4618524483222 L 266.1690090143853 -161.61468841143557 L 265.79096941867175 -160.79465713662933 L 265.3497562805776 -160.0068143894007 L 264.8480898258174 -159.25601748227066 L 264.28906299490586 -158.54689532783698 L 263.6761223741508 -157.8838198999888 L 263.0130469463026 -157.27087927923375 L 262.30392479186895 -156.7118524483222 L 261.55312788473896 -156.21018599356205 L 260.7652851375103 -155.76897285546787 L 259.945253862704 -155.3909332597543 L 259.0980898258174 -155.07839794623985 L 258.2290160748484 -154.8332937990608 L 257.34339073846814 -154.65713196679002 L 256.44667399137575 -154.55099854570312 L 255.54439439050552 -154.5155478836341 L 254.6421147896353 -154.55099854570312 L 253.74539804254286 -154.65713196679002 L 252.8597727061626 -154.8332937990608 L 251.99069895519364 -155.07839794623982 L 251.14353491830698 -155.3909332597543 L 250.32350364350071 -155.76897285546787 L 249.5356608962721 -156.21018599356205 L 248.78486398914208 -156.7118524483222 L 248.0757418347084 -157.27087927923375 L 247.4126664068602 -157.8838198999888 L 246.79972578610517 -158.54689532783698 L 246.24069895519364 -159.25601748227066 L 245.73903250043347 -160.0068143894007 L 245.29781936233928 -160.7946571366293 L 244.9197797666257 -161.61468841143557 L 244.60724445311126 -162.4618524483222 L 244.36214030593223 -163.33092619929118 L 244.18597847366144 -164.21655153567144 L 244.07984505257454 -165.11326828276387 L 244.04439439050552 -166.0155478836341 L 244.07984505257454 -166.9178274845043 L 244.18597847366144 -167.81454423159676 L 244.36214030593223 -168.700169567977 L 244.60724445311126 -169.56924331894598 L 244.9197797666257 -170.41640735583263 L 245.29781936233928 -171.23643863063887 L 245.73903250043347 -172.0242813778675 L 246.2406989551936 -172.77507828499753 L 246.79972578610517 -173.48420043943122 L 247.4126664068602 -174.1472758672794 L 248.0757418347084 -174.76021648803444 L 248.78486398914208 -175.319243318946 L 249.5356608962721 -175.82090977370615 L 250.32350364350074 -176.26212291180033 L 251.14353491830698 -176.6401625075139 L 251.99069895519364 -176.95269782102838 L 252.85977270616263 -177.1978019682074 L 253.7453980425429 -177.37396380047818 L 254.64211478963534 -177.48009722156507 L 255.54439439050554 -177.5155478836341 L 256.4466739913758 -177.48009722156507 L 257.3433907384682 -177.37396380047818 L 258.22901607484846 -177.19780196820736 L 259.09808982581745 -176.95269782102835 L 259.94525386270413 -176.64016250751388 L 260.7652851375104 -176.2621229118003 L 261.553127884739 -175.82090977370612 L 262.303924791869 -175.31924331894595 L 263.01304694630267 -174.7602164880344 L 263.67612237415085 -174.14727586727932 L 264.2890629949059 -173.48420043943113 L 264.84808982581745 -172.77507828499745 L 265.34975628057765 -172.02428137786742 L 265.7909694186718 -171.2364386306388 L 266.1690090143854 -170.41640735583252 L 266.4815443278998 -169.5692433189459 L 266.72664847507883 -168.7001695679769 L 266.9028103073496 -167.8145442315966 L 267.0089437284365 -166.9178274845042 Z" fill-opacity="0.9"/><text fill="rgb(19,0,71)" stroke="none" font-family="Assistant-SemiBold, sans-serif" font-size="14px" font-style="normal" font-weight="500" text-decoration="normal" x="270.79439439050554" y="-159.0155478836341" text-anchor="start" dominant-baseline="text-after-edge" fill-opacity="0.9">Misinformation</text><path fill="rgb(0,172,241)" stroke="none" paint-order="stroke fill markers" d=" M -240.56520731954242 -175.6497668534677 L -240.60065798161145 -174.74748725259747 L -240.70679140269834 -173.85077050550504 L -240.88295323496914 -172.96514516912478 L -241.12805738214817 -172.0960714181558 L -241.44059269566262 -171.24890738126916 L -241.8186322913762 -170.4288761064629 L -242.25984542947037 -169.64103335923429 L -242.76151188423052 -168.89023645210426 L -243.32053871514208 -168.18111429767058 L -243.93347933589712 -167.5180388698224 L -244.5965547637453 -166.90509824906735 L -245.305676918179 -166.3460714181558 L -246.056473825309 -165.84440496339565 L -246.84431657253762 -165.40319182530146 L -247.6643478473439 -165.0251522295879 L -248.51151188423052 -164.71261691607344 L -249.3805856351995 -164.4675127688944 L -250.26621097157977 -164.29135093662362 L -251.1629277186722 -164.18521751553672 L -252.06520731954242 -164.1497668534677 L -252.96748692041265 -164.18521751553672 L -253.86420366750508 -164.29135093662362 L -254.74982900388534 -164.4675127688944 L -255.61890275485433 -164.71261691607344 L -256.46606679174096 -165.0251522295879 L -257.2860980665472 -165.40319182530146 L -258.07394081377583 -165.84440496339565 L -258.8247377209059 -166.3460714181558 L -259.53385987533954 -166.90509824906735 L -260.19693530318773 -167.5180388698224 L -260.8098759239428 -168.18111429767058 L -261.36890275485433 -168.89023645210426 L -261.8705692096145 -169.64103335923429 L -262.31178234770863 -170.4288761064629 L -262.6898219434222 -171.24890738126916 L -263.0023572569367 -172.0960714181558 L -263.2474614041157 -172.96514516912478 L -263.4236232363865 -173.85077050550504 L -263.5297566574734 -174.74748725259747 L -263.5652073195424 -175.6497668534677 L -263.5297566574734 -176.5520464543379 L -263.4236232363865 -177.44876320143035 L -263.2474614041157 -178.3343885378106 L -263.0023572569367 -179.20346228877958 L -262.6898219434222 -180.05062632566623 L -262.31178234770863 -180.87065760047247 L -261.8705692096145 -181.6585003477011 L -261.36890275485433 -182.40929725483113 L -260.8098759239428 -183.11841940926482 L -260.19693530318773 -183.781494837113 L -259.53385987533954 -184.39443545786804 L -258.8247377209059 -184.95346228877958 L -258.07394081377583 -185.45512874353975 L -257.2860980665472 -185.89634188163393 L -256.46606679174096 -186.2743814773475 L -255.6189027548543 -186.58691679086198 L -254.7498290038853 -186.83202093804098 L -253.86420366750505 -187.00818277031178 L -252.9674869204126 -187.11431619139867 L -252.0652073195424 -187.1497668534677 L -251.16292771867217 -187.11431619139867 L -250.2662109715797 -187.00818277031178 L -249.38058563519945 -186.83202093804096 L -248.51151188423046 -186.58691679086195 L -247.66434784734383 -186.27438147734748 L -246.84431657253756 -185.8963418816339 L -246.05647382530896 -185.45512874353972 L -245.30567691817893 -184.95346228877955 L -244.59655476374525 -184.39443545786798 L -243.93347933589706 -183.78149483711292 L -243.320538715142 -183.11841940926473 L -242.76151188423046 -182.40929725483105 L -242.25984542947032 -181.65850034770102 L -241.81863229137613 -180.87065760047238 L -241.4405926956626 -180.05062632566612 L -241.1280573821481 -179.2034622887795 L -240.8829532349691 -178.3343885378105 L -240.70679140269831 -177.4487632014302 L -240.60065798161145 -176.55204645433778 Z" fill-opacity="0.9"/><text fill="rgb(19,0,71)" stroke="none" font-family="Assistant-SemiBold, sans-serif" font-size="14px" font-style="normal" font-weight="500" text-decoration="normal" x="-236.81520731954242" y="-168.6497668534677" text-anchor="start" dominant-baseline="text-after-edge" fill-opacity="0.9">Cyber</text><g transform="scale(0.6528964256280356,0.6528964256280356) translate(-857.6503029970513,-751.158227214722)"/></g></svg>