<svg version="1.1" xmlns="http://www.w3.org/2000/svg" xmlns:xlink="http://www.w3.org/1999/xlink" width="2016" height="1332"><defs/><g transform="translate(-103.19146036793109,86.1698841698842) scale(1.7951396774926187,1.7951396774926187)"><path fill="none" stroke="rgb(125,197,62)" paint-order="fill stroke markers" d=" M 632.8136579636237 406.98416924051094 Q 489.0704708152346 211.44266833900625 280.5664154908127 87.09163591126463" stroke-opacity="0.666" stroke-linejoin="round" stroke-miterlimit="10" stroke-width="2.5"/><path fill="none" stroke="rgb(0,172,241)" paint-order="fill stroke markers" d=" M 454.97189534165517 571.4085630249344 Q 411.7687743652396 313.9421795910826 277.9678679398162 89.69068055388038" stroke-opacity="0.666" stroke-linejoin="round" stroke-miterlimit="10" stroke-width="2.5"/><path fill="none" stroke="rgb(125,197,62)" paint-order="fill stroke markers" d=" M 636.8125435150616 405.0992113050095 Q 591.1207898569841 223.94117637244358 462.05255227382787 88.67613605172039" stroke-opacity="0.666" stroke-linejoin="round" stroke-miterlimit="10" stroke-width="2.5"/><path fill="none" stroke="rgb(19,0,71)" paint-order="fill stroke markers" d=" M 996.325911429809 408.8455391598082 Q 755.2471442116887 205.9769946476419 463.8111666049561 86.10299716584015" stroke-opacity="0.666" stroke-linejoin="round" stroke-miterlimit="10" stroke-width="2.5"/><path fill="none" stroke="rgb(125,197,62)" paint-order="fill stroke markers" d=" M 642.8964709959466 405.2251427436597 Q 689.625 247.75 641.8061082294676 90.42584607494817" stroke-opacity="0.666" stroke-linejoin="round" stroke-miterlimit="10" stroke-width="2.5"/><path fill="none" stroke="rgb(2,123,252)" paint-order="fill stroke markers" d=" M 819.5625435150616 405.0992113050095 Q 773.8707898569841 223.94117637244358 644.8025522738278 88.67613605172039" stroke-opacity="0.666" stroke-linejoin="round" stroke-miterlimit="10" stroke-width="2.5"/><path fill="none" stroke="rgb(2,123,252)" paint-order="fill stroke markers" d=" M 825.6464709959466 405.2251427436597 Q 872.375 247.75 824.5561082294676 90.42584607494817" stroke-opacity="0.666" stroke-linejoin="round" stroke-miterlimit="10" stroke-width="2.5"/><path fill="none" stroke="rgb(247,80,64)" paint-order="fill stroke markers" d=" M 283.5799022346849 576.2036404213829 Q 583.4023009133483 368.61342079185044 817.5597194466593 89.0000498426204" stroke-opacity="0.666" stroke-linejoin="round" stroke-miterlimit="10" stroke-width="2.5"/><path fill="none" stroke="rgb(19,0,71)" paint-order="fill stroke markers" d=" M 1008.3964709959466 405.2251427436597 Q 1055.125 247.75 1007.3061082294676 90.42584607494817" stroke-opacity="0.666" stroke-linejoin="round" stroke-miterlimit="10" stroke-width="2.5"/><path fill="none" stroke="rgb(247,80,64)" paint-order="fill stroke markers" d=" M 284.28550573653695 577.3635240483411 Q 669.4851904373699 373.15431517339084 999.4491082779282 88.15247418752176" stroke-opacity="0.666" stroke-linejoin="round" stroke-miterlimit="10" stroke-width="2.5"/><path fill="none" stroke="rgb(2,123,252)" paint-order="fill stroke markers" d=" M 811.5954834126564 412.2435025092752 Q 466.0290583650665 283.804439067646 98.8442080728745 250.42891881996758" stroke-opacity="0.666" stroke-linejoin="round" stroke-miterlimit="10" stroke-width="2.5"/><path fill="none" stroke="rgb(19,0,71)" paint-order="fill stroke markers" d=" M 994.0954950355899 412.99423277244017 Q 555.2456186561011 283.4514246459254 98.85528399518574 250.29346237346144" stroke-opacity="0.666" stroke-linejoin="round" stroke-miterlimit="10" stroke-width="2.5"/><path fill="none" stroke="rgb(251,211,0)" paint-order="fill stroke markers" d=" M 99.27066195622874 574.3888683617012 Q 227.545230115233 438.5521828286678 272.32852508828637 257.0316672466945" stroke-opacity="0.666" stroke-linejoin="round" stroke-miterlimit="10" stroke-width="2.5"/><path fill="none" stroke="rgb(0,172,241)" paint-order="fill stroke markers" d=" M 460.1464709959467 571.7251427436597 Q 506.875 414.25 459.05610822946755 256.92584607494814" stroke-opacity="0.666" stroke-linejoin="round" stroke-miterlimit="10" stroke-width="2.5"/><path fill="none" stroke="rgb(251,211,0)" paint-order="fill stroke markers" d=" M 101.233269359753 576.8284693507037 Q 309.2773009133485 451.86342079185044 452.4518404809873 255.80686881724932" stroke-opacity="0.666" stroke-linejoin="round" stroke-miterlimit="10" stroke-width="2.5"/><path fill="none" stroke="rgb(247,80,64)" paint-order="fill stroke markers" d=" M 283.98326935975297 576.8284693507037 Q 492.0273009133485 451.86342079185044 635.2018404809874 255.80686881724932" stroke-opacity="0.666" stroke-linejoin="round" stroke-miterlimit="10" stroke-width="2.5"/><path fill="none" stroke="rgb(19,0,71)" paint-order="fill stroke markers" d=" M 996.1050393571606 409.11625554132837 Q 841.2826076560798 286.66963875897636 647.0023793926271 251.10065661707256" stroke-opacity="0.666" stroke-linejoin="round" stroke-miterlimit="10" stroke-width="2.5"/><path fill="none" stroke="rgb(251,211,0)" paint-order="fill stroke markers" d=" M 102.3469786099451 579.305339583804 Q 479.4227080502317 460.92214861277114 815.9885983780202 253.68241329501038" stroke-opacity="0.666" stroke-linejoin="round" stroke-miterlimit="10" stroke-width="2.5"/><path fill="none" stroke="rgb(0,172,241)" paint-order="fill stroke markers" d=" M 466.73326935975297 576.8284693507037 Q 674.7773009133484 451.86342079185044 817.9518404809874 255.80686881724932" stroke-opacity="0.666" stroke-linejoin="round" stroke-miterlimit="10" stroke-width="2.5"/><path fill="none" stroke="rgb(251,211,0)" paint-order="fill stroke markers" d=" M 102.5247770388304 579.9335355524397 Q 567.2492786937426 462.54284403790183 998.3793570473886 253.02815514518207" stroke-opacity="0.666" stroke-linejoin="round" stroke-miterlimit="10" stroke-width="2.5"/><path fill="none" stroke="rgb(0,172,241)" paint-order="fill stroke markers" d=" M 447.8550393571606 575.6162555413283 Q 293.03260765607985 453.16963875897636 98.75237939262703 417.60065661707256" stroke-opacity="0.666" stroke-linejoin="round" stroke-miterlimit="10" stroke-width="2.5"/><path fill="none" stroke="rgb(251,211,0)" paint-order="fill stroke markers" d=" M 102.13749535645005 578.6980012706824 Q 217.90230091334843 535.1134207918504 270.91812761089784 423.0298207557438" stroke-opacity="0.666" stroke-linejoin="round" stroke-miterlimit="10" stroke-width="2.5"/><path fill="none" stroke="rgb(2,123,252)" paint-order="fill stroke markers" d=" M 811.0590236147339 414.2009322978241 Q 546.25 366.25 281.5015177252871 414.8946453421613" stroke-opacity="0.666" stroke-linejoin="round" stroke-miterlimit="10" stroke-width="2.5"/><path fill="none" stroke="rgb(125,197,62)" paint-order="fill stroke markers" d=" M 629.4869717244045 410.82133693408537 Q 546.25 366.25 463.4203555588796 412.588262624403" stroke-opacity="0.666" stroke-linejoin="round" stroke-miterlimit="10" stroke-width="2.5"/><path fill="none" stroke="rgb(19,0,71)" paint-order="fill stroke markers" d=" M 993.8090236147339 414.2009322978241 Q 729 366.25 464.2515177252871 414.8946453421613" stroke-opacity="0.666" stroke-linejoin="round" stroke-miterlimit="10" stroke-width="2.5"/><path fill="none" stroke="rgb(125,197,62)" paint-order="fill stroke markers" d=" M 630.8435592504381 408.82461796525354 Q 394.0206186110388 208.57264804478478 107.54359573018831 89.94526042165174" stroke-opacity="0.666" stroke-linejoin="round" stroke-miterlimit="10" stroke-width="4.5"/><path fill="none" stroke="rgb(2,123,252)" paint-order="fill stroke markers" d=" M 812.5843811806501 410.21727398813823 Q 480.3327331487696 205.4924045442919 108.06990790210739 88.49690862700633" stroke-opacity="0.666" stroke-linejoin="round" stroke-miterlimit="10" stroke-width="4.5"/><path fill="none" stroke="rgb(19,0,71)" paint-order="fill stroke markers" d=" M 994.7827435807187 411.2213091009852 Q 568.1888317126254 203.79955941521774 108.3411639084294 87.53943845186146" stroke-opacity="0.666" stroke-linejoin="round" stroke-miterlimit="10" stroke-width="4.5"/><path fill="none" stroke="rgb(251,211,0)" paint-order="fill stroke markers" d=" M 93.65887678647343 571.4790680587537 Q 141.375 336 94.77110450976082 100.4173082968409" stroke-opacity="0.666" stroke-linejoin="round" stroke-miterlimit="10" stroke-width="4.5"/><path fill="none" stroke="rgb(247,80,64)" paint-order="fill stroke markers" d=" M 272.2607721083241 571.4021079328406 Q 230.7367325755339 318.6377753560183 100.29051289674354 98.3086729092573" stroke-opacity="0.666" stroke-linejoin="round" stroke-miterlimit="10" stroke-width="4.5"/><path fill="none" stroke="rgb(0,172,241)" paint-order="fill stroke markers" d=" M 451.6669712079756 572.4968816401329 Q 316.24761527267884 305.89492146128543 103.81081286223241 95.56261785549827" stroke-opacity="0.666" stroke-linejoin="round" stroke-miterlimit="10" stroke-width="4.5"/><path fill="rgb(168,174,188)" stroke="none" paint-order="stroke fill markers" d=" M 108.875 83.25 L 108.82105334032974 84.62303417523728 L 108.6595459604149 85.98760313820404 L 108.39147360695934 87.33529386747834 L 108.01848903516519 88.65779740156158 L 107.54289181894751 89.94696006638907 L 106.96761417329644 91.19483374544207 L 106.29620287619662 92.3937248825291 L 105.53279740156158 93.53624191511828 L 104.68210439800055 94.6153408457782 L 103.74936867076458 95.62436867076458 L 102.7403408457782 96.55710439800055 L 101.66124191511828 97.40779740156158 L 100.51872488252911 98.17120287619662 L 99.31983374544207 98.84261417329644 L 98.07196006638907 99.41789181894751 L 96.78279740156158 99.89348903516519 L 95.46029386747834 100.26647360695934 L 94.11260313820404 100.5345459604149 L 92.7480341752373 100.69605334032974 L 91.375 100.75 L 90.00196582476272 100.69605334032974 L 88.63739686179596 100.5345459604149 L 87.28970613252166 100.26647360695934 L 85.96720259843842 99.89348903516519 L 84.67803993361093 99.41789181894751 L 83.43016625455793 98.84261417329644 L 82.2312751174709 98.17120287619662 L 81.08875808488172 97.40779740156158 L 80.0096591542218 96.55710439800055 L 79.00063132923542 95.62436867076458 L 78.06789560199945 94.61534084577822 L 77.21720259843842 93.53624191511828 L 76.45379712380338 92.39372488252911 L 75.78238582670356 91.19483374544207 L 75.20710818105249 89.94696006638907 L 74.73151096483481 88.65779740156158 L 74.35852639304066 87.33529386747834 L 74.0904540395851 85.98760313820404 L 73.92894665967026 84.6230341752373 L 73.875 83.25 L 73.92894665967026 81.87696582476272 L 74.0904540395851 80.51239686179596 L 74.35852639304066 79.16470613252166 L 74.73151096483481 77.84220259843842 L 75.20710818105248 76.55303993361093 L 75.78238582670356 75.30516625455793 L 76.45379712380338 74.1062751174709 L 77.21720259843842 72.96375808488172 L 78.06789560199945 71.8846591542218 L 79.00063132923542 70.87563132923542 L 80.00965915422178 69.94289560199947 L 81.08875808488172 69.09220259843842 L 82.2312751174709 68.32879712380338 L 83.43016625455795 67.65738582670356 L 84.67803993361095 67.08210818105248 L 85.96720259843845 66.6065109648348 L 87.28970613252169 66.23352639304065 L 88.637396861796 65.96545403958508 L 90.00196582476276 65.80394665967026 L 91.37500000000006 65.75 L 92.74803417523735 65.80394665967026 L 94.11260313820411 65.9654540395851 L 95.46029386747843 66.23352639304068 L 96.78279740156167 66.60651096483484 L 98.07196006638917 67.08210818105252 L 99.31983374544217 67.6573858267036 L 100.5187248825292 68.32879712380344 L 101.66124191511838 69.09220259843849 L 102.7403408457783 69.94289560199954 L 103.74936867076468 70.87563132923552 L 104.68210439800063 71.8846591542219 L 105.53279740156167 72.96375808488185 L 106.2962028761967 74.10627511747103 L 106.96761417329651 75.30516625455807 L 107.54289181894758 76.55303993361109 L 108.01848903516525 77.84220259843859 L 108.39147360695938 79.16470613252184 L 108.65954596041495 80.51239686179616 L 108.82105334032975 81.87696582476292 Z" fill-opacity="0.9"/><text fill="rgb(19,0,71)" stroke="none" font-family="Assistant-SemiBold, sans-serif" font-size="14px" font-style="normal" font-weight="500" text-decoration="normal" x="69.625" y="65.75" text-anchor="start" dominant-baseline="text-after-edge" fill-opacity="0.9">IQT Labs</text><path fill="rgb(125,197,62)" stroke="none" paint-order="stroke fill markers" d=" M 281.625 83.25 L 281.6018800029985 83.83844321795884 L 281.5326625544635 84.42325848780173 L 281.41777440298256 85.00084022891929 L 281.25792387221367 85.56762745781211 L 281.05409649383466 86.12012574273817 L 280.8075489314128 86.6549287480466 L 280.5198012326557 87.16873923536961 L 280.1926274578121 87.65838939219356 L 279.82804474200026 88.12086036247638 L 279.4283008588991 88.5533008588991 L 278.9958603624764 88.95304474200023 L 278.53338939219356 89.31762745781211 L 278.0437392353696 89.6448012326557 L 277.5299287480466 89.93254893141275 L 276.9951257427382 90.17909649383465 L 276.4426274578121 90.38292387221365 L 275.8758402289193 90.54277440298257 L 275.2982584878017 90.65766255446353 L 274.71344321795885 90.72688000299846 L 274.125 90.75 L 273.53655678204115 90.72688000299846 L 272.9517415121983 90.65766255446353 L 272.3741597710807 90.54277440298257 L 271.8073725421879 90.38292387221365 L 271.2548742572618 90.17909649383465 L 270.7200712519534 89.93254893141275 L 270.2062607646304 89.6448012326557 L 269.71661060780644 89.31762745781211 L 269.2541396375236 88.95304474200023 L 268.8216991411009 88.5533008588991 L 268.42195525799974 88.12086036247638 L 268.0573725421879 87.65838939219356 L 267.7301987673443 87.16873923536961 L 267.4424510685872 86.6549287480466 L 267.19590350616534 86.12012574273817 L 266.99207612778633 85.56762745781211 L 266.83222559701744 85.00084022891929 L 266.7173374455365 84.42325848780173 L 266.6481199970015 83.83844321795884 L 266.625 83.25 L 266.6481199970015 82.66155678204116 L 266.7173374455365 82.07674151219827 L 266.83222559701744 81.49915977108071 L 266.99207612778633 80.93237254218789 L 267.19590350616534 80.37987425726183 L 267.4424510685872 79.8450712519534 L 267.7301987673443 79.33126076463039 L 268.0573725421879 78.84161060780646 L 268.42195525799974 78.37913963752362 L 268.8216991411009 77.9466991411009 L 269.2541396375236 77.54695525799977 L 269.71661060780644 77.18237254218789 L 270.2062607646304 76.8551987673443 L 270.7200712519534 76.56745106858723 L 271.25487425726186 76.32090350616535 L 271.8073725421879 76.11707612778635 L 272.3741597710807 75.95722559701743 L 272.9517415121983 75.84233744553646 L 273.5365567820412 75.77311999700154 L 274.125 75.75 L 274.71344321795885 75.77311999700154 L 275.2982584878018 75.84233744553647 L 275.87584022891934 75.95722559701743 L 276.44262745781214 76.11707612778636 L 276.9951257427382 76.32090350616537 L 277.52992874804664 76.56745106858726 L 278.0437392353697 76.85519876734433 L 278.5333893921936 77.18237254218792 L 278.99586036247644 77.5469552579998 L 279.42830085889915 77.94669914110094 L 279.82804474200026 78.37913963752366 L 280.19262745781214 78.8416106078065 L 280.5198012326557 79.33126076463044 L 280.8075489314128 79.84507125195346 L 281.05409649383466 80.37987425726189 L 281.25792387221367 80.93237254218796 L 281.4177744029826 81.49915977108078 L 281.53266255446357 82.07674151219835 L 281.6018800029985 82.66155678204125 Z" fill-opacity="0.9"/><text fill="rgb(19,0,71)" stroke="none" font-family="Assistant-SemiBold, sans-serif" font-size="14px" font-style="normal" font-weight="500" text-decoration="normal" x="285.375" y="90.25" text-anchor="start" dominant-baseline="text-after-edge" fill-opacity="0.9">PCAPviz</text><path fill="rgb(125,197,62)" stroke="none" paint-order="stroke fill markers" d=" M 464.375 83.25 L 464.3518800029985 83.83844321795884 L 464.2826625544635 84.42325848780173 L 464.16777440298256 85.00084022891929 L 464.00792387221367 85.56762745781211 L 463.80409649383466 86.12012574273817 L 463.5575489314128 86.6549287480466 L 463.2698012326557 87.16873923536961 L 462.9426274578121 87.65838939219356 L 462.57804474200026 88.12086036247638 L 462.1783008588991 88.5533008588991 L 461.7458603624764 88.95304474200023 L 461.28338939219356 89.31762745781211 L 460.7937392353696 89.6448012326557 L 460.2799287480466 89.93254893141275 L 459.7451257427382 90.17909649383465 L 459.1926274578121 90.38292387221365 L 458.6258402289193 90.54277440298257 L 458.0482584878017 90.65766255446353 L 457.46344321795885 90.72688000299846 L 456.875 90.75 L 456.28655678204115 90.72688000299846 L 455.7017415121983 90.65766255446353 L 455.1241597710807 90.54277440298257 L 454.5573725421879 90.38292387221365 L 454.0048742572618 90.17909649383465 L 453.4700712519534 89.93254893141275 L 452.9562607646304 89.6448012326557 L 452.46661060780644 89.31762745781211 L 452.0041396375236 88.95304474200023 L 451.5716991411009 88.5533008588991 L 451.17195525799974 88.12086036247638 L 450.8073725421879 87.65838939219356 L 450.4801987673443 87.16873923536961 L 450.1924510685872 86.6549287480466 L 449.94590350616534 86.12012574273817 L 449.74207612778633 85.56762745781211 L 449.58222559701744 85.00084022891929 L 449.4673374455365 84.42325848780173 L 449.3981199970015 83.83844321795884 L 449.375 83.25 L 449.3981199970015 82.66155678204116 L 449.4673374455365 82.07674151219827 L 449.58222559701744 81.49915977108071 L 449.74207612778633 80.93237254218789 L 449.94590350616534 80.37987425726183 L 450.1924510685872 79.8450712519534 L 450.4801987673443 79.33126076463039 L 450.8073725421879 78.84161060780646 L 451.17195525799974 78.37913963752362 L 451.5716991411009 77.9466991411009 L 452.0041396375236 77.54695525799977 L 452.46661060780644 77.18237254218789 L 452.9562607646304 76.8551987673443 L 453.4700712519534 76.56745106858723 L 454.00487425726186 76.32090350616535 L 454.5573725421879 76.11707612778635 L 455.1241597710807 75.95722559701743 L 455.7017415121983 75.84233744553646 L 456.2865567820412 75.77311999700154 L 456.875 75.75 L 457.46344321795885 75.77311999700154 L 458.0482584878018 75.84233744553647 L 458.62584022891934 75.95722559701743 L 459.19262745781214 76.11707612778636 L 459.7451257427382 76.32090350616537 L 460.27992874804664 76.56745106858726 L 460.7937392353697 76.85519876734433 L 461.2833893921936 77.18237254218792 L 461.74586036247644 77.5469552579998 L 462.17830085889915 77.94669914110094 L 462.57804474200026 78.37913963752366 L 462.94262745781214 78.8416106078065 L 463.2698012326557 79.33126076463044 L 463.5575489314128 79.84507125195346 L 463.80409649383466 80.37987425726189 L 464.00792387221367 80.93237254218796 L 464.1677744029826 81.49915977108078 L 464.28266255446357 82.07674151219835 L 464.3518800029985 82.66155678204125 Z" fill-opacity="0.9"/><text fill="rgb(19,0,71)" stroke="none" font-family="Assistant-SemiBold, sans-serif" font-size="14px" font-style="normal" font-weight="500" text-decoration="normal" x="468.125" y="90.25" text-anchor="start" dominant-baseline="text-after-edge" fill-opacity="0.9">VeriCAT</text><path fill="rgb(125,197,62)" stroke="none" paint-order="stroke fill markers" d=" M 647.125 83.25 L 647.1018800029984 83.83844321795884 L 647.0326625544635 84.42325848780173 L 646.9177744029826 85.00084022891929 L 646.7579238722136 85.56762745781211 L 646.5540964938347 86.12012574273817 L 646.3075489314127 86.6549287480466 L 646.0198012326557 87.16873923536961 L 645.6926274578121 87.65838939219356 L 645.3280447420002 88.12086036247638 L 644.9283008588991 88.5533008588991 L 644.4958603624764 88.95304474200023 L 644.0333893921935 89.31762745781211 L 643.5437392353696 89.6448012326557 L 643.0299287480466 89.93254893141275 L 642.4951257427382 90.17909649383465 L 641.9426274578121 90.38292387221365 L 641.3758402289193 90.54277440298257 L 640.7982584878017 90.65766255446353 L 640.2134432179588 90.72688000299846 L 639.625 90.75 L 639.0365567820412 90.72688000299846 L 638.4517415121983 90.65766255446353 L 637.8741597710807 90.54277440298257 L 637.3073725421879 90.38292387221365 L 636.7548742572618 90.17909649383465 L 636.2200712519534 89.93254893141275 L 635.7062607646304 89.6448012326557 L 635.2166106078065 89.31762745781211 L 634.7541396375236 88.95304474200023 L 634.3216991411009 88.5533008588991 L 633.9219552579998 88.12086036247638 L 633.5573725421879 87.65838939219356 L 633.2301987673443 87.16873923536961 L 632.9424510685873 86.6549287480466 L 632.6959035061653 86.12012574273817 L 632.4920761277864 85.56762745781211 L 632.3322255970174 85.00084022891929 L 632.2173374455365 84.42325848780173 L 632.1481199970016 83.83844321795884 L 632.125 83.25 L 632.1481199970016 82.66155678204116 L 632.2173374455365 82.07674151219827 L 632.3322255970174 81.49915977108071 L 632.4920761277864 80.93237254218789 L 632.6959035061653 80.37987425726183 L 632.9424510685873 79.8450712519534 L 633.2301987673443 79.33126076463039 L 633.5573725421879 78.84161060780646 L 633.9219552579998 78.37913963752362 L 634.3216991411009 77.9466991411009 L 634.7541396375236 77.54695525799977 L 635.2166106078065 77.18237254218789 L 635.7062607646304 76.8551987673443 L 636.2200712519534 76.56745106858723 L 636.7548742572618 76.32090350616535 L 637.3073725421879 76.11707612778635 L 637.8741597710807 75.95722559701743 L 638.4517415121983 75.84233744553646 L 639.0365567820412 75.77311999700154 L 639.625 75.75 L 640.2134432179589 75.77311999700154 L 640.7982584878017 75.84233744553647 L 641.3758402289193 75.95722559701743 L 641.9426274578121 76.11707612778636 L 642.4951257427382 76.32090350616537 L 643.0299287480466 76.56745106858726 L 643.5437392353697 76.85519876734433 L 644.0333893921936 77.18237254218792 L 644.4958603624764 77.5469552579998 L 644.9283008588991 77.94669914110094 L 645.3280447420003 78.37913963752366 L 645.6926274578121 78.8416106078065 L 646.0198012326557 79.33126076463044 L 646.3075489314128 79.84507125195346 L 646.5540964938347 80.37987425726189 L 646.7579238722137 80.93237254218796 L 646.9177744029826 81.49915977108078 L 647.0326625544635 82.07674151219835 L 647.1018800029984 82.66155678204125 Z" fill-opacity="0.9"/><text fill="rgb(19,0,71)" stroke="none" font-family="Assistant-SemiBold, sans-serif" font-size="14px" font-style="normal" font-weight="500" text-decoration="normal" x="650.875" y="90.25" text-anchor="start" dominant-baseline="text-after-edge" fill-opacity="0.9">Viziflu/COVIZ</text><path fill="rgb(2,123,252)" stroke="none" paint-order="stroke fill markers" d=" M 829.875 83.25 L 829.8518800029984 83.83844321795884 L 829.7826625544635 84.42325848780173 L 829.6677744029826 85.00084022891929 L 829.5079238722136 85.56762745781211 L 829.3040964938347 86.12012574273817 L 829.0575489314127 86.6549287480466 L 828.7698012326557 87.16873923536961 L 828.4426274578121 87.65838939219356 L 828.0780447420002 88.12086036247638 L 827.6783008588991 88.5533008588991 L 827.2458603624764 88.95304474200023 L 826.7833893921935 89.31762745781211 L 826.2937392353696 89.6448012326557 L 825.7799287480466 89.93254893141275 L 825.2451257427382 90.17909649383465 L 824.6926274578121 90.38292387221365 L 824.1258402289193 90.54277440298257 L 823.5482584878017 90.65766255446353 L 822.9634432179588 90.72688000299846 L 822.375 90.75 L 821.7865567820412 90.72688000299846 L 821.2017415121983 90.65766255446353 L 820.6241597710807 90.54277440298257 L 820.0573725421879 90.38292387221365 L 819.5048742572618 90.17909649383465 L 818.9700712519534 89.93254893141275 L 818.4562607646304 89.6448012326557 L 817.9666106078065 89.31762745781211 L 817.5041396375236 88.95304474200023 L 817.0716991411009 88.5533008588991 L 816.6719552579998 88.12086036247638 L 816.3073725421879 87.65838939219356 L 815.9801987673443 87.16873923536961 L 815.6924510685873 86.6549287480466 L 815.4459035061653 86.12012574273817 L 815.2420761277864 85.56762745781211 L 815.0822255970174 85.00084022891929 L 814.9673374455365 84.42325848780173 L 814.8981199970016 83.83844321795884 L 814.875 83.25 L 814.8981199970016 82.66155678204116 L 814.9673374455365 82.07674151219827 L 815.0822255970174 81.49915977108071 L 815.2420761277864 80.93237254218789 L 815.4459035061653 80.37987425726183 L 815.6924510685873 79.8450712519534 L 815.9801987673443 79.33126076463039 L 816.3073725421879 78.84161060780646 L 816.6719552579998 78.37913963752362 L 817.0716991411009 77.9466991411009 L 817.5041396375236 77.54695525799977 L 817.9666106078065 77.18237254218789 L 818.4562607646304 76.8551987673443 L 818.9700712519534 76.56745106858723 L 819.5048742572618 76.32090350616535 L 820.0573725421879 76.11707612778635 L 820.6241597710807 75.95722559701743 L 821.2017415121983 75.84233744553646 L 821.7865567820412 75.77311999700154 L 822.375 75.75 L 822.9634432179589 75.77311999700154 L 823.5482584878017 75.84233744553647 L 824.1258402289193 75.95722559701743 L 824.6926274578121 76.11707612778636 L 825.2451257427382 76.32090350616537 L 825.7799287480466 76.56745106858726 L 826.2937392353697 76.85519876734433 L 826.7833893921936 77.18237254218792 L 827.2458603624764 77.5469552579998 L 827.6783008588991 77.94669914110094 L 828.0780447420003 78.37913963752366 L 828.4426274578121 78.8416106078065 L 828.7698012326557 79.33126076463044 L 829.0575489314128 79.84507125195346 L 829.3040964938347 80.37987425726189 L 829.5079238722137 80.93237254218796 L 829.6677744029826 81.49915977108078 L 829.7826625544635 82.07674151219835 L 829.8518800029984 82.66155678204125 Z" fill-opacity="0.9"/><text fill="rgb(19,0,71)" stroke="none" font-family="Assistant-SemiBold, sans-serif" font-size="14px" font-style="normal" font-weight="500" text-decoration="normal" x="833.625" y="90.25" text-anchor="start" dominant-baseline="text-after-edge" fill-opacity="0.9">Where in the World</text><path fill="rgb(19,0,71)" stroke="none" paint-order="stroke fill markers" d=" M 1012.625 83.25 L 1012.6018800029984 83.83844321795884 L 1012.5326625544635 84.42325848780173 L 1012.4177744029826 85.00084022891929 L 1012.2579238722136 85.56762745781211 L 1012.0540964938347 86.12012574273817 L 1011.8075489314127 86.6549287480466 L 1011.5198012326557 87.16873923536961 L 1011.1926274578121 87.65838939219356 L 1010.8280447420002 88.12086036247638 L 1010.4283008588991 88.5533008588991 L 1009.9958603624764 88.95304474200023 L 1009.5333893921935 89.31762745781211 L 1009.0437392353696 89.6448012326557 L 1008.5299287480466 89.93254893141275 L 1007.9951257427382 90.17909649383465 L 1007.4426274578121 90.38292387221365 L 1006.8758402289193 90.54277440298257 L 1006.2982584878017 90.65766255446353 L 1005.7134432179588 90.72688000299846 L 1005.125 90.75 L 1004.5365567820412 90.72688000299846 L 1003.9517415121983 90.65766255446353 L 1003.3741597710807 90.54277440298257 L 1002.8073725421879 90.38292387221365 L 1002.2548742572618 90.17909649383465 L 1001.7200712519534 89.93254893141275 L 1001.2062607646304 89.6448012326557 L 1000.7166106078065 89.31762745781211 L 1000.2541396375236 88.95304474200023 L 999.8216991411009 88.5533008588991 L 999.4219552579998 88.12086036247638 L 999.0573725421879 87.65838939219356 L 998.7301987673443 87.16873923536961 L 998.4424510685873 86.6549287480466 L 998.1959035061653 86.12012574273817 L 997.9920761277864 85.56762745781211 L 997.8322255970174 85.00084022891929 L 997.7173374455365 84.42325848780173 L 997.6481199970016 83.83844321795884 L 997.625 83.25 L 997.6481199970016 82.66155678204116 L 997.7173374455365 82.07674151219827 L 997.8322255970174 81.49915977108071 L 997.9920761277864 80.93237254218789 L 998.1959035061653 80.37987425726183 L 998.4424510685873 79.8450712519534 L 998.7301987673443 79.33126076463039 L 999.0573725421879 78.84161060780646 L 999.4219552579998 78.37913963752362 L 999.8216991411009 77.9466991411009 L 1000.2541396375236 77.54695525799977 L 1000.7166106078065 77.18237254218789 L 1001.2062607646304 76.8551987673443 L 1001.7200712519534 76.56745106858723 L 1002.2548742572618 76.32090350616535 L 1002.8073725421879 76.11707612778635 L 1003.3741597710807 75.95722559701743 L 1003.9517415121983 75.84233744553646 L 1004.5365567820412 75.77311999700154 L 1005.125 75.75 L 1005.7134432179589 75.77311999700154 L 1006.2982584878017 75.84233744553647 L 1006.8758402289193 75.95722559701743 L 1007.4426274578121 76.11707612778636 L 1007.9951257427382 76.32090350616537 L 1008.5299287480466 76.56745106858726 L 1009.0437392353697 76.85519876734433 L 1009.5333893921936 77.18237254218792 L 1009.9958603624764 77.5469552579998 L 1010.4283008588991 77.94669914110094 L 1010.8280447420003 78.37913963752366 L 1011.1926274578121 78.8416106078065 L 1011.5198012326557 79.33126076463044 L 1011.8075489314128 79.84507125195346 L 1012.0540964938347 80.37987425726189 L 1012.2579238722137 80.93237254218796 L 1012.4177744029826 81.49915977108078 L 1012.5326625544635 82.07674151219835 L 1012.6018800029984 82.66155678204125 Z" fill-opacity="0.9"/><text fill="rgb(19,0,71)" stroke="none" font-family="Assistant-SemiBold, sans-serif" font-size="14px" font-style="normal" font-weight="500" text-decoration="normal" x="1016.375" y="90.25" text-anchor="start" dominant-baseline="text-after-edge" fill-opacity="0.9">Fusing Without Confusing</text><path fill="rgb(2,123,252)" stroke="none" paint-order="stroke fill markers" d=" M 98.875 249.75 L 98.85188000299846 250.33844321795883 L 98.78266255446353 250.92325848780172 L 98.66777440298257 251.5008402289193 L 98.50792387221365 252.0676274578121 L 98.30409649383465 252.62012574273817 L 98.05754893141275 253.1549287480466 L 97.7698012326557 253.66873923536963 L 97.44262745781211 254.15838939219356 L 97.07804474200023 254.62086036247638 L 96.6783008588991 255.0533008588991 L 96.24586036247638 255.45304474200023 L 95.78338939219356 255.8176274578121 L 95.29373923536961 256.1448012326557 L 94.7799287480466 256.4325489314128 L 94.24512574273817 256.67909649383466 L 93.69262745781211 256.88292387221367 L 93.12584022891929 257.04277440298256 L 92.54825848780173 257.1576625544635 L 91.96344321795884 257.2268800029985 L 91.375 257.25 L 90.78655678204116 257.2268800029985 L 90.20174151219827 257.1576625544635 L 89.62415977108071 257.04277440298256 L 89.05737254218789 256.88292387221367 L 88.50487425726183 256.67909649383466 L 87.9700712519534 256.4325489314128 L 87.45626076463039 256.1448012326557 L 86.96661060780646 255.8176274578121 L 86.50413963752362 255.45304474200023 L 86.0716991411009 255.0533008588991 L 85.67195525799977 254.62086036247638 L 85.30737254218789 254.15838939219356 L 84.9801987673443 253.66873923536963 L 84.69245106858725 253.15492874804661 L 84.44590350616535 252.62012574273817 L 84.24207612778635 252.0676274578121 L 84.08222559701743 251.5008402289193 L 83.96733744553647 250.92325848780175 L 83.89811999700154 250.33844321795883 L 83.875 249.75 L 83.89811999700154 249.16155678204117 L 83.96733744553647 248.57674151219828 L 84.08222559701743 247.9991597710807 L 84.24207612778635 247.4323725421879 L 84.44590350616535 246.87987425726183 L 84.69245106858725 246.3450712519534 L 84.9801987673443 245.83126076463037 L 85.30737254218789 245.34161060780644 L 85.67195525799977 244.87913963752362 L 86.0716991411009 244.4466991411009 L 86.50413963752362 244.04695525799977 L 86.96661060780644 243.6823725421879 L 87.45626076463039 243.35519876734432 L 87.9700712519534 243.06745106858725 L 88.50487425726183 242.82090350616534 L 89.0573725421879 242.61707612778633 L 89.62415977108073 242.4572255970174 L 90.20174151219828 242.34233744553646 L 90.78655678204119 242.27311999700154 L 91.37500000000003 242.25 L 91.96344321795887 242.27311999700154 L 92.54825848780176 242.34233744553646 L 93.12584022891933 242.45722559701744 L 93.69262745781214 242.61707612778636 L 94.24512574273821 242.82090350616537 L 94.77992874804664 243.06745106858727 L 95.29373923536966 243.35519876734435 L 95.78338939219358 243.68237254218792 L 96.24586036247642 244.0469552579998 L 96.67830085889915 244.44669914110094 L 97.07804474200027 244.87913963752368 L 97.44262745781215 245.3416106078065 L 97.76980123265572 245.83126076463043 L 98.0575489314128 246.34507125195347 L 98.30409649383468 246.8798742572619 L 98.50792387221368 247.43237254218798 L 98.66777440298259 247.9991597710808 L 98.78266255446354 248.57674151219834 L 98.85188000299847 249.16155678204126 Z" fill-opacity="0.9"/><text fill="rgb(19,0,71)" stroke="none" font-family="Assistant-SemiBold, sans-serif" font-size="14px" font-style="normal" font-weight="500" text-decoration="normal" x="102.625" y="256.75" text-anchor="start" dominant-baseline="text-after-edge" fill-opacity="0.9">Synthesizing Robustness</text><path fill="rgb(251,211,0)" stroke="none" paint-order="stroke fill markers" d=" M 281.625 249.75 L 281.6018800029985 250.33844321795883 L 281.5326625544635 250.92325848780172 L 281.41777440298256 251.5008402289193 L 281.25792387221367 252.0676274578121 L 281.05409649383466 252.62012574273817 L 280.8075489314128 253.1549287480466 L 280.5198012326557 253.66873923536963 L 280.1926274578121 254.15838939219356 L 279.82804474200026 254.62086036247638 L 279.4283008588991 255.0533008588991 L 278.9958603624764 255.45304474200023 L 278.53338939219356 255.8176274578121 L 278.0437392353696 256.1448012326557 L 277.5299287480466 256.4325489314128 L 276.9951257427382 256.67909649383466 L 276.4426274578121 256.88292387221367 L 275.8758402289193 257.04277440298256 L 275.2982584878017 257.1576625544635 L 274.71344321795885 257.2268800029985 L 274.125 257.25 L 273.53655678204115 257.2268800029985 L 272.9517415121983 257.1576625544635 L 272.3741597710807 257.04277440298256 L 271.8073725421879 256.88292387221367 L 271.2548742572618 256.67909649383466 L 270.7200712519534 256.4325489314128 L 270.2062607646304 256.1448012326557 L 269.71661060780644 255.8176274578121 L 269.2541396375236 255.45304474200023 L 268.8216991411009 255.0533008588991 L 268.42195525799974 254.62086036247638 L 268.0573725421879 254.15838939219356 L 267.7301987673443 253.66873923536963 L 267.4424510685872 253.15492874804661 L 267.19590350616534 252.62012574273817 L 266.99207612778633 252.0676274578121 L 266.83222559701744 251.5008402289193 L 266.7173374455365 250.92325848780175 L 266.6481199970015 250.33844321795883 L 266.625 249.75 L 266.6481199970015 249.16155678204117 L 266.7173374455365 248.57674151219828 L 266.83222559701744 247.9991597710807 L 266.99207612778633 247.4323725421879 L 267.19590350616534 246.87987425726183 L 267.4424510685872 246.3450712519534 L 267.7301987673443 245.83126076463037 L 268.0573725421879 245.34161060780644 L 268.42195525799974 244.87913963752362 L 268.8216991411009 244.4466991411009 L 269.2541396375236 244.04695525799977 L 269.71661060780644 243.6823725421879 L 270.2062607646304 243.35519876734432 L 270.7200712519534 243.06745106858725 L 271.25487425726186 242.82090350616534 L 271.8073725421879 242.61707612778633 L 272.3741597710807 242.4572255970174 L 272.9517415121983 242.34233744553646 L 273.5365567820412 242.27311999700154 L 274.125 242.25 L 274.71344321795885 242.27311999700154 L 275.2982584878018 242.34233744553646 L 275.87584022891934 242.45722559701744 L 276.44262745781214 242.61707612778636 L 276.9951257427382 242.82090350616537 L 277.52992874804664 243.06745106858727 L 278.0437392353697 243.35519876734435 L 278.5333893921936 243.68237254218792 L 278.99586036247644 244.0469552579998 L 279.42830085889915 244.44669914110094 L 279.82804474200026 244.87913963752368 L 280.19262745781214 245.3416106078065 L 280.5198012326557 245.83126076463043 L 280.8075489314128 246.34507125195347 L 281.05409649383466 246.8798742572619 L 281.25792387221367 247.43237254218798 L 281.4177744029826 247.9991597710808 L 281.53266255446357 248.57674151219834 L 281.6018800029985 249.16155678204126 Z" fill-opacity="0.9"/><text fill="rgb(19,0,71)" stroke="none" font-family="Assistant-SemiBold, sans-serif" font-size="14px" font-style="normal" font-weight="500" text-decoration="normal" x="285.375" y="256.75" text-anchor="start" dominant-baseline="text-after-edge" fill-opacity="0.9">AI Sonobuoy</text><path fill="rgb(0,172,241)" stroke="none" paint-order="stroke fill markers" d=" M 464.375 249.75 L 464.3518800029985 250.33844321795883 L 464.2826625544635 250.92325848780172 L 464.16777440298256 251.5008402289193 L 464.00792387221367 252.0676274578121 L 463.80409649383466 252.62012574273817 L 463.5575489314128 253.1549287480466 L 463.2698012326557 253.66873923536963 L 462.9426274578121 254.15838939219356 L 462.57804474200026 254.62086036247638 L 462.1783008588991 255.0533008588991 L 461.7458603624764 255.45304474200023 L 461.28338939219356 255.8176274578121 L 460.7937392353696 256.1448012326557 L 460.2799287480466 256.4325489314128 L 459.7451257427382 256.67909649383466 L 459.1926274578121 256.88292387221367 L 458.6258402289193 257.04277440298256 L 458.0482584878017 257.1576625544635 L 457.46344321795885 257.2268800029985 L 456.875 257.25 L 456.28655678204115 257.2268800029985 L 455.7017415121983 257.1576625544635 L 455.1241597710807 257.04277440298256 L 454.5573725421879 256.88292387221367 L 454.0048742572618 256.67909649383466 L 453.4700712519534 256.4325489314128 L 452.9562607646304 256.1448012326557 L 452.46661060780644 255.8176274578121 L 452.0041396375236 255.45304474200023 L 451.5716991411009 255.0533008588991 L 451.17195525799974 254.62086036247638 L 450.8073725421879 254.15838939219356 L 450.4801987673443 253.66873923536963 L 450.1924510685872 253.15492874804661 L 449.94590350616534 252.62012574273817 L 449.74207612778633 252.0676274578121 L 449.58222559701744 251.5008402289193 L 449.4673374455365 250.92325848780175 L 449.3981199970015 250.33844321795883 L 449.375 249.75 L 449.3981199970015 249.16155678204117 L 449.4673374455365 248.57674151219828 L 449.58222559701744 247.9991597710807 L 449.74207612778633 247.4323725421879 L 449.94590350616534 246.87987425726183 L 450.1924510685872 246.3450712519534 L 450.4801987673443 245.83126076463037 L 450.8073725421879 245.34161060780644 L 451.17195525799974 244.87913963752362 L 451.5716991411009 244.4466991411009 L 452.0041396375236 244.04695525799977 L 452.46661060780644 243.6823725421879 L 452.9562607646304 243.35519876734432 L 453.4700712519534 243.06745106858725 L 454.00487425726186 242.82090350616534 L 454.5573725421879 242.61707612778633 L 455.1241597710807 242.4572255970174 L 455.7017415121983 242.34233744553646 L 456.2865567820412 242.27311999700154 L 456.875 242.25 L 457.46344321795885 242.27311999700154 L 458.0482584878018 242.34233744553646 L 458.62584022891934 242.45722559701744 L 459.19262745781214 242.61707612778636 L 459.7451257427382 242.82090350616537 L 460.27992874804664 243.06745106858727 L 460.7937392353697 243.35519876734435 L 461.2833893921936 243.68237254218792 L 461.74586036247644 244.0469552579998 L 462.17830085889915 244.44669914110094 L 462.57804474200026 244.87913963752368 L 462.94262745781214 245.3416106078065 L 463.2698012326557 245.83126076463043 L 463.5575489314128 246.34507125195347 L 463.80409649383466 246.8798742572619 L 464.00792387221367 247.43237254218798 L 464.1677744029826 247.9991597710808 L 464.28266255446357 248.57674151219834 L 464.3518800029985 249.16155678204126 Z" fill-opacity="0.9"/><text fill="rgb(19,0,71)" stroke="none" font-family="Assistant-SemiBold, sans-serif" font-size="14px" font-style="normal" font-weight="500" text-decoration="normal" x="468.125" y="256.75" text-anchor="start" dominant-baseline="text-after-edge" fill-opacity="0.9">Defensive-5G</text><path fill="rgb(247,80,64)" stroke="none" paint-order="stroke fill markers" d=" M 647.125 249.75 L 647.1018800029984 250.33844321795883 L 647.0326625544635 250.92325848780172 L 646.9177744029826 251.5008402289193 L 646.7579238722136 252.0676274578121 L 646.5540964938347 252.62012574273817 L 646.3075489314127 253.1549287480466 L 646.0198012326557 253.66873923536963 L 645.6926274578121 254.15838939219356 L 645.3280447420002 254.62086036247638 L 644.9283008588991 255.0533008588991 L 644.4958603624764 255.45304474200023 L 644.0333893921935 255.8176274578121 L 643.5437392353696 256.1448012326557 L 643.0299287480466 256.4325489314128 L 642.4951257427382 256.67909649383466 L 641.9426274578121 256.88292387221367 L 641.3758402289193 257.04277440298256 L 640.7982584878017 257.1576625544635 L 640.2134432179588 257.2268800029985 L 639.625 257.25 L 639.0365567820412 257.2268800029985 L 638.4517415121983 257.1576625544635 L 637.8741597710807 257.04277440298256 L 637.3073725421879 256.88292387221367 L 636.7548742572618 256.67909649383466 L 636.2200712519534 256.4325489314128 L 635.7062607646304 256.1448012326557 L 635.2166106078065 255.8176274578121 L 634.7541396375236 255.45304474200023 L 634.3216991411009 255.0533008588991 L 633.9219552579998 254.62086036247638 L 633.5573725421879 254.15838939219356 L 633.2301987673443 253.66873923536963 L 632.9424510685873 253.15492874804661 L 632.6959035061653 252.62012574273817 L 632.4920761277864 252.0676274578121 L 632.3322255970174 251.5008402289193 L 632.2173374455365 250.92325848780175 L 632.1481199970016 250.33844321795883 L 632.125 249.75 L 632.1481199970016 249.16155678204117 L 632.2173374455365 248.57674151219828 L 632.3322255970174 247.9991597710807 L 632.4920761277864 247.4323725421879 L 632.6959035061653 246.87987425726183 L 632.9424510685873 246.3450712519534 L 633.2301987673443 245.83126076463037 L 633.5573725421879 245.34161060780644 L 633.9219552579998 244.87913963752362 L 634.3216991411009 244.4466991411009 L 634.7541396375236 244.04695525799977 L 635.2166106078065 243.6823725421879 L 635.7062607646304 243.35519876734432 L 636.2200712519534 243.06745106858725 L 636.7548742572618 242.82090350616534 L 637.3073725421879 242.61707612778633 L 637.8741597710807 242.4572255970174 L 638.4517415121983 242.34233744553646 L 639.0365567820412 242.27311999700154 L 639.625 242.25 L 640.2134432179589 242.27311999700154 L 640.7982584878017 242.34233744553646 L 641.3758402289193 242.45722559701744 L 641.9426274578121 242.61707612778636 L 642.4951257427382 242.82090350616537 L 643.0299287480466 243.06745106858727 L 643.5437392353697 243.35519876734435 L 644.0333893921936 243.68237254218792 L 644.4958603624764 244.0469552579998 L 644.9283008588991 244.44669914110094 L 645.3280447420003 244.87913963752368 L 645.6926274578121 245.3416106078065 L 646.0198012326557 245.83126076463043 L 646.3075489314128 246.34507125195347 L 646.5540964938347 246.8798742572619 L 646.7579238722137 247.43237254218798 L 646.9177744029826 247.9991597710808 L 647.0326625544635 248.57674151219834 L 647.1018800029984 249.16155678204126 Z" fill-opacity="0.9"/><text fill="rgb(19,0,71)" stroke="none" font-family="Assistant-SemiBold, sans-serif" font-size="14px" font-style="normal" font-weight="500" text-decoration="normal" x="650.875" y="256.75" text-anchor="start" dominant-baseline="text-after-edge" fill-opacity="0.9">FakeFinder</text><path fill="rgb(251,211,0)" stroke="none" paint-order="stroke fill markers" d=" M 829.875 249.75 L 829.8518800029984 250.33844321795883 L 829.7826625544635 250.92325848780172 L 829.6677744029826 251.5008402289193 L 829.5079238722136 252.0676274578121 L 829.3040964938347 252.62012574273817 L 829.0575489314127 253.1549287480466 L 828.7698012326557 253.66873923536963 L 828.4426274578121 254.15838939219356 L 828.0780447420002 254.62086036247638 L 827.6783008588991 255.0533008588991 L 827.2458603624764 255.45304474200023 L 826.7833893921935 255.8176274578121 L 826.2937392353696 256.1448012326557 L 825.7799287480466 256.4325489314128 L 825.2451257427382 256.67909649383466 L 824.6926274578121 256.88292387221367 L 824.1258402289193 257.04277440298256 L 823.5482584878017 257.1576625544635 L 822.9634432179588 257.2268800029985 L 822.375 257.25 L 821.7865567820412 257.2268800029985 L 821.2017415121983 257.1576625544635 L 820.6241597710807 257.04277440298256 L 820.0573725421879 256.88292387221367 L 819.5048742572618 256.67909649383466 L 818.9700712519534 256.4325489314128 L 818.4562607646304 256.1448012326557 L 817.9666106078065 255.8176274578121 L 817.5041396375236 255.45304474200023 L 817.0716991411009 255.0533008588991 L 816.6719552579998 254.62086036247638 L 816.3073725421879 254.15838939219356 L 815.9801987673443 253.66873923536963 L 815.6924510685873 253.15492874804661 L 815.4459035061653 252.62012574273817 L 815.2420761277864 252.0676274578121 L 815.0822255970174 251.5008402289193 L 814.9673374455365 250.92325848780175 L 814.8981199970016 250.33844321795883 L 814.875 249.75 L 814.8981199970016 249.16155678204117 L 814.9673374455365 248.57674151219828 L 815.0822255970174 247.9991597710807 L 815.2420761277864 247.4323725421879 L 815.4459035061653 246.87987425726183 L 815.6924510685873 246.3450712519534 L 815.9801987673443 245.83126076463037 L 816.3073725421879 245.34161060780644 L 816.6719552579998 244.87913963752362 L 817.0716991411009 244.4466991411009 L 817.5041396375236 244.04695525799977 L 817.9666106078065 243.6823725421879 L 818.4562607646304 243.35519876734432 L 818.9700712519534 243.06745106858725 L 819.5048742572618 242.82090350616534 L 820.0573725421879 242.61707612778633 L 820.6241597710807 242.4572255970174 L 821.2017415121983 242.34233744553646 L 821.7865567820412 242.27311999700154 L 822.375 242.25 L 822.9634432179589 242.27311999700154 L 823.5482584878017 242.34233744553646 L 824.1258402289193 242.45722559701744 L 824.6926274578121 242.61707612778636 L 825.2451257427382 242.82090350616537 L 825.7799287480466 243.06745106858727 L 826.2937392353697 243.35519876734435 L 826.7833893921936 243.68237254218792 L 827.2458603624764 244.0469552579998 L 827.6783008588991 244.44669914110094 L 828.0780447420003 244.87913963752368 L 828.4426274578121 245.3416106078065 L 828.7698012326557 245.83126076463043 L 829.0575489314128 246.34507125195347 L 829.3040964938347 246.8798742572619 L 829.5079238722137 247.43237254218798 L 829.6677744029826 247.9991597710808 L 829.7826625544635 248.57674151219834 L 829.8518800029984 249.16155678204126 Z" fill-opacity="0.9"/><text fill="rgb(19,0,71)" stroke="none" font-family="Assistant-SemiBold, sans-serif" font-size="14px" font-style="normal" font-weight="500" text-decoration="normal" x="833.625" y="256.75" text-anchor="start" dominant-baseline="text-after-edge" fill-opacity="0.9">BirdsEye</text><path fill="rgb(251,211,0)" stroke="none" paint-order="stroke fill markers" d=" M 1012.625 249.75 L 1012.6018800029984 250.33844321795883 L 1012.5326625544635 250.92325848780172 L 1012.4177744029826 251.5008402289193 L 1012.2579238722136 252.0676274578121 L 1012.0540964938347 252.62012574273817 L 1011.8075489314127 253.1549287480466 L 1011.5198012326557 253.66873923536963 L 1011.1926274578121 254.15838939219356 L 1010.8280447420002 254.62086036247638 L 1010.4283008588991 255.0533008588991 L 1009.9958603624764 255.45304474200023 L 1009.5333893921935 255.8176274578121 L 1009.0437392353696 256.1448012326557 L 1008.5299287480466 256.4325489314128 L 1007.9951257427382 256.67909649383466 L 1007.4426274578121 256.88292387221367 L 1006.8758402289193 257.04277440298256 L 1006.2982584878017 257.1576625544635 L 1005.7134432179588 257.2268800029985 L 1005.125 257.25 L 1004.5365567820412 257.2268800029985 L 1003.9517415121983 257.1576625544635 L 1003.3741597710807 257.04277440298256 L 1002.8073725421879 256.88292387221367 L 1002.2548742572618 256.67909649383466 L 1001.7200712519534 256.4325489314128 L 1001.2062607646304 256.1448012326557 L 1000.7166106078065 255.8176274578121 L 1000.2541396375236 255.45304474200023 L 999.8216991411009 255.0533008588991 L 999.4219552579998 254.62086036247638 L 999.0573725421879 254.15838939219356 L 998.7301987673443 253.66873923536963 L 998.4424510685873 253.15492874804661 L 998.1959035061653 252.62012574273817 L 997.9920761277864 252.0676274578121 L 997.8322255970174 251.5008402289193 L 997.7173374455365 250.92325848780175 L 997.6481199970016 250.33844321795883 L 997.625 249.75 L 997.6481199970016 249.16155678204117 L 997.7173374455365 248.57674151219828 L 997.8322255970174 247.9991597710807 L 997.9920761277864 247.4323725421879 L 998.1959035061653 246.87987425726183 L 998.4424510685873 246.3450712519534 L 998.7301987673443 245.83126076463037 L 999.0573725421879 245.34161060780644 L 999.4219552579998 244.87913963752362 L 999.8216991411009 244.4466991411009 L 1000.2541396375236 244.04695525799977 L 1000.7166106078065 243.6823725421879 L 1001.2062607646304 243.35519876734432 L 1001.7200712519534 243.06745106858725 L 1002.2548742572618 242.82090350616534 L 1002.8073725421879 242.61707612778633 L 1003.3741597710807 242.4572255970174 L 1003.9517415121983 242.34233744553646 L 1004.5365567820412 242.27311999700154 L 1005.125 242.25 L 1005.7134432179589 242.27311999700154 L 1006.2982584878017 242.34233744553646 L 1006.8758402289193 242.45722559701744 L 1007.4426274578121 242.61707612778636 L 1007.9951257427382 242.82090350616537 L 1008.5299287480466 243.06745106858727 L 1009.0437392353697 243.35519876734435 L 1009.5333893921936 243.68237254218792 L 1009.9958603624764 244.0469552579998 L 1010.4283008588991 244.44669914110094 L 1010.8280447420003 244.87913963752368 L 1011.1926274578121 245.3416106078065 L 1011.5198012326557 245.83126076463043 L 1011.8075489314128 246.34507125195347 L 1012.0540964938347 246.8798742572619 L 1012.2579238722137 247.43237254218798 L 1012.4177744029826 247.9991597710808 L 1012.5326625544635 248.57674151219834 L 1012.6018800029984 249.16155678204126 Z" fill-opacity="0.9"/><text fill="rgb(19,0,71)" stroke="none" font-family="Assistant-SemiBold, sans-serif" font-size="14px" font-style="normal" font-weight="500" text-decoration="normal" x="1016.375" y="256.75" text-anchor="start" dominant-baseline="text-after-edge" fill-opacity="0.9">Shifting Pixels</text><path fill="rgb(0,172,241)" stroke="none" paint-order="stroke fill markers" d=" M 98.875 416.25 L 98.85188000299846 416.83844321795885 L 98.78266255446353 417.4232584878017 L 98.66777440298257 418.0008402289193 L 98.50792387221365 418.5676274578121 L 98.30409649383465 419.1201257427382 L 98.05754893141275 419.6549287480466 L 97.7698012326557 420.1687392353696 L 97.44262745781211 420.65838939219356 L 97.07804474200023 421.1208603624764 L 96.6783008588991 421.5533008588991 L 96.24586036247638 421.95304474200026 L 95.78338939219356 422.3176274578121 L 95.29373923536961 422.6448012326557 L 94.7799287480466 422.9325489314128 L 94.24512574273817 423.17909649383466 L 93.69262745781211 423.38292387221367 L 93.12584022891929 423.54277440298256 L 92.54825848780173 423.6576625544635 L 91.96344321795884 423.7268800029985 L 91.375 423.75 L 90.78655678204116 423.7268800029985 L 90.20174151219827 423.6576625544635 L 89.62415977108071 423.54277440298256 L 89.05737254218789 423.38292387221367 L 88.50487425726183 423.17909649383466 L 87.9700712519534 422.9325489314128 L 87.45626076463039 422.6448012326557 L 86.96661060780646 422.3176274578121 L 86.50413963752362 421.95304474200026 L 86.0716991411009 421.5533008588991 L 85.67195525799977 421.1208603624764 L 85.30737254218789 420.65838939219356 L 84.9801987673443 420.1687392353696 L 84.69245106858725 419.6549287480466 L 84.44590350616535 419.1201257427382 L 84.24207612778635 418.5676274578121 L 84.08222559701743 418.0008402289193 L 83.96733744553647 417.4232584878017 L 83.89811999700154 416.83844321795885 L 83.875 416.25 L 83.89811999700154 415.66155678204115 L 83.96733744553647 415.0767415121983 L 84.08222559701743 414.4991597710807 L 84.24207612778635 413.9323725421879 L 84.44590350616535 413.3798742572618 L 84.69245106858725 412.8450712519534 L 84.9801987673443 412.3312607646304 L 85.30737254218789 411.84161060780644 L 85.67195525799977 411.3791396375236 L 86.0716991411009 410.9466991411009 L 86.50413963752362 410.5469552579998 L 86.96661060780644 410.1823725421879 L 87.45626076463039 409.8551987673443 L 87.9700712519534 409.5674510685872 L 88.50487425726183 409.32090350616534 L 89.0573725421879 409.11707612778633 L 89.62415977108073 408.95722559701744 L 90.20174151219828 408.8423374455365 L 90.78655678204119 408.7731199970015 L 91.37500000000003 408.75 L 91.96344321795887 408.7731199970015 L 92.54825848780176 408.8423374455365 L 93.12584022891933 408.95722559701744 L 93.69262745781214 409.11707612778633 L 94.24512574273821 409.32090350616534 L 94.77992874804664 409.5674510685873 L 95.29373923536966 409.85519876734435 L 95.78338939219358 410.1823725421879 L 96.24586036247642 410.5469552579998 L 96.67830085889915 410.9466991411009 L 97.07804474200027 411.3791396375237 L 97.44262745781215 411.8416106078065 L 97.76980123265572 412.33126076463043 L 98.0575489314128 412.84507125195347 L 98.30409649383468 413.3798742572619 L 98.50792387221368 413.932372542188 L 98.66777440298259 414.49915977108077 L 98.78266255446354 415.07674151219834 L 98.85188000299847 415.66155678204126 Z" fill-opacity="0.9"/><text fill="rgb(19,0,71)" stroke="none" font-family="Assistant-SemiBold, sans-serif" font-size="14px" font-style="normal" font-weight="500" text-decoration="normal" x="102.625" y="423.25" text-anchor="start" dominant-baseline="text-after-edge" fill-opacity="0.9">Open Code Project</text><path fill="rgb(251,211,0)" stroke="none" paint-order="stroke fill markers" d=" M 281.625 416.25 L 281.6018800029985 416.83844321795885 L 281.5326625544635 417.4232584878017 L 281.41777440298256 418.0008402289193 L 281.25792387221367 418.5676274578121 L 281.05409649383466 419.1201257427382 L 280.8075489314128 419.6549287480466 L 280.5198012326557 420.1687392353696 L 280.1926274578121 420.65838939219356 L 279.82804474200026 421.1208603624764 L 279.4283008588991 421.5533008588991 L 278.9958603624764 421.95304474200026 L 278.53338939219356 422.3176274578121 L 278.0437392353696 422.6448012326557 L 277.5299287480466 422.9325489314128 L 276.9951257427382 423.17909649383466 L 276.4426274578121 423.38292387221367 L 275.8758402289193 423.54277440298256 L 275.2982584878017 423.6576625544635 L 274.71344321795885 423.7268800029985 L 274.125 423.75 L 273.53655678204115 423.7268800029985 L 272.9517415121983 423.6576625544635 L 272.3741597710807 423.54277440298256 L 271.8073725421879 423.38292387221367 L 271.2548742572618 423.17909649383466 L 270.7200712519534 422.9325489314128 L 270.2062607646304 422.6448012326557 L 269.71661060780644 422.3176274578121 L 269.2541396375236 421.95304474200026 L 268.8216991411009 421.5533008588991 L 268.42195525799974 421.1208603624764 L 268.0573725421879 420.65838939219356 L 267.7301987673443 420.1687392353696 L 267.4424510685872 419.6549287480466 L 267.19590350616534 419.1201257427382 L 266.99207612778633 418.5676274578121 L 266.83222559701744 418.0008402289193 L 266.7173374455365 417.4232584878017 L 266.6481199970015 416.83844321795885 L 266.625 416.25 L 266.6481199970015 415.66155678204115 L 266.7173374455365 415.0767415121983 L 266.83222559701744 414.4991597710807 L 266.99207612778633 413.9323725421879 L 267.19590350616534 413.3798742572618 L 267.4424510685872 412.8450712519534 L 267.7301987673443 412.3312607646304 L 268.0573725421879 411.84161060780644 L 268.42195525799974 411.3791396375236 L 268.8216991411009 410.9466991411009 L 269.2541396375236 410.5469552579998 L 269.71661060780644 410.1823725421879 L 270.2062607646304 409.8551987673443 L 270.7200712519534 409.5674510685872 L 271.25487425726186 409.32090350616534 L 271.8073725421879 409.11707612778633 L 272.3741597710807 408.95722559701744 L 272.9517415121983 408.8423374455365 L 273.5365567820412 408.7731199970015 L 274.125 408.75 L 274.71344321795885 408.7731199970015 L 275.2982584878018 408.8423374455365 L 275.87584022891934 408.95722559701744 L 276.44262745781214 409.11707612778633 L 276.9951257427382 409.32090350616534 L 277.52992874804664 409.5674510685873 L 278.0437392353697 409.85519876734435 L 278.5333893921936 410.1823725421879 L 278.99586036247644 410.5469552579998 L 279.42830085889915 410.9466991411009 L 279.82804474200026 411.3791396375237 L 280.19262745781214 411.8416106078065 L 280.5198012326557 412.33126076463043 L 280.8075489314128 412.84507125195347 L 281.05409649383466 413.3798742572619 L 281.25792387221367 413.932372542188 L 281.4177744029826 414.49915977108077 L 281.53266255446357 415.07674151219834 L 281.6018800029985 415.66155678204126 Z" fill-opacity="0.9"/><text fill="rgb(19,0,71)" stroke="none" font-family="Assistant-SemiBold, sans-serif" font-size="14px" font-style="normal" font-weight="500" text-decoration="normal" x="285.375" y="423.25" text-anchor="start" dominant-baseline="text-after-edge" fill-opacity="0.9">SkyScan</text><path fill="rgb(125,197,62)" stroke="none" paint-order="stroke fill markers" d=" M 464.375 416.25 L 464.3518800029985 416.83844321795885 L 464.2826625544635 417.4232584878017 L 464.16777440298256 418.0008402289193 L 464.00792387221367 418.5676274578121 L 463.80409649383466 419.1201257427382 L 463.5575489314128 419.6549287480466 L 463.2698012326557 420.1687392353696 L 462.9426274578121 420.65838939219356 L 462.57804474200026 421.1208603624764 L 462.1783008588991 421.5533008588991 L 461.7458603624764 421.95304474200026 L 461.28338939219356 422.3176274578121 L 460.7937392353696 422.6448012326557 L 460.2799287480466 422.9325489314128 L 459.7451257427382 423.17909649383466 L 459.1926274578121 423.38292387221367 L 458.6258402289193 423.54277440298256 L 458.0482584878017 423.6576625544635 L 457.46344321795885 423.7268800029985 L 456.875 423.75 L 456.28655678204115 423.7268800029985 L 455.7017415121983 423.6576625544635 L 455.1241597710807 423.54277440298256 L 454.5573725421879 423.38292387221367 L 454.0048742572618 423.17909649383466 L 453.4700712519534 422.9325489314128 L 452.9562607646304 422.6448012326557 L 452.46661060780644 422.3176274578121 L 452.0041396375236 421.95304474200026 L 451.5716991411009 421.5533008588991 L 451.17195525799974 421.1208603624764 L 450.8073725421879 420.65838939219356 L 450.4801987673443 420.1687392353696 L 450.1924510685872 419.6549287480466 L 449.94590350616534 419.1201257427382 L 449.74207612778633 418.5676274578121 L 449.58222559701744 418.0008402289193 L 449.4673374455365 417.4232584878017 L 449.3981199970015 416.83844321795885 L 449.375 416.25 L 449.3981199970015 415.66155678204115 L 449.4673374455365 415.0767415121983 L 449.58222559701744 414.4991597710807 L 449.74207612778633 413.9323725421879 L 449.94590350616534 413.3798742572618 L 450.1924510685872 412.8450712519534 L 450.4801987673443 412.3312607646304 L 450.8073725421879 411.84161060780644 L 451.17195525799974 411.3791396375236 L 451.5716991411009 410.9466991411009 L 452.0041396375236 410.5469552579998 L 452.46661060780644 410.1823725421879 L 452.9562607646304 409.8551987673443 L 453.4700712519534 409.5674510685872 L 454.00487425726186 409.32090350616534 L 454.5573725421879 409.11707612778633 L 455.1241597710807 408.95722559701744 L 455.7017415121983 408.8423374455365 L 456.2865567820412 408.7731199970015 L 456.875 408.75 L 457.46344321795885 408.7731199970015 L 458.0482584878018 408.8423374455365 L 458.62584022891934 408.95722559701744 L 459.19262745781214 409.11707612778633 L 459.7451257427382 409.32090350616534 L 460.27992874804664 409.5674510685873 L 460.7937392353697 409.85519876734435 L 461.2833893921936 410.1823725421879 L 461.74586036247644 410.5469552579998 L 462.17830085889915 410.9466991411009 L 462.57804474200026 411.3791396375237 L 462.94262745781214 411.8416106078065 L 463.2698012326557 412.33126076463043 L 463.5575489314128 412.84507125195347 L 463.80409649383466 413.3798742572619 L 464.00792387221367 413.932372542188 L 464.1677744029826 414.49915977108077 L 464.28266255446357 415.07674151219834 L 464.3518800029985 415.66155678204126 Z" fill-opacity="0.9"/><text fill="rgb(19,0,71)" stroke="none" font-family="Assistant-SemiBold, sans-serif" font-size="14px" font-style="normal" font-weight="500" text-decoration="normal" x="468.125" y="423.25" text-anchor="start" dominant-baseline="text-after-edge" fill-opacity="0.9">AI Assurance</text><path fill="rgb(125,197,62)" stroke="none" paint-order="stroke fill markers" d=" M 651.125 416.25 L 651.089549337931 417.1522796008702 L 650.9834159168441 418.04899634796266 L 650.8072540845733 418.9346216843429 L 650.5621499373942 419.8036954353119 L 650.2496146238798 420.65085947219853 L 649.8715750281663 421.4708907470048 L 649.430361890072 422.2587334942334 L 648.9286954353119 423.00953040136346 L 648.3696686044003 423.7186525557971 L 647.7567279836453 424.3817279836453 L 647.0936525557971 424.9946686044004 L 646.3845304013635 425.5536954353119 L 645.6337334942334 426.05536189007205 L 644.8458907470048 426.4965750281662 L 644.0258594721986 426.8746146238798 L 643.1786954353119 427.1871499373943 L 642.3096216843429 427.4322540845733 L 641.4239963479627 427.6084159168441 L 640.5272796008702 427.714549337931 L 639.625 427.75 L 638.7227203991298 427.714549337931 L 637.8260036520373 427.6084159168441 L 636.9403783156571 427.4322540845733 L 636.0713045646881 427.1871499373943 L 635.2241405278015 426.8746146238798 L 634.4041092529952 426.4965750281662 L 633.6162665057666 426.05536189007205 L 632.8654695986365 425.5536954353119 L 632.1563474442029 424.9946686044004 L 631.4932720163547 424.3817279836453 L 630.8803313955997 423.7186525557971 L 630.3213045646881 423.00953040136346 L 629.819638109928 422.2587334942334 L 629.3784249718337 421.4708907470048 L 629.0003853761202 420.65085947219853 L 628.6878500626058 419.8036954353119 L 628.4427459154267 418.9346216843429 L 628.2665840831559 418.04899634796266 L 628.160450662069 417.1522796008702 L 628.125 416.25 L 628.160450662069 415.3477203991298 L 628.2665840831559 414.45100365203734 L 628.4427459154267 413.5653783156571 L 628.6878500626058 412.6963045646881 L 629.0003853761202 411.84914052780147 L 629.3784249718337 411.0291092529952 L 629.819638109928 410.2412665057666 L 630.3213045646881 409.49046959863654 L 630.8803313955997 408.7813474442029 L 631.4932720163547 408.1182720163547 L 632.1563474442029 407.5053313955996 L 632.8654695986365 406.9463045646881 L 633.6162665057666 406.44463810992795 L 634.4041092529952 406.00342497183374 L 635.2241405278015 405.6253853761202 L 636.0713045646881 405.3128500626057 L 636.9403783156571 405.0677459154267 L 637.8260036520373 404.8915840831559 L 638.7227203991298 404.785450662069 L 639.625 404.75 L 640.5272796008703 404.785450662069 L 641.4239963479627 404.8915840831559 L 642.3096216843429 405.0677459154267 L 643.178695435312 405.3128500626058 L 644.0258594721986 405.6253853761202 L 644.8458907470049 406.0034249718338 L 645.6337334942335 406.44463810992795 L 646.3845304013635 406.94630456468815 L 647.0936525557971 407.5053313955997 L 647.7567279836453 408.11827201635475 L 648.3696686044004 408.78134744420294 L 648.928695435312 409.49046959863665 L 649.4303618900722 410.2412665057667 L 649.8715750281663 411.0291092529953 L 650.2496146238799 411.8491405278016 L 650.5621499373943 412.6963045646882 L 650.8072540845733 413.5653783156572 L 650.9834159168441 414.45100365203746 L 651.089549337931 415.3477203991299 Z" fill-opacity="0.9"/><text fill="rgb(19,0,71)" stroke="none" font-family="Assistant-SemiBold, sans-serif" font-size="14px" font-style="normal" font-weight="500" text-decoration="normal" x="654.875" y="423.25" text-anchor="start" dominant-baseline="text-after-edge" fill-opacity="0.9">UX Design</text><path fill="rgb(2,123,252)" stroke="none" paint-order="stroke fill markers" d=" M 833.875 416.25 L 833.839549337931 417.1522796008702 L 833.7334159168441 418.04899634796266 L 833.5572540845733 418.9346216843429 L 833.3121499373942 419.8036954353119 L 832.9996146238798 420.65085947219853 L 832.6215750281663 421.4708907470048 L 832.180361890072 422.2587334942334 L 831.6786954353119 423.00953040136346 L 831.1196686044003 423.7186525557971 L 830.5067279836453 424.3817279836453 L 829.8436525557971 424.9946686044004 L 829.1345304013635 425.5536954353119 L 828.3837334942334 426.05536189007205 L 827.5958907470048 426.4965750281662 L 826.7758594721986 426.8746146238798 L 825.9286954353119 427.1871499373943 L 825.0596216843429 427.4322540845733 L 824.1739963479627 427.6084159168441 L 823.2772796008702 427.714549337931 L 822.375 427.75 L 821.4727203991298 427.714549337931 L 820.5760036520373 427.6084159168441 L 819.6903783156571 427.4322540845733 L 818.8213045646881 427.1871499373943 L 817.9741405278015 426.8746146238798 L 817.1541092529952 426.4965750281662 L 816.3662665057666 426.05536189007205 L 815.6154695986365 425.5536954353119 L 814.9063474442029 424.9946686044004 L 814.2432720163547 424.3817279836453 L 813.6303313955997 423.7186525557971 L 813.0713045646881 423.00953040136346 L 812.569638109928 422.2587334942334 L 812.1284249718337 421.4708907470048 L 811.7503853761202 420.65085947219853 L 811.4378500626058 419.8036954353119 L 811.1927459154267 418.9346216843429 L 811.0165840831559 418.04899634796266 L 810.910450662069 417.1522796008702 L 810.875 416.25 L 810.910450662069 415.3477203991298 L 811.0165840831559 414.45100365203734 L 811.1927459154267 413.5653783156571 L 811.4378500626058 412.6963045646881 L 811.7503853761202 411.84914052780147 L 812.1284249718337 411.0291092529952 L 812.569638109928 410.2412665057666 L 813.0713045646881 409.49046959863654 L 813.6303313955997 408.7813474442029 L 814.2432720163547 408.1182720163547 L 814.9063474442029 407.5053313955996 L 815.6154695986365 406.9463045646881 L 816.3662665057666 406.44463810992795 L 817.1541092529952 406.00342497183374 L 817.9741405278015 405.6253853761202 L 818.8213045646881 405.3128500626057 L 819.6903783156571 405.0677459154267 L 820.5760036520373 404.8915840831559 L 821.4727203991298 404.785450662069 L 822.375 404.75 L 823.2772796008703 404.785450662069 L 824.1739963479627 404.8915840831559 L 825.0596216843429 405.0677459154267 L 825.928695435312 405.3128500626058 L 826.7758594721986 405.6253853761202 L 827.5958907470049 406.0034249718338 L 828.3837334942335 406.44463810992795 L 829.1345304013635 406.94630456468815 L 829.8436525557971 407.5053313955997 L 830.5067279836453 408.11827201635475 L 831.1196686044004 408.78134744420294 L 831.678695435312 409.49046959863665 L 832.1803618900722 410.2412665057667 L 832.6215750281663 411.0291092529953 L 832.9996146238799 411.8491405278016 L 833.3121499373943 412.6963045646882 L 833.5572540845733 413.5653783156572 L 833.7334159168441 414.45100365203746 L 833.839549337931 415.3477203991299 Z" fill-opacity="0.9"/><text fill="rgb(19,0,71)" stroke="none" font-family="Assistant-SemiBold, sans-serif" font-size="14px" font-style="normal" font-weight="500" text-decoration="normal" x="837.625" y="423.25" text-anchor="start" dominant-baseline="text-after-edge" fill-opacity="0.9">Better Data</text><path fill="rgb(19,0,71)" stroke="none" paint-order="stroke fill markers" d=" M 1016.625 416.25 L 1016.589549337931 417.1522796008702 L 1016.4834159168441 418.04899634796266 L 1016.3072540845733 418.9346216843429 L 1016.0621499373942 419.8036954353119 L 1015.7496146238798 420.65085947219853 L 1015.3715750281663 421.4708907470048 L 1014.930361890072 422.2587334942334 L 1014.4286954353119 423.00953040136346 L 1013.8696686044003 423.7186525557971 L 1013.2567279836453 424.3817279836453 L 1012.5936525557971 424.9946686044004 L 1011.8845304013635 425.5536954353119 L 1011.1337334942334 426.05536189007205 L 1010.3458907470048 426.4965750281662 L 1009.5258594721986 426.8746146238798 L 1008.6786954353119 427.1871499373943 L 1007.8096216843429 427.4322540845733 L 1006.9239963479627 427.6084159168441 L 1006.0272796008702 427.714549337931 L 1005.125 427.75 L 1004.2227203991298 427.714549337931 L 1003.3260036520373 427.6084159168441 L 1002.4403783156571 427.4322540845733 L 1001.5713045646881 427.1871499373943 L 1000.7241405278015 426.8746146238798 L 999.9041092529952 426.4965750281662 L 999.1162665057666 426.05536189007205 L 998.3654695986365 425.5536954353119 L 997.6563474442029 424.9946686044004 L 996.9932720163547 424.3817279836453 L 996.3803313955997 423.7186525557971 L 995.8213045646881 423.00953040136346 L 995.319638109928 422.2587334942334 L 994.8784249718337 421.4708907470048 L 994.5003853761202 420.65085947219853 L 994.1878500626058 419.8036954353119 L 993.9427459154267 418.9346216843429 L 993.7665840831559 418.04899634796266 L 993.660450662069 417.1522796008702 L 993.625 416.25 L 993.660450662069 415.3477203991298 L 993.7665840831559 414.45100365203734 L 993.9427459154267 413.5653783156571 L 994.1878500626058 412.6963045646881 L 994.5003853761202 411.84914052780147 L 994.8784249718337 411.0291092529952 L 995.319638109928 410.2412665057666 L 995.8213045646881 409.49046959863654 L 996.3803313955997 408.7813474442029 L 996.9932720163547 408.1182720163547 L 997.6563474442029 407.5053313955996 L 998.3654695986365 406.9463045646881 L 999.1162665057666 406.44463810992795 L 999.9041092529952 406.00342497183374 L 1000.7241405278015 405.6253853761202 L 1001.5713045646881 405.3128500626057 L 1002.4403783156571 405.0677459154267 L 1003.3260036520373 404.8915840831559 L 1004.2227203991298 404.785450662069 L 1005.125 404.75 L 1006.0272796008703 404.785450662069 L 1006.9239963479627 404.8915840831559 L 1007.8096216843429 405.0677459154267 L 1008.678695435312 405.3128500626058 L 1009.5258594721986 405.6253853761202 L 1010.3458907470049 406.0034249718338 L 1011.1337334942335 406.44463810992795 L 1011.8845304013635 406.94630456468815 L 1012.5936525557971 407.5053313955997 L 1013.2567279836453 408.11827201635475 L 1013.8696686044004 408.78134744420294 L 1014.428695435312 409.49046959863665 L 1014.9303618900722 410.2412665057667 L 1015.3715750281663 411.0291092529953 L 1015.7496146238799 411.8491405278016 L 1016.0621499373943 412.6963045646882 L 1016.3072540845733 413.5653783156572 L 1016.4834159168441 414.45100365203746 L 1016.589549337931 415.3477203991299 Z" fill-opacity="0.9"/><text fill="rgb(19,0,71)" stroke="none" font-family="Assistant-SemiBold, sans-serif" font-size="14px" font-style="normal" font-weight="500" text-decoration="normal" x="1020.375" y="423.25" text-anchor="start" dominant-baseline="text-after-edge" fill-opacity="0.9">Better Models</text><path fill="rgb(251,211,0)" stroke="none" paint-order="stroke fill markers" d=" M 102.875 582.75 L 102.83954933793098 583.6522796008702 L 102.73341591684408 584.5489963479627 L 102.55725408457329 585.4346216843429 L 102.31214993739427 586.3036954353119 L 101.9996146238798 587.1508594721985 L 101.62157502816623 587.9708907470048 L 101.18036189007206 588.7587334942334 L 100.6786954353119 589.5095304013635 L 100.11966860440036 590.2186525557971 L 99.50672798364529 590.8817279836453 L 98.8436525557971 591.4946686044003 L 98.13453040136343 592.0536954353119 L 97.38373349423341 592.555361890072 L 96.59589074700479 592.9965750281663 L 95.77585947219853 593.3746146238798 L 94.9286954353119 593.6871499373942 L 94.05962168434291 593.9322540845733 L 93.17399634796266 594.1084159168441 L 92.27727960087022 594.214549337931 L 91.375 594.25 L 90.47272039912978 594.214549337931 L 89.57600365203734 594.1084159168441 L 88.69037831565709 593.9322540845733 L 87.8213045646881 593.6871499373942 L 86.97414052780147 593.3746146238798 L 86.15410925299521 592.9965750281663 L 85.36626650576659 592.555361890072 L 84.61546959863657 592.0536954353119 L 83.9063474442029 591.4946686044003 L 83.24327201635471 590.8817279836453 L 82.63033139559964 590.2186525557971 L 82.0713045646881 589.5095304013635 L 81.56963810992794 588.7587334942334 L 81.12842497183377 587.9708907470048 L 80.7503853761202 587.1508594721986 L 80.43785006260573 586.3036954353119 L 80.19274591542671 585.4346216843429 L 80.01658408315592 584.5489963479627 L 79.91045066206902 583.6522796008702 L 79.875 582.75 L 79.91045066206902 581.8477203991298 L 80.01658408315592 580.9510036520373 L 80.19274591542671 580.0653783156571 L 80.43785006260573 579.1963045646881 L 80.7503853761202 578.3491405278015 L 81.12842497183377 577.5291092529952 L 81.56963810992794 576.7412665057666 L 82.0713045646881 575.9904695986365 L 82.63033139559964 575.2813474442029 L 83.2432720163547 574.6182720163547 L 83.90634744420288 574.0053313955997 L 84.61546959863655 573.4463045646881 L 85.36626650576659 572.944638109928 L 86.15410925299523 572.5034249718337 L 86.97414052780148 572.1253853761202 L 87.82130456468812 571.8128500626058 L 88.69037831565711 571.5677459154267 L 89.57600365203737 571.3915840831559 L 90.47272039912981 571.285450662069 L 91.37500000000004 571.25 L 92.27727960087026 571.285450662069 L 93.1739963479627 571.391584083156 L 94.05962168434297 571.5677459154267 L 94.92869543531195 571.8128500626058 L 95.77585947219859 572.1253853761202 L 96.59589074700484 572.5034249718339 L 97.38373349423347 572.944638109928 L 98.1345304013635 573.4463045646881 L 98.84365255579718 574.0053313955997 L 99.50672798364536 574.6182720163548 L 100.11966860440042 575.281347444203 L 100.67869543531195 575.9904695986367 L 101.18036189007212 576.7412665057667 L 101.62157502816628 577.5291092529953 L 101.99961462387984 578.3491405278015 L 102.31214993739431 579.1963045646883 L 102.55725408457332 580.0653783156572 L 102.73341591684411 580.9510036520375 L 102.83954933793098 581.8477203991299 Z" fill-opacity="0.9"/><text fill="rgb(19,0,71)" stroke="none" font-family="Assistant-SemiBold, sans-serif" font-size="14px" font-style="normal" font-weight="500" text-decoration="normal" x="106.625" y="589.75" text-anchor="start" dominant-baseline="text-after-edge" fill-opacity="0.9">Edge AI</text><path fill="rgb(247,80,64)" stroke="none" paint-order="stroke fill markers" d=" M 285.625 582.75 L 285.589549337931 583.6522796008702 L 285.4834159168441 584.5489963479627 L 285.3072540845733 585.4346216843429 L 285.0621499373943 586.3036954353119 L 284.7496146238798 587.1508594721985 L 284.3715750281662 587.9708907470048 L 283.93036189007205 588.7587334942334 L 283.4286954353119 589.5095304013635 L 282.8696686044004 590.2186525557971 L 282.2567279836453 590.8817279836453 L 281.5936525557971 591.4946686044003 L 280.88453040136346 592.0536954353119 L 280.1337334942334 592.555361890072 L 279.3458907470048 592.9965750281663 L 278.52585947219853 593.3746146238798 L 277.6786954353119 593.6871499373942 L 276.8096216843429 593.9322540845733 L 275.92399634796266 594.1084159168441 L 275.0272796008702 594.214549337931 L 274.125 594.25 L 273.2227203991298 594.214549337931 L 272.32600365203734 594.1084159168441 L 271.4403783156571 593.9322540845733 L 270.5713045646881 593.6871499373942 L 269.72414052780147 593.3746146238798 L 268.9041092529952 592.9965750281663 L 268.1162665057666 592.555361890072 L 267.36546959863654 592.0536954353119 L 266.6563474442029 591.4946686044003 L 265.9932720163547 590.8817279836453 L 265.3803313955996 590.2186525557971 L 264.8213045646881 589.5095304013635 L 264.31963810992795 588.7587334942334 L 263.8784249718338 587.9708907470048 L 263.5003853761202 587.1508594721986 L 263.1878500626057 586.3036954353119 L 262.9427459154267 585.4346216843429 L 262.7665840831559 584.5489963479627 L 262.660450662069 583.6522796008702 L 262.625 582.75 L 262.660450662069 581.8477203991298 L 262.7665840831559 580.9510036520373 L 262.9427459154267 580.0653783156571 L 263.1878500626057 579.1963045646881 L 263.5003853761202 578.3491405278015 L 263.8784249718338 577.5291092529952 L 264.31963810992795 576.7412665057666 L 264.8213045646881 575.9904695986365 L 265.3803313955996 575.2813474442029 L 265.9932720163547 574.6182720163547 L 266.6563474442029 574.0053313955997 L 267.36546959863654 573.4463045646881 L 268.1162665057666 572.944638109928 L 268.9041092529952 572.5034249718337 L 269.72414052780147 572.1253853761202 L 270.57130456468815 571.8128500626058 L 271.4403783156571 571.5677459154267 L 272.3260036520374 571.3915840831559 L 273.2227203991298 571.285450662069 L 274.12500000000006 571.25 L 275.02727960087026 571.285450662069 L 275.9239963479627 571.391584083156 L 276.80962168434297 571.5677459154267 L 277.67869543531197 571.8128500626058 L 278.5258594721986 572.1253853761202 L 279.34589074700483 572.5034249718339 L 280.13373349423347 572.944638109928 L 280.8845304013635 573.4463045646881 L 281.5936525557972 574.0053313955997 L 282.25672798364536 574.6182720163548 L 282.86966860440043 575.281347444203 L 283.42869543531197 575.9904695986367 L 283.9303618900721 576.7412665057667 L 284.37157502816626 577.5291092529953 L 284.74961462387984 578.3491405278015 L 285.0621499373943 579.1963045646883 L 285.3072540845733 580.0653783156572 L 285.4834159168441 580.9510036520375 L 285.589549337931 581.8477203991299 Z" fill-opacity="0.9"/><text fill="rgb(19,0,71)" stroke="none" font-family="Assistant-SemiBold, sans-serif" font-size="14px" font-style="normal" font-weight="500" text-decoration="normal" x="289.375" y="589.75" text-anchor="start" dominant-baseline="text-after-edge" fill-opacity="0.9">Misinformation</text><path fill="rgb(0,172,241)" stroke="none" paint-order="stroke fill markers" d=" M 468.375 582.75 L 468.339549337931 583.6522796008702 L 468.2334159168441 584.5489963479627 L 468.0572540845733 585.4346216843429 L 467.8121499373943 586.3036954353119 L 467.4996146238798 587.1508594721985 L 467.1215750281662 587.9708907470048 L 466.68036189007205 588.7587334942334 L 466.1786954353119 589.5095304013635 L 465.6196686044004 590.2186525557971 L 465.0067279836453 590.8817279836453 L 464.3436525557971 591.4946686044003 L 463.63453040136346 592.0536954353119 L 462.8837334942334 592.555361890072 L 462.0958907470048 592.9965750281663 L 461.27585947219853 593.3746146238798 L 460.4286954353119 593.6871499373942 L 459.5596216843429 593.9322540845733 L 458.67399634796266 594.1084159168441 L 457.7772796008702 594.214549337931 L 456.875 594.25 L 455.9727203991298 594.214549337931 L 455.07600365203734 594.1084159168441 L 454.1903783156571 593.9322540845733 L 453.3213045646881 593.6871499373942 L 452.47414052780147 593.3746146238798 L 451.6541092529952 592.9965750281663 L 450.8662665057666 592.555361890072 L 450.11546959863654 592.0536954353119 L 449.4063474442029 591.4946686044003 L 448.7432720163547 590.8817279836453 L 448.1303313955996 590.2186525557971 L 447.5713045646881 589.5095304013635 L 447.06963810992795 588.7587334942334 L 446.6284249718338 587.9708907470048 L 446.2503853761202 587.1508594721986 L 445.9378500626057 586.3036954353119 L 445.6927459154267 585.4346216843429 L 445.5165840831559 584.5489963479627 L 445.410450662069 583.6522796008702 L 445.375 582.75 L 445.410450662069 581.8477203991298 L 445.5165840831559 580.9510036520373 L 445.6927459154267 580.0653783156571 L 445.9378500626057 579.1963045646881 L 446.2503853761202 578.3491405278015 L 446.6284249718338 577.5291092529952 L 447.06963810992795 576.7412665057666 L 447.5713045646881 575.9904695986365 L 448.1303313955996 575.2813474442029 L 448.7432720163547 574.6182720163547 L 449.4063474442029 574.0053313955997 L 450.11546959863654 573.4463045646881 L 450.8662665057666 572.944638109928 L 451.6541092529952 572.5034249718337 L 452.47414052780147 572.1253853761202 L 453.32130456468815 571.8128500626058 L 454.1903783156571 571.5677459154267 L 455.0760036520374 571.3915840831559 L 455.9727203991298 571.285450662069 L 456.87500000000006 571.25 L 457.77727960087026 571.285450662069 L 458.6739963479627 571.391584083156 L 459.55962168434297 571.5677459154267 L 460.42869543531197 571.8128500626058 L 461.2758594721986 572.1253853761202 L 462.09589074700483 572.5034249718339 L 462.88373349423347 572.944638109928 L 463.6345304013635 573.4463045646881 L 464.3436525557972 574.0053313955997 L 465.00672798364536 574.6182720163548 L 465.61966860440043 575.281347444203 L 466.17869543531197 575.9904695986367 L 466.6803618900721 576.7412665057667 L 467.12157502816626 577.5291092529953 L 467.49961462387984 578.3491405278015 L 467.8121499373943 579.1963045646883 L 468.0572540845733 580.0653783156572 L 468.2334159168441 580.9510036520375 L 468.339549337931 581.8477203991299 Z" fill-opacity="0.9"/><text fill="rgb(19,0,71)" stroke="none" font-family="Assistant-SemiBold, sans-serif" font-size="14px" font-style="normal" font-weight="500" text-decoration="normal" x="472.125" y="589.75" text-anchor="start" dominant-baseline="text-after-edge" fill-opacity="0.9">Cyber</text><g transform="scale(0.5570597165991903,0.5570597165991903) translate(103.19146036793109,-86.1698841698842)"/></g></svg>