<svg version="1.1" xmlns="http://www.w3.org/2000/svg" xmlns:xlink="http://www.w3.org/1999/xlink" width="2016" height="1332"><defs/><g transform="translate(505.5141532255592,-5.711177948992599) scale(2.235754604260228,2.235754604260228)"><path fill="none" stroke="rgb(125,197,62)" paint-order="fill stroke markers" d=" M 59.66487959248647 249.2398586528924 Q 143.98820266233477 343.5557613192558 270.27972277435913 354.83294280883683" stroke-opacity="0.666" stroke-linejoin="round" stroke-miterlimit="10" stroke-width="2.5"/><path fill="none" stroke="rgb(0,172,241)" paint-order="fill stroke markers" d=" M 87.44605607447016 426.61256475770415 Q 195.1541995671978 437.08187259510237 272.4140483313968 360.7704482616843" stroke-opacity="0.666" stroke-linejoin="round" stroke-miterlimit="10" stroke-width="2.5"/><path fill="none" stroke="rgb(125,197,62)" paint-order="fill stroke markers" d=" M 63.464623894304935 239.7653348952679 Q 188.5218485568166 229.93352088458175 272.72692015696896 136.56944105641824" stroke-opacity="0.666" stroke-linejoin="round" stroke-miterlimit="10" stroke-width="2.5"/><path fill="none" stroke="rgb(19,0,71)" paint-order="fill stroke markers" d=" M 38.86670812731346 94.85983985874732 Q 147.01346121218796 159.6101589583155 270.42338444107213 132.60334383052432" stroke-opacity="0.666" stroke-linejoin="round" stroke-miterlimit="10" stroke-width="2.5"/><path fill="none" stroke="rgb(125,197,62)" paint-order="fill stroke markers" d=" M 62.40160139272757 245.57142848216887 Q 165.3613034172348 294.12095426753143 270.82238657349285 250.37370472031563" stroke-opacity="0.666" stroke-linejoin="round" stroke-miterlimit="10" stroke-width="2.5"/><path fill="none" stroke="rgb(2,123,252)" paint-order="fill stroke markers" d=" M 55.192709879868914 288.3073570205486 Q 170.90615532726892 315.6075713999976 271.42565121085397 251.5314536366671" stroke-opacity="0.666" stroke-linejoin="round" stroke-miterlimit="10" stroke-width="2.5"/><path fill="none" stroke="rgb(2,123,252)" paint-order="fill stroke markers" d=" M 55.48759556400701 286.200659323739 Q 179.07654625683492 291.9456032328043 272.12284424538484 209.95833878227126" stroke-opacity="0.666" stroke-linejoin="round" stroke-miterlimit="10" stroke-width="2.5"/><path fill="none" stroke="rgb(247,80,64)" paint-order="fill stroke markers" d=" M 30.58811381608112 200.15463344659184 Q 149.06433573928055 250.37295915015522 270.67678729060975 207.4939263648435" stroke-opacity="0.666" stroke-linejoin="round" stroke-miterlimit="10" stroke-width="2.5"/><path fill="none" stroke="rgb(19,0,71)" paint-order="fill stroke markers" d=" M 40.153084692239474 91.75571857880664 Q 161.72895136098532 122.31391937279471 271.21443694273376 60.67918764910069" stroke-opacity="0.666" stroke-linejoin="round" stroke-miterlimit="10" stroke-width="2.5"/><path fill="none" stroke="rgb(247,80,64)" paint-order="fill stroke markers" d=" M 31.337179851244258 193.73836352127142 Q 174.3251489642269 169.418016291005 272.67206821427203 62.519475846689275" stroke-opacity="0.666" stroke-linejoin="round" stroke-miterlimit="10" stroke-width="2.5"/><path fill="none" stroke="rgb(2,123,252)" paint-order="fill stroke markers" d=" M 55.434988479033194 284.44558579941054 Q 185.14303123554515 270.59476210775415 272.72462407886826 173.5673693647791" stroke-opacity="0.666" stroke-linejoin="round" stroke-miterlimit="10" stroke-width="2.5"/><path fill="none" stroke="rgb(19,0,71)" paint-order="fill stroke markers" d=" M 38.02454900319705 96.08032001559518 Q 140.13830518614648 176.7337278845234 270.26505901479356 168.47504272036537" stroke-opacity="0.666" stroke-linejoin="round" stroke-miterlimit="10" stroke-width="2.5"/><path fill="none" stroke="rgb(251,211,0)" paint-order="fill stroke markers" d=" M 74.37624028997985 479.3227591593831 Q 150.9483175132503 570.9110167426306 270.2730753886496 580.2930701761416" stroke-opacity="0.666" stroke-linejoin="round" stroke-miterlimit="10" stroke-width="2.5"/><path fill="none" stroke="rgb(0,172,241)" paint-order="fill stroke markers" d=" M 83.95078192177122 433.80873437007324 Q 160.02541023823252 513.3083213544335 270.2611525765394 507.2898183859582" stroke-opacity="0.666" stroke-linejoin="round" stroke-miterlimit="10" stroke-width="2.5"/><path fill="none" stroke="rgb(251,211,0)" paint-order="fill stroke markers" d=" M 76.48323101126805 477.0052539986479 Q 165.84034516936188 538.3019495546123 270.5292169110976 508.9083394849106" stroke-opacity="0.666" stroke-linejoin="round" stroke-miterlimit="10" stroke-width="2.5"/><path fill="none" stroke="rgb(247,80,64)" paint-order="fill stroke markers" d=" M 31.014295859167987 192.35981216023387 Q 178.68663449373173 148.02371072142026 273.1602003158213 25.931588592973" stroke-opacity="0.666" stroke-linejoin="round" stroke-miterlimit="10" stroke-width="2.5"/><path fill="none" stroke="rgb(19,0,71)" paint-order="fill stroke markers" d=" M 40.44918451778861 90.03227626102438 Q 168.6584697942437 102.12506815196281 271.7580877514327 24.510764161403443" stroke-opacity="0.666" stroke-linejoin="round" stroke-miterlimit="10" stroke-width="2.5"/><path fill="none" stroke="rgb(251,211,0)" paint-order="fill stroke markers" d=" M 77.43935551551122 475.3238839559805 Q 174.52185826285222 520.1843858053035 271.00790471234023 473.16639870708207" stroke-opacity="0.666" stroke-linejoin="round" stroke-miterlimit="10" stroke-width="2.5"/><path fill="none" stroke="rgb(0,172,241)" paint-order="fill stroke markers" d=" M 85.08567122591917 432.5498637131866 Q 168.08614223617525 496.95259128309186 270.4685832056417 471.6784440807767" stroke-opacity="0.666" stroke-linejoin="round" stroke-miterlimit="10" stroke-width="2.5"/><path fill="none" stroke="rgb(251,211,0)" paint-order="fill stroke markers" d=" M 75.4163730952075 478.3367508523793 Q 157.82243860397716 555.0676415593051 270.28241657960996 544.5775189471597" stroke-opacity="0.666" stroke-linejoin="round" stroke-miterlimit="10" stroke-width="2.5"/><path fill="none" stroke="rgb(0,172,241)" paint-order="fill stroke markers" d=" M 86.24178887473674 430.7302734771061 Q 177.88347566901524 477.529820870598 270.9910575293286 432.7506465701433" stroke-opacity="0.666" stroke-linejoin="round" stroke-miterlimit="10" stroke-width="2.5"/><path fill="none" stroke="rgb(251,211,0)" paint-order="fill stroke markers" d=" M 78.48086432492666 471.1631397685458 Q 191.6055056986049 477.69726876565437 272.41746202330614 397.77390214287504" stroke-opacity="0.666" stroke-linejoin="round" stroke-miterlimit="10" stroke-width="2.5"/><path fill="none" stroke="rgb(2,123,252)" paint-order="fill stroke markers" d=" M 52.05676534155228 293.872672530128 Q 141.90986218970195 385.39017469483935 270.260251361036 392.10798919923315" stroke-opacity="0.666" stroke-linejoin="round" stroke-miterlimit="10" stroke-width="2.5"/><path fill="none" stroke="rgb(125,197,62)" paint-order="fill stroke markers" d=" M 63.209409940011426 238.09778971422742 Q 193.792295976617 208.17191778005346 273.3068044541973 100.04218648993226" stroke-opacity="0.666" stroke-linejoin="round" stroke-miterlimit="10" stroke-width="2.5"/><path fill="none" stroke="rgb(19,0,71)" paint-order="fill stroke markers" d=" M 39.60572750638633 93.39856404131027 Q 154.3602001526526 141.50647510649648 270.75083649929536 96.69475731102565" stroke-opacity="0.666" stroke-linejoin="round" stroke-miterlimit="10" stroke-width="2.5"/><path fill="none" stroke="rgb(125,197,62)" paint-order="fill stroke markers" d=" M 61.41462362252119 247.27082157447026 Q 152.39961219551594 311.09482377710816 260.6310505952768 288.13202252256644" stroke-opacity="0.666" stroke-linejoin="round" stroke-miterlimit="10" stroke-width="4.5"/><path fill="none" stroke="rgb(2,123,252)" paint-order="fill stroke markers" d=" M 54.55266445757823 290.2373638613806 Q 158.12458838676284 335.09768364671106 261.63244091746174 291.31720650939894" stroke-opacity="0.666" stroke-linejoin="round" stroke-miterlimit="10" stroke-width="4.5"/><path fill="none" stroke="rgb(19,0,71)" paint-order="fill stroke markers" d=" M 35.42602436254697 98.48947751747629 Q 120.11554745289482 224.1802801344134 261.4057436240929 278.24577749790456" stroke-opacity="0.666" stroke-linejoin="round" stroke-miterlimit="10" stroke-width="4.5"/><path fill="none" stroke="rgb(251,211,0)" paint-order="fill stroke markers" d=" M 77.7032323501597 466.2939546770754 Q 203.21121384477252 416.97312884755416 269.16844694390494 299.75145748213697" stroke-opacity="0.666" stroke-linejoin="round" stroke-miterlimit="10" stroke-width="4.5"/><path fill="none" stroke="rgb(247,80,64)" paint-order="fill stroke markers" d=" M 28.864074757683255 202.99320600595928 Q 129.7467270286021 286.37706057853103 260.25140676781507 284.72192697558114" stroke-opacity="0.666" stroke-linejoin="round" stroke-miterlimit="10" stroke-width="4.5"/><path fill="none" stroke="rgb(0,172,241)" paint-order="fill stroke markers" d=" M 87.23426970137527 423.04211792863 Q 203.05845038154635 397.7016031740244 268.1121942317992 299.10694044506795" stroke-opacity="0.666" stroke-linejoin="round" stroke-miterlimit="10" stroke-width="4.5"/><path fill="rgb(168,174,188)" stroke="none" paint-order="stroke fill markers" d=" M 295.24999952316284 284.5 L 295.1960528634926 285.8730341752373 L 295.03454548357774 287.23760313820407 L 294.76647313012217 288.58529386747836 L 294.39348855832804 289.9077974015616 L 293.91789134211035 291.19696006638907 L 293.3426136964593 292.44483374544205 L 292.67120239935946 293.6437248825291 L 291.90779692472444 294.7862419151183 L 291.0571039211634 295.86534084577823 L 290.1243681939274 296.87436867076457 L 289.1153403689411 297.80710439800055 L 288.03624143828114 298.6577974015616 L 286.89372440569196 299.4212028761966 L 285.6948332686049 300.09261417329645 L 284.4469595895519 300.6678918189475 L 283.15779692472444 301.1434890351652 L 281.8352933906412 301.5164736069593 L 280.4876026613669 301.7845459604149 L 279.12303369840015 301.94605334032974 L 277.74999952316284 302 L 276.37696534792553 301.94605334032974 L 275.0123963849588 301.7845459604149 L 273.6647056556845 301.5164736069593 L 272.34220212160125 301.1434890351652 L 271.0530394567738 300.6678918189475 L 269.8051657777208 300.09261417329645 L 268.6062746406337 299.4212028761966 L 267.46375760804455 298.6577974015616 L 266.3846586773846 297.80710439800055 L 265.3756308523983 296.87436867076457 L 264.4428951251623 295.86534084577823 L 263.59220212160125 294.7862419151183 L 262.8287966469662 293.6437248825291 L 262.1573853498664 292.44483374544205 L 261.58210770421533 291.19696006638907 L 261.10651048799764 289.9077974015616 L 260.7335259162035 288.58529386747836 L 260.46545356274794 287.23760313820407 L 260.3039461828331 285.8730341752373 L 260.24999952316284 284.5 L 260.3039461828331 283.1269658247627 L 260.46545356274794 281.76239686179593 L 260.7335259162035 280.41470613252164 L 261.10651048799764 279.0922025984384 L 261.58210770421533 277.80303993361093 L 262.1573853498664 276.55516625455795 L 262.8287966469662 275.3562751174709 L 263.59220212160125 274.2137580848817 L 264.4428951251623 273.13465915422177 L 265.3756308523983 272.12563132923543 L 266.3846586773846 271.19289560199945 L 267.46375760804455 270.3422025984384 L 268.6062746406337 269.5787971238034 L 269.8051657777208 268.90738582670355 L 271.0530394567738 268.3321081810525 L 272.3422021216013 267.8565109648348 L 273.66470565568454 267.4835263930407 L 275.01239638495883 267.2154540395851 L 276.3769653479256 267.05394665967026 L 277.7499995231629 267 L 279.1230336984002 267.05394665967026 L 280.48760266136696 267.2154540395851 L 281.83529339064125 267.4835263930407 L 283.1577969247245 267.85651096483485 L 284.446959589552 268.3321081810525 L 285.694833268605 268.9073858267036 L 286.89372440569207 269.57879712380344 L 288.0362414382812 270.3422025984385 L 289.11534036894113 271.19289560199957 L 290.1243681939275 272.1256313292355 L 291.0571039211635 273.1346591542219 L 291.9077969247245 274.2137580848818 L 292.6712023993595 275.35627511747106 L 293.34261369645935 276.55516625455806 L 293.9178913421104 277.8030399336111 L 294.3934885583281 279.0922025984386 L 294.7664731301222 280.4147061325218 L 295.0345454835778 281.76239686179616 L 295.1960528634926 283.1269658247629 Z" fill-opacity="0.9"/><text fill="rgb(19,0,71)" stroke="none" font-family="Assistant-SemiBold, sans-serif" font-size="14px" font-style="normal" font-weight="500" text-decoration="normal" x="255.99999952316284" y="267" text-anchor="start" dominant-baseline="text-after-edge" fill-opacity="0.9">IQT Labs</text><path fill="rgb(125,197,62)" stroke="none" paint-order="stroke fill markers" d=" M 285.24999952316284 355.5 L 285.2268795261613 356.08844321795885 L 285.15766207762636 356.6732584878017 L 285.0427739261454 357.2508402289193 L 284.8829233953765 357.8176274578121 L 284.6790960169975 358.3701257427382 L 284.4325484545756 358.9049287480466 L 284.14480075581855 359.4187392353696 L 283.8176269809749 359.90838939219356 L 283.4530442651631 360.3708603624764 L 283.05330038206193 360.8033008588991 L 282.6208598856392 361.20304474200026 L 282.1583889153564 361.5676274578121 L 281.66873875853247 361.8948012326557 L 281.1549282712094 362.1825489314128 L 280.62012526590104 362.42909649383466 L 280.0676269809749 362.63292387221367 L 279.50083975208213 362.79277440298256 L 278.92325801096456 362.9076625544635 L 278.3384427411217 362.9768800029985 L 277.74999952316284 363 L 277.161556305204 362.9768800029985 L 276.5767410353611 362.9076625544635 L 275.99915929424355 362.79277440298256 L 275.43237206535076 362.63292387221367 L 274.87987378042465 362.42909649383466 L 274.34507077511626 362.1825489314128 L 273.8312602877932 361.8948012326557 L 273.3416101309693 361.5676274578121 L 272.87913916068646 361.20304474200026 L 272.44669866426375 360.8033008588991 L 272.0469547811626 360.3708603624764 L 271.68237206535076 359.90838939219356 L 271.35519829050713 359.4187392353696 L 271.06745059175006 358.9049287480466 L 270.8209030293282 358.3701257427382 L 270.6170756509492 357.8176274578121 L 270.4572251201803 357.2508402289193 L 270.3423369686993 356.6732584878017 L 270.27311952016436 356.08844321795885 L 270.24999952316284 355.5 L 270.27311952016436 354.91155678204115 L 270.3423369686993 354.3267415121983 L 270.4572251201803 353.7491597710807 L 270.6170756509492 353.1823725421879 L 270.8209030293282 352.6298742572618 L 271.06745059175006 352.0950712519534 L 271.35519829050713 351.5812607646304 L 271.68237206535076 351.09161060780644 L 272.0469547811626 350.6291396375236 L 272.44669866426375 350.1966991411009 L 272.87913916068646 349.7969552579998 L 273.3416101309693 349.4323725421879 L 273.8312602877932 349.1051987673443 L 274.34507077511626 348.8174510685872 L 274.8798737804247 348.57090350616534 L 275.43237206535076 348.36707612778633 L 275.99915929424355 348.20722559701744 L 276.5767410353611 348.0923374455365 L 277.16155630520404 348.0231199970015 L 277.74999952316284 348 L 278.3384427411217 348.0231199970015 L 278.9232580109646 348.0923374455365 L 279.5008397520822 348.20722559701744 L 280.067626980975 348.36707612778633 L 280.62012526590104 348.57090350616534 L 281.1549282712095 348.8174510685873 L 281.6687387585325 349.10519876734435 L 282.15838891535645 349.4323725421879 L 282.6208598856393 349.7969552579998 L 283.053300382062 350.1966991411009 L 283.4530442651631 350.6291396375237 L 283.817626980975 351.0916106078065 L 284.14480075581855 351.58126076463043 L 284.4325484545756 352.09507125195347 L 284.6790960169975 352.6298742572619 L 284.8829233953765 353.182372542188 L 285.04277392614546 353.74915977108077 L 285.1576620776264 354.32674151219834 L 285.2268795261613 354.91155678204126 Z" fill-opacity="0.9"/><text fill="rgb(19,0,71)" stroke="none" font-family="Assistant-SemiBold, sans-serif" font-size="14px" font-style="normal" font-weight="500" text-decoration="normal" x="288.99999952316284" y="362.5" text-anchor="start" dominant-baseline="text-after-edge" fill-opacity="0.9">PCAPviz</text><path fill="rgb(125,197,62)" stroke="none" paint-order="stroke fill markers" d=" M 285.24999952316284 131 L 285.2268795261613 131.58844321795883 L 285.15766207762636 132.17325848780172 L 285.0427739261454 132.7508402289193 L 284.8829233953765 133.3176274578121 L 284.6790960169975 133.87012574273817 L 284.4325484545756 134.4049287480466 L 284.14480075581855 134.91873923536963 L 283.8176269809749 135.40838939219356 L 283.4530442651631 135.87086036247638 L 283.05330038206193 136.3033008588991 L 282.6208598856392 136.70304474200023 L 282.1583889153564 137.0676274578121 L 281.66873875853247 137.39480123265568 L 281.1549282712094 137.68254893141275 L 280.62012526590104 137.92909649383466 L 280.0676269809749 138.13292387221364 L 279.50083975208213 138.2927744029826 L 278.92325801096456 138.40766255446354 L 278.3384427411217 138.47688000299846 L 277.74999952316284 138.5 L 277.161556305204 138.47688000299846 L 276.5767410353611 138.40766255446354 L 275.99915929424355 138.2927744029826 L 275.43237206535076 138.13292387221367 L 274.87987378042465 137.92909649383466 L 274.34507077511626 137.68254893141275 L 273.8312602877932 137.39480123265568 L 273.3416101309693 137.0676274578121 L 272.87913916068646 136.70304474200023 L 272.44669866426375 136.3033008588991 L 272.0469547811626 135.87086036247638 L 271.68237206535076 135.40838939219356 L 271.35519829050713 134.91873923536963 L 271.06745059175006 134.40492874804661 L 270.8209030293282 133.87012574273817 L 270.6170756509492 133.3176274578121 L 270.4572251201803 132.7508402289193 L 270.3423369686993 132.17325848780175 L 270.27311952016436 131.58844321795883 L 270.24999952316284 131 L 270.27311952016436 130.41155678204117 L 270.3423369686993 129.82674151219828 L 270.4572251201803 129.2491597710807 L 270.6170756509492 128.6823725421879 L 270.8209030293282 128.12987425726183 L 271.06745059175006 127.5950712519534 L 271.35519829050713 127.08126076463039 L 271.68237206535076 126.59161060780646 L 272.0469547811626 126.12913963752362 L 272.44669866426375 125.6966991411009 L 272.87913916068646 125.29695525799977 L 273.3416101309693 124.93237254218789 L 273.8312602877932 124.6051987673443 L 274.34507077511626 124.31745106858723 L 274.8798737804247 124.07090350616535 L 275.43237206535076 123.86707612778635 L 275.99915929424355 123.70722559701743 L 276.5767410353611 123.59233744553646 L 277.16155630520404 123.52311999700154 L 277.74999952316284 123.5 L 278.3384427411217 123.52311999700154 L 278.9232580109646 123.59233744553647 L 279.5008397520822 123.70722559701743 L 280.067626980975 123.86707612778636 L 280.62012526590104 124.07090350616537 L 281.1549282712095 124.31745106858726 L 281.6687387585325 124.60519876734433 L 282.15838891535645 124.93237254218792 L 282.6208598856393 125.2969552579998 L 283.053300382062 125.69669914110094 L 283.4530442651631 126.12913963752366 L 283.817626980975 126.5916106078065 L 284.14480075581855 127.08126076463044 L 284.4325484545756 127.59507125195346 L 284.6790960169975 128.1298742572619 L 284.8829233953765 128.68237254218798 L 285.04277392614546 129.2491597710808 L 285.1576620776264 129.82674151219834 L 285.2268795261613 130.41155678204126 Z" fill-opacity="0.9"/><text fill="rgb(19,0,71)" stroke="none" font-family="Assistant-SemiBold, sans-serif" font-size="14px" font-style="normal" font-weight="500" text-decoration="normal" x="288.99999952316284" y="138" text-anchor="start" dominant-baseline="text-after-edge" fill-opacity="0.9">VeriCAT</text><path fill="rgb(125,197,62)" stroke="none" paint-order="stroke fill markers" d=" M 285.24999952316284 247.5 L 285.2268795261613 248.08844321795883 L 285.15766207762636 248.67325848780172 L 285.0427739261454 249.2508402289193 L 284.8829233953765 249.8176274578121 L 284.6790960169975 250.37012574273817 L 284.4325484545756 250.9049287480466 L 284.14480075581855 251.41873923536963 L 283.8176269809749 251.90838939219356 L 283.4530442651631 252.37086036247638 L 283.05330038206193 252.8033008588991 L 282.6208598856392 253.20304474200023 L 282.1583889153564 253.5676274578121 L 281.66873875853247 253.89480123265568 L 281.1549282712094 254.18254893141275 L 280.62012526590104 254.42909649383466 L 280.0676269809749 254.63292387221364 L 279.50083975208213 254.7927744029826 L 278.92325801096456 254.90766255446354 L 278.3384427411217 254.97688000299846 L 277.74999952316284 255 L 277.161556305204 254.97688000299846 L 276.5767410353611 254.90766255446354 L 275.99915929424355 254.7927744029826 L 275.43237206535076 254.63292387221367 L 274.87987378042465 254.42909649383466 L 274.34507077511626 254.18254893141275 L 273.8312602877932 253.89480123265568 L 273.3416101309693 253.5676274578121 L 272.87913916068646 253.20304474200023 L 272.44669866426375 252.8033008588991 L 272.0469547811626 252.37086036247638 L 271.68237206535076 251.90838939219356 L 271.35519829050713 251.41873923536963 L 271.06745059175006 250.90492874804661 L 270.8209030293282 250.37012574273817 L 270.6170756509492 249.8176274578121 L 270.4572251201803 249.2508402289193 L 270.3423369686993 248.67325848780175 L 270.27311952016436 248.08844321795883 L 270.24999952316284 247.5 L 270.27311952016436 246.91155678204117 L 270.3423369686993 246.32674151219828 L 270.4572251201803 245.7491597710807 L 270.6170756509492 245.1823725421879 L 270.8209030293282 244.62987425726183 L 271.06745059175006 244.0950712519534 L 271.35519829050713 243.58126076463037 L 271.68237206535076 243.09161060780644 L 272.0469547811626 242.62913963752362 L 272.44669866426375 242.1966991411009 L 272.87913916068646 241.79695525799977 L 273.3416101309693 241.4323725421879 L 273.8312602877932 241.10519876734432 L 274.34507077511626 240.81745106858725 L 274.8798737804247 240.57090350616534 L 275.43237206535076 240.36707612778633 L 275.99915929424355 240.2072255970174 L 276.5767410353611 240.09233744553646 L 277.16155630520404 240.02311999700154 L 277.74999952316284 240 L 278.3384427411217 240.02311999700154 L 278.9232580109646 240.09233744553646 L 279.5008397520822 240.20722559701744 L 280.067626980975 240.36707612778636 L 280.62012526590104 240.57090350616537 L 281.1549282712095 240.81745106858727 L 281.6687387585325 241.10519876734435 L 282.15838891535645 241.43237254218792 L 282.6208598856393 241.7969552579998 L 283.053300382062 242.19669914110094 L 283.4530442651631 242.62913963752368 L 283.817626980975 243.0916106078065 L 284.14480075581855 243.58126076463043 L 284.4325484545756 244.09507125195347 L 284.6790960169975 244.6298742572619 L 284.8829233953765 245.18237254218798 L 285.04277392614546 245.7491597710808 L 285.1576620776264 246.32674151219834 L 285.2268795261613 246.91155678204126 Z" fill-opacity="0.9"/><text fill="rgb(19,0,71)" stroke="none" font-family="Assistant-SemiBold, sans-serif" font-size="14px" font-style="normal" font-weight="500" text-decoration="normal" x="288.99999952316284" y="254.5" text-anchor="start" dominant-baseline="text-after-edge" fill-opacity="0.9">Viziflu/COVIZ</text><path fill="rgb(2,123,252)" stroke="none" paint-order="stroke fill markers" d=" M 285.24999952316284 205 L 285.2268795261613 205.58844321795883 L 285.15766207762636 206.17325848780172 L 285.0427739261454 206.7508402289193 L 284.8829233953765 207.3176274578121 L 284.6790960169975 207.87012574273817 L 284.4325484545756 208.4049287480466 L 284.14480075581855 208.91873923536963 L 283.8176269809749 209.40838939219356 L 283.4530442651631 209.87086036247638 L 283.05330038206193 210.3033008588991 L 282.6208598856392 210.70304474200023 L 282.1583889153564 211.0676274578121 L 281.66873875853247 211.39480123265568 L 281.1549282712094 211.68254893141275 L 280.62012526590104 211.92909649383466 L 280.0676269809749 212.13292387221364 L 279.50083975208213 212.2927744029826 L 278.92325801096456 212.40766255446354 L 278.3384427411217 212.47688000299846 L 277.74999952316284 212.5 L 277.161556305204 212.47688000299846 L 276.5767410353611 212.40766255446354 L 275.99915929424355 212.2927744029826 L 275.43237206535076 212.13292387221367 L 274.87987378042465 211.92909649383466 L 274.34507077511626 211.68254893141275 L 273.8312602877932 211.39480123265568 L 273.3416101309693 211.0676274578121 L 272.87913916068646 210.70304474200023 L 272.44669866426375 210.3033008588991 L 272.0469547811626 209.87086036247638 L 271.68237206535076 209.40838939219356 L 271.35519829050713 208.91873923536963 L 271.06745059175006 208.40492874804661 L 270.8209030293282 207.87012574273817 L 270.6170756509492 207.3176274578121 L 270.4572251201803 206.7508402289193 L 270.3423369686993 206.17325848780175 L 270.27311952016436 205.58844321795883 L 270.24999952316284 205 L 270.27311952016436 204.41155678204117 L 270.3423369686993 203.82674151219828 L 270.4572251201803 203.2491597710807 L 270.6170756509492 202.6823725421879 L 270.8209030293282 202.12987425726183 L 271.06745059175006 201.5950712519534 L 271.35519829050713 201.08126076463037 L 271.68237206535076 200.59161060780644 L 272.0469547811626 200.12913963752362 L 272.44669866426375 199.6966991411009 L 272.87913916068646 199.29695525799977 L 273.3416101309693 198.9323725421879 L 273.8312602877932 198.60519876734432 L 274.34507077511626 198.31745106858725 L 274.8798737804247 198.07090350616534 L 275.43237206535076 197.86707612778633 L 275.99915929424355 197.7072255970174 L 276.5767410353611 197.59233744553646 L 277.16155630520404 197.52311999700154 L 277.74999952316284 197.5 L 278.3384427411217 197.52311999700154 L 278.9232580109646 197.59233744553646 L 279.5008397520822 197.70722559701744 L 280.067626980975 197.86707612778636 L 280.62012526590104 198.07090350616537 L 281.1549282712095 198.31745106858727 L 281.6687387585325 198.60519876734435 L 282.15838891535645 198.93237254218792 L 282.6208598856393 199.2969552579998 L 283.053300382062 199.69669914110094 L 283.4530442651631 200.12913963752368 L 283.817626980975 200.5916106078065 L 284.14480075581855 201.08126076463043 L 284.4325484545756 201.59507125195347 L 284.6790960169975 202.1298742572619 L 284.8829233953765 202.68237254218798 L 285.04277392614546 203.2491597710808 L 285.1576620776264 203.82674151219834 L 285.2268795261613 204.41155678204126 Z" fill-opacity="0.9"/><text fill="rgb(19,0,71)" stroke="none" font-family="Assistant-SemiBold, sans-serif" font-size="14px" font-style="normal" font-weight="500" text-decoration="normal" x="288.99999952316284" y="212" text-anchor="start" dominant-baseline="text-after-edge" fill-opacity="0.9">Where in the World</text><path fill="rgb(19,0,71)" stroke="none" paint-order="stroke fill markers" d=" M 285.24999952316284 57 L 285.2268795261613 57.58844321795884 L 285.15766207762636 58.17325848780173 L 285.0427739261454 58.75084022891929 L 284.8829233953765 59.31762745781211 L 284.6790960169975 59.870125742738175 L 284.4325484545756 60.4049287480466 L 284.14480075581855 60.918739235369614 L 283.8176269809749 61.40838939219355 L 283.4530442651631 61.87086036247638 L 283.05330038206193 62.30330085889911 L 282.6208598856392 62.70304474200023 L 282.1583889153564 63.06762745781211 L 281.66873875853247 63.394801232655695 L 281.1549282712094 63.68254893141276 L 280.62012526590104 63.92909649383465 L 280.0676269809749 64.13292387221365 L 279.50083975208213 64.29277440298257 L 278.92325801096456 64.40766255446353 L 278.3384427411217 64.47688000299846 L 277.74999952316284 64.5 L 277.161556305204 64.47688000299846 L 276.5767410353611 64.40766255446353 L 275.99915929424355 64.29277440298257 L 275.43237206535076 64.13292387221365 L 274.87987378042465 63.92909649383465 L 274.34507077511626 63.68254893141276 L 273.8312602877932 63.394801232655695 L 273.3416101309693 63.06762745781211 L 272.87913916068646 62.70304474200023 L 272.44669866426375 62.30330085889911 L 272.0469547811626 61.87086036247638 L 271.68237206535076 61.40838939219355 L 271.35519829050713 60.918739235369614 L 271.06745059175006 60.4049287480466 L 270.8209030293282 59.870125742738175 L 270.6170756509492 59.31762745781211 L 270.4572251201803 58.750840228919294 L 270.3423369686993 58.17325848780173 L 270.27311952016436 57.58844321795884 L 270.24999952316284 57 L 270.27311952016436 56.41155678204117 L 270.3423369686993 55.82674151219827 L 270.4572251201803 55.24915977108071 L 270.6170756509492 54.68237254218789 L 270.8209030293282 54.129874257261825 L 271.06745059175006 53.5950712519534 L 271.35519829050713 53.081260764630386 L 271.68237206535076 52.59161060780645 L 272.0469547811626 52.12913963752362 L 272.44669866426375 51.69669914110089 L 272.87913916068646 51.29695525799977 L 273.3416101309693 50.93237254218789 L 273.8312602877932 50.605198767344305 L 274.34507077511626 50.31745106858724 L 274.8798737804247 50.070903506165344 L 275.43237206535076 49.86707612778635 L 275.99915929424355 49.70722559701742 L 276.5767410353611 49.592337445536465 L 277.16155630520404 49.52311999700154 L 277.74999952316284 49.5 L 278.3384427411217 49.523119997001544 L 278.9232580109646 49.59233744553647 L 279.5008397520822 49.707225597017434 L 280.067626980975 49.86707612778636 L 280.62012526590104 50.070903506165365 L 281.1549282712095 50.31745106858726 L 281.6687387585325 50.60519876734433 L 282.15838891535645 50.93237254218793 L 282.6208598856393 51.296955257999805 L 283.053300382062 51.696699141100936 L 283.4530442651631 52.12913963752367 L 283.817626980975 52.5916106078065 L 284.14480075581855 53.08126076463044 L 284.4325484545756 53.59507125195346 L 284.6790960169975 54.129874257261896 L 284.8829233953765 54.68237254218797 L 285.04277392614546 55.24915977108079 L 285.1576620776264 55.82674151219835 L 285.2268795261613 56.41155678204125 Z" fill-opacity="0.9"/><text fill="rgb(19,0,71)" stroke="none" font-family="Assistant-SemiBold, sans-serif" font-size="14px" font-style="normal" font-weight="500" text-decoration="normal" x="288.99999952316284" y="64" text-anchor="start" dominant-baseline="text-after-edge" fill-opacity="0.9">Fusing Without Confusing</text><path fill="rgb(2,123,252)" stroke="none" paint-order="stroke fill markers" d=" M 285.24999952316284 168 L 285.2268795261613 168.58844321795883 L 285.15766207762636 169.17325848780172 L 285.0427739261454 169.7508402289193 L 284.8829233953765 170.3176274578121 L 284.6790960169975 170.87012574273817 L 284.4325484545756 171.4049287480466 L 284.14480075581855 171.91873923536963 L 283.8176269809749 172.40838939219356 L 283.4530442651631 172.87086036247638 L 283.05330038206193 173.3033008588991 L 282.6208598856392 173.70304474200023 L 282.1583889153564 174.0676274578121 L 281.66873875853247 174.39480123265568 L 281.1549282712094 174.68254893141275 L 280.62012526590104 174.92909649383466 L 280.0676269809749 175.13292387221364 L 279.50083975208213 175.2927744029826 L 278.92325801096456 175.40766255446354 L 278.3384427411217 175.47688000299846 L 277.74999952316284 175.5 L 277.161556305204 175.47688000299846 L 276.5767410353611 175.40766255446354 L 275.99915929424355 175.2927744029826 L 275.43237206535076 175.13292387221367 L 274.87987378042465 174.92909649383466 L 274.34507077511626 174.68254893141275 L 273.8312602877932 174.39480123265568 L 273.3416101309693 174.0676274578121 L 272.87913916068646 173.70304474200023 L 272.44669866426375 173.3033008588991 L 272.0469547811626 172.87086036247638 L 271.68237206535076 172.40838939219356 L 271.35519829050713 171.91873923536963 L 271.06745059175006 171.40492874804661 L 270.8209030293282 170.87012574273817 L 270.6170756509492 170.3176274578121 L 270.4572251201803 169.7508402289193 L 270.3423369686993 169.17325848780175 L 270.27311952016436 168.58844321795883 L 270.24999952316284 168 L 270.27311952016436 167.41155678204117 L 270.3423369686993 166.82674151219828 L 270.4572251201803 166.2491597710807 L 270.6170756509492 165.6823725421879 L 270.8209030293282 165.12987425726183 L 271.06745059175006 164.5950712519534 L 271.35519829050713 164.08126076463037 L 271.68237206535076 163.59161060780644 L 272.0469547811626 163.12913963752362 L 272.44669866426375 162.6966991411009 L 272.87913916068646 162.29695525799977 L 273.3416101309693 161.9323725421879 L 273.8312602877932 161.60519876734432 L 274.34507077511626 161.31745106858725 L 274.8798737804247 161.07090350616534 L 275.43237206535076 160.86707612778633 L 275.99915929424355 160.7072255970174 L 276.5767410353611 160.59233744553646 L 277.16155630520404 160.52311999700154 L 277.74999952316284 160.5 L 278.3384427411217 160.52311999700154 L 278.9232580109646 160.59233744553646 L 279.5008397520822 160.70722559701744 L 280.067626980975 160.86707612778636 L 280.62012526590104 161.07090350616537 L 281.1549282712095 161.31745106858727 L 281.6687387585325 161.60519876734435 L 282.15838891535645 161.93237254218792 L 282.6208598856393 162.2969552579998 L 283.053300382062 162.69669914110094 L 283.4530442651631 163.12913963752368 L 283.817626980975 163.5916106078065 L 284.14480075581855 164.08126076463043 L 284.4325484545756 164.59507125195347 L 284.6790960169975 165.1298742572619 L 284.8829233953765 165.68237254218798 L 285.04277392614546 166.2491597710808 L 285.1576620776264 166.82674151219834 L 285.2268795261613 167.41155678204126 Z" fill-opacity="0.9"/><text fill="rgb(19,0,71)" stroke="none" font-family="Assistant-SemiBold, sans-serif" font-size="14px" font-style="normal" font-weight="500" text-decoration="normal" x="288.99999952316284" y="175" text-anchor="start" dominant-baseline="text-after-edge" fill-opacity="0.9">Synthesizing Robustness</text><path fill="rgb(251,211,0)" stroke="none" paint-order="stroke fill markers" d=" M 285.24999952316284 580.8809523809524 L 285.2268795261613 581.4693955989112 L 285.15766207762636 582.0542108687541 L 285.0427739261454 582.6317926098717 L 284.8829233953765 583.1985798387645 L 284.6790960169975 583.7510781236906 L 284.4325484545756 584.285881128999 L 284.14480075581855 584.799691616322 L 283.8176269809749 585.2893417731459 L 283.4530442651631 585.7518127434288 L 283.05330038206193 586.1842532398515 L 282.6208598856392 586.5839971229526 L 282.1583889153564 586.9485798387645 L 281.66873875853247 587.2757536136081 L 281.1549282712094 587.5635013123651 L 280.62012526590104 587.8100488747871 L 280.0676269809749 588.013876253166 L 279.50083975208213 588.173726783935 L 278.92325801096456 588.2886149354159 L 278.3384427411217 588.3578323839508 L 277.74999952316284 588.3809523809524 L 277.161556305204 588.3578323839508 L 276.5767410353611 588.2886149354159 L 275.99915929424355 588.173726783935 L 275.43237206535076 588.013876253166 L 274.87987378042465 587.8100488747871 L 274.34507077511626 587.5635013123651 L 273.8312602877932 587.2757536136081 L 273.3416101309693 586.9485798387645 L 272.87913916068646 586.5839971229526 L 272.44669866426375 586.1842532398515 L 272.0469547811626 585.7518127434288 L 271.68237206535076 585.2893417731459 L 271.35519829050713 584.799691616322 L 271.06745059175006 584.285881128999 L 270.8209030293282 583.7510781236906 L 270.6170756509492 583.1985798387645 L 270.4572251201803 582.6317926098717 L 270.3423369686993 582.0542108687541 L 270.27311952016436 581.4693955989112 L 270.24999952316284 580.8809523809524 L 270.27311952016436 580.2925091629936 L 270.3423369686993 579.7076938931507 L 270.4572251201803 579.1301121520331 L 270.6170756509492 578.5633249231403 L 270.8209030293282 578.0108266382142 L 271.06745059175006 577.4760236329058 L 271.35519829050713 576.9622131455828 L 271.68237206535076 576.4725629887589 L 272.0469547811626 576.010092018476 L 272.44669866426375 575.5776515220533 L 272.87913916068646 575.1779076389522 L 273.3416101309693 574.8133249231403 L 273.8312602877932 574.4861511482967 L 274.34507077511626 574.1984034495397 L 274.8798737804247 573.9518558871177 L 275.43237206535076 573.7480285087388 L 275.99915929424355 573.5881779779698 L 276.5767410353611 573.4732898264889 L 277.16155630520404 573.404072377954 L 277.74999952316284 573.3809523809524 L 278.3384427411217 573.404072377954 L 278.9232580109646 573.4732898264889 L 279.5008397520822 573.5881779779698 L 280.067626980975 573.7480285087388 L 280.62012526590104 573.9518558871177 L 281.1549282712095 574.1984034495397 L 281.6687387585325 574.4861511482967 L 282.15838891535645 574.8133249231404 L 282.6208598856393 575.1779076389522 L 283.053300382062 575.5776515220533 L 283.4530442651631 576.010092018476 L 283.817626980975 576.4725629887589 L 284.14480075581855 576.9622131455828 L 284.4325484545756 577.4760236329058 L 284.6790960169975 578.0108266382143 L 284.8829233953765 578.5633249231404 L 285.04277392614546 579.1301121520332 L 285.1576620776264 579.7076938931508 L 285.2268795261613 580.2925091629936 Z" fill-opacity="0.9"/><text fill="rgb(19,0,71)" stroke="none" font-family="Assistant-SemiBold, sans-serif" font-size="14px" font-style="normal" font-weight="500" text-decoration="normal" x="288.99999952316284" y="587.8809523809524" text-anchor="start" dominant-baseline="text-after-edge" fill-opacity="0.9">AI Sonobuoy</text><path fill="rgb(0,172,241)" stroke="none" paint-order="stroke fill markers" d=" M 285.24999952316284 506.8809523809524 L 285.2268795261613 507.46939559891126 L 285.15766207762636 508.0542108687541 L 285.0427739261454 508.6317926098717 L 284.8829233953765 509.1985798387645 L 284.6790960169975 509.7510781236906 L 284.4325484545756 510.285881128999 L 284.14480075581855 510.79969161632204 L 283.8176269809749 511.28934177314596 L 283.4530442651631 511.7518127434288 L 283.05330038206193 512.1842532398515 L 282.6208598856392 512.5839971229526 L 282.1583889153564 512.9485798387645 L 281.66873875853247 513.2757536136081 L 281.1549282712094 513.5635013123651 L 280.62012526590104 513.8100488747871 L 280.0676269809749 514.013876253166 L 279.50083975208213 514.173726783935 L 278.92325801096456 514.2886149354159 L 278.3384427411217 514.3578323839508 L 277.74999952316284 514.3809523809524 L 277.161556305204 514.3578323839508 L 276.5767410353611 514.2886149354159 L 275.99915929424355 514.173726783935 L 275.43237206535076 514.013876253166 L 274.87987378042465 513.8100488747871 L 274.34507077511626 513.5635013123651 L 273.8312602877932 513.2757536136081 L 273.3416101309693 512.9485798387645 L 272.87913916068646 512.5839971229526 L 272.44669866426375 512.1842532398515 L 272.0469547811626 511.7518127434288 L 271.68237206535076 511.28934177314596 L 271.35519829050713 510.79969161632204 L 271.06745059175006 510.285881128999 L 270.8209030293282 509.7510781236906 L 270.6170756509492 509.1985798387645 L 270.4572251201803 508.6317926098717 L 270.3423369686993 508.0542108687541 L 270.27311952016436 507.46939559891126 L 270.24999952316284 506.8809523809524 L 270.27311952016436 506.29250916299355 L 270.3423369686993 505.7076938931507 L 270.4572251201803 505.1301121520331 L 270.6170756509492 504.5633249231403 L 270.8209030293282 504.0108266382142 L 271.06745059175006 503.4760236329058 L 271.35519829050713 502.9622131455828 L 271.68237206535076 502.47256298875885 L 272.0469547811626 502.01009201847603 L 272.44669866426375 501.5776515220533 L 272.87913916068646 501.1779076389522 L 273.3416101309693 500.8133249231403 L 273.8312602877932 500.4861511482967 L 274.34507077511626 500.1984034495396 L 274.8798737804247 499.95185588711774 L 275.43237206535076 499.74802850873874 L 275.99915929424355 499.58817797796985 L 276.5767410353611 499.4732898264889 L 277.16155630520404 499.4040723779539 L 277.74999952316284 499.3809523809524 L 278.3384427411217 499.4040723779539 L 278.9232580109646 499.4732898264889 L 279.5008397520822 499.58817797796985 L 280.067626980975 499.74802850873874 L 280.62012526590104 499.95185588711774 L 281.1549282712095 500.1984034495397 L 281.6687387585325 500.48615114829676 L 282.15838891535645 500.8133249231403 L 282.6208598856393 501.1779076389522 L 283.053300382062 501.5776515220533 L 283.4530442651631 502.0100920184761 L 283.817626980975 502.4725629887589 L 284.14480075581855 502.96221314558284 L 284.4325484545756 503.4760236329059 L 284.6790960169975 504.0108266382143 L 284.8829233953765 504.5633249231404 L 285.04277392614546 505.1301121520332 L 285.1576620776264 505.70769389315075 L 285.2268795261613 506.29250916299367 Z" fill-opacity="0.9"/><text fill="rgb(19,0,71)" stroke="none" font-family="Assistant-SemiBold, sans-serif" font-size="14px" font-style="normal" font-weight="500" text-decoration="normal" x="288.99999952316284" y="513.8809523809524" text-anchor="start" dominant-baseline="text-after-edge" fill-opacity="0.9">Defensive-5G</text><path fill="rgb(247,80,64)" stroke="none" paint-order="stroke fill markers" d=" M 285.24999952316284 20 L 285.2268795261613 20.588443217958837 L 285.15766207762636 21.173258487801732 L 285.0427739261454 21.75084022891929 L 284.8829233953765 22.317627457812105 L 284.6790960169975 22.870125742738175 L 284.4325484545756 23.4049287480466 L 284.14480075581855 23.918739235369614 L 283.8176269809749 24.40838939219355 L 283.4530442651631 24.870860362476378 L 283.05330038206193 25.303300858899107 L 282.6208598856392 25.70304474200023 L 282.1583889153564 26.067627457812108 L 281.66873875853247 26.39480123265569 L 281.1549282712094 26.682548931412757 L 280.62012526590104 26.92909649383465 L 280.0676269809749 27.132923872213652 L 279.50083975208213 27.292774402982573 L 278.92325801096456 27.407662554463535 L 278.3384427411217 27.47688000299846 L 277.74999952316284 27.5 L 277.161556305204 27.47688000299846 L 276.5767410353611 27.407662554463535 L 275.99915929424355 27.292774402982573 L 275.43237206535076 27.132923872213652 L 274.87987378042465 26.92909649383465 L 274.34507077511626 26.68254893141276 L 273.8312602877932 26.39480123265569 L 273.3416101309693 26.067627457812108 L 272.87913916068646 25.703044742000234 L 272.44669866426375 25.303300858899107 L 272.0469547811626 24.870860362476378 L 271.68237206535076 24.40838939219355 L 271.35519829050713 23.918739235369618 L 271.06745059175006 23.4049287480466 L 270.8209030293282 22.870125742738175 L 270.6170756509492 22.317627457812108 L 270.4572251201803 21.75084022891929 L 270.3423369686993 21.173258487801732 L 270.27311952016436 20.588443217958837 L 270.24999952316284 20 L 270.27311952016436 19.411556782041163 L 270.3423369686993 18.826741512198268 L 270.4572251201803 18.24915977108071 L 270.6170756509492 17.682372542187895 L 270.8209030293282 17.12987425726183 L 271.06745059175006 16.5950712519534 L 271.35519829050713 16.081260764630386 L 271.68237206535076 15.591610607806452 L 272.0469547811626 15.129139637523624 L 272.44669866426375 14.696699141100893 L 272.87913916068646 14.29695525799977 L 273.3416101309693 13.932372542187895 L 273.8312602877932 13.605198767344307 L 274.34507077511626 13.31745106858724 L 274.8798737804247 13.070903506165347 L 275.43237206535076 12.867076127786344 L 275.99915929424355 12.707225597017421 L 276.5767410353611 12.592337445536465 L 277.16155630520404 12.523119997001539 L 277.74999952316284 12.5 L 278.3384427411217 12.523119997001544 L 278.9232580109646 12.592337445536472 L 279.5008397520822 12.707225597017434 L 280.067626980975 12.86707612778636 L 280.62012526590104 13.070903506165365 L 281.1549282712095 13.31745106858726 L 281.6687387585325 13.605198767344334 L 282.15838891535645 13.932372542187924 L 282.6208598856393 14.296955257999803 L 283.053300382062 14.696699141100936 L 283.4530442651631 15.129139637523668 L 283.817626980975 15.591610607806505 L 284.14480075581855 16.081260764630443 L 284.4325484545756 16.595071251953463 L 284.6790960169975 17.129874257261896 L 284.8829233953765 17.68237254218797 L 285.04277392614546 18.249159771080787 L 285.1576620776264 18.826741512198353 L 285.2268795261613 19.411556782041252 Z" fill-opacity="0.9"/><text fill="rgb(19,0,71)" stroke="none" font-family="Assistant-SemiBold, sans-serif" font-size="14px" font-style="normal" font-weight="500" text-decoration="normal" x="288.99999952316284" y="27" text-anchor="start" dominant-baseline="text-after-edge" fill-opacity="0.9">FakeFinder</text><path fill="rgb(251,211,0)" stroke="none" paint-order="stroke fill markers" d=" M 285.24999952316284 469.8809523809524 L 285.2268795261613 470.46939559891126 L 285.15766207762636 471.0542108687541 L 285.0427739261454 471.6317926098717 L 284.8829233953765 472.1985798387645 L 284.6790960169975 472.7510781236906 L 284.4325484545756 473.285881128999 L 284.14480075581855 473.79969161632204 L 283.8176269809749 474.28934177314596 L 283.4530442651631 474.7518127434288 L 283.05330038206193 475.1842532398515 L 282.6208598856392 475.58399712295267 L 282.1583889153564 475.9485798387645 L 281.66873875853247 476.2757536136081 L 281.1549282712094 476.5635013123652 L 280.62012526590104 476.81004887478707 L 280.0676269809749 477.0138762531661 L 279.50083975208213 477.17372678393497 L 278.92325801096456 477.2886149354159 L 278.3384427411217 477.3578323839509 L 277.74999952316284 477.3809523809524 L 277.161556305204 477.3578323839509 L 276.5767410353611 477.2886149354159 L 275.99915929424355 477.17372678393497 L 275.43237206535076 477.0138762531661 L 274.87987378042465 476.81004887478707 L 274.34507077511626 476.5635013123652 L 273.8312602877932 476.2757536136081 L 273.3416101309693 475.9485798387645 L 272.87913916068646 475.58399712295267 L 272.44669866426375 475.1842532398515 L 272.0469547811626 474.7518127434288 L 271.68237206535076 474.28934177314596 L 271.35519829050713 473.79969161632204 L 271.06745059175006 473.285881128999 L 270.8209030293282 472.7510781236906 L 270.6170756509492 472.1985798387645 L 270.4572251201803 471.6317926098717 L 270.3423369686993 471.0542108687541 L 270.27311952016436 470.46939559891126 L 270.24999952316284 469.8809523809524 L 270.27311952016436 469.29250916299355 L 270.3423369686993 468.7076938931507 L 270.4572251201803 468.1301121520331 L 270.6170756509492 467.5633249231403 L 270.8209030293282 467.0108266382142 L 271.06745059175006 466.4760236329058 L 271.35519829050713 465.9622131455828 L 271.68237206535076 465.47256298875885 L 272.0469547811626 465.01009201847603 L 272.44669866426375 464.5776515220533 L 272.87913916068646 464.1779076389522 L 273.3416101309693 463.8133249231403 L 273.8312602877932 463.4861511482967 L 274.34507077511626 463.1984034495396 L 274.8798737804247 462.95185588711774 L 275.43237206535076 462.74802850873874 L 275.99915929424355 462.58817797796985 L 276.5767410353611 462.4732898264889 L 277.16155630520404 462.4040723779539 L 277.74999952316284 462.3809523809524 L 278.3384427411217 462.4040723779539 L 278.9232580109646 462.4732898264889 L 279.5008397520822 462.58817797796985 L 280.067626980975 462.74802850873874 L 280.62012526590104 462.95185588711774 L 281.1549282712095 463.1984034495397 L 281.6687387585325 463.48615114829676 L 282.15838891535645 463.8133249231403 L 282.6208598856393 464.1779076389522 L 283.053300382062 464.5776515220533 L 283.4530442651631 465.0100920184761 L 283.817626980975 465.4725629887589 L 284.14480075581855 465.96221314558284 L 284.4325484545756 466.4760236329059 L 284.6790960169975 467.0108266382143 L 284.8829233953765 467.5633249231404 L 285.04277392614546 468.1301121520332 L 285.1576620776264 468.70769389315075 L 285.2268795261613 469.29250916299367 Z" fill-opacity="0.9"/><text fill="rgb(19,0,71)" stroke="none" font-family="Assistant-SemiBold, sans-serif" font-size="14px" font-style="normal" font-weight="500" text-decoration="normal" x="288.99999952316284" y="476.8809523809524" text-anchor="start" dominant-baseline="text-after-edge" fill-opacity="0.9">BirdsEye</text><path fill="rgb(251,211,0)" stroke="none" paint-order="stroke fill markers" d=" M 285.24999952316284 543.8809523809524 L 285.2268795261613 544.4693955989112 L 285.15766207762636 545.0542108687541 L 285.0427739261454 545.6317926098717 L 284.8829233953765 546.1985798387645 L 284.6790960169975 546.7510781236906 L 284.4325484545756 547.285881128999 L 284.14480075581855 547.799691616322 L 283.8176269809749 548.2893417731459 L 283.4530442651631 548.7518127434288 L 283.05330038206193 549.1842532398515 L 282.6208598856392 549.5839971229526 L 282.1583889153564 549.9485798387645 L 281.66873875853247 550.2757536136081 L 281.1549282712094 550.5635013123651 L 280.62012526590104 550.8100488747871 L 280.0676269809749 551.013876253166 L 279.50083975208213 551.173726783935 L 278.92325801096456 551.2886149354159 L 278.3384427411217 551.3578323839508 L 277.74999952316284 551.3809523809524 L 277.161556305204 551.3578323839508 L 276.5767410353611 551.2886149354159 L 275.99915929424355 551.173726783935 L 275.43237206535076 551.013876253166 L 274.87987378042465 550.8100488747871 L 274.34507077511626 550.5635013123651 L 273.8312602877932 550.2757536136081 L 273.3416101309693 549.9485798387645 L 272.87913916068646 549.5839971229526 L 272.44669866426375 549.1842532398515 L 272.0469547811626 548.7518127434288 L 271.68237206535076 548.2893417731459 L 271.35519829050713 547.799691616322 L 271.06745059175006 547.285881128999 L 270.8209030293282 546.7510781236906 L 270.6170756509492 546.1985798387645 L 270.4572251201803 545.6317926098717 L 270.3423369686993 545.0542108687541 L 270.27311952016436 544.4693955989112 L 270.24999952316284 543.8809523809524 L 270.27311952016436 543.2925091629936 L 270.3423369686993 542.7076938931507 L 270.4572251201803 542.1301121520331 L 270.6170756509492 541.5633249231403 L 270.8209030293282 541.0108266382142 L 271.06745059175006 540.4760236329058 L 271.35519829050713 539.9622131455828 L 271.68237206535076 539.4725629887589 L 272.0469547811626 539.010092018476 L 272.44669866426375 538.5776515220533 L 272.87913916068646 538.1779076389522 L 273.3416101309693 537.8133249231403 L 273.8312602877932 537.4861511482967 L 274.34507077511626 537.1984034495397 L 274.8798737804247 536.9518558871177 L 275.43237206535076 536.7480285087388 L 275.99915929424355 536.5881779779698 L 276.5767410353611 536.4732898264889 L 277.16155630520404 536.404072377954 L 277.74999952316284 536.3809523809524 L 278.3384427411217 536.404072377954 L 278.9232580109646 536.4732898264889 L 279.5008397520822 536.5881779779698 L 280.067626980975 536.7480285087388 L 280.62012526590104 536.9518558871177 L 281.1549282712095 537.1984034495397 L 281.6687387585325 537.4861511482967 L 282.15838891535645 537.8133249231404 L 282.6208598856393 538.1779076389522 L 283.053300382062 538.5776515220533 L 283.4530442651631 539.010092018476 L 283.817626980975 539.4725629887589 L 284.14480075581855 539.9622131455828 L 284.4325484545756 540.4760236329058 L 284.6790960169975 541.0108266382143 L 284.8829233953765 541.5633249231404 L 285.04277392614546 542.1301121520332 L 285.1576620776264 542.7076938931508 L 285.2268795261613 543.2925091629936 Z" fill-opacity="0.9"/><text fill="rgb(19,0,71)" stroke="none" font-family="Assistant-SemiBold, sans-serif" font-size="14px" font-style="normal" font-weight="500" text-decoration="normal" x="288.99999952316284" y="550.8809523809524" text-anchor="start" dominant-baseline="text-after-edge" fill-opacity="0.9">Shifting Pixels</text><path fill="rgb(0,172,241)" stroke="none" paint-order="stroke fill markers" d=" M 285.24999952316284 429.5 L 285.2268795261613 430.08844321795885 L 285.15766207762636 430.6732584878017 L 285.0427739261454 431.2508402289193 L 284.8829233953765 431.8176274578121 L 284.6790960169975 432.3701257427382 L 284.4325484545756 432.9049287480466 L 284.14480075581855 433.4187392353696 L 283.8176269809749 433.90838939219356 L 283.4530442651631 434.3708603624764 L 283.05330038206193 434.8033008588991 L 282.6208598856392 435.20304474200026 L 282.1583889153564 435.5676274578121 L 281.66873875853247 435.8948012326557 L 281.1549282712094 436.1825489314128 L 280.62012526590104 436.42909649383466 L 280.0676269809749 436.63292387221367 L 279.50083975208213 436.79277440298256 L 278.92325801096456 436.9076625544635 L 278.3384427411217 436.9768800029985 L 277.74999952316284 437 L 277.161556305204 436.9768800029985 L 276.5767410353611 436.9076625544635 L 275.99915929424355 436.79277440298256 L 275.43237206535076 436.63292387221367 L 274.87987378042465 436.42909649383466 L 274.34507077511626 436.1825489314128 L 273.8312602877932 435.8948012326557 L 273.3416101309693 435.5676274578121 L 272.87913916068646 435.20304474200026 L 272.44669866426375 434.8033008588991 L 272.0469547811626 434.3708603624764 L 271.68237206535076 433.90838939219356 L 271.35519829050713 433.4187392353696 L 271.06745059175006 432.9049287480466 L 270.8209030293282 432.3701257427382 L 270.6170756509492 431.8176274578121 L 270.4572251201803 431.2508402289193 L 270.3423369686993 430.6732584878017 L 270.27311952016436 430.08844321795885 L 270.24999952316284 429.5 L 270.27311952016436 428.91155678204115 L 270.3423369686993 428.3267415121983 L 270.4572251201803 427.7491597710807 L 270.6170756509492 427.1823725421879 L 270.8209030293282 426.6298742572618 L 271.06745059175006 426.0950712519534 L 271.35519829050713 425.5812607646304 L 271.68237206535076 425.09161060780644 L 272.0469547811626 424.6291396375236 L 272.44669866426375 424.1966991411009 L 272.87913916068646 423.7969552579998 L 273.3416101309693 423.4323725421879 L 273.8312602877932 423.1051987673443 L 274.34507077511626 422.8174510685872 L 274.8798737804247 422.57090350616534 L 275.43237206535076 422.36707612778633 L 275.99915929424355 422.20722559701744 L 276.5767410353611 422.0923374455365 L 277.16155630520404 422.0231199970015 L 277.74999952316284 422 L 278.3384427411217 422.0231199970015 L 278.9232580109646 422.0923374455365 L 279.5008397520822 422.20722559701744 L 280.067626980975 422.36707612778633 L 280.62012526590104 422.57090350616534 L 281.1549282712095 422.8174510685873 L 281.6687387585325 423.10519876734435 L 282.15838891535645 423.4323725421879 L 282.6208598856393 423.7969552579998 L 283.053300382062 424.1966991411009 L 283.4530442651631 424.6291396375237 L 283.817626980975 425.0916106078065 L 284.14480075581855 425.58126076463043 L 284.4325484545756 426.09507125195347 L 284.6790960169975 426.6298742572619 L 284.8829233953765 427.182372542188 L 285.04277392614546 427.74915977108077 L 285.1576620776264 428.32674151219834 L 285.2268795261613 428.91155678204126 Z" fill-opacity="0.9"/><text fill="rgb(19,0,71)" stroke="none" font-family="Assistant-SemiBold, sans-serif" font-size="14px" font-style="normal" font-weight="500" text-decoration="normal" x="288.99999952316284" y="436.5" text-anchor="start" dominant-baseline="text-after-edge" fill-opacity="0.9">Open Code Project</text><path fill="rgb(251,211,0)" stroke="none" paint-order="stroke fill markers" d=" M 285.24999952316284 392.5 L 285.2268795261613 393.08844321795885 L 285.15766207762636 393.6732584878017 L 285.0427739261454 394.2508402289193 L 284.8829233953765 394.8176274578121 L 284.6790960169975 395.3701257427382 L 284.4325484545756 395.9049287480466 L 284.14480075581855 396.4187392353696 L 283.8176269809749 396.90838939219356 L 283.4530442651631 397.3708603624764 L 283.05330038206193 397.8033008588991 L 282.6208598856392 398.20304474200026 L 282.1583889153564 398.5676274578121 L 281.66873875853247 398.8948012326557 L 281.1549282712094 399.1825489314128 L 280.62012526590104 399.42909649383466 L 280.0676269809749 399.63292387221367 L 279.50083975208213 399.79277440298256 L 278.92325801096456 399.9076625544635 L 278.3384427411217 399.9768800029985 L 277.74999952316284 400 L 277.161556305204 399.9768800029985 L 276.5767410353611 399.9076625544635 L 275.99915929424355 399.79277440298256 L 275.43237206535076 399.63292387221367 L 274.87987378042465 399.42909649383466 L 274.34507077511626 399.1825489314128 L 273.8312602877932 398.8948012326557 L 273.3416101309693 398.5676274578121 L 272.87913916068646 398.20304474200026 L 272.44669866426375 397.8033008588991 L 272.0469547811626 397.3708603624764 L 271.68237206535076 396.90838939219356 L 271.35519829050713 396.4187392353696 L 271.06745059175006 395.9049287480466 L 270.8209030293282 395.3701257427382 L 270.6170756509492 394.8176274578121 L 270.4572251201803 394.2508402289193 L 270.3423369686993 393.6732584878017 L 270.27311952016436 393.08844321795885 L 270.24999952316284 392.5 L 270.27311952016436 391.91155678204115 L 270.3423369686993 391.3267415121983 L 270.4572251201803 390.7491597710807 L 270.6170756509492 390.1823725421879 L 270.8209030293282 389.6298742572618 L 271.06745059175006 389.0950712519534 L 271.35519829050713 388.5812607646304 L 271.68237206535076 388.09161060780644 L 272.0469547811626 387.6291396375236 L 272.44669866426375 387.1966991411009 L 272.87913916068646 386.7969552579998 L 273.3416101309693 386.4323725421879 L 273.8312602877932 386.1051987673443 L 274.34507077511626 385.8174510685872 L 274.8798737804247 385.57090350616534 L 275.43237206535076 385.36707612778633 L 275.99915929424355 385.20722559701744 L 276.5767410353611 385.0923374455365 L 277.16155630520404 385.0231199970015 L 277.74999952316284 385 L 278.3384427411217 385.0231199970015 L 278.9232580109646 385.0923374455365 L 279.5008397520822 385.20722559701744 L 280.067626980975 385.36707612778633 L 280.62012526590104 385.57090350616534 L 281.1549282712095 385.8174510685873 L 281.6687387585325 386.10519876734435 L 282.15838891535645 386.4323725421879 L 282.6208598856393 386.7969552579998 L 283.053300382062 387.1966991411009 L 283.4530442651631 387.6291396375237 L 283.817626980975 388.0916106078065 L 284.14480075581855 388.58126076463043 L 284.4325484545756 389.09507125195347 L 284.6790960169975 389.6298742572619 L 284.8829233953765 390.182372542188 L 285.04277392614546 390.74915977108077 L 285.1576620776264 391.32674151219834 L 285.2268795261613 391.91155678204126 Z" fill-opacity="0.9"/><text fill="rgb(19,0,71)" stroke="none" font-family="Assistant-SemiBold, sans-serif" font-size="14px" font-style="normal" font-weight="500" text-decoration="normal" x="288.99999952316284" y="399.5" text-anchor="start" dominant-baseline="text-after-edge" fill-opacity="0.9">SkyScan</text><path fill="rgb(125,197,62)" stroke="none" paint-order="stroke fill markers" d=" M 285.24999952316284 94 L 285.2268795261613 94.58844321795884 L 285.15766207762636 95.17325848780173 L 285.0427739261454 95.75084022891929 L 284.8829233953765 96.31762745781211 L 284.6790960169975 96.87012574273817 L 284.4325484545756 97.4049287480466 L 284.14480075581855 97.91873923536961 L 283.8176269809749 98.40838939219356 L 283.4530442651631 98.87086036247638 L 283.05330038206193 99.3033008588991 L 282.6208598856392 99.70304474200023 L 282.1583889153564 100.06762745781211 L 281.66873875853247 100.3948012326557 L 281.1549282712094 100.68254893141275 L 280.62012526590104 100.92909649383465 L 280.0676269809749 101.13292387221365 L 279.50083975208213 101.29277440298257 L 278.92325801096456 101.40766255446353 L 278.3384427411217 101.47688000299846 L 277.74999952316284 101.5 L 277.161556305204 101.47688000299846 L 276.5767410353611 101.40766255446353 L 275.99915929424355 101.29277440298257 L 275.43237206535076 101.13292387221365 L 274.87987378042465 100.92909649383465 L 274.34507077511626 100.68254893141275 L 273.8312602877932 100.3948012326557 L 273.3416101309693 100.06762745781211 L 272.87913916068646 99.70304474200023 L 272.44669866426375 99.3033008588991 L 272.0469547811626 98.87086036247638 L 271.68237206535076 98.40838939219356 L 271.35519829050713 97.91873923536961 L 271.06745059175006 97.4049287480466 L 270.8209030293282 96.87012574273817 L 270.6170756509492 96.31762745781211 L 270.4572251201803 95.75084022891929 L 270.3423369686993 95.17325848780173 L 270.27311952016436 94.58844321795884 L 270.24999952316284 94 L 270.27311952016436 93.41155678204116 L 270.3423369686993 92.82674151219827 L 270.4572251201803 92.24915977108071 L 270.6170756509492 91.68237254218789 L 270.8209030293282 91.12987425726183 L 271.06745059175006 90.5950712519534 L 271.35519829050713 90.08126076463039 L 271.68237206535076 89.59161060780646 L 272.0469547811626 89.12913963752362 L 272.44669866426375 88.6966991411009 L 272.87913916068646 88.29695525799977 L 273.3416101309693 87.93237254218789 L 273.8312602877932 87.6051987673443 L 274.34507077511626 87.31745106858723 L 274.8798737804247 87.07090350616535 L 275.43237206535076 86.86707612778635 L 275.99915929424355 86.70722559701743 L 276.5767410353611 86.59233744553646 L 277.16155630520404 86.52311999700154 L 277.74999952316284 86.5 L 278.3384427411217 86.52311999700154 L 278.9232580109646 86.59233744553647 L 279.5008397520822 86.70722559701743 L 280.067626980975 86.86707612778636 L 280.62012526590104 87.07090350616537 L 281.1549282712095 87.31745106858726 L 281.6687387585325 87.60519876734433 L 282.15838891535645 87.93237254218792 L 282.6208598856393 88.2969552579998 L 283.053300382062 88.69669914110094 L 283.4530442651631 89.12913963752366 L 283.817626980975 89.5916106078065 L 284.14480075581855 90.08126076463044 L 284.4325484545756 90.59507125195346 L 284.6790960169975 91.12987425726189 L 284.8829233953765 91.68237254218796 L 285.04277392614546 92.24915977108078 L 285.1576620776264 92.82674151219835 L 285.2268795261613 93.41155678204125 Z" fill-opacity="0.9"/><text fill="rgb(19,0,71)" stroke="none" font-family="Assistant-SemiBold, sans-serif" font-size="14px" font-style="normal" font-weight="500" text-decoration="normal" x="288.99999952316284" y="101" text-anchor="start" dominant-baseline="text-after-edge" fill-opacity="0.9">AI Assurance</text><path fill="rgb(125,197,62)" stroke="none" paint-order="stroke fill markers" d=" M 63.50000000000003 240.66666666666666 L 63.464549337931004 241.5689462675369 L 63.35841591684411 242.4656630146293 L 63.18225408457331 243.35128835100957 L 62.937149937394295 244.22036210197857 L 62.62461462387982 245.0675261388652 L 62.24657502816626 245.88755741367146 L 61.80536189007209 246.67540016090007 L 61.30369543531192 247.4261970680301 L 60.74466860440039 248.13531922246378 L 60.13172798364533 248.79839465031196 L 59.46865255579714 249.411335271067 L 58.75953040136347 249.97036210197857 L 58.00873349423344 250.4720285567387 L 57.220890747004816 250.9132416948329 L 56.40085947219856 251.29128129054646 L 55.55369543531192 251.6038166040609 L 54.68462168434294 251.84892075123994 L 53.798996347962685 252.02508258351074 L 52.902279600870244 252.13121600459763 L 52.00000000000003 252.16666666666666 L 51.09772039912981 252.13121600459763 L 50.20100365203737 252.02508258351074 L 49.315378315657114 251.84892075123994 L 48.446304564688134 251.6038166040609 L 47.599140527801495 251.29128129054646 L 46.77910925299524 250.9132416948329 L 45.99126650576662 250.4720285567387 L 45.24046959863659 249.97036210197857 L 44.531347444202915 249.411335271067 L 43.86827201635473 248.79839465031196 L 43.255331395599676 248.13531922246378 L 42.696304564688134 247.4261970680301 L 42.194638109927965 246.67540016090007 L 41.753424971833795 245.88755741367146 L 41.375385376120235 245.0675261388652 L 41.06285006260576 244.22036210197857 L 40.81774591542675 243.35128835100957 L 40.64158408315595 242.4656630146293 L 40.53545066206905 241.5689462675369 L 40.50000000000003 240.66666666666666 L 40.53545066206905 239.76438706579646 L 40.64158408315595 238.867670318704 L 40.81774591542675 237.98204498232374 L 41.06285006260576 237.11297123135478 L 41.37538537612023 236.26580719446812 L 41.753424971833795 235.44577591966188 L 42.194638109927965 234.65793317243325 L 42.696304564688134 233.90713626530322 L 43.25533139559967 233.19801411086954 L 43.86827201635473 232.53493868302135 L 44.53134744420291 231.9219980622663 L 45.24046959863659 231.36297123135478 L 45.99126650576662 230.8613047765946 L 46.77910925299525 230.42009163850042 L 47.59914052780151 230.04205204278685 L 48.44630456468815 229.72951672927238 L 49.31537831565714 229.48441258209337 L 50.2010036520374 229.30825074982258 L 51.09772039912985 229.20211732873568 L 52.000000000000064 229.16666666666666 L 52.90227960087029 229.20211732873568 L 53.798996347962735 229.30825074982258 L 54.68462168434299 229.4844125820934 L 55.55369543531198 229.7295167292724 L 56.40085947219862 230.04205204278688 L 57.22089074700488 230.42009163850045 L 58.0087334942335 230.86130477659464 L 58.759530401363534 231.3629712313548 L 59.468652555797206 231.92199806226637 L 60.13172798364539 232.53493868302144 L 60.744668604400445 233.19801411086962 L 61.30369543531198 233.9071362653033 L 61.80536189007214 234.65793317243333 L 62.246575028166305 235.44577591966197 L 62.62461462387987 236.26580719446824 L 62.93714993739433 237.11297123135486 L 63.18225408457334 237.98204498232386 L 63.35841591684414 238.86767031870414 L 63.46454933793101 239.76438706579657 Z" fill-opacity="0.9"/><text fill="rgb(19,0,71)" stroke="none" font-family="Assistant-SemiBold, sans-serif" font-size="14px" font-style="normal" font-weight="500" text-decoration="normal" x="67.25000000000003" y="247.66666666666666" text-anchor="start" dominant-baseline="text-after-edge" fill-opacity="0.9">UX Design</text><path fill="rgb(2,123,252)" stroke="none" paint-order="stroke fill markers" d=" M 55.50000000000003 285.66666666666663 L 55.464549337931004 286.56894626753683 L 55.35841591684411 287.4656630146293 L 55.18225408457331 288.35128835100954 L 54.937149937394295 289.22036210197854 L 54.62461462387982 290.06752613886516 L 54.24657502816626 290.8875574136714 L 53.80536189007209 291.67540016090004 L 53.30369543531192 292.4261970680301 L 52.74466860440039 293.13531922246375 L 52.13172798364533 293.79839465031193 L 51.46865255579714 294.411335271067 L 50.75953040136347 294.97036210197854 L 50.00873349423344 295.4720285567387 L 49.220890747004816 295.91324169483283 L 48.40085947219856 296.2912812905464 L 47.55369543531192 296.6038166040609 L 46.68462168434294 296.8489207512399 L 45.798996347962685 297.0250825835107 L 44.902279600870244 297.1312160045976 L 44.00000000000003 297.16666666666663 L 43.09772039912981 297.1312160045976 L 42.20100365203737 297.0250825835107 L 41.315378315657114 296.8489207512399 L 40.446304564688134 296.6038166040609 L 39.599140527801495 296.2912812905464 L 38.77910925299524 295.91324169483283 L 37.99126650576662 295.4720285567387 L 37.24046959863659 294.97036210197854 L 36.531347444202915 294.411335271067 L 35.86827201635473 293.79839465031193 L 35.255331395599676 293.13531922246375 L 34.696304564688134 292.4261970680301 L 34.194638109927965 291.67540016090004 L 33.753424971833795 290.8875574136714 L 33.375385376120235 290.06752613886516 L 33.06285006260576 289.22036210197854 L 32.81774591542675 288.35128835100954 L 32.64158408315595 287.4656630146293 L 32.53545066206905 286.56894626753683 L 32.50000000000003 285.66666666666663 L 32.53545066206905 284.7643870657964 L 32.64158408315595 283.867670318704 L 32.81774591542675 282.9820449823237 L 33.06285006260576 282.1129712313547 L 33.37538537612023 281.2658071944681 L 33.753424971833795 280.44577591966186 L 34.194638109927965 279.6579331724332 L 34.696304564688134 278.90713626530317 L 35.25533139559967 278.1980141108695 L 35.86827201635473 277.5349386830213 L 36.53134744420291 276.92199806226625 L 37.24046959863659 276.3629712313547 L 37.99126650576662 275.8613047765946 L 38.77910925299525 275.42009163850037 L 39.59914052780151 275.04205204278685 L 40.44630456468815 274.72951672927235 L 41.31537831565714 274.48441258209334 L 42.2010036520374 274.30825074982255 L 43.09772039912985 274.20211732873565 L 44.000000000000064 274.16666666666663 L 44.90227960087029 274.20211732873565 L 45.798996347962735 274.30825074982255 L 46.68462168434299 274.48441258209334 L 47.55369543531198 274.7295167292724 L 48.40085947219862 275.04205204278685 L 49.22089074700488 275.4200916385004 L 50.0087334942335 275.8613047765946 L 50.759530401363534 276.3629712313548 L 51.468652555797206 276.9219980622663 L 52.13172798364539 277.5349386830214 L 52.744668604400445 278.19801411086956 L 53.30369543531198 278.9071362653033 L 53.80536189007214 279.65793317243333 L 54.246575028166305 280.4457759196619 L 54.62461462387987 281.2658071944682 L 54.93714993739433 282.11297123135483 L 55.18225408457334 282.9820449823238 L 55.35841591684414 283.8676703187041 L 55.46454933793101 284.76438706579654 Z" fill-opacity="0.9"/><text fill="rgb(19,0,71)" stroke="none" font-family="Assistant-SemiBold, sans-serif" font-size="14px" font-style="normal" font-weight="500" text-decoration="normal" x="59.25000000000003" y="292.66666666666663" text-anchor="start" dominant-baseline="text-after-edge" fill-opacity="0.9">Better Data</text><path fill="rgb(19,0,71)" stroke="none" paint-order="stroke fill markers" d=" M 40.50000000000003 88.95238095238095 L 40.464549337931004 89.85466055325116 L 40.35841591684411 90.7513773003436 L 40.18225408457331 91.63700263672386 L 39.937149937394295 92.50607638769284 L 39.62461462387982 93.35324042457948 L 39.24657502816626 94.17327169938574 L 38.80536189007209 94.96111444661436 L 38.30369543531192 95.71191135374438 L 37.74466860440039 96.42103350817806 L 37.13172798364533 97.08410893602624 L 36.46865255579714 97.69704955678131 L 35.75953040136347 98.25607638769284 L 35.00873349423344 98.75774284245301 L 34.220890747004816 99.19895598054718 L 33.40085947219856 99.57699557626074 L 32.55369543531192 99.88953088977522 L 31.684621684342943 100.13463503695422 L 30.798996347962685 100.31079686922503 L 29.902279600870244 100.41693029031192 L 29.00000000000003 100.45238095238095 L 28.097720399129813 100.41693029031192 L 27.201003652037375 100.31079686922503 L 26.315378315657117 100.13463503695424 L 25.446304564688134 99.88953088977522 L 24.599140527801495 99.57699557626074 L 23.77910925299524 99.19895598054718 L 22.991266505766617 98.75774284245301 L 22.240469598636587 98.25607638769284 L 21.53134744420292 97.69704955678131 L 20.86827201635473 97.08410893602624 L 20.255331395599676 96.42103350817806 L 19.696304564688134 95.7119113537444 L 19.19463810992797 94.96111444661436 L 18.753424971833798 94.17327169938574 L 18.37538537612023 93.35324042457948 L 18.06285006260576 92.50607638769284 L 17.817745915426748 91.63700263672386 L 17.641584083155948 90.7513773003436 L 17.535450662069056 89.85466055325116 L 17.50000000000003 88.95238095238095 L 17.535450662069056 88.05010135151073 L 17.641584083155944 87.15338460441829 L 17.817745915426748 86.26775926803803 L 18.06285006260576 85.39868551706905 L 18.375385376120228 84.55152148018242 L 18.753424971833798 83.73149020537616 L 19.194638109927965 82.94364745814754 L 19.696304564688134 82.19285055101751 L 20.255331395599672 81.48372839658384 L 20.86827201635473 80.82065296873566 L 21.53134744420291 80.20771234798059 L 22.240469598636587 79.64868551706905 L 22.99126650576662 79.14701906230889 L 23.779109252995248 78.70580592421472 L 24.59914052780151 78.32776632850114 L 25.446304564688152 78.01523101498668 L 26.31537831565714 77.77012686780766 L 27.2010036520374 77.59396503553685 L 28.097720399129845 77.48783161444997 L 29.000000000000068 77.45238095238095 L 29.90227960087029 77.48783161444999 L 30.79899634796273 77.59396503553687 L 31.684621684342993 77.77012686780768 L 32.55369543531198 78.0152310149867 L 33.40085947219862 78.32776632850117 L 34.22089074700488 78.70580592421476 L 35.0087334942335 79.14701906230893 L 35.759530401363534 79.6486855170691 L 36.468652555797206 80.20771234798065 L 37.13172798364539 80.82065296873571 L 37.744668604400445 81.48372839658391 L 38.30369543531198 82.19285055101759 L 38.80536189007214 82.94364745814762 L 39.246575028166305 83.73149020537626 L 39.62461462387987 84.55152148018252 L 39.93714993739433 85.39868551706917 L 40.18225408457334 86.26775926803816 L 40.35841591684414 87.15338460441842 L 40.46454933793101 88.05010135151086 Z" fill-opacity="0.9"/><text fill="rgb(19,0,71)" stroke="none" font-family="Assistant-SemiBold, sans-serif" font-size="14px" font-style="normal" font-weight="500" text-decoration="normal" x="44.25000000000003" y="95.95238095238095" text-anchor="start" dominant-baseline="text-after-edge" fill-opacity="0.9">Better Models</text><path fill="rgb(251,211,0)" stroke="none" paint-order="stroke fill markers" d=" M 78.50000000000003 470.5 L 78.464549337931 471.4022796008702 L 78.35841591684411 472.29899634796266 L 78.18225408457332 473.1846216843429 L 77.9371499373943 474.0536954353119 L 77.62461462387982 474.90085947219853 L 77.24657502816626 475.7208907470048 L 76.80536189007209 476.5087334942334 L 76.30369543531192 477.25953040136346 L 75.74466860440039 477.9686525557971 L 75.13172798364532 478.6317279836453 L 74.46865255579714 479.2446686044004 L 73.75953040136346 479.8036954353119 L 73.00873349423344 480.30536189007205 L 72.22089074700482 480.7465750281662 L 71.40085947219856 481.1246146238798 L 70.55369543531192 481.4371499373943 L 69.68462168434294 481.6822540845733 L 68.79899634796269 481.8584159168441 L 67.90227960087024 481.964549337931 L 67.00000000000003 482 L 66.09772039912981 481.964549337931 L 65.20100365203737 481.8584159168441 L 64.31537831565711 481.6822540845733 L 63.446304564688134 481.4371499373943 L 62.599140527801495 481.1246146238798 L 61.77910925299524 480.7465750281662 L 60.99126650576662 480.30536189007205 L 60.24046959863659 479.8036954353119 L 59.531347444202915 479.2446686044004 L 58.86827201635473 478.6317279836453 L 58.255331395599676 477.9686525557971 L 57.696304564688134 477.25953040136346 L 57.194638109927965 476.5087334942334 L 56.753424971833795 475.7208907470048 L 56.375385376120235 474.90085947219853 L 56.06285006260576 474.0536954353119 L 55.81774591542675 473.1846216843429 L 55.64158408315595 472.29899634796266 L 55.53545066206905 471.4022796008702 L 55.50000000000003 470.5 L 55.53545066206905 469.5977203991298 L 55.64158408315595 468.70100365203734 L 55.81774591542675 467.8153783156571 L 56.06285006260576 466.9463045646881 L 56.37538537612023 466.09914052780147 L 56.753424971833795 465.2791092529952 L 57.194638109927965 464.4912665057666 L 57.696304564688134 463.74046959863654 L 58.25533139559967 463.0313474442029 L 58.86827201635473 462.3682720163547 L 59.53134744420291 461.7553313955996 L 60.24046959863659 461.1963045646881 L 60.99126650576662 460.69463810992795 L 61.77910925299525 460.25342497183374 L 62.59914052780151 459.8753853761202 L 63.44630456468815 459.5628500626057 L 64.31537831565714 459.3177459154267 L 65.2010036520374 459.1415840831559 L 66.09772039912984 459.035450662069 L 67.00000000000007 459 L 67.90227960087029 459.035450662069 L 68.79899634796273 459.1415840831559 L 69.684621684343 459.3177459154267 L 70.55369543531198 459.5628500626058 L 71.40085947219862 459.8753853761202 L 72.22089074700487 460.2534249718338 L 73.0087334942335 460.69463810992795 L 73.75953040136353 461.19630456468815 L 74.4686525557972 461.7553313955997 L 75.13172798364539 462.36827201635475 L 75.74466860440045 463.03134744420294 L 76.30369543531198 463.74046959863665 L 76.80536189007215 464.4912665057667 L 77.2465750281663 465.2791092529953 L 77.62461462387986 466.0991405278016 L 77.93714993739434 466.9463045646882 L 78.18225408457334 467.8153783156572 L 78.35841591684414 468.70100365203746 L 78.464549337931 469.5977203991299 Z" fill-opacity="0.9"/><text fill="rgb(19,0,71)" stroke="none" font-family="Assistant-SemiBold, sans-serif" font-size="14px" font-style="normal" font-weight="500" text-decoration="normal" x="82.25000000000003" y="477.5" text-anchor="start" dominant-baseline="text-after-edge" fill-opacity="0.9">Edge AI</text><path fill="rgb(247,80,64)" stroke="none" paint-order="stroke fill markers" d=" M 31.5 195.66666666666666 L 31.464549337930972 196.5689462675369 L 31.358415916844084 197.4656630146293 L 31.18225408457328 198.35128835100957 L 30.937149937394267 199.22036210197857 L 30.624614623879797 200.0675261388652 L 30.24657502816623 200.88755741367146 L 29.805361890072064 201.67540016090007 L 29.303695435311894 202.4261970680301 L 28.744668604400356 203.13531922246378 L 28.1317279836453 203.79839465031196 L 27.468652555797114 204.411335271067 L 26.759530401363442 204.97036210197857 L 26.00873349423341 205.4720285567387 L 25.220890747004788 205.9132416948329 L 24.400859472198533 206.29128129054646 L 23.553695435311894 206.6038166040609 L 22.684621684342915 206.84892075123994 L 21.798996347962657 207.02508258351074 L 20.902279600870216 207.13121600459763 L 20 207.16666666666666 L 19.097720399129784 207.13121600459763 L 18.201003652037347 207.02508258351074 L 17.31537831565709 206.84892075123994 L 16.446304564688106 206.6038166040609 L 15.599140527801469 206.29128129054646 L 14.779109252995212 205.9132416948329 L 13.991266505766589 205.4720285567387 L 13.24046959863656 204.97036210197857 L 12.53134744420289 204.411335271067 L 11.868272016354704 203.79839465031196 L 11.255331395599645 203.13531922246378 L 10.696304564688106 202.4261970680301 L 10.19463810992794 201.67540016090007 L 9.75342497183377 200.88755741367146 L 9.375385376120203 200.0675261388652 L 9.062850062605735 199.22036210197857 L 8.81774591542672 198.35128835100957 L 8.641584083155918 197.4656630146293 L 8.535450662069028 196.5689462675369 L 8.5 195.66666666666666 L 8.535450662069028 194.76438706579646 L 8.641584083155916 193.867670318704 L 8.817745915426718 192.98204498232374 L 9.062850062605733 192.11297123135478 L 9.375385376120201 191.26580719446812 L 9.75342497183377 190.44577591966188 L 10.194638109927938 189.65793317243325 L 10.696304564688104 188.90713626530322 L 11.255331395599644 188.19801411086954 L 11.868272016354702 187.53493868302135 L 12.531347444202883 186.9219980622663 L 13.240469598636558 186.36297123135478 L 13.991266505766593 185.8613047765946 L 14.77910925299522 185.42009163850042 L 15.599140527801481 185.04205204278685 L 16.446304564688123 184.72951672927238 L 17.31537831565711 184.48441258209337 L 18.20100365203737 184.30825074982258 L 19.097720399129816 184.20211732873568 L 20.00000000000004 184.16666666666666 L 20.902279600870262 184.20211732873568 L 21.798996347962703 184.30825074982258 L 22.684621684342964 184.4844125820934 L 23.55369543531195 184.7295167292724 L 24.40085947219859 185.04205204278688 L 25.22089074700485 185.42009163850045 L 26.008733494233475 185.86130477659464 L 26.759530401363506 186.3629712313548 L 27.468652555797178 186.92199806226637 L 28.131727983645362 187.53493868302144 L 28.744668604400417 188.19801411086962 L 29.303695435311955 188.9071362653033 L 29.805361890072113 189.65793317243333 L 30.24657502816628 190.44577591966197 L 30.624614623879843 191.26580719446824 L 30.937149937394302 192.11297123135486 L 31.18225408457331 192.98204498232386 L 31.358415916844105 193.86767031870414 L 31.464549337930983 194.76438706579657 Z" fill-opacity="0.9"/><text fill="rgb(19,0,71)" stroke="none" font-family="Assistant-SemiBold, sans-serif" font-size="14px" font-style="normal" font-weight="500" text-decoration="normal" x="35.25" y="202.66666666666666" text-anchor="start" dominant-baseline="text-after-edge" fill-opacity="0.9">Misinformation</text><path fill="rgb(0,172,241)" stroke="none" paint-order="stroke fill markers" d=" M 87.50000000000003 425.5 L 87.464549337931 426.4022796008702 L 87.35841591684411 427.29899634796266 L 87.18225408457332 428.1846216843429 L 86.9371499373943 429.0536954353119 L 86.62461462387982 429.90085947219853 L 86.24657502816626 430.7208907470048 L 85.80536189007209 431.5087334942334 L 85.30369543531192 432.25953040136346 L 84.74466860440039 432.9686525557971 L 84.13172798364532 433.6317279836453 L 83.46865255579714 434.2446686044004 L 82.75953040136346 434.8036954353119 L 82.00873349423344 435.30536189007205 L 81.22089074700482 435.7465750281662 L 80.40085947219856 436.1246146238798 L 79.55369543531192 436.4371499373943 L 78.68462168434294 436.6822540845733 L 77.79899634796269 436.8584159168441 L 76.90227960087024 436.964549337931 L 76.00000000000003 437 L 75.09772039912981 436.964549337931 L 74.20100365203737 436.8584159168441 L 73.31537831565711 436.6822540845733 L 72.44630456468813 436.4371499373943 L 71.5991405278015 436.1246146238798 L 70.77910925299524 435.7465750281662 L 69.99126650576662 435.30536189007205 L 69.2404695986366 434.8036954353119 L 68.53134744420292 434.2446686044004 L 67.86827201635474 433.6317279836453 L 67.25533139559967 432.9686525557971 L 66.69630456468813 432.25953040136346 L 66.19463810992796 431.5087334942334 L 65.7534249718338 430.7208907470048 L 65.37538537612024 429.90085947219853 L 65.06285006260576 429.0536954353119 L 64.81774591542674 428.1846216843429 L 64.64158408315595 427.29899634796266 L 64.53545066206905 426.4022796008702 L 64.50000000000003 425.5 L 64.53545066206905 424.5977203991298 L 64.64158408315595 423.70100365203734 L 64.81774591542674 422.8153783156571 L 65.06285006260576 421.9463045646881 L 65.37538537612024 421.09914052780147 L 65.7534249718338 420.2791092529952 L 66.19463810992796 419.4912665057666 L 66.69630456468813 418.74046959863654 L 67.25533139559967 418.0313474442029 L 67.86827201635472 417.3682720163547 L 68.53134744420291 416.7553313955996 L 69.24046959863658 416.1963045646881 L 69.99126650576662 415.69463810992795 L 70.77910925299526 415.25342497183374 L 71.59914052780151 414.8753853761202 L 72.44630456468815 414.5628500626057 L 73.31537831565714 414.3177459154267 L 74.2010036520374 414.1415840831559 L 75.09772039912984 414.035450662069 L 76.00000000000007 414 L 76.90227960087029 414.035450662069 L 77.79899634796273 414.1415840831559 L 78.684621684343 414.3177459154267 L 79.55369543531198 414.5628500626058 L 80.40085947219862 414.8753853761202 L 81.22089074700487 415.2534249718338 L 82.0087334942335 415.69463810992795 L 82.75953040136353 416.19630456468815 L 83.4686525557972 416.7553313955997 L 84.13172798364539 417.36827201635475 L 84.74466860440045 418.03134744420294 L 85.30369543531198 418.74046959863665 L 85.80536189007215 419.4912665057667 L 86.2465750281663 420.2791092529953 L 86.62461462387986 421.0991405278016 L 86.93714993739434 421.9463045646882 L 87.18225408457334 422.8153783156572 L 87.35841591684414 423.70100365203746 L 87.464549337931 424.5977203991299 Z" fill-opacity="0.9"/><text fill="rgb(19,0,71)" stroke="none" font-family="Assistant-SemiBold, sans-serif" font-size="14px" font-style="normal" font-weight="500" text-decoration="normal" x="91.25000000000003" y="432.5" text-anchor="start" dominant-baseline="text-after-edge" fill-opacity="0.9">Cyber</text><g transform="scale(0.4472762789326257,0.4472762789326257) translate(-505.5141532255592,5.711177948992599)"/></g></svg>